M48
;GenerationSoftware,Autodesk,EAGLE,9.6.1*%
;CreationDate,2020-05-05T00:36:48Z*%
FMAT,2
ICI,OFF
METRIC,TZ,000.000
T5C0.300
T4C0.600
T3C0.889
T2C1.016
T1C3.200
%
G90
M71
T1
X96520Y2540
X15240Y50800
X13970Y2540
X66040Y35560
X66040Y7620
X90170Y50800
T2
X96520Y25400
X71090Y47586
X68550Y47586
X76200Y2540
X78740Y2540
X81280Y2540
X83820Y2540
X86360Y2540
X88900Y2540
X91440Y2540
X73660Y2540
X71120Y50800
X73660Y50800
X76200Y50800
X78740Y50800
X81280Y50800
X83820Y50800
X86360Y50800
X68580Y50800
X53340Y2540
X55880Y2540
X58420Y2540
X60960Y2540
X63500Y2540
X66040Y2540
X68580Y2540
X50800Y2540
X48260Y50800
X50800Y50800
X53340Y50800
X55880Y50800
X58420Y50800
X60960Y50800
X63500Y50800
X45720Y50800
X26416Y50800
X28956Y50800
X31496Y50800
X34036Y50800
X36576Y50800
X39116Y50800
X41656Y50800
X23876Y50800
X96520Y30480
X93980Y30480
X96520Y33020
X93980Y33020
X96520Y35560
X93980Y35560
X96520Y38100
X93980Y38100
X96520Y40640
X93980Y40640
X96520Y43180
X93980Y43180
X96520Y45720
X93980Y45720
X96520Y48260
X93980Y48260
X96520Y10160
X93980Y10160
X96520Y12700
X93980Y12700
X96520Y15240
X93980Y15240
X96520Y17780
X93980Y17780
X96520Y20320
X93980Y20320
X96520Y22860
X93980Y22860
X93980Y25400
X96520Y27940
X93980Y27940
X93980Y7620
X96520Y7620
X93980Y50800
X96520Y50800
X33020Y2540
X35560Y2540
X38100Y2540
X40640Y2540
X43180Y2540
X45720Y2540
X21336Y50800
X18796Y50800
X30480Y2540
X27940Y2540
X6360Y49130
X6360Y51670
X8900Y49130
X8900Y51670
X11440Y49130
X11440Y51670
X19990Y13144
X19990Y10604
X17450Y13144
X17450Y10604
X14910Y13144
X14910Y10604
X12370Y13144
X12370Y10604
X9830Y13144
X9830Y10604
X7290Y13144
X7290Y10604
X4750Y13144
X4750Y10604
X2210Y13144
X2210Y10604
X73630Y47586
T3
X7299Y4650
X4301Y4650
T4
X5090Y37190
X12710Y37190
X12710Y44810
X5090Y44810
T5
X59742Y22306
X75650Y34248
X58400Y37300
X57594Y43544
X43250Y37350
X42513Y44162
X63350Y24850
X74450Y34900
X60650Y38800
X60950Y43500
X45450Y38750
X45050Y43044
X63900Y25350
X75500Y35494
X43800Y38700
X42900Y43550
X59200Y38750
X58300Y43350
X61900Y25650
X37389Y27961
X48277Y28823
X48950Y19200
X58200Y25400
X61850Y27050
X59274Y19724
X37489Y28810
X48144Y29680
X48395Y19750
X58558Y19725
X55044Y25816
X57500Y25849
X38538Y27110
X45014Y26894
X47850Y20237
X56850Y23150
X58549Y19019
X39050Y27622
X44819Y27600
X47307Y20743
X56300Y22550
X57843Y19010
X39745Y27279
X43906Y26700
X46750Y21185
X55800Y22000
X57834Y18304
X40361Y26900
X42775Y26800
X44750Y21290
X55300Y21250
X57128Y18295
X19498Y20402
X39500Y23254
X43700Y22500
X54200Y20150
X56413Y17580
X29350Y17400
X34750Y5650
X34600Y6950
X34050Y8250
X31050Y11800
X34300Y5000
X34200Y6300
X29650Y9750
X31150Y8900
X35650Y16150
X31100Y16800
X30788Y18144
X35500Y14900
X34750Y16200
X31150Y17506
X30082Y18168
X74500Y36000
X61150Y26006
X74000Y44000
X44900Y40701
X60144Y40701
X21976Y35680
X53250Y9150
X21306Y35350
X42400Y12900
X49450Y11750
X53500Y16950
X29000Y7500
X37206Y13900
X45600Y14950
X50900Y12400
X17650Y26900
X47100Y27450
X18350Y27000
X62350Y27750
X17500Y24650
X43300Y13150
X16750Y25500
X47200Y11400
X20006Y41493
X20511Y39450
X74600Y22694
X32900Y22211
X39022Y19293
X39650Y28000
X38100Y30295
X60817Y16183
X55100Y29550
X54275Y30275
X19500Y41000
X4450Y26550
X19500Y42000
X4450Y30050
X19500Y43000
X5000Y33600
X19500Y44000
X5000Y38500
X19500Y45000
X4900Y40650
X19500Y39000
X4500Y19500
X19500Y40000
X4450Y23050
X42150Y12050
X12000Y18581
X14250Y26750
X87650Y10700
X87700Y21899
X87700Y42718
X87600Y31504
X38000Y13000
X73350Y43600
X39300Y35900
X44550Y35900
X44400Y34500
X45300Y33100
X46400Y31700
X45500Y20500
X45200Y22850
X47650Y24900
X50650Y29400
X59100Y30100
X73500Y21700
X92200Y21150
X74400Y31350
X92100Y30550
X92100Y42150
X74750Y42550
X16650Y44850
X18850Y36600
X33350Y30350
X33000Y35950
X48000Y6500
X43600Y27800
X23350Y27800
X21950Y22750
X22500Y33450
X10450Y37200
X21250Y18300
X72600Y10650
X92400Y10700
X20700Y27250
X27550Y12400
X79200Y10700
X51100Y9200
X82500Y23500
X85000Y28000
X85000Y37500
X85000Y47450
X56403Y16500
X85000Y32000
X85000Y43500
X85000Y16500
X29650Y13550
X34050Y4050
X81950Y42700
X16650Y26250
X44300Y14400
X48500Y15500
X49650Y14300
X73650Y20550
X32750Y21505
X38772Y20043
X60250Y16650
X19550Y19000
X41302Y18502
X43865Y21300
X54750Y20750
X57119Y17589
X79250Y23200
X39350Y30300
X39250Y28950
X53350Y30200
X54600Y28950
X33147Y22913
X39806Y19987
X61150Y16900
X74650Y23794
X43350Y31640
X39878Y43378
X55300Y31740
X55000Y42900
X36753Y31697
X41100Y26600
X61200Y17650
X75750Y24500
X34865Y8185
X44150Y31800
X40394Y43861
X56250Y31750
X55450Y43450
X61800Y18200
X74600Y25294
X41194Y33091
X40987Y43456
X56694Y33140
X56674Y40744
X61630Y19420
X75750Y25800
X41900Y33100
X41092Y44162
X57400Y33100
X56181Y43544
X62456Y19676
X74550Y26450
X42750Y34450
X41798Y44162
X58050Y34540
X56887Y43500
X65049Y22751
X74500Y30500
X61300Y34550
X61656Y43480
X45950Y34750
X45900Y43500
X64043Y23000
X74450Y32294
X46500Y35650
X46944Y43544
X61672Y35872
X62435Y43544
X61100Y20450
X79200Y32800
X62380Y35880
X62900Y27200
X47550Y36150
X48074Y27906
X60200Y21600
X74500Y33450
X62400Y37250
X63150Y43544
X47000Y37350
X47650Y43500
M30