M48
;GenerationSoftware,Autodesk,EAGLE,9.6.0*%
;CreationDate,2020-04-10T03:16:27Z*%
FMAT,2
ICI,OFF
METRIC,TZ,000.000
T6C0.300
T5C0.508
T4C0.600
T3C0.889
T2C1.016
T1C3.200
%
G90
M71
T1
X15240Y50800
X90170Y50800
X66040Y7620
X66040Y35560
X13970Y2540
X96520Y2540
T2
X26416Y50800
X45720Y50800
X63500Y50800
X60960Y50800
X58420Y50800
X55880Y50800
X53340Y50800
X50800Y50800
X48260Y50800
X50800Y2540
X68580Y2540
X66040Y2540
X63500Y2540
X60960Y2540
X58420Y2540
X55880Y2540
X53340Y2540
X68580Y50800
X86360Y50800
X83820Y50800
X81280Y50800
X78740Y50800
X76200Y50800
X73660Y50800
X71120Y50800
X73660Y2540
X91440Y2540
X88900Y2540
X81240Y8400
X78700Y8400
X76160Y8400
X68410Y45030
X68410Y47570
X70950Y45030
X70950Y47570
X73490Y45030
X86360Y2540
X83820Y2540
X81280Y2540
X78740Y2540
X96520Y7620
X76200Y2540
X31496Y50800
X28956Y50800
X73490Y47570
X76030Y45030
X76030Y47570
X78570Y45030
X78570Y47570
X81110Y45030
X81110Y47570
X83650Y45030
X83650Y47570
X86190Y45030
X86190Y47570
X43180Y2540
X10240Y12670
X10240Y10130
X7700Y12670
X7700Y10130
X5160Y12670
X5160Y10130
X27940Y2540
X30480Y2540
X18796Y50800
X21336Y50800
X45720Y2540
X40640Y2540
X38100Y2540
X35560Y2540
X33020Y2540
X96520Y50800
X93980Y50800
X93980Y7620
X93980Y27940
X96520Y27940
X93980Y25400
X96520Y25400
X93980Y22860
X96520Y22860
X93980Y20320
X96520Y20320
X93980Y17780
X96520Y17780
X93980Y15240
X96520Y15240
X93980Y12700
X96520Y12700
X93980Y10160
X96520Y10160
X93980Y48260
X96520Y48260
X93980Y45720
X96520Y45720
X93980Y43180
X96520Y43180
X93980Y40640
X96520Y40640
X93980Y38100
X96520Y38100
X93980Y35560
X96520Y35560
X93980Y33020
X96520Y33020
X93980Y30480
X96520Y30480
X23876Y50800
X41656Y50800
X39116Y50800
X36576Y50800
X34036Y50800
T3
X3650Y48699
X3650Y45701
T4
X22690Y15310
X30310Y7690
X30310Y15310
X22690Y7690
T5
X23400Y6200
X2800Y13800
X4500Y15900
X48900Y6400
X48900Y9300
X52000Y9800
X52000Y12500
X17813Y23500
X56700Y35200
X21200Y17700
X66500Y30300
X73000Y37700
X41600Y30300
X85100Y35300
X41500Y27700
X48800Y27700
X90400Y46600
X63600Y34400
X2000Y25600
X2000Y27500
X74190Y27887
X79900Y27887
X56700Y27700
X82100Y22687
X79900Y22687
T6
X11700Y11300
X9800Y26100
X9600Y31000
X26300Y27700
X13600Y21700
X84700Y27700
X83000Y25300
X74300Y7000
X71200Y35100
X89400Y35300
X89500Y37800
X77600Y32900
X4500Y34900
X34300Y7800
X79900Y6300
X10400Y22600
X14000Y8100
X22800Y40600
X17200Y21800
X74500Y41000
X71200Y4000
X15800Y9300
X16250Y22550
X66500Y42700
X61500Y42600
X20500Y11350
X67500Y9800
X86500Y9400
X26050Y22150
X23600Y11700
X18600Y37900
X36800Y22700
X41900Y9000
X17400Y37900
X15700Y12400
X83500Y5200
X23100Y44000
X7900Y37500
X21900Y44300
X9700Y37100
X20400Y43100
X8300Y32000
X17800Y12000
X61800Y8800
X85000Y48400
X9600Y15200
X4100Y25800
X19000Y7100
X17300Y8400
X3400Y24000
X88500Y48200
X13700Y10800
X23600Y23300
X31200Y22200
X44900Y22300
X72400Y22500
X91200Y22500
X34900Y40900
X48800Y41000
X50850Y40150
X37300Y40200
X21700Y37200
X64000Y40100
X17800Y32500
X82900Y41000
X80700Y41000
X78500Y41000
X76300Y41000
X84000Y41000
X81800Y41000
X79600Y41000
X77400Y41000
X85700Y10400
X59300Y9900
X44600Y10300
X30000Y11200
X17200Y16950
X84100Y13200
X57900Y12800
X46900Y13200
X33500Y13200
X19100Y16800
X82500Y14700
X58000Y15000
X47800Y14800
X34000Y14800
X20650Y16400
X56900Y15800
X81700Y15700
X48500Y15700
X35200Y15300
X19700Y20800
X81000Y17400
X58200Y17550
X48900Y17400
X35500Y17500
X20800Y19800
X80100Y18000
X37800Y17700
X23500Y20000
X77100Y19700
X54900Y19800
X38600Y19800
X23600Y21700
X62600Y38000
X46600Y38100
X32900Y37900
X23700Y38500
X69000Y37900
X49000Y37400
X35300Y37400
X17800Y31400
X68800Y36000
X45950Y35700
X32500Y35700
X18800Y30900
X69800Y34800
X49900Y35100
X35900Y35100
X18800Y29700
X69600Y33200
X53000Y33000
X39700Y33300
X18800Y28600
X70400Y32200
X51900Y32300
X38400Y32300
X24500Y32400
X49200Y30700
X70800Y30700
X35700Y30500
X18800Y27500
X72000Y29800
X46200Y29900
X32600Y29900
X24600Y29800
X71900Y28000
X45800Y28000
X49600Y18300
X32300Y28100
X19200Y26500
X73300Y27200
X45000Y27300
X31500Y27400
X24800Y27050
X73800Y25700
X45400Y25500
X31300Y25600
X18500Y24500
X84900Y24800
X75300Y25000
X44000Y25300
X30200Y25400
X23700Y25200
X85900Y23000
X76000Y23000
X44000Y22800
X30150Y23750
X19900Y24100
X32400Y12600
X84900Y11800
X58798Y12100
X46300Y11700
X18200Y16200
X69900Y20300
X42500Y19800
X19700Y22500
X28000Y20400
X98200Y6300
X82600Y5800
X63300Y6600
X15600Y13700
X64200Y15200
X58300Y22500
X67000Y20000
X68200Y17700
X68400Y15200
X79100Y12500
X88400Y15300
X88400Y12500
M30