G04 EAGLE Gerber RS-274X export*
G75*
%MOMM*%
%FSLAX34Y34*%
%LPD*%
%IN*%
%IPPOS*%
%AMOC8*
5,1,8,0,0,1.08239X$1,22.5*%
G01*
%ADD10C,0.254000*%


D10*
X0Y0D02*
X990600Y0D01*
X990600Y12700D01*
X1016000Y38100D01*
X1016000Y381000D01*
X990600Y406400D01*
X990600Y508000D01*
X965200Y533400D01*
X0Y533400D01*
X0Y0D01*
X168400Y507476D02*
X168332Y506431D01*
X168195Y505392D01*
X167990Y504365D01*
X167719Y503353D01*
X167383Y502361D01*
X166982Y501393D01*
X166518Y500454D01*
X165995Y499546D01*
X165413Y498675D01*
X164775Y497844D01*
X164084Y497057D01*
X163343Y496316D01*
X162556Y495625D01*
X161725Y494988D01*
X160854Y494406D01*
X159946Y493882D01*
X159007Y493418D01*
X158039Y493017D01*
X157047Y492681D01*
X156035Y492410D01*
X155008Y492205D01*
X153969Y492069D01*
X152924Y492000D01*
X151876Y492000D01*
X150831Y492069D01*
X149792Y492205D01*
X148765Y492410D01*
X147753Y492681D01*
X146761Y493017D01*
X145793Y493418D01*
X144854Y493882D01*
X143946Y494406D01*
X143075Y494988D01*
X142244Y495625D01*
X141457Y496316D01*
X140716Y497057D01*
X140025Y497844D01*
X139388Y498675D01*
X138806Y499546D01*
X138282Y500454D01*
X137818Y501393D01*
X137417Y502361D01*
X137081Y503353D01*
X136810Y504365D01*
X136605Y505392D01*
X136469Y506431D01*
X136400Y507476D01*
X136400Y508524D01*
X136469Y509569D01*
X136605Y510608D01*
X136810Y511635D01*
X137081Y512647D01*
X137417Y513639D01*
X137818Y514607D01*
X138282Y515546D01*
X138806Y516454D01*
X139388Y517325D01*
X140025Y518156D01*
X140716Y518943D01*
X141457Y519684D01*
X142244Y520375D01*
X143075Y521013D01*
X143946Y521595D01*
X144854Y522118D01*
X145793Y522582D01*
X146761Y522983D01*
X147753Y523319D01*
X148765Y523590D01*
X149792Y523795D01*
X150831Y523932D01*
X151876Y524000D01*
X152924Y524000D01*
X153969Y523932D01*
X155008Y523795D01*
X156035Y523590D01*
X157047Y523319D01*
X158039Y522983D01*
X159007Y522582D01*
X159946Y522118D01*
X160854Y521595D01*
X161725Y521013D01*
X162556Y520375D01*
X163343Y519684D01*
X164084Y518943D01*
X164775Y518156D01*
X165413Y517325D01*
X165995Y516454D01*
X166518Y515546D01*
X166982Y514607D01*
X167383Y513639D01*
X167719Y512647D01*
X167990Y511635D01*
X168195Y510608D01*
X168332Y509569D01*
X168400Y508524D01*
X168400Y507476D01*
X155700Y24876D02*
X155632Y23831D01*
X155495Y22792D01*
X155290Y21765D01*
X155019Y20753D01*
X154683Y19761D01*
X154282Y18793D01*
X153818Y17854D01*
X153295Y16946D01*
X152713Y16075D01*
X152075Y15244D01*
X151384Y14457D01*
X150643Y13716D01*
X149856Y13025D01*
X149025Y12388D01*
X148154Y11806D01*
X147246Y11282D01*
X146307Y10818D01*
X145339Y10417D01*
X144347Y10081D01*
X143335Y9810D01*
X142308Y9605D01*
X141269Y9469D01*
X140224Y9400D01*
X139176Y9400D01*
X138131Y9469D01*
X137092Y9605D01*
X136065Y9810D01*
X135053Y10081D01*
X134061Y10417D01*
X133093Y10818D01*
X132154Y11282D01*
X131246Y11806D01*
X130375Y12388D01*
X129544Y13025D01*
X128757Y13716D01*
X128016Y14457D01*
X127325Y15244D01*
X126688Y16075D01*
X126106Y16946D01*
X125582Y17854D01*
X125118Y18793D01*
X124717Y19761D01*
X124381Y20753D01*
X124110Y21765D01*
X123905Y22792D01*
X123769Y23831D01*
X123700Y24876D01*
X123700Y25924D01*
X123769Y26969D01*
X123905Y28008D01*
X124110Y29035D01*
X124381Y30047D01*
X124717Y31039D01*
X125118Y32007D01*
X125582Y32946D01*
X126106Y33854D01*
X126688Y34725D01*
X127325Y35556D01*
X128016Y36343D01*
X128757Y37084D01*
X129544Y37775D01*
X130375Y38413D01*
X131246Y38995D01*
X132154Y39518D01*
X133093Y39982D01*
X134061Y40383D01*
X135053Y40719D01*
X136065Y40990D01*
X137092Y41195D01*
X138131Y41332D01*
X139176Y41400D01*
X140224Y41400D01*
X141269Y41332D01*
X142308Y41195D01*
X143335Y40990D01*
X144347Y40719D01*
X145339Y40383D01*
X146307Y39982D01*
X147246Y39518D01*
X148154Y38995D01*
X149025Y38413D01*
X149856Y37775D01*
X150643Y37084D01*
X151384Y36343D01*
X152075Y35556D01*
X152713Y34725D01*
X153295Y33854D01*
X153818Y32946D01*
X154282Y32007D01*
X154683Y31039D01*
X155019Y30047D01*
X155290Y29035D01*
X155495Y28008D01*
X155632Y26969D01*
X155700Y25924D01*
X155700Y24876D01*
X676400Y355076D02*
X676332Y354031D01*
X676195Y352992D01*
X675990Y351965D01*
X675719Y350953D01*
X675383Y349961D01*
X674982Y348993D01*
X674518Y348054D01*
X673995Y347146D01*
X673413Y346275D01*
X672775Y345444D01*
X672084Y344657D01*
X671343Y343916D01*
X670556Y343225D01*
X669725Y342588D01*
X668854Y342006D01*
X667946Y341482D01*
X667007Y341018D01*
X666039Y340617D01*
X665047Y340281D01*
X664035Y340010D01*
X663008Y339805D01*
X661969Y339669D01*
X660924Y339600D01*
X659876Y339600D01*
X658831Y339669D01*
X657792Y339805D01*
X656765Y340010D01*
X655753Y340281D01*
X654761Y340617D01*
X653793Y341018D01*
X652854Y341482D01*
X651946Y342006D01*
X651075Y342588D01*
X650244Y343225D01*
X649457Y343916D01*
X648716Y344657D01*
X648025Y345444D01*
X647388Y346275D01*
X646806Y347146D01*
X646282Y348054D01*
X645818Y348993D01*
X645417Y349961D01*
X645081Y350953D01*
X644810Y351965D01*
X644605Y352992D01*
X644469Y354031D01*
X644400Y355076D01*
X644400Y356124D01*
X644469Y357169D01*
X644605Y358208D01*
X644810Y359235D01*
X645081Y360247D01*
X645417Y361239D01*
X645818Y362207D01*
X646282Y363146D01*
X646806Y364054D01*
X647388Y364925D01*
X648025Y365756D01*
X648716Y366543D01*
X649457Y367284D01*
X650244Y367975D01*
X651075Y368613D01*
X651946Y369195D01*
X652854Y369718D01*
X653793Y370182D01*
X654761Y370583D01*
X655753Y370919D01*
X656765Y371190D01*
X657792Y371395D01*
X658831Y371532D01*
X659876Y371600D01*
X660924Y371600D01*
X661969Y371532D01*
X663008Y371395D01*
X664035Y371190D01*
X665047Y370919D01*
X666039Y370583D01*
X667007Y370182D01*
X667946Y369718D01*
X668854Y369195D01*
X669725Y368613D01*
X670556Y367975D01*
X671343Y367284D01*
X672084Y366543D01*
X672775Y365756D01*
X673413Y364925D01*
X673995Y364054D01*
X674518Y363146D01*
X674982Y362207D01*
X675383Y361239D01*
X675719Y360247D01*
X675990Y359235D01*
X676195Y358208D01*
X676332Y357169D01*
X676400Y356124D01*
X676400Y355076D01*
X676400Y75676D02*
X676332Y74631D01*
X676195Y73592D01*
X675990Y72565D01*
X675719Y71553D01*
X675383Y70561D01*
X674982Y69593D01*
X674518Y68654D01*
X673995Y67746D01*
X673413Y66875D01*
X672775Y66044D01*
X672084Y65257D01*
X671343Y64516D01*
X670556Y63825D01*
X669725Y63188D01*
X668854Y62606D01*
X667946Y62082D01*
X667007Y61618D01*
X666039Y61217D01*
X665047Y60881D01*
X664035Y60610D01*
X663008Y60405D01*
X661969Y60269D01*
X660924Y60200D01*
X659876Y60200D01*
X658831Y60269D01*
X657792Y60405D01*
X656765Y60610D01*
X655753Y60881D01*
X654761Y61217D01*
X653793Y61618D01*
X652854Y62082D01*
X651946Y62606D01*
X651075Y63188D01*
X650244Y63825D01*
X649457Y64516D01*
X648716Y65257D01*
X648025Y66044D01*
X647388Y66875D01*
X646806Y67746D01*
X646282Y68654D01*
X645818Y69593D01*
X645417Y70561D01*
X645081Y71553D01*
X644810Y72565D01*
X644605Y73592D01*
X644469Y74631D01*
X644400Y75676D01*
X644400Y76724D01*
X644469Y77769D01*
X644605Y78808D01*
X644810Y79835D01*
X645081Y80847D01*
X645417Y81839D01*
X645818Y82807D01*
X646282Y83746D01*
X646806Y84654D01*
X647388Y85525D01*
X648025Y86356D01*
X648716Y87143D01*
X649457Y87884D01*
X650244Y88575D01*
X651075Y89213D01*
X651946Y89795D01*
X652854Y90318D01*
X653793Y90782D01*
X654761Y91183D01*
X655753Y91519D01*
X656765Y91790D01*
X657792Y91995D01*
X658831Y92132D01*
X659876Y92200D01*
X660924Y92200D01*
X661969Y92132D01*
X663008Y91995D01*
X664035Y91790D01*
X665047Y91519D01*
X666039Y91183D01*
X667007Y90782D01*
X667946Y90318D01*
X668854Y89795D01*
X669725Y89213D01*
X670556Y88575D01*
X671343Y87884D01*
X672084Y87143D01*
X672775Y86356D01*
X673413Y85525D01*
X673995Y84654D01*
X674518Y83746D01*
X674982Y82807D01*
X675383Y81839D01*
X675719Y80847D01*
X675990Y79835D01*
X676195Y78808D01*
X676332Y77769D01*
X676400Y76724D01*
X676400Y75676D01*
X917700Y507476D02*
X917632Y506431D01*
X917495Y505392D01*
X917290Y504365D01*
X917019Y503353D01*
X916683Y502361D01*
X916282Y501393D01*
X915818Y500454D01*
X915295Y499546D01*
X914713Y498675D01*
X914075Y497844D01*
X913384Y497057D01*
X912643Y496316D01*
X911856Y495625D01*
X911025Y494988D01*
X910154Y494406D01*
X909246Y493882D01*
X908307Y493418D01*
X907339Y493017D01*
X906347Y492681D01*
X905335Y492410D01*
X904308Y492205D01*
X903269Y492069D01*
X902224Y492000D01*
X901176Y492000D01*
X900131Y492069D01*
X899092Y492205D01*
X898065Y492410D01*
X897053Y492681D01*
X896061Y493017D01*
X895093Y493418D01*
X894154Y493882D01*
X893246Y494406D01*
X892375Y494988D01*
X891544Y495625D01*
X890757Y496316D01*
X890016Y497057D01*
X889325Y497844D01*
X888688Y498675D01*
X888106Y499546D01*
X887582Y500454D01*
X887118Y501393D01*
X886717Y502361D01*
X886381Y503353D01*
X886110Y504365D01*
X885905Y505392D01*
X885769Y506431D01*
X885700Y507476D01*
X885700Y508524D01*
X885769Y509569D01*
X885905Y510608D01*
X886110Y511635D01*
X886381Y512647D01*
X886717Y513639D01*
X887118Y514607D01*
X887582Y515546D01*
X888106Y516454D01*
X888688Y517325D01*
X889325Y518156D01*
X890016Y518943D01*
X890757Y519684D01*
X891544Y520375D01*
X892375Y521013D01*
X893246Y521595D01*
X894154Y522118D01*
X895093Y522582D01*
X896061Y522983D01*
X897053Y523319D01*
X898065Y523590D01*
X899092Y523795D01*
X900131Y523932D01*
X901176Y524000D01*
X902224Y524000D01*
X903269Y523932D01*
X904308Y523795D01*
X905335Y523590D01*
X906347Y523319D01*
X907339Y522983D01*
X908307Y522582D01*
X909246Y522118D01*
X910154Y521595D01*
X911025Y521013D01*
X911856Y520375D01*
X912643Y519684D01*
X913384Y518943D01*
X914075Y518156D01*
X914713Y517325D01*
X915295Y516454D01*
X915818Y515546D01*
X916282Y514607D01*
X916683Y513639D01*
X917019Y512647D01*
X917290Y511635D01*
X917495Y510608D01*
X917632Y509569D01*
X917700Y508524D01*
X917700Y507476D01*
X981200Y24876D02*
X981132Y23831D01*
X980995Y22792D01*
X980790Y21765D01*
X980519Y20753D01*
X980183Y19761D01*
X979782Y18793D01*
X979318Y17854D01*
X978795Y16946D01*
X978213Y16075D01*
X977575Y15244D01*
X976884Y14457D01*
X976143Y13716D01*
X975356Y13025D01*
X974525Y12388D01*
X973654Y11806D01*
X972746Y11282D01*
X971807Y10818D01*
X970839Y10417D01*
X969847Y10081D01*
X968835Y9810D01*
X967808Y9605D01*
X966769Y9469D01*
X965724Y9400D01*
X964676Y9400D01*
X963631Y9469D01*
X962592Y9605D01*
X961565Y9810D01*
X960553Y10081D01*
X959561Y10417D01*
X958593Y10818D01*
X957654Y11282D01*
X956746Y11806D01*
X955875Y12388D01*
X955044Y13025D01*
X954257Y13716D01*
X953516Y14457D01*
X952825Y15244D01*
X952188Y16075D01*
X951606Y16946D01*
X951082Y17854D01*
X950618Y18793D01*
X950217Y19761D01*
X949881Y20753D01*
X949610Y21765D01*
X949405Y22792D01*
X949269Y23831D01*
X949200Y24876D01*
X949200Y25924D01*
X949269Y26969D01*
X949405Y28008D01*
X949610Y29035D01*
X949881Y30047D01*
X950217Y31039D01*
X950618Y32007D01*
X951082Y32946D01*
X951606Y33854D01*
X952188Y34725D01*
X952825Y35556D01*
X953516Y36343D01*
X954257Y37084D01*
X955044Y37775D01*
X955875Y38413D01*
X956746Y38995D01*
X957654Y39518D01*
X958593Y39982D01*
X959561Y40383D01*
X960553Y40719D01*
X961565Y40990D01*
X962592Y41195D01*
X963631Y41332D01*
X964676Y41400D01*
X965724Y41400D01*
X966769Y41332D01*
X967808Y41195D01*
X968835Y40990D01*
X969847Y40719D01*
X970839Y40383D01*
X971807Y39982D01*
X972746Y39518D01*
X973654Y38995D01*
X974525Y38413D01*
X975356Y37775D01*
X976143Y37084D01*
X976884Y36343D01*
X977575Y35556D01*
X978213Y34725D01*
X978795Y33854D01*
X979318Y32946D01*
X979782Y32007D01*
X980183Y31039D01*
X980519Y30047D01*
X980790Y29035D01*
X980995Y28008D01*
X981132Y26969D01*
X981200Y25924D01*
X981200Y24876D01*
X36209Y452569D02*
X35631Y452645D01*
X35068Y452796D01*
X34530Y453019D01*
X34025Y453310D01*
X33563Y453665D01*
X33151Y454077D01*
X32796Y454539D01*
X32505Y455044D01*
X32282Y455582D01*
X32131Y456145D01*
X32055Y456723D01*
X32055Y457305D01*
X32131Y457883D01*
X32282Y458446D01*
X32505Y458984D01*
X32796Y459489D01*
X33151Y459951D01*
X33563Y460363D01*
X34025Y460718D01*
X34530Y461009D01*
X35068Y461232D01*
X35631Y461383D01*
X36209Y461459D01*
X36791Y461459D01*
X37369Y461383D01*
X37932Y461232D01*
X38470Y461009D01*
X38975Y460718D01*
X39437Y460363D01*
X39849Y459951D01*
X40204Y459489D01*
X40495Y458984D01*
X40718Y458446D01*
X40869Y457883D01*
X40945Y457305D01*
X40945Y456723D01*
X40869Y456145D01*
X40718Y455582D01*
X40495Y455044D01*
X40204Y454539D01*
X39849Y454077D01*
X39437Y453665D01*
X38975Y453310D01*
X38470Y453019D01*
X37932Y452796D01*
X37369Y452645D01*
X36791Y452569D01*
X36209Y452569D01*
X36209Y482541D02*
X35631Y482617D01*
X35068Y482768D01*
X34530Y482991D01*
X34025Y483282D01*
X33563Y483637D01*
X33151Y484049D01*
X32796Y484511D01*
X32505Y485016D01*
X32282Y485554D01*
X32131Y486117D01*
X32055Y486695D01*
X32055Y487277D01*
X32131Y487855D01*
X32282Y488418D01*
X32505Y488956D01*
X32796Y489461D01*
X33151Y489923D01*
X33563Y490335D01*
X34025Y490690D01*
X34530Y490981D01*
X35068Y491204D01*
X35631Y491355D01*
X36209Y491431D01*
X36791Y491431D01*
X37369Y491355D01*
X37932Y491204D01*
X38470Y490981D01*
X38975Y490690D01*
X39437Y490335D01*
X39849Y489923D01*
X40204Y489461D01*
X40495Y488956D01*
X40718Y488418D01*
X40869Y487855D01*
X40945Y487277D01*
X40945Y486695D01*
X40869Y486117D01*
X40718Y485554D01*
X40495Y485016D01*
X40204Y484511D01*
X39849Y484049D01*
X39437Y483637D01*
X38975Y483282D01*
X38470Y482991D01*
X37932Y482768D01*
X37369Y482617D01*
X36791Y482541D01*
X36209Y482541D01*
M02*
