G04 EAGLE Gerber RS-274X export*
G75*
%MOMM*%
%FSLAX34Y34*%
%LPD*%
%INSilkscreen Bottom*%
%IPPOS*%
%AMOC8*
5,1,8,0,0,1.08239X$1,22.5*%
G01*
%ADD10C,0.152400*%


D10*
X108095Y516704D02*
X105216Y516704D01*
X105130Y516702D01*
X105044Y516696D01*
X104958Y516687D01*
X104873Y516673D01*
X104789Y516656D01*
X104705Y516635D01*
X104623Y516610D01*
X104542Y516582D01*
X104462Y516550D01*
X104383Y516514D01*
X104307Y516475D01*
X104232Y516432D01*
X104159Y516387D01*
X104088Y516338D01*
X104020Y516285D01*
X103953Y516230D01*
X103890Y516172D01*
X103829Y516111D01*
X103771Y516048D01*
X103716Y515981D01*
X103664Y515913D01*
X103614Y515842D01*
X103569Y515769D01*
X103526Y515694D01*
X103487Y515618D01*
X103451Y515539D01*
X103419Y515459D01*
X103391Y515378D01*
X103366Y515296D01*
X103345Y515212D01*
X103328Y515128D01*
X103314Y515043D01*
X103305Y514957D01*
X103299Y514871D01*
X103297Y514785D01*
X103297Y514305D01*
X103299Y514208D01*
X103305Y514112D01*
X103314Y514016D01*
X103328Y513920D01*
X103345Y513825D01*
X103367Y513731D01*
X103392Y513638D01*
X103420Y513545D01*
X103453Y513454D01*
X103489Y513365D01*
X103529Y513277D01*
X103572Y513190D01*
X103618Y513106D01*
X103668Y513023D01*
X103722Y512942D01*
X103778Y512864D01*
X103838Y512788D01*
X103900Y512714D01*
X103966Y512643D01*
X104034Y512575D01*
X104105Y512509D01*
X104179Y512447D01*
X104255Y512387D01*
X104333Y512331D01*
X104414Y512277D01*
X104496Y512227D01*
X104581Y512181D01*
X104668Y512138D01*
X104756Y512098D01*
X104845Y512062D01*
X104936Y512029D01*
X105029Y512001D01*
X105122Y511976D01*
X105216Y511954D01*
X105311Y511937D01*
X105407Y511923D01*
X105503Y511914D01*
X105599Y511908D01*
X105696Y511906D01*
X105793Y511908D01*
X105889Y511914D01*
X105985Y511923D01*
X106081Y511937D01*
X106176Y511954D01*
X106270Y511976D01*
X106363Y512001D01*
X106456Y512029D01*
X106547Y512062D01*
X106636Y512098D01*
X106724Y512138D01*
X106811Y512181D01*
X106895Y512227D01*
X106978Y512277D01*
X107059Y512331D01*
X107137Y512387D01*
X107213Y512447D01*
X107287Y512509D01*
X107358Y512575D01*
X107426Y512643D01*
X107492Y512714D01*
X107554Y512788D01*
X107614Y512864D01*
X107670Y512942D01*
X107724Y513023D01*
X107774Y513106D01*
X107820Y513190D01*
X107863Y513277D01*
X107903Y513365D01*
X107939Y513454D01*
X107972Y513545D01*
X108000Y513638D01*
X108025Y513731D01*
X108047Y513825D01*
X108064Y513920D01*
X108078Y514016D01*
X108087Y514112D01*
X108093Y514208D01*
X108095Y514305D01*
X108095Y516704D01*
X108093Y516827D01*
X108087Y516950D01*
X108077Y517073D01*
X108063Y517195D01*
X108046Y517317D01*
X108024Y517438D01*
X107999Y517558D01*
X107969Y517678D01*
X107936Y517796D01*
X107899Y517913D01*
X107859Y518029D01*
X107815Y518144D01*
X107767Y518258D01*
X107715Y518369D01*
X107660Y518479D01*
X107601Y518587D01*
X107539Y518694D01*
X107474Y518798D01*
X107405Y518900D01*
X107333Y519000D01*
X107258Y519097D01*
X107179Y519192D01*
X107098Y519284D01*
X107014Y519374D01*
X106927Y519461D01*
X106837Y519545D01*
X106745Y519626D01*
X106650Y519705D01*
X106553Y519780D01*
X106453Y519852D01*
X106351Y519921D01*
X106247Y519986D01*
X106140Y520048D01*
X106032Y520107D01*
X105922Y520162D01*
X105811Y520213D01*
X105697Y520261D01*
X105583Y520306D01*
X105466Y520346D01*
X105349Y520383D01*
X105231Y520416D01*
X105111Y520446D01*
X104991Y520471D01*
X104870Y520493D01*
X104748Y520510D01*
X104626Y520524D01*
X104503Y520534D01*
X104380Y520540D01*
X104257Y520542D01*
X98951Y511906D02*
X96072Y511906D01*
X95986Y511908D01*
X95900Y511914D01*
X95814Y511923D01*
X95729Y511937D01*
X95645Y511954D01*
X95561Y511975D01*
X95479Y512000D01*
X95398Y512028D01*
X95318Y512060D01*
X95239Y512096D01*
X95163Y512135D01*
X95088Y512178D01*
X95015Y512223D01*
X94944Y512272D01*
X94876Y512325D01*
X94809Y512380D01*
X94746Y512438D01*
X94685Y512499D01*
X94627Y512562D01*
X94572Y512629D01*
X94519Y512697D01*
X94470Y512768D01*
X94425Y512841D01*
X94382Y512916D01*
X94343Y512992D01*
X94307Y513071D01*
X94275Y513151D01*
X94247Y513232D01*
X94222Y513314D01*
X94201Y513398D01*
X94184Y513482D01*
X94170Y513567D01*
X94161Y513653D01*
X94155Y513739D01*
X94153Y513825D01*
X94153Y514785D01*
X94155Y514871D01*
X94161Y514957D01*
X94170Y515043D01*
X94184Y515128D01*
X94201Y515212D01*
X94222Y515296D01*
X94247Y515378D01*
X94275Y515459D01*
X94307Y515539D01*
X94343Y515618D01*
X94382Y515694D01*
X94425Y515769D01*
X94470Y515842D01*
X94520Y515913D01*
X94572Y515981D01*
X94627Y516048D01*
X94685Y516111D01*
X94746Y516172D01*
X94809Y516230D01*
X94876Y516285D01*
X94944Y516338D01*
X95015Y516387D01*
X95088Y516432D01*
X95163Y516475D01*
X95239Y516514D01*
X95318Y516550D01*
X95398Y516582D01*
X95479Y516610D01*
X95562Y516635D01*
X95645Y516656D01*
X95729Y516673D01*
X95814Y516687D01*
X95900Y516696D01*
X95986Y516702D01*
X96072Y516704D01*
X98951Y516704D01*
X98951Y520542D01*
X94153Y520542D01*
X89087Y519343D02*
X89160Y519189D01*
X89229Y519034D01*
X89294Y518877D01*
X89356Y518719D01*
X89413Y518559D01*
X89467Y518398D01*
X89517Y518235D01*
X89563Y518072D01*
X89605Y517907D01*
X89643Y517741D01*
X89678Y517575D01*
X89708Y517408D01*
X89734Y517240D01*
X89756Y517072D01*
X89775Y516903D01*
X89789Y516733D01*
X89799Y516564D01*
X89805Y516394D01*
X89807Y516224D01*
X89087Y519343D02*
X89059Y519419D01*
X89027Y519494D01*
X88992Y519568D01*
X88954Y519640D01*
X88912Y519710D01*
X88867Y519778D01*
X88819Y519844D01*
X88768Y519908D01*
X88714Y519969D01*
X88658Y520028D01*
X88598Y520084D01*
X88537Y520137D01*
X88473Y520187D01*
X88406Y520235D01*
X88338Y520279D01*
X88267Y520320D01*
X88195Y520358D01*
X88121Y520392D01*
X88046Y520423D01*
X87969Y520451D01*
X87891Y520475D01*
X87812Y520495D01*
X87732Y520512D01*
X87652Y520525D01*
X87571Y520535D01*
X87490Y520540D01*
X87408Y520542D01*
X87326Y520540D01*
X87245Y520535D01*
X87164Y520525D01*
X87084Y520512D01*
X87004Y520495D01*
X86925Y520475D01*
X86847Y520451D01*
X86770Y520423D01*
X86695Y520392D01*
X86621Y520358D01*
X86549Y520320D01*
X86478Y520279D01*
X86410Y520235D01*
X86343Y520187D01*
X86279Y520137D01*
X86218Y520084D01*
X86158Y520028D01*
X86102Y519969D01*
X86048Y519908D01*
X85997Y519844D01*
X85949Y519778D01*
X85904Y519710D01*
X85862Y519640D01*
X85824Y519568D01*
X85789Y519494D01*
X85757Y519419D01*
X85729Y519343D01*
X85656Y519189D01*
X85587Y519034D01*
X85522Y518877D01*
X85460Y518719D01*
X85403Y518559D01*
X85349Y518398D01*
X85299Y518235D01*
X85253Y518072D01*
X85211Y517907D01*
X85173Y517741D01*
X85138Y517575D01*
X85108Y517408D01*
X85082Y517240D01*
X85060Y517072D01*
X85041Y516903D01*
X85027Y516733D01*
X85017Y516564D01*
X85011Y516394D01*
X85009Y516224D01*
X89807Y516224D02*
X89805Y516054D01*
X89799Y515884D01*
X89789Y515715D01*
X89775Y515545D01*
X89756Y515376D01*
X89734Y515208D01*
X89708Y515040D01*
X89678Y514873D01*
X89643Y514707D01*
X89605Y514541D01*
X89563Y514376D01*
X89517Y514213D01*
X89467Y514051D01*
X89413Y513889D01*
X89356Y513730D01*
X89294Y513571D01*
X89229Y513414D01*
X89160Y513259D01*
X89087Y513105D01*
X89059Y513029D01*
X89027Y512954D01*
X88992Y512880D01*
X88954Y512808D01*
X88912Y512738D01*
X88867Y512670D01*
X88819Y512604D01*
X88768Y512540D01*
X88714Y512479D01*
X88658Y512420D01*
X88598Y512364D01*
X88537Y512311D01*
X88473Y512261D01*
X88406Y512213D01*
X88338Y512169D01*
X88267Y512128D01*
X88195Y512090D01*
X88121Y512056D01*
X88046Y512025D01*
X87969Y511997D01*
X87891Y511973D01*
X87812Y511953D01*
X87732Y511936D01*
X87652Y511923D01*
X87571Y511913D01*
X87490Y511908D01*
X87408Y511906D01*
X85729Y513105D02*
X85656Y513259D01*
X85587Y513414D01*
X85522Y513571D01*
X85460Y513730D01*
X85403Y513889D01*
X85349Y514051D01*
X85299Y514213D01*
X85253Y514376D01*
X85211Y514541D01*
X85173Y514707D01*
X85138Y514873D01*
X85108Y515040D01*
X85082Y515208D01*
X85060Y515376D01*
X85041Y515545D01*
X85027Y515715D01*
X85017Y515884D01*
X85011Y516054D01*
X85009Y516224D01*
X85729Y513105D02*
X85757Y513029D01*
X85789Y512954D01*
X85824Y512880D01*
X85862Y512808D01*
X85904Y512738D01*
X85949Y512670D01*
X85997Y512604D01*
X86048Y512540D01*
X86102Y512479D01*
X86158Y512420D01*
X86218Y512364D01*
X86279Y512311D01*
X86343Y512261D01*
X86410Y512213D01*
X86478Y512169D01*
X86549Y512128D01*
X86621Y512090D01*
X86695Y512056D01*
X86770Y512025D01*
X86847Y511997D01*
X86925Y511973D01*
X87004Y511953D01*
X87084Y511936D01*
X87164Y511923D01*
X87245Y511913D01*
X87326Y511908D01*
X87408Y511906D01*
X89327Y513825D02*
X85489Y518623D01*
X78024Y520542D02*
X77932Y520540D01*
X77841Y520534D01*
X77750Y520525D01*
X77659Y520511D01*
X77569Y520494D01*
X77480Y520472D01*
X77392Y520447D01*
X77305Y520419D01*
X77219Y520386D01*
X77135Y520350D01*
X77052Y520311D01*
X76971Y520268D01*
X76892Y520221D01*
X76815Y520172D01*
X76740Y520119D01*
X76668Y520063D01*
X76598Y520004D01*
X76530Y519942D01*
X76465Y519877D01*
X76403Y519809D01*
X76344Y519739D01*
X76288Y519667D01*
X76235Y519592D01*
X76186Y519515D01*
X76139Y519436D01*
X76096Y519355D01*
X76057Y519272D01*
X76021Y519188D01*
X75988Y519102D01*
X75960Y519015D01*
X75935Y518927D01*
X75913Y518838D01*
X75896Y518748D01*
X75882Y518657D01*
X75873Y518566D01*
X75867Y518475D01*
X75865Y518383D01*
X78024Y520543D02*
X78127Y520541D01*
X78229Y520535D01*
X78331Y520526D01*
X78433Y520513D01*
X78534Y520496D01*
X78635Y520475D01*
X78734Y520451D01*
X78833Y520422D01*
X78930Y520391D01*
X79027Y520355D01*
X79122Y520317D01*
X79215Y520274D01*
X79307Y520228D01*
X79397Y520179D01*
X79485Y520127D01*
X79572Y520071D01*
X79656Y520012D01*
X79737Y519951D01*
X79817Y519886D01*
X79894Y519818D01*
X79969Y519747D01*
X80040Y519674D01*
X80109Y519598D01*
X80176Y519520D01*
X80239Y519439D01*
X80299Y519356D01*
X80356Y519271D01*
X80410Y519184D01*
X80461Y519094D01*
X80508Y519003D01*
X80552Y518911D01*
X80593Y518816D01*
X80630Y518721D01*
X80663Y518624D01*
X76585Y516704D02*
X76518Y516770D01*
X76454Y516839D01*
X76393Y516910D01*
X76335Y516984D01*
X76280Y517060D01*
X76228Y517138D01*
X76179Y517218D01*
X76133Y517300D01*
X76091Y517384D01*
X76052Y517470D01*
X76017Y517557D01*
X75986Y517645D01*
X75958Y517735D01*
X75933Y517825D01*
X75912Y517917D01*
X75895Y518009D01*
X75882Y518102D01*
X75873Y518195D01*
X75867Y518289D01*
X75865Y518383D01*
X76585Y516704D02*
X80663Y511906D01*
X75865Y511906D01*
X71389Y515265D02*
X65632Y515265D01*
X60566Y515265D02*
X58167Y514305D01*
X60566Y515265D02*
X60629Y515292D01*
X60691Y515323D01*
X60751Y515358D01*
X60809Y515395D01*
X60865Y515436D01*
X60918Y515479D01*
X60969Y515526D01*
X61017Y515575D01*
X61063Y515627D01*
X61105Y515682D01*
X61145Y515739D01*
X61181Y515797D01*
X61214Y515858D01*
X61243Y515920D01*
X61269Y515984D01*
X61292Y516050D01*
X61310Y516116D01*
X61325Y516184D01*
X61337Y516252D01*
X61344Y516320D01*
X61348Y516389D01*
X61347Y516458D01*
X61343Y516527D01*
X61335Y516596D01*
X61324Y516664D01*
X61308Y516731D01*
X61289Y516798D01*
X61267Y516863D01*
X61240Y516927D01*
X61210Y516989D01*
X61177Y517049D01*
X61140Y517108D01*
X61101Y517164D01*
X61058Y517219D01*
X61012Y517270D01*
X60964Y517319D01*
X60912Y517366D01*
X60859Y517409D01*
X60803Y517449D01*
X60744Y517486D01*
X60684Y517520D01*
X60622Y517551D01*
X60559Y517578D01*
X60494Y517601D01*
X60428Y517621D01*
X60361Y517637D01*
X60293Y517650D01*
X60224Y517658D01*
X60155Y517663D01*
X60086Y517664D01*
X59947Y517661D01*
X59808Y517653D01*
X59669Y517642D01*
X59531Y517628D01*
X59393Y517610D01*
X59255Y517589D01*
X59118Y517564D01*
X58982Y517535D01*
X58846Y517503D01*
X58712Y517468D01*
X58578Y517429D01*
X58445Y517387D01*
X58314Y517341D01*
X58184Y517292D01*
X58055Y517240D01*
X57927Y517185D01*
X58167Y514305D02*
X58104Y514278D01*
X58042Y514247D01*
X57982Y514212D01*
X57924Y514175D01*
X57868Y514134D01*
X57815Y514091D01*
X57764Y514044D01*
X57716Y513995D01*
X57670Y513943D01*
X57628Y513888D01*
X57588Y513831D01*
X57552Y513773D01*
X57519Y513712D01*
X57490Y513649D01*
X57464Y513586D01*
X57441Y513520D01*
X57423Y513454D01*
X57408Y513386D01*
X57396Y513318D01*
X57389Y513250D01*
X57385Y513181D01*
X57386Y513112D01*
X57390Y513043D01*
X57398Y512974D01*
X57409Y512906D01*
X57425Y512839D01*
X57444Y512772D01*
X57466Y512707D01*
X57493Y512643D01*
X57523Y512581D01*
X57556Y512521D01*
X57593Y512462D01*
X57632Y512406D01*
X57675Y512351D01*
X57721Y512300D01*
X57769Y512251D01*
X57821Y512204D01*
X57874Y512161D01*
X57930Y512121D01*
X57989Y512084D01*
X58049Y512050D01*
X58111Y512019D01*
X58174Y511992D01*
X58239Y511969D01*
X58305Y511949D01*
X58372Y511933D01*
X58440Y511920D01*
X58509Y511912D01*
X58578Y511907D01*
X58647Y511906D01*
X58647Y511907D02*
X58840Y511912D01*
X59032Y511921D01*
X59224Y511936D01*
X59415Y511954D01*
X59606Y511977D01*
X59797Y512005D01*
X59987Y512037D01*
X60175Y512074D01*
X60363Y512115D01*
X60550Y512161D01*
X60736Y512211D01*
X60921Y512265D01*
X61104Y512324D01*
X61286Y512387D01*
X53056Y511906D02*
X53056Y520542D01*
X53056Y517664D02*
X50657Y517664D01*
X50657Y517663D02*
X50582Y517661D01*
X50507Y517655D01*
X50432Y517645D01*
X50358Y517632D01*
X50285Y517614D01*
X50212Y517593D01*
X50141Y517567D01*
X50072Y517539D01*
X50004Y517506D01*
X49938Y517470D01*
X49873Y517431D01*
X49811Y517388D01*
X49751Y517342D01*
X49694Y517293D01*
X49639Y517242D01*
X49588Y517187D01*
X49539Y517130D01*
X49493Y517070D01*
X49450Y517008D01*
X49411Y516944D01*
X49375Y516877D01*
X49342Y516809D01*
X49314Y516740D01*
X49288Y516669D01*
X49267Y516596D01*
X49249Y516523D01*
X49236Y516449D01*
X49226Y516374D01*
X49220Y516299D01*
X49218Y516224D01*
X49218Y511906D01*
X45041Y511906D02*
X45041Y517664D01*
X45281Y520063D02*
X45281Y520542D01*
X44801Y520542D01*
X44801Y520063D01*
X45281Y520063D01*
X39730Y511906D02*
X37331Y511906D01*
X39730Y511907D02*
X39805Y511909D01*
X39880Y511915D01*
X39955Y511925D01*
X40029Y511938D01*
X40102Y511956D01*
X40175Y511977D01*
X40246Y512003D01*
X40315Y512031D01*
X40383Y512064D01*
X40450Y512100D01*
X40514Y512139D01*
X40576Y512182D01*
X40636Y512228D01*
X40693Y512277D01*
X40748Y512328D01*
X40799Y512383D01*
X40848Y512440D01*
X40894Y512500D01*
X40937Y512562D01*
X40976Y512627D01*
X41012Y512693D01*
X41045Y512761D01*
X41073Y512830D01*
X41099Y512901D01*
X41120Y512974D01*
X41138Y513047D01*
X41151Y513121D01*
X41161Y513196D01*
X41167Y513271D01*
X41169Y513346D01*
X41169Y515745D01*
X41167Y515831D01*
X41161Y515917D01*
X41152Y516003D01*
X41138Y516088D01*
X41121Y516172D01*
X41100Y516256D01*
X41075Y516338D01*
X41047Y516419D01*
X41015Y516499D01*
X40979Y516578D01*
X40940Y516654D01*
X40897Y516729D01*
X40852Y516802D01*
X40803Y516873D01*
X40750Y516941D01*
X40695Y517008D01*
X40637Y517071D01*
X40576Y517132D01*
X40513Y517190D01*
X40446Y517245D01*
X40378Y517298D01*
X40307Y517347D01*
X40234Y517392D01*
X40159Y517435D01*
X40083Y517474D01*
X40004Y517510D01*
X39924Y517542D01*
X39843Y517570D01*
X39761Y517595D01*
X39677Y517616D01*
X39593Y517633D01*
X39508Y517647D01*
X39422Y517656D01*
X39336Y517662D01*
X39250Y517664D01*
X39164Y517662D01*
X39078Y517656D01*
X38992Y517647D01*
X38907Y517633D01*
X38823Y517616D01*
X38739Y517595D01*
X38657Y517570D01*
X38576Y517542D01*
X38496Y517510D01*
X38417Y517474D01*
X38341Y517435D01*
X38266Y517392D01*
X38193Y517347D01*
X38122Y517298D01*
X38054Y517245D01*
X37987Y517190D01*
X37924Y517132D01*
X37863Y517071D01*
X37805Y517008D01*
X37750Y516941D01*
X37697Y516873D01*
X37648Y516802D01*
X37603Y516729D01*
X37560Y516654D01*
X37521Y516578D01*
X37485Y516499D01*
X37453Y516419D01*
X37425Y516338D01*
X37400Y516256D01*
X37379Y516172D01*
X37362Y516088D01*
X37348Y516003D01*
X37339Y515917D01*
X37333Y515831D01*
X37331Y515745D01*
X37331Y514785D01*
X41169Y514785D01*
X33206Y513346D02*
X33206Y520542D01*
X33205Y513346D02*
X33203Y513271D01*
X33197Y513196D01*
X33187Y513121D01*
X33174Y513047D01*
X33156Y512974D01*
X33135Y512901D01*
X33109Y512830D01*
X33081Y512761D01*
X33048Y512693D01*
X33012Y512627D01*
X32973Y512562D01*
X32930Y512500D01*
X32884Y512440D01*
X32835Y512383D01*
X32784Y512328D01*
X32729Y512277D01*
X32672Y512228D01*
X32612Y512182D01*
X32550Y512139D01*
X32486Y512100D01*
X32419Y512064D01*
X32351Y512031D01*
X32282Y512003D01*
X32211Y511977D01*
X32138Y511956D01*
X32065Y511938D01*
X31991Y511925D01*
X31916Y511915D01*
X31841Y511909D01*
X31766Y511907D01*
X24597Y511906D02*
X24597Y520542D01*
X24597Y511906D02*
X26996Y511906D01*
X26996Y511907D02*
X27071Y511909D01*
X27146Y511915D01*
X27221Y511925D01*
X27295Y511938D01*
X27368Y511956D01*
X27441Y511977D01*
X27512Y512003D01*
X27581Y512031D01*
X27649Y512064D01*
X27716Y512100D01*
X27780Y512139D01*
X27842Y512182D01*
X27902Y512228D01*
X27959Y512277D01*
X28014Y512328D01*
X28065Y512383D01*
X28114Y512440D01*
X28160Y512500D01*
X28203Y512562D01*
X28242Y512627D01*
X28278Y512693D01*
X28311Y512761D01*
X28339Y512830D01*
X28365Y512901D01*
X28386Y512974D01*
X28404Y513047D01*
X28417Y513121D01*
X28427Y513196D01*
X28433Y513271D01*
X28435Y513346D01*
X28435Y516224D01*
X28433Y516299D01*
X28427Y516374D01*
X28417Y516449D01*
X28404Y516523D01*
X28386Y516596D01*
X28365Y516669D01*
X28339Y516740D01*
X28311Y516809D01*
X28278Y516877D01*
X28242Y516944D01*
X28203Y517008D01*
X28160Y517070D01*
X28114Y517130D01*
X28065Y517187D01*
X28014Y517242D01*
X27959Y517293D01*
X27902Y517342D01*
X27842Y517388D01*
X27780Y517431D01*
X27716Y517470D01*
X27649Y517506D01*
X27581Y517539D01*
X27512Y517567D01*
X27441Y517593D01*
X27368Y517614D01*
X27295Y517632D01*
X27221Y517645D01*
X27146Y517655D01*
X27071Y517661D01*
X26996Y517663D01*
X26996Y517664D02*
X24597Y517664D01*
X108095Y505302D02*
X108095Y496666D01*
X108095Y505302D02*
X105696Y505302D01*
X105599Y505300D01*
X105503Y505294D01*
X105407Y505285D01*
X105311Y505271D01*
X105216Y505254D01*
X105122Y505232D01*
X105029Y505207D01*
X104936Y505179D01*
X104845Y505146D01*
X104756Y505110D01*
X104668Y505070D01*
X104581Y505027D01*
X104497Y504981D01*
X104414Y504931D01*
X104333Y504877D01*
X104255Y504821D01*
X104179Y504761D01*
X104105Y504699D01*
X104034Y504633D01*
X103966Y504565D01*
X103900Y504494D01*
X103838Y504420D01*
X103778Y504344D01*
X103722Y504266D01*
X103668Y504185D01*
X103618Y504103D01*
X103572Y504018D01*
X103529Y503931D01*
X103489Y503843D01*
X103453Y503754D01*
X103420Y503663D01*
X103392Y503570D01*
X103367Y503477D01*
X103345Y503383D01*
X103328Y503288D01*
X103314Y503192D01*
X103305Y503096D01*
X103299Y503000D01*
X103297Y502903D01*
X103299Y502806D01*
X103305Y502710D01*
X103314Y502614D01*
X103328Y502518D01*
X103345Y502423D01*
X103367Y502329D01*
X103392Y502236D01*
X103420Y502143D01*
X103453Y502052D01*
X103489Y501963D01*
X103529Y501875D01*
X103572Y501788D01*
X103618Y501704D01*
X103668Y501621D01*
X103722Y501540D01*
X103778Y501462D01*
X103838Y501386D01*
X103900Y501312D01*
X103966Y501241D01*
X104034Y501173D01*
X104105Y501107D01*
X104179Y501045D01*
X104255Y500985D01*
X104333Y500929D01*
X104414Y500875D01*
X104496Y500825D01*
X104581Y500779D01*
X104668Y500736D01*
X104756Y500696D01*
X104845Y500660D01*
X104936Y500627D01*
X105029Y500599D01*
X105122Y500574D01*
X105216Y500552D01*
X105311Y500535D01*
X105407Y500521D01*
X105503Y500512D01*
X105599Y500506D01*
X105696Y500504D01*
X105696Y500505D02*
X108095Y500505D01*
X105216Y500505D02*
X103297Y496666D01*
X98705Y496666D02*
X94867Y496666D01*
X98705Y496666D02*
X98705Y505302D01*
X94867Y505302D01*
X95826Y501464D02*
X98705Y501464D01*
X91591Y505302D02*
X88712Y496666D01*
X85833Y505302D01*
X74691Y505302D02*
X77570Y496666D01*
X71813Y496666D02*
X74691Y505302D01*
X72532Y498825D02*
X76850Y498825D01*
X105216Y516704D02*
X108095Y516704D01*
X105216Y516704D02*
X105130Y516702D01*
X105044Y516696D01*
X104958Y516687D01*
X104873Y516673D01*
X104789Y516656D01*
X104705Y516635D01*
X104623Y516610D01*
X104542Y516582D01*
X104462Y516550D01*
X104383Y516514D01*
X104307Y516475D01*
X104232Y516432D01*
X104159Y516387D01*
X104088Y516338D01*
X104020Y516285D01*
X103953Y516230D01*
X103890Y516172D01*
X103829Y516111D01*
X103771Y516048D01*
X103716Y515981D01*
X103664Y515913D01*
X103614Y515842D01*
X103569Y515769D01*
X103526Y515694D01*
X103487Y515618D01*
X103451Y515539D01*
X103419Y515459D01*
X103391Y515378D01*
X103366Y515296D01*
X103345Y515212D01*
X103328Y515128D01*
X103314Y515043D01*
X103305Y514957D01*
X103299Y514871D01*
X103297Y514785D01*
X103297Y514305D01*
X103299Y514208D01*
X103305Y514112D01*
X103314Y514016D01*
X103328Y513920D01*
X103345Y513825D01*
X103367Y513731D01*
X103392Y513638D01*
X103420Y513545D01*
X103453Y513454D01*
X103489Y513365D01*
X103529Y513277D01*
X103572Y513190D01*
X103618Y513106D01*
X103668Y513023D01*
X103722Y512942D01*
X103778Y512864D01*
X103838Y512788D01*
X103900Y512714D01*
X103966Y512643D01*
X104034Y512575D01*
X104105Y512509D01*
X104179Y512447D01*
X104255Y512387D01*
X104333Y512331D01*
X104414Y512277D01*
X104496Y512227D01*
X104581Y512181D01*
X104668Y512138D01*
X104756Y512098D01*
X104845Y512062D01*
X104936Y512029D01*
X105029Y512001D01*
X105122Y511976D01*
X105216Y511954D01*
X105311Y511937D01*
X105407Y511923D01*
X105503Y511914D01*
X105599Y511908D01*
X105696Y511906D01*
X105793Y511908D01*
X105889Y511914D01*
X105985Y511923D01*
X106081Y511937D01*
X106176Y511954D01*
X106270Y511976D01*
X106363Y512001D01*
X106456Y512029D01*
X106547Y512062D01*
X106636Y512098D01*
X106724Y512138D01*
X106811Y512181D01*
X106895Y512227D01*
X106978Y512277D01*
X107059Y512331D01*
X107137Y512387D01*
X107213Y512447D01*
X107287Y512509D01*
X107358Y512575D01*
X107426Y512643D01*
X107492Y512714D01*
X107554Y512788D01*
X107614Y512864D01*
X107670Y512942D01*
X107724Y513023D01*
X107774Y513106D01*
X107820Y513190D01*
X107863Y513277D01*
X107903Y513365D01*
X107939Y513454D01*
X107972Y513545D01*
X108000Y513638D01*
X108025Y513731D01*
X108047Y513825D01*
X108064Y513920D01*
X108078Y514016D01*
X108087Y514112D01*
X108093Y514208D01*
X108095Y514305D01*
X108095Y516704D01*
X108093Y516827D01*
X108087Y516950D01*
X108077Y517073D01*
X108063Y517195D01*
X108046Y517317D01*
X108024Y517438D01*
X107999Y517558D01*
X107969Y517678D01*
X107936Y517796D01*
X107899Y517913D01*
X107859Y518029D01*
X107815Y518144D01*
X107767Y518258D01*
X107715Y518369D01*
X107660Y518479D01*
X107601Y518587D01*
X107539Y518694D01*
X107474Y518798D01*
X107405Y518900D01*
X107333Y519000D01*
X107258Y519097D01*
X107179Y519192D01*
X107098Y519284D01*
X107014Y519374D01*
X106927Y519461D01*
X106837Y519545D01*
X106745Y519626D01*
X106650Y519705D01*
X106553Y519780D01*
X106453Y519852D01*
X106351Y519921D01*
X106247Y519986D01*
X106140Y520048D01*
X106032Y520107D01*
X105922Y520162D01*
X105811Y520213D01*
X105697Y520261D01*
X105583Y520306D01*
X105466Y520346D01*
X105349Y520383D01*
X105231Y520416D01*
X105111Y520446D01*
X104991Y520471D01*
X104870Y520493D01*
X104748Y520510D01*
X104626Y520524D01*
X104503Y520534D01*
X104380Y520540D01*
X104257Y520542D01*
X98951Y511906D02*
X96072Y511906D01*
X95986Y511908D01*
X95900Y511914D01*
X95814Y511923D01*
X95729Y511937D01*
X95645Y511954D01*
X95561Y511975D01*
X95479Y512000D01*
X95398Y512028D01*
X95318Y512060D01*
X95239Y512096D01*
X95163Y512135D01*
X95088Y512178D01*
X95015Y512223D01*
X94944Y512272D01*
X94876Y512325D01*
X94809Y512380D01*
X94746Y512438D01*
X94685Y512499D01*
X94627Y512562D01*
X94572Y512629D01*
X94519Y512697D01*
X94470Y512768D01*
X94425Y512841D01*
X94382Y512916D01*
X94343Y512992D01*
X94307Y513071D01*
X94275Y513151D01*
X94247Y513232D01*
X94222Y513314D01*
X94201Y513398D01*
X94184Y513482D01*
X94170Y513567D01*
X94161Y513653D01*
X94155Y513739D01*
X94153Y513825D01*
X94153Y514785D01*
X94155Y514871D01*
X94161Y514957D01*
X94170Y515043D01*
X94184Y515128D01*
X94201Y515212D01*
X94222Y515296D01*
X94247Y515378D01*
X94275Y515459D01*
X94307Y515539D01*
X94343Y515618D01*
X94382Y515694D01*
X94425Y515769D01*
X94470Y515842D01*
X94520Y515913D01*
X94572Y515981D01*
X94627Y516048D01*
X94685Y516111D01*
X94746Y516172D01*
X94809Y516230D01*
X94876Y516285D01*
X94944Y516338D01*
X95015Y516387D01*
X95088Y516432D01*
X95163Y516475D01*
X95239Y516514D01*
X95318Y516550D01*
X95398Y516582D01*
X95479Y516610D01*
X95562Y516635D01*
X95645Y516656D01*
X95729Y516673D01*
X95814Y516687D01*
X95900Y516696D01*
X95986Y516702D01*
X96072Y516704D01*
X98951Y516704D01*
X98951Y520542D01*
X94153Y520542D01*
X89087Y519343D02*
X89160Y519189D01*
X89229Y519034D01*
X89294Y518877D01*
X89356Y518719D01*
X89413Y518559D01*
X89467Y518398D01*
X89517Y518235D01*
X89563Y518072D01*
X89605Y517907D01*
X89643Y517741D01*
X89678Y517575D01*
X89708Y517408D01*
X89734Y517240D01*
X89756Y517072D01*
X89775Y516903D01*
X89789Y516733D01*
X89799Y516564D01*
X89805Y516394D01*
X89807Y516224D01*
X89087Y519343D02*
X89059Y519419D01*
X89027Y519494D01*
X88992Y519568D01*
X88954Y519640D01*
X88912Y519710D01*
X88867Y519778D01*
X88819Y519844D01*
X88768Y519908D01*
X88714Y519969D01*
X88658Y520028D01*
X88598Y520084D01*
X88537Y520137D01*
X88473Y520187D01*
X88406Y520235D01*
X88338Y520279D01*
X88267Y520320D01*
X88195Y520358D01*
X88121Y520392D01*
X88046Y520423D01*
X87969Y520451D01*
X87891Y520475D01*
X87812Y520495D01*
X87732Y520512D01*
X87652Y520525D01*
X87571Y520535D01*
X87490Y520540D01*
X87408Y520542D01*
X87326Y520540D01*
X87245Y520535D01*
X87164Y520525D01*
X87084Y520512D01*
X87004Y520495D01*
X86925Y520475D01*
X86847Y520451D01*
X86770Y520423D01*
X86695Y520392D01*
X86621Y520358D01*
X86549Y520320D01*
X86478Y520279D01*
X86410Y520235D01*
X86343Y520187D01*
X86279Y520137D01*
X86218Y520084D01*
X86158Y520028D01*
X86102Y519969D01*
X86048Y519908D01*
X85997Y519844D01*
X85949Y519778D01*
X85904Y519710D01*
X85862Y519640D01*
X85824Y519568D01*
X85789Y519494D01*
X85757Y519419D01*
X85729Y519343D01*
X85656Y519189D01*
X85587Y519034D01*
X85522Y518877D01*
X85460Y518719D01*
X85403Y518559D01*
X85349Y518398D01*
X85299Y518235D01*
X85253Y518072D01*
X85211Y517907D01*
X85173Y517741D01*
X85138Y517575D01*
X85108Y517408D01*
X85082Y517240D01*
X85060Y517072D01*
X85041Y516903D01*
X85027Y516733D01*
X85017Y516564D01*
X85011Y516394D01*
X85009Y516224D01*
X89807Y516224D02*
X89805Y516054D01*
X89799Y515884D01*
X89789Y515715D01*
X89775Y515545D01*
X89756Y515376D01*
X89734Y515208D01*
X89708Y515040D01*
X89678Y514873D01*
X89643Y514707D01*
X89605Y514541D01*
X89563Y514376D01*
X89517Y514213D01*
X89467Y514051D01*
X89413Y513889D01*
X89356Y513730D01*
X89294Y513571D01*
X89229Y513414D01*
X89160Y513259D01*
X89087Y513105D01*
X89059Y513029D01*
X89027Y512954D01*
X88992Y512880D01*
X88954Y512808D01*
X88912Y512738D01*
X88867Y512670D01*
X88819Y512604D01*
X88768Y512540D01*
X88714Y512479D01*
X88658Y512420D01*
X88598Y512364D01*
X88537Y512311D01*
X88473Y512261D01*
X88406Y512213D01*
X88338Y512169D01*
X88267Y512128D01*
X88195Y512090D01*
X88121Y512056D01*
X88046Y512025D01*
X87969Y511997D01*
X87891Y511973D01*
X87812Y511953D01*
X87732Y511936D01*
X87652Y511923D01*
X87571Y511913D01*
X87490Y511908D01*
X87408Y511906D01*
X85729Y513105D02*
X85656Y513259D01*
X85587Y513414D01*
X85522Y513571D01*
X85460Y513730D01*
X85403Y513889D01*
X85349Y514051D01*
X85299Y514213D01*
X85253Y514376D01*
X85211Y514541D01*
X85173Y514707D01*
X85138Y514873D01*
X85108Y515040D01*
X85082Y515208D01*
X85060Y515376D01*
X85041Y515545D01*
X85027Y515715D01*
X85017Y515884D01*
X85011Y516054D01*
X85009Y516224D01*
X85729Y513105D02*
X85757Y513029D01*
X85789Y512954D01*
X85824Y512880D01*
X85862Y512808D01*
X85904Y512738D01*
X85949Y512670D01*
X85997Y512604D01*
X86048Y512540D01*
X86102Y512479D01*
X86158Y512420D01*
X86218Y512364D01*
X86279Y512311D01*
X86343Y512261D01*
X86410Y512213D01*
X86478Y512169D01*
X86549Y512128D01*
X86621Y512090D01*
X86695Y512056D01*
X86770Y512025D01*
X86847Y511997D01*
X86925Y511973D01*
X87004Y511953D01*
X87084Y511936D01*
X87164Y511923D01*
X87245Y511913D01*
X87326Y511908D01*
X87408Y511906D01*
X89327Y513825D02*
X85489Y518623D01*
X78024Y520542D02*
X77932Y520540D01*
X77841Y520534D01*
X77750Y520525D01*
X77659Y520511D01*
X77569Y520494D01*
X77480Y520472D01*
X77392Y520447D01*
X77305Y520419D01*
X77219Y520386D01*
X77135Y520350D01*
X77052Y520311D01*
X76971Y520268D01*
X76892Y520221D01*
X76815Y520172D01*
X76740Y520119D01*
X76668Y520063D01*
X76598Y520004D01*
X76530Y519942D01*
X76465Y519877D01*
X76403Y519809D01*
X76344Y519739D01*
X76288Y519667D01*
X76235Y519592D01*
X76186Y519515D01*
X76139Y519436D01*
X76096Y519355D01*
X76057Y519272D01*
X76021Y519188D01*
X75988Y519102D01*
X75960Y519015D01*
X75935Y518927D01*
X75913Y518838D01*
X75896Y518748D01*
X75882Y518657D01*
X75873Y518566D01*
X75867Y518475D01*
X75865Y518383D01*
X78024Y520543D02*
X78127Y520541D01*
X78229Y520535D01*
X78331Y520526D01*
X78433Y520513D01*
X78534Y520496D01*
X78635Y520475D01*
X78734Y520451D01*
X78833Y520422D01*
X78930Y520391D01*
X79027Y520355D01*
X79122Y520317D01*
X79215Y520274D01*
X79307Y520228D01*
X79397Y520179D01*
X79485Y520127D01*
X79572Y520071D01*
X79656Y520012D01*
X79737Y519951D01*
X79817Y519886D01*
X79894Y519818D01*
X79969Y519747D01*
X80040Y519674D01*
X80109Y519598D01*
X80176Y519520D01*
X80239Y519439D01*
X80299Y519356D01*
X80356Y519271D01*
X80410Y519184D01*
X80461Y519094D01*
X80508Y519003D01*
X80552Y518911D01*
X80593Y518816D01*
X80630Y518721D01*
X80663Y518624D01*
X76585Y516704D02*
X76518Y516770D01*
X76454Y516839D01*
X76393Y516910D01*
X76335Y516984D01*
X76280Y517060D01*
X76228Y517138D01*
X76179Y517218D01*
X76133Y517300D01*
X76091Y517384D01*
X76052Y517470D01*
X76017Y517557D01*
X75986Y517645D01*
X75958Y517735D01*
X75933Y517825D01*
X75912Y517917D01*
X75895Y518009D01*
X75882Y518102D01*
X75873Y518195D01*
X75867Y518289D01*
X75865Y518383D01*
X76585Y516704D02*
X80663Y511906D01*
X75865Y511906D01*
X71389Y515265D02*
X65632Y515265D01*
X60566Y515265D02*
X58167Y514305D01*
X60566Y515265D02*
X60629Y515292D01*
X60691Y515323D01*
X60751Y515358D01*
X60809Y515395D01*
X60865Y515436D01*
X60918Y515479D01*
X60969Y515526D01*
X61017Y515575D01*
X61063Y515627D01*
X61105Y515682D01*
X61145Y515739D01*
X61181Y515797D01*
X61214Y515858D01*
X61243Y515920D01*
X61269Y515984D01*
X61292Y516050D01*
X61310Y516116D01*
X61325Y516184D01*
X61337Y516252D01*
X61344Y516320D01*
X61348Y516389D01*
X61347Y516458D01*
X61343Y516527D01*
X61335Y516596D01*
X61324Y516664D01*
X61308Y516731D01*
X61289Y516798D01*
X61267Y516863D01*
X61240Y516927D01*
X61210Y516989D01*
X61177Y517049D01*
X61140Y517108D01*
X61101Y517164D01*
X61058Y517219D01*
X61012Y517270D01*
X60964Y517319D01*
X60912Y517366D01*
X60859Y517409D01*
X60803Y517449D01*
X60744Y517486D01*
X60684Y517520D01*
X60622Y517551D01*
X60559Y517578D01*
X60494Y517601D01*
X60428Y517621D01*
X60361Y517637D01*
X60293Y517650D01*
X60224Y517658D01*
X60155Y517663D01*
X60086Y517664D01*
X59947Y517661D01*
X59808Y517653D01*
X59669Y517642D01*
X59531Y517628D01*
X59393Y517610D01*
X59255Y517589D01*
X59118Y517564D01*
X58982Y517535D01*
X58846Y517503D01*
X58712Y517468D01*
X58578Y517429D01*
X58445Y517387D01*
X58314Y517341D01*
X58184Y517292D01*
X58055Y517240D01*
X57927Y517185D01*
X58167Y514305D02*
X58104Y514278D01*
X58042Y514247D01*
X57982Y514212D01*
X57924Y514175D01*
X57868Y514134D01*
X57815Y514091D01*
X57764Y514044D01*
X57716Y513995D01*
X57670Y513943D01*
X57628Y513888D01*
X57588Y513831D01*
X57552Y513773D01*
X57519Y513712D01*
X57490Y513649D01*
X57464Y513586D01*
X57441Y513520D01*
X57423Y513454D01*
X57408Y513386D01*
X57396Y513318D01*
X57389Y513250D01*
X57385Y513181D01*
X57386Y513112D01*
X57390Y513043D01*
X57398Y512974D01*
X57409Y512906D01*
X57425Y512839D01*
X57444Y512772D01*
X57466Y512707D01*
X57493Y512643D01*
X57523Y512581D01*
X57556Y512521D01*
X57593Y512462D01*
X57632Y512406D01*
X57675Y512351D01*
X57721Y512300D01*
X57769Y512251D01*
X57821Y512204D01*
X57874Y512161D01*
X57930Y512121D01*
X57989Y512084D01*
X58049Y512050D01*
X58111Y512019D01*
X58174Y511992D01*
X58239Y511969D01*
X58305Y511949D01*
X58372Y511933D01*
X58440Y511920D01*
X58509Y511912D01*
X58578Y511907D01*
X58647Y511906D01*
X58647Y511907D02*
X58840Y511912D01*
X59032Y511921D01*
X59224Y511936D01*
X59415Y511954D01*
X59606Y511977D01*
X59797Y512005D01*
X59987Y512037D01*
X60175Y512074D01*
X60363Y512115D01*
X60550Y512161D01*
X60736Y512211D01*
X60921Y512265D01*
X61104Y512324D01*
X61286Y512387D01*
X53056Y511906D02*
X53056Y520542D01*
X53056Y517664D02*
X50657Y517664D01*
X50657Y517663D02*
X50582Y517661D01*
X50507Y517655D01*
X50432Y517645D01*
X50358Y517632D01*
X50285Y517614D01*
X50212Y517593D01*
X50141Y517567D01*
X50072Y517539D01*
X50004Y517506D01*
X49938Y517470D01*
X49873Y517431D01*
X49811Y517388D01*
X49751Y517342D01*
X49694Y517293D01*
X49639Y517242D01*
X49588Y517187D01*
X49539Y517130D01*
X49493Y517070D01*
X49450Y517008D01*
X49411Y516944D01*
X49375Y516877D01*
X49342Y516809D01*
X49314Y516740D01*
X49288Y516669D01*
X49267Y516596D01*
X49249Y516523D01*
X49236Y516449D01*
X49226Y516374D01*
X49220Y516299D01*
X49218Y516224D01*
X49218Y511906D01*
X45041Y511906D02*
X45041Y517664D01*
X45281Y520063D02*
X45281Y520542D01*
X44801Y520542D01*
X44801Y520063D01*
X45281Y520063D01*
X39730Y511906D02*
X37331Y511906D01*
X39730Y511907D02*
X39805Y511909D01*
X39880Y511915D01*
X39955Y511925D01*
X40029Y511938D01*
X40102Y511956D01*
X40175Y511977D01*
X40246Y512003D01*
X40315Y512031D01*
X40383Y512064D01*
X40450Y512100D01*
X40514Y512139D01*
X40576Y512182D01*
X40636Y512228D01*
X40693Y512277D01*
X40748Y512328D01*
X40799Y512383D01*
X40848Y512440D01*
X40894Y512500D01*
X40937Y512562D01*
X40976Y512627D01*
X41012Y512693D01*
X41045Y512761D01*
X41073Y512830D01*
X41099Y512901D01*
X41120Y512974D01*
X41138Y513047D01*
X41151Y513121D01*
X41161Y513196D01*
X41167Y513271D01*
X41169Y513346D01*
X41169Y515745D01*
X41167Y515831D01*
X41161Y515917D01*
X41152Y516003D01*
X41138Y516088D01*
X41121Y516172D01*
X41100Y516256D01*
X41075Y516338D01*
X41047Y516419D01*
X41015Y516499D01*
X40979Y516578D01*
X40940Y516654D01*
X40897Y516729D01*
X40852Y516802D01*
X40803Y516873D01*
X40750Y516941D01*
X40695Y517008D01*
X40637Y517071D01*
X40576Y517132D01*
X40513Y517190D01*
X40446Y517245D01*
X40378Y517298D01*
X40307Y517347D01*
X40234Y517392D01*
X40159Y517435D01*
X40083Y517474D01*
X40004Y517510D01*
X39924Y517542D01*
X39843Y517570D01*
X39761Y517595D01*
X39677Y517616D01*
X39593Y517633D01*
X39508Y517647D01*
X39422Y517656D01*
X39336Y517662D01*
X39250Y517664D01*
X39164Y517662D01*
X39078Y517656D01*
X38992Y517647D01*
X38907Y517633D01*
X38823Y517616D01*
X38739Y517595D01*
X38657Y517570D01*
X38576Y517542D01*
X38496Y517510D01*
X38417Y517474D01*
X38341Y517435D01*
X38266Y517392D01*
X38193Y517347D01*
X38122Y517298D01*
X38054Y517245D01*
X37987Y517190D01*
X37924Y517132D01*
X37863Y517071D01*
X37805Y517008D01*
X37750Y516941D01*
X37697Y516873D01*
X37648Y516802D01*
X37603Y516729D01*
X37560Y516654D01*
X37521Y516578D01*
X37485Y516499D01*
X37453Y516419D01*
X37425Y516338D01*
X37400Y516256D01*
X37379Y516172D01*
X37362Y516088D01*
X37348Y516003D01*
X37339Y515917D01*
X37333Y515831D01*
X37331Y515745D01*
X37331Y514785D01*
X41169Y514785D01*
X33206Y513346D02*
X33206Y520542D01*
X33205Y513346D02*
X33203Y513271D01*
X33197Y513196D01*
X33187Y513121D01*
X33174Y513047D01*
X33156Y512974D01*
X33135Y512901D01*
X33109Y512830D01*
X33081Y512761D01*
X33048Y512693D01*
X33012Y512627D01*
X32973Y512562D01*
X32930Y512500D01*
X32884Y512440D01*
X32835Y512383D01*
X32784Y512328D01*
X32729Y512277D01*
X32672Y512228D01*
X32612Y512182D01*
X32550Y512139D01*
X32486Y512100D01*
X32419Y512064D01*
X32351Y512031D01*
X32282Y512003D01*
X32211Y511977D01*
X32138Y511956D01*
X32065Y511938D01*
X31991Y511925D01*
X31916Y511915D01*
X31841Y511909D01*
X31766Y511907D01*
X24597Y511906D02*
X24597Y520542D01*
X24597Y511906D02*
X26996Y511906D01*
X26996Y511907D02*
X27071Y511909D01*
X27146Y511915D01*
X27221Y511925D01*
X27295Y511938D01*
X27368Y511956D01*
X27441Y511977D01*
X27512Y512003D01*
X27581Y512031D01*
X27649Y512064D01*
X27716Y512100D01*
X27780Y512139D01*
X27842Y512182D01*
X27902Y512228D01*
X27959Y512277D01*
X28014Y512328D01*
X28065Y512383D01*
X28114Y512440D01*
X28160Y512500D01*
X28203Y512562D01*
X28242Y512627D01*
X28278Y512693D01*
X28311Y512761D01*
X28339Y512830D01*
X28365Y512901D01*
X28386Y512974D01*
X28404Y513047D01*
X28417Y513121D01*
X28427Y513196D01*
X28433Y513271D01*
X28435Y513346D01*
X28435Y516224D01*
X28433Y516299D01*
X28427Y516374D01*
X28417Y516449D01*
X28404Y516523D01*
X28386Y516596D01*
X28365Y516669D01*
X28339Y516740D01*
X28311Y516809D01*
X28278Y516877D01*
X28242Y516944D01*
X28203Y517008D01*
X28160Y517070D01*
X28114Y517130D01*
X28065Y517187D01*
X28014Y517242D01*
X27959Y517293D01*
X27902Y517342D01*
X27842Y517388D01*
X27780Y517431D01*
X27716Y517470D01*
X27649Y517506D01*
X27581Y517539D01*
X27512Y517567D01*
X27441Y517593D01*
X27368Y517614D01*
X27295Y517632D01*
X27221Y517645D01*
X27146Y517655D01*
X27071Y517661D01*
X26996Y517663D01*
X26996Y517664D02*
X24597Y517664D01*
X108095Y505302D02*
X108095Y496666D01*
X108095Y505302D02*
X105696Y505302D01*
X105599Y505300D01*
X105503Y505294D01*
X105407Y505285D01*
X105311Y505271D01*
X105216Y505254D01*
X105122Y505232D01*
X105029Y505207D01*
X104936Y505179D01*
X104845Y505146D01*
X104756Y505110D01*
X104668Y505070D01*
X104581Y505027D01*
X104497Y504981D01*
X104414Y504931D01*
X104333Y504877D01*
X104255Y504821D01*
X104179Y504761D01*
X104105Y504699D01*
X104034Y504633D01*
X103966Y504565D01*
X103900Y504494D01*
X103838Y504420D01*
X103778Y504344D01*
X103722Y504266D01*
X103668Y504185D01*
X103618Y504103D01*
X103572Y504018D01*
X103529Y503931D01*
X103489Y503843D01*
X103453Y503754D01*
X103420Y503663D01*
X103392Y503570D01*
X103367Y503477D01*
X103345Y503383D01*
X103328Y503288D01*
X103314Y503192D01*
X103305Y503096D01*
X103299Y503000D01*
X103297Y502903D01*
X103299Y502806D01*
X103305Y502710D01*
X103314Y502614D01*
X103328Y502518D01*
X103345Y502423D01*
X103367Y502329D01*
X103392Y502236D01*
X103420Y502143D01*
X103453Y502052D01*
X103489Y501963D01*
X103529Y501875D01*
X103572Y501788D01*
X103618Y501704D01*
X103668Y501621D01*
X103722Y501540D01*
X103778Y501462D01*
X103838Y501386D01*
X103900Y501312D01*
X103966Y501241D01*
X104034Y501173D01*
X104105Y501107D01*
X104179Y501045D01*
X104255Y500985D01*
X104333Y500929D01*
X104414Y500875D01*
X104496Y500825D01*
X104581Y500779D01*
X104668Y500736D01*
X104756Y500696D01*
X104845Y500660D01*
X104936Y500627D01*
X105029Y500599D01*
X105122Y500574D01*
X105216Y500552D01*
X105311Y500535D01*
X105407Y500521D01*
X105503Y500512D01*
X105599Y500506D01*
X105696Y500504D01*
X105696Y500505D02*
X108095Y500505D01*
X105216Y500505D02*
X103297Y496666D01*
X98705Y496666D02*
X94867Y496666D01*
X98705Y496666D02*
X98705Y505302D01*
X94867Y505302D01*
X95826Y501464D02*
X98705Y501464D01*
X91591Y505302D02*
X88712Y496666D01*
X85833Y505302D01*
X74691Y505302D02*
X77570Y496666D01*
X71813Y496666D02*
X74691Y505302D01*
X72532Y498825D02*
X76850Y498825D01*
M02*
