G04 EAGLE Gerber RS-274X export*
G75*
%MOMM*%
%FSLAX34Y34*%
%LPD*%
%INSilkscreen Bottom*%
%IPPOS*%
%AMOC8*
5,1,8,0,0,1.08239X$1,22.5*%
G01*
%ADD10C,0.152400*%
%ADD11C,0.500000*%
%ADD12C,0.120000*%


D10*
X1004300Y74762D02*
X1004300Y77641D01*
X1004298Y77727D01*
X1004292Y77813D01*
X1004283Y77899D01*
X1004269Y77984D01*
X1004252Y78068D01*
X1004231Y78152D01*
X1004206Y78234D01*
X1004178Y78315D01*
X1004146Y78395D01*
X1004110Y78474D01*
X1004071Y78550D01*
X1004028Y78625D01*
X1003983Y78698D01*
X1003934Y78769D01*
X1003881Y78837D01*
X1003826Y78904D01*
X1003768Y78967D01*
X1003707Y79028D01*
X1003644Y79086D01*
X1003577Y79141D01*
X1003509Y79194D01*
X1003438Y79243D01*
X1003365Y79288D01*
X1003290Y79331D01*
X1003214Y79370D01*
X1003135Y79406D01*
X1003055Y79438D01*
X1002974Y79466D01*
X1002892Y79491D01*
X1002808Y79512D01*
X1002724Y79529D01*
X1002639Y79543D01*
X1002553Y79552D01*
X1002467Y79558D01*
X1002381Y79560D01*
X1001901Y79560D01*
X1001804Y79558D01*
X1001708Y79552D01*
X1001612Y79543D01*
X1001516Y79529D01*
X1001421Y79512D01*
X1001327Y79490D01*
X1001234Y79465D01*
X1001141Y79437D01*
X1001050Y79404D01*
X1000961Y79368D01*
X1000873Y79328D01*
X1000786Y79285D01*
X1000702Y79239D01*
X1000619Y79189D01*
X1000538Y79135D01*
X1000460Y79079D01*
X1000384Y79019D01*
X1000310Y78957D01*
X1000239Y78891D01*
X1000171Y78823D01*
X1000105Y78752D01*
X1000043Y78678D01*
X999983Y78602D01*
X999927Y78524D01*
X999873Y78443D01*
X999823Y78361D01*
X999777Y78276D01*
X999734Y78189D01*
X999694Y78101D01*
X999658Y78012D01*
X999625Y77921D01*
X999597Y77828D01*
X999572Y77735D01*
X999550Y77641D01*
X999533Y77546D01*
X999519Y77450D01*
X999510Y77354D01*
X999504Y77258D01*
X999502Y77161D01*
X999504Y77064D01*
X999510Y76968D01*
X999519Y76872D01*
X999533Y76776D01*
X999550Y76681D01*
X999572Y76587D01*
X999597Y76494D01*
X999625Y76401D01*
X999658Y76310D01*
X999694Y76221D01*
X999734Y76133D01*
X999777Y76046D01*
X999823Y75962D01*
X999873Y75879D01*
X999927Y75798D01*
X999983Y75720D01*
X1000043Y75644D01*
X1000105Y75570D01*
X1000171Y75499D01*
X1000239Y75431D01*
X1000310Y75365D01*
X1000384Y75303D01*
X1000460Y75243D01*
X1000538Y75187D01*
X1000619Y75133D01*
X1000702Y75083D01*
X1000786Y75037D01*
X1000873Y74994D01*
X1000961Y74954D01*
X1001050Y74918D01*
X1001141Y74885D01*
X1001234Y74857D01*
X1001327Y74832D01*
X1001421Y74810D01*
X1001516Y74793D01*
X1001612Y74779D01*
X1001708Y74770D01*
X1001804Y74764D01*
X1001901Y74762D01*
X1004300Y74762D01*
X1004423Y74764D01*
X1004546Y74770D01*
X1004669Y74780D01*
X1004791Y74794D01*
X1004913Y74811D01*
X1005034Y74833D01*
X1005154Y74858D01*
X1005274Y74888D01*
X1005392Y74921D01*
X1005509Y74958D01*
X1005626Y74998D01*
X1005740Y75042D01*
X1005854Y75090D01*
X1005965Y75142D01*
X1006075Y75197D01*
X1006183Y75256D01*
X1006290Y75318D01*
X1006394Y75383D01*
X1006496Y75452D01*
X1006596Y75524D01*
X1006693Y75599D01*
X1006788Y75678D01*
X1006880Y75759D01*
X1006970Y75843D01*
X1007057Y75930D01*
X1007141Y76020D01*
X1007222Y76112D01*
X1007301Y76207D01*
X1007376Y76304D01*
X1007448Y76404D01*
X1007517Y76506D01*
X1007582Y76610D01*
X1007644Y76717D01*
X1007703Y76825D01*
X1007758Y76935D01*
X1007810Y77046D01*
X1007857Y77160D01*
X1007902Y77274D01*
X1007942Y77391D01*
X1007979Y77508D01*
X1008012Y77626D01*
X1008042Y77746D01*
X1008067Y77866D01*
X1008089Y77987D01*
X1008106Y78109D01*
X1008120Y78231D01*
X1008130Y78354D01*
X1008136Y78477D01*
X1008138Y78600D01*
X999502Y83906D02*
X999502Y86785D01*
X999504Y86871D01*
X999510Y86957D01*
X999519Y87043D01*
X999533Y87128D01*
X999550Y87212D01*
X999571Y87296D01*
X999596Y87378D01*
X999624Y87459D01*
X999656Y87539D01*
X999692Y87618D01*
X999731Y87694D01*
X999774Y87769D01*
X999819Y87842D01*
X999869Y87913D01*
X999921Y87981D01*
X999976Y88048D01*
X1000034Y88111D01*
X1000095Y88172D01*
X1000158Y88230D01*
X1000225Y88285D01*
X1000293Y88338D01*
X1000364Y88387D01*
X1000437Y88432D01*
X1000512Y88475D01*
X1000588Y88514D01*
X1000667Y88550D01*
X1000747Y88582D01*
X1000828Y88610D01*
X1000911Y88635D01*
X1000994Y88656D01*
X1001078Y88673D01*
X1001163Y88687D01*
X1001249Y88696D01*
X1001335Y88702D01*
X1001421Y88704D01*
X1002381Y88704D01*
X1002467Y88702D01*
X1002553Y88696D01*
X1002639Y88687D01*
X1002724Y88673D01*
X1002808Y88656D01*
X1002892Y88635D01*
X1002974Y88610D01*
X1003055Y88582D01*
X1003135Y88550D01*
X1003214Y88514D01*
X1003290Y88475D01*
X1003365Y88432D01*
X1003438Y88387D01*
X1003509Y88338D01*
X1003577Y88285D01*
X1003644Y88230D01*
X1003707Y88172D01*
X1003768Y88111D01*
X1003826Y88048D01*
X1003881Y87981D01*
X1003934Y87913D01*
X1003983Y87842D01*
X1004028Y87769D01*
X1004071Y87694D01*
X1004110Y87618D01*
X1004146Y87539D01*
X1004178Y87459D01*
X1004206Y87378D01*
X1004231Y87296D01*
X1004252Y87212D01*
X1004269Y87128D01*
X1004283Y87043D01*
X1004292Y86957D01*
X1004298Y86871D01*
X1004300Y86785D01*
X1004300Y83906D01*
X1008138Y83906D01*
X1008138Y88704D01*
X1006939Y93770D02*
X1006785Y93697D01*
X1006630Y93628D01*
X1006473Y93563D01*
X1006315Y93501D01*
X1006155Y93444D01*
X1005994Y93390D01*
X1005831Y93340D01*
X1005668Y93294D01*
X1005503Y93252D01*
X1005337Y93214D01*
X1005171Y93179D01*
X1005004Y93149D01*
X1004836Y93123D01*
X1004668Y93101D01*
X1004499Y93082D01*
X1004329Y93068D01*
X1004160Y93058D01*
X1003990Y93052D01*
X1003820Y93050D01*
X1006939Y93770D02*
X1007015Y93798D01*
X1007090Y93830D01*
X1007164Y93865D01*
X1007236Y93903D01*
X1007306Y93945D01*
X1007374Y93990D01*
X1007440Y94038D01*
X1007504Y94089D01*
X1007565Y94143D01*
X1007624Y94199D01*
X1007680Y94259D01*
X1007733Y94320D01*
X1007783Y94384D01*
X1007831Y94451D01*
X1007875Y94519D01*
X1007916Y94590D01*
X1007954Y94662D01*
X1007988Y94736D01*
X1008019Y94811D01*
X1008047Y94888D01*
X1008071Y94966D01*
X1008091Y95045D01*
X1008108Y95125D01*
X1008121Y95205D01*
X1008131Y95286D01*
X1008136Y95367D01*
X1008138Y95449D01*
X1008136Y95531D01*
X1008131Y95612D01*
X1008121Y95693D01*
X1008108Y95773D01*
X1008091Y95853D01*
X1008071Y95932D01*
X1008047Y96010D01*
X1008019Y96087D01*
X1007988Y96162D01*
X1007954Y96236D01*
X1007916Y96308D01*
X1007875Y96379D01*
X1007831Y96447D01*
X1007783Y96514D01*
X1007733Y96578D01*
X1007680Y96639D01*
X1007624Y96699D01*
X1007565Y96755D01*
X1007504Y96809D01*
X1007440Y96860D01*
X1007374Y96908D01*
X1007306Y96953D01*
X1007236Y96995D01*
X1007164Y97033D01*
X1007090Y97068D01*
X1007015Y97100D01*
X1006939Y97128D01*
X1006785Y97201D01*
X1006630Y97270D01*
X1006473Y97335D01*
X1006315Y97397D01*
X1006155Y97454D01*
X1005994Y97508D01*
X1005831Y97558D01*
X1005668Y97604D01*
X1005503Y97646D01*
X1005337Y97684D01*
X1005171Y97719D01*
X1005004Y97749D01*
X1004836Y97775D01*
X1004668Y97797D01*
X1004499Y97816D01*
X1004329Y97830D01*
X1004160Y97840D01*
X1003990Y97846D01*
X1003820Y97848D01*
X1003820Y93050D02*
X1003650Y93052D01*
X1003480Y93058D01*
X1003311Y93068D01*
X1003141Y93082D01*
X1002972Y93101D01*
X1002804Y93123D01*
X1002636Y93149D01*
X1002469Y93179D01*
X1002303Y93214D01*
X1002137Y93252D01*
X1001972Y93294D01*
X1001809Y93340D01*
X1001647Y93390D01*
X1001485Y93444D01*
X1001326Y93501D01*
X1001167Y93563D01*
X1001010Y93628D01*
X1000855Y93697D01*
X1000701Y93770D01*
X1000625Y93798D01*
X1000550Y93830D01*
X1000476Y93865D01*
X1000404Y93903D01*
X1000334Y93945D01*
X1000266Y93990D01*
X1000200Y94038D01*
X1000136Y94089D01*
X1000075Y94143D01*
X1000016Y94199D01*
X999960Y94259D01*
X999907Y94320D01*
X999857Y94384D01*
X999809Y94451D01*
X999765Y94519D01*
X999724Y94590D01*
X999686Y94662D01*
X999652Y94736D01*
X999621Y94811D01*
X999593Y94888D01*
X999569Y94966D01*
X999549Y95045D01*
X999532Y95125D01*
X999519Y95205D01*
X999509Y95286D01*
X999504Y95367D01*
X999502Y95449D01*
X1000701Y97128D02*
X1000855Y97201D01*
X1001010Y97270D01*
X1001167Y97335D01*
X1001326Y97397D01*
X1001485Y97454D01*
X1001647Y97508D01*
X1001809Y97558D01*
X1001972Y97604D01*
X1002137Y97646D01*
X1002303Y97684D01*
X1002469Y97719D01*
X1002636Y97749D01*
X1002804Y97775D01*
X1002972Y97797D01*
X1003141Y97816D01*
X1003311Y97830D01*
X1003480Y97840D01*
X1003650Y97846D01*
X1003820Y97848D01*
X1000701Y97128D02*
X1000625Y97100D01*
X1000550Y97068D01*
X1000476Y97033D01*
X1000404Y96995D01*
X1000334Y96953D01*
X1000266Y96908D01*
X1000200Y96860D01*
X1000136Y96809D01*
X1000075Y96755D01*
X1000016Y96699D01*
X999960Y96639D01*
X999907Y96578D01*
X999857Y96514D01*
X999809Y96447D01*
X999765Y96379D01*
X999724Y96308D01*
X999686Y96236D01*
X999652Y96162D01*
X999621Y96087D01*
X999593Y96010D01*
X999569Y95932D01*
X999549Y95853D01*
X999532Y95773D01*
X999519Y95693D01*
X999509Y95612D01*
X999504Y95531D01*
X999502Y95449D01*
X1001421Y93530D02*
X1006219Y97368D01*
X1008138Y104833D02*
X1008136Y104925D01*
X1008130Y105016D01*
X1008121Y105107D01*
X1008107Y105198D01*
X1008090Y105288D01*
X1008068Y105377D01*
X1008043Y105465D01*
X1008015Y105552D01*
X1007982Y105638D01*
X1007946Y105722D01*
X1007907Y105805D01*
X1007864Y105886D01*
X1007817Y105965D01*
X1007768Y106042D01*
X1007715Y106117D01*
X1007659Y106189D01*
X1007600Y106259D01*
X1007538Y106327D01*
X1007473Y106392D01*
X1007405Y106454D01*
X1007335Y106513D01*
X1007263Y106569D01*
X1007188Y106622D01*
X1007111Y106671D01*
X1007032Y106718D01*
X1006951Y106761D01*
X1006868Y106800D01*
X1006784Y106836D01*
X1006698Y106869D01*
X1006611Y106897D01*
X1006523Y106922D01*
X1006434Y106944D01*
X1006344Y106961D01*
X1006253Y106975D01*
X1006162Y106984D01*
X1006071Y106990D01*
X1005979Y106992D01*
X1008138Y104833D02*
X1008136Y104730D01*
X1008130Y104628D01*
X1008121Y104526D01*
X1008108Y104424D01*
X1008091Y104323D01*
X1008070Y104222D01*
X1008046Y104123D01*
X1008017Y104024D01*
X1007986Y103927D01*
X1007950Y103830D01*
X1007912Y103735D01*
X1007869Y103642D01*
X1007823Y103550D01*
X1007774Y103460D01*
X1007722Y103372D01*
X1007666Y103285D01*
X1007607Y103201D01*
X1007546Y103120D01*
X1007481Y103040D01*
X1007413Y102963D01*
X1007342Y102888D01*
X1007269Y102817D01*
X1007193Y102748D01*
X1007115Y102681D01*
X1007034Y102618D01*
X1006951Y102558D01*
X1006866Y102501D01*
X1006779Y102447D01*
X1006689Y102396D01*
X1006598Y102349D01*
X1006506Y102305D01*
X1006411Y102264D01*
X1006316Y102227D01*
X1006219Y102194D01*
X1004300Y106272D02*
X1004366Y106339D01*
X1004435Y106403D01*
X1004506Y106464D01*
X1004580Y106522D01*
X1004656Y106577D01*
X1004734Y106629D01*
X1004814Y106678D01*
X1004896Y106724D01*
X1004980Y106766D01*
X1005066Y106805D01*
X1005153Y106840D01*
X1005241Y106871D01*
X1005331Y106899D01*
X1005421Y106924D01*
X1005513Y106945D01*
X1005605Y106962D01*
X1005698Y106975D01*
X1005791Y106984D01*
X1005885Y106990D01*
X1005979Y106992D01*
X1004300Y106272D02*
X999502Y102194D01*
X999502Y106992D01*
X1002860Y111468D02*
X1002860Y117225D01*
X1002860Y122291D02*
X1001901Y124690D01*
X1002860Y122291D02*
X1002887Y122228D01*
X1002918Y122166D01*
X1002953Y122106D01*
X1002990Y122048D01*
X1003031Y121992D01*
X1003074Y121939D01*
X1003121Y121888D01*
X1003170Y121840D01*
X1003222Y121794D01*
X1003277Y121752D01*
X1003334Y121712D01*
X1003392Y121676D01*
X1003453Y121643D01*
X1003516Y121614D01*
X1003579Y121588D01*
X1003645Y121565D01*
X1003711Y121547D01*
X1003779Y121532D01*
X1003847Y121520D01*
X1003915Y121513D01*
X1003984Y121509D01*
X1004053Y121510D01*
X1004122Y121514D01*
X1004191Y121522D01*
X1004259Y121533D01*
X1004326Y121549D01*
X1004393Y121568D01*
X1004458Y121590D01*
X1004522Y121617D01*
X1004584Y121647D01*
X1004644Y121680D01*
X1004703Y121717D01*
X1004759Y121756D01*
X1004814Y121799D01*
X1004865Y121845D01*
X1004914Y121893D01*
X1004961Y121945D01*
X1005004Y121998D01*
X1005044Y122054D01*
X1005081Y122113D01*
X1005115Y122173D01*
X1005146Y122235D01*
X1005173Y122298D01*
X1005196Y122363D01*
X1005216Y122429D01*
X1005232Y122496D01*
X1005245Y122564D01*
X1005253Y122633D01*
X1005258Y122702D01*
X1005259Y122771D01*
X1005256Y122910D01*
X1005248Y123049D01*
X1005237Y123188D01*
X1005223Y123326D01*
X1005205Y123464D01*
X1005184Y123602D01*
X1005159Y123739D01*
X1005130Y123875D01*
X1005098Y124011D01*
X1005063Y124145D01*
X1005024Y124279D01*
X1004982Y124412D01*
X1004936Y124543D01*
X1004887Y124673D01*
X1004835Y124802D01*
X1004780Y124930D01*
X1001901Y124690D02*
X1001874Y124753D01*
X1001843Y124815D01*
X1001808Y124875D01*
X1001771Y124933D01*
X1001730Y124989D01*
X1001687Y125042D01*
X1001640Y125093D01*
X1001591Y125141D01*
X1001539Y125187D01*
X1001484Y125229D01*
X1001427Y125269D01*
X1001369Y125305D01*
X1001308Y125338D01*
X1001246Y125367D01*
X1001182Y125393D01*
X1001116Y125416D01*
X1001050Y125434D01*
X1000982Y125449D01*
X1000914Y125461D01*
X1000846Y125468D01*
X1000777Y125472D01*
X1000708Y125471D01*
X1000639Y125467D01*
X1000570Y125459D01*
X1000502Y125448D01*
X1000435Y125432D01*
X1000368Y125413D01*
X1000303Y125391D01*
X1000239Y125364D01*
X1000177Y125334D01*
X1000117Y125301D01*
X1000058Y125264D01*
X1000002Y125225D01*
X999947Y125182D01*
X999896Y125136D01*
X999847Y125088D01*
X999800Y125036D01*
X999757Y124983D01*
X999717Y124927D01*
X999680Y124868D01*
X999646Y124808D01*
X999615Y124746D01*
X999588Y124683D01*
X999565Y124618D01*
X999545Y124552D01*
X999529Y124485D01*
X999516Y124417D01*
X999508Y124348D01*
X999503Y124279D01*
X999502Y124210D01*
X999507Y124017D01*
X999516Y123825D01*
X999531Y123633D01*
X999549Y123442D01*
X999572Y123251D01*
X999600Y123060D01*
X999632Y122870D01*
X999669Y122681D01*
X999710Y122493D01*
X999756Y122306D01*
X999806Y122121D01*
X999860Y121936D01*
X999919Y121753D01*
X999982Y121571D01*
X999502Y129801D02*
X1008138Y129801D01*
X1005259Y129801D02*
X1005259Y132200D01*
X1005257Y132275D01*
X1005251Y132350D01*
X1005241Y132425D01*
X1005228Y132499D01*
X1005210Y132572D01*
X1005189Y132645D01*
X1005163Y132716D01*
X1005135Y132785D01*
X1005102Y132853D01*
X1005066Y132920D01*
X1005027Y132984D01*
X1004984Y133046D01*
X1004938Y133106D01*
X1004889Y133163D01*
X1004838Y133218D01*
X1004783Y133269D01*
X1004726Y133318D01*
X1004666Y133364D01*
X1004604Y133407D01*
X1004540Y133446D01*
X1004473Y133482D01*
X1004405Y133515D01*
X1004336Y133543D01*
X1004265Y133569D01*
X1004192Y133590D01*
X1004119Y133608D01*
X1004045Y133621D01*
X1003970Y133631D01*
X1003895Y133637D01*
X1003820Y133639D01*
X999502Y133639D01*
X999502Y137816D02*
X1005259Y137816D01*
X1007658Y137576D02*
X1008138Y137576D01*
X1008138Y138056D01*
X1007658Y138056D01*
X1007658Y137576D01*
X999502Y143127D02*
X999502Y145526D01*
X999502Y143127D02*
X999504Y143052D01*
X999510Y142977D01*
X999520Y142902D01*
X999533Y142828D01*
X999551Y142755D01*
X999572Y142682D01*
X999598Y142611D01*
X999626Y142542D01*
X999659Y142474D01*
X999695Y142408D01*
X999734Y142343D01*
X999777Y142281D01*
X999823Y142221D01*
X999872Y142164D01*
X999923Y142109D01*
X999978Y142058D01*
X1000035Y142009D01*
X1000095Y141963D01*
X1000157Y141920D01*
X1000222Y141881D01*
X1000288Y141845D01*
X1000356Y141812D01*
X1000425Y141784D01*
X1000496Y141758D01*
X1000569Y141737D01*
X1000642Y141719D01*
X1000716Y141706D01*
X1000791Y141696D01*
X1000866Y141690D01*
X1000941Y141688D01*
X1003340Y141688D01*
X1003426Y141690D01*
X1003512Y141696D01*
X1003598Y141705D01*
X1003683Y141719D01*
X1003767Y141736D01*
X1003851Y141757D01*
X1003933Y141782D01*
X1004014Y141810D01*
X1004094Y141842D01*
X1004173Y141878D01*
X1004249Y141917D01*
X1004324Y141960D01*
X1004397Y142005D01*
X1004468Y142054D01*
X1004536Y142107D01*
X1004603Y142162D01*
X1004666Y142220D01*
X1004727Y142281D01*
X1004785Y142344D01*
X1004840Y142411D01*
X1004893Y142479D01*
X1004942Y142550D01*
X1004987Y142623D01*
X1005030Y142698D01*
X1005069Y142774D01*
X1005105Y142853D01*
X1005137Y142933D01*
X1005165Y143014D01*
X1005190Y143096D01*
X1005211Y143180D01*
X1005228Y143264D01*
X1005242Y143349D01*
X1005251Y143435D01*
X1005257Y143521D01*
X1005259Y143607D01*
X1005257Y143693D01*
X1005251Y143779D01*
X1005242Y143865D01*
X1005228Y143950D01*
X1005211Y144034D01*
X1005190Y144118D01*
X1005165Y144200D01*
X1005137Y144281D01*
X1005105Y144361D01*
X1005069Y144440D01*
X1005030Y144516D01*
X1004987Y144591D01*
X1004942Y144664D01*
X1004893Y144735D01*
X1004840Y144803D01*
X1004785Y144870D01*
X1004727Y144933D01*
X1004666Y144994D01*
X1004603Y145052D01*
X1004536Y145107D01*
X1004468Y145160D01*
X1004397Y145209D01*
X1004324Y145254D01*
X1004249Y145297D01*
X1004173Y145336D01*
X1004094Y145372D01*
X1004014Y145404D01*
X1003933Y145432D01*
X1003851Y145457D01*
X1003767Y145478D01*
X1003683Y145495D01*
X1003598Y145509D01*
X1003512Y145518D01*
X1003426Y145524D01*
X1003340Y145526D01*
X1002381Y145526D01*
X1002381Y141688D01*
X1000941Y149651D02*
X1008138Y149651D01*
X1000941Y149652D02*
X1000866Y149654D01*
X1000791Y149660D01*
X1000716Y149670D01*
X1000642Y149683D01*
X1000569Y149701D01*
X1000496Y149722D01*
X1000425Y149748D01*
X1000356Y149776D01*
X1000288Y149809D01*
X1000222Y149845D01*
X1000157Y149884D01*
X1000095Y149927D01*
X1000035Y149973D01*
X999978Y150022D01*
X999923Y150073D01*
X999872Y150128D01*
X999823Y150185D01*
X999777Y150245D01*
X999734Y150307D01*
X999695Y150372D01*
X999659Y150438D01*
X999626Y150506D01*
X999598Y150575D01*
X999572Y150646D01*
X999551Y150719D01*
X999533Y150792D01*
X999520Y150866D01*
X999510Y150941D01*
X999504Y151016D01*
X999502Y151091D01*
X999502Y158260D02*
X1008138Y158260D01*
X999502Y158260D02*
X999502Y155861D01*
X999504Y155786D01*
X999510Y155711D01*
X999520Y155636D01*
X999533Y155562D01*
X999551Y155489D01*
X999572Y155416D01*
X999598Y155345D01*
X999626Y155276D01*
X999659Y155208D01*
X999695Y155142D01*
X999734Y155077D01*
X999777Y155015D01*
X999823Y154955D01*
X999872Y154898D01*
X999923Y154843D01*
X999978Y154792D01*
X1000035Y154743D01*
X1000095Y154697D01*
X1000157Y154654D01*
X1000222Y154615D01*
X1000288Y154579D01*
X1000356Y154546D01*
X1000425Y154518D01*
X1000496Y154492D01*
X1000569Y154471D01*
X1000642Y154453D01*
X1000716Y154440D01*
X1000791Y154430D01*
X1000866Y154424D01*
X1000941Y154422D01*
X1003820Y154422D01*
X1003895Y154424D01*
X1003970Y154430D01*
X1004045Y154440D01*
X1004119Y154453D01*
X1004192Y154471D01*
X1004265Y154492D01*
X1004336Y154518D01*
X1004405Y154546D01*
X1004473Y154579D01*
X1004540Y154615D01*
X1004604Y154654D01*
X1004666Y154697D01*
X1004726Y154743D01*
X1004783Y154792D01*
X1004838Y154843D01*
X1004889Y154898D01*
X1004938Y154955D01*
X1004984Y155015D01*
X1005027Y155077D01*
X1005066Y155142D01*
X1005102Y155208D01*
X1005135Y155276D01*
X1005163Y155345D01*
X1005189Y155416D01*
X1005210Y155489D01*
X1005228Y155562D01*
X1005241Y155636D01*
X1005251Y155711D01*
X1005257Y155786D01*
X1005259Y155861D01*
X1005259Y158260D01*
X992898Y74762D02*
X984262Y74762D01*
X992898Y74762D02*
X992898Y77161D01*
X992896Y77258D01*
X992890Y77354D01*
X992881Y77450D01*
X992867Y77546D01*
X992850Y77641D01*
X992828Y77735D01*
X992803Y77828D01*
X992775Y77921D01*
X992742Y78012D01*
X992706Y78101D01*
X992666Y78189D01*
X992623Y78276D01*
X992577Y78361D01*
X992527Y78443D01*
X992473Y78524D01*
X992417Y78602D01*
X992357Y78678D01*
X992295Y78752D01*
X992229Y78823D01*
X992161Y78891D01*
X992090Y78957D01*
X992016Y79019D01*
X991940Y79079D01*
X991862Y79135D01*
X991781Y79189D01*
X991699Y79239D01*
X991614Y79285D01*
X991527Y79328D01*
X991439Y79368D01*
X991350Y79404D01*
X991259Y79437D01*
X991166Y79465D01*
X991073Y79490D01*
X990979Y79512D01*
X990884Y79529D01*
X990788Y79543D01*
X990692Y79552D01*
X990596Y79558D01*
X990499Y79560D01*
X990402Y79558D01*
X990306Y79552D01*
X990210Y79543D01*
X990114Y79529D01*
X990019Y79512D01*
X989925Y79490D01*
X989832Y79465D01*
X989739Y79437D01*
X989648Y79404D01*
X989559Y79368D01*
X989471Y79328D01*
X989384Y79285D01*
X989300Y79239D01*
X989217Y79189D01*
X989136Y79135D01*
X989058Y79079D01*
X988982Y79019D01*
X988908Y78957D01*
X988837Y78891D01*
X988769Y78823D01*
X988703Y78752D01*
X988641Y78678D01*
X988581Y78602D01*
X988525Y78524D01*
X988471Y78443D01*
X988421Y78361D01*
X988375Y78276D01*
X988332Y78189D01*
X988292Y78101D01*
X988256Y78012D01*
X988223Y77921D01*
X988195Y77828D01*
X988170Y77735D01*
X988148Y77641D01*
X988131Y77546D01*
X988117Y77450D01*
X988108Y77354D01*
X988102Y77258D01*
X988100Y77161D01*
X988100Y74762D01*
X988100Y77641D02*
X984262Y79560D01*
X984262Y84152D02*
X984262Y87990D01*
X984262Y84152D02*
X992898Y84152D01*
X992898Y87990D01*
X989060Y87031D02*
X989060Y84152D01*
X992898Y91266D02*
X984262Y94145D01*
X992898Y97024D01*
X989060Y106266D02*
X989060Y108665D01*
X989058Y108762D01*
X989052Y108858D01*
X989043Y108954D01*
X989029Y109050D01*
X989012Y109145D01*
X988990Y109239D01*
X988965Y109332D01*
X988937Y109425D01*
X988904Y109516D01*
X988868Y109605D01*
X988828Y109693D01*
X988785Y109780D01*
X988739Y109865D01*
X988689Y109947D01*
X988635Y110028D01*
X988579Y110106D01*
X988519Y110182D01*
X988457Y110256D01*
X988391Y110327D01*
X988323Y110395D01*
X988252Y110461D01*
X988178Y110523D01*
X988102Y110583D01*
X988024Y110639D01*
X987943Y110693D01*
X987861Y110743D01*
X987776Y110789D01*
X987689Y110832D01*
X987601Y110872D01*
X987512Y110908D01*
X987421Y110941D01*
X987328Y110969D01*
X987235Y110994D01*
X987141Y111016D01*
X987046Y111033D01*
X986950Y111047D01*
X986854Y111056D01*
X986758Y111062D01*
X986661Y111064D01*
X986564Y111062D01*
X986468Y111056D01*
X986372Y111047D01*
X986276Y111033D01*
X986181Y111016D01*
X986087Y110994D01*
X985994Y110969D01*
X985901Y110941D01*
X985810Y110908D01*
X985721Y110872D01*
X985633Y110832D01*
X985546Y110789D01*
X985462Y110743D01*
X985379Y110693D01*
X985298Y110639D01*
X985220Y110583D01*
X985144Y110523D01*
X985070Y110461D01*
X984999Y110395D01*
X984931Y110327D01*
X984865Y110256D01*
X984803Y110182D01*
X984743Y110106D01*
X984687Y110028D01*
X984633Y109947D01*
X984583Y109865D01*
X984537Y109780D01*
X984494Y109693D01*
X984454Y109605D01*
X984418Y109516D01*
X984385Y109425D01*
X984357Y109332D01*
X984332Y109239D01*
X984310Y109145D01*
X984293Y109050D01*
X984279Y108954D01*
X984270Y108858D01*
X984264Y108762D01*
X984262Y108665D01*
X984262Y106266D01*
X992898Y106266D01*
X992898Y108665D01*
X992896Y108751D01*
X992890Y108837D01*
X992881Y108923D01*
X992867Y109008D01*
X992850Y109092D01*
X992829Y109176D01*
X992804Y109258D01*
X992776Y109339D01*
X992744Y109419D01*
X992708Y109498D01*
X992669Y109574D01*
X992626Y109649D01*
X992581Y109722D01*
X992532Y109793D01*
X992479Y109861D01*
X992424Y109928D01*
X992366Y109991D01*
X992305Y110052D01*
X992242Y110110D01*
X992175Y110165D01*
X992107Y110218D01*
X992036Y110267D01*
X991963Y110312D01*
X991888Y110355D01*
X991812Y110394D01*
X991733Y110430D01*
X991653Y110462D01*
X991572Y110490D01*
X991490Y110515D01*
X991406Y110536D01*
X991322Y110553D01*
X991237Y110567D01*
X991151Y110576D01*
X991065Y110582D01*
X990979Y110584D01*
X990893Y110582D01*
X990807Y110576D01*
X990721Y110567D01*
X990636Y110553D01*
X990552Y110536D01*
X990468Y110515D01*
X990386Y110490D01*
X990305Y110462D01*
X990225Y110430D01*
X990146Y110394D01*
X990070Y110355D01*
X989995Y110312D01*
X989922Y110267D01*
X989851Y110218D01*
X989783Y110165D01*
X989716Y110110D01*
X989653Y110052D01*
X989592Y109991D01*
X989534Y109928D01*
X989479Y109861D01*
X989426Y109793D01*
X989377Y109722D01*
X989332Y109649D01*
X989289Y109574D01*
X989250Y109498D01*
X989214Y109419D01*
X989182Y109339D01*
X989154Y109258D01*
X989129Y109176D01*
X989108Y109092D01*
X989091Y109008D01*
X989077Y108923D01*
X989068Y108837D01*
X989062Y108751D01*
X989060Y108665D01*
D11*
X804794Y301461D03*
D12*
X811832Y303361D02*
X856832Y303361D01*
X856832Y372209D02*
X811832Y372209D01*
D11*
X805416Y205414D03*
D12*
X812454Y207314D02*
X857454Y207314D01*
X857454Y276162D02*
X812454Y276162D01*
D11*
X805462Y93676D03*
D12*
X812500Y95576D02*
X857500Y95576D01*
X857500Y164424D02*
X812500Y164424D01*
D11*
X325894Y201229D03*
D12*
X318856Y199329D02*
X273856Y199329D01*
X273856Y130481D02*
X318856Y130481D01*
D11*
X326132Y109157D03*
D12*
X319094Y107257D02*
X274094Y107257D01*
X274094Y38409D02*
X319094Y38409D01*
D11*
X805604Y413604D03*
D12*
X812642Y415504D02*
X857642Y415504D01*
X857642Y484352D02*
X812642Y484352D01*
M02*
