G04 EAGLE Gerber RS-274X export*
G75*
%MOMM*%
%FSLAX34Y34*%
%LPD*%
%INSilkscreen Top*%
%IPPOS*%
%AMOC8*
5,1,8,0,0,1.08239X$1,22.5*%
G01*
%ADD10C,0.127000*%
%ADD11C,0.101600*%
%ADD12C,0.152400*%
%ADD13C,0.279400*%
%ADD14C,0.203200*%
%ADD15C,0.120000*%
%ADD16C,0.500000*%
%ADD17C,0.406400*%
%ADD18C,0.254000*%
%ADD19R,0.060963X0.063500*%
%ADD20R,0.066037X0.063500*%
%ADD21R,0.124463X0.063500*%
%ADD22R,0.063500X0.063500*%
%ADD23R,0.190500X0.063500*%
%ADD24R,0.127000X0.063500*%
%ADD25R,0.129537X0.063500*%
%ADD26R,0.254000X0.063500*%
%ADD27R,0.317500X0.063500*%
%ADD28R,0.187963X0.063500*%
%ADD29R,0.251463X0.063500*%
%ADD30R,0.256538X0.063500*%
%ADD31R,0.193038X0.063500*%
%ADD32R,0.320038X0.063500*%
%ADD33R,0.381000X0.063500*%


D10*
X87493Y9263D02*
X80635Y9263D01*
X80635Y11168D01*
X80637Y11253D01*
X80643Y11339D01*
X80652Y11424D01*
X80666Y11508D01*
X80683Y11592D01*
X80704Y11675D01*
X80728Y11757D01*
X80756Y11837D01*
X80788Y11917D01*
X80824Y11995D01*
X80862Y12071D01*
X80905Y12145D01*
X80950Y12217D01*
X80999Y12288D01*
X81051Y12356D01*
X81105Y12421D01*
X81163Y12484D01*
X81224Y12545D01*
X81287Y12603D01*
X81352Y12657D01*
X81420Y12709D01*
X81491Y12758D01*
X81563Y12803D01*
X81637Y12846D01*
X81713Y12884D01*
X81791Y12920D01*
X81871Y12952D01*
X81951Y12980D01*
X82033Y13004D01*
X82116Y13025D01*
X82200Y13042D01*
X82284Y13056D01*
X82369Y13065D01*
X82455Y13071D01*
X82540Y13073D01*
X82625Y13071D01*
X82711Y13065D01*
X82796Y13056D01*
X82880Y13042D01*
X82964Y13025D01*
X83047Y13004D01*
X83129Y12980D01*
X83209Y12952D01*
X83289Y12920D01*
X83367Y12884D01*
X83443Y12846D01*
X83517Y12803D01*
X83589Y12758D01*
X83660Y12709D01*
X83728Y12657D01*
X83793Y12603D01*
X83856Y12545D01*
X83917Y12484D01*
X83975Y12421D01*
X84029Y12356D01*
X84081Y12288D01*
X84130Y12217D01*
X84175Y12145D01*
X84218Y12071D01*
X84256Y11995D01*
X84292Y11917D01*
X84324Y11837D01*
X84352Y11757D01*
X84376Y11675D01*
X84397Y11592D01*
X84414Y11508D01*
X84428Y11424D01*
X84437Y11339D01*
X84443Y11253D01*
X84445Y11168D01*
X84445Y9263D01*
X84445Y11549D02*
X87493Y13073D01*
X85588Y16752D02*
X80635Y16752D01*
X85588Y16752D02*
X85673Y16754D01*
X85759Y16760D01*
X85844Y16769D01*
X85928Y16783D01*
X86012Y16800D01*
X86095Y16821D01*
X86177Y16845D01*
X86257Y16873D01*
X86337Y16905D01*
X86415Y16941D01*
X86491Y16979D01*
X86565Y17022D01*
X86637Y17067D01*
X86708Y17116D01*
X86776Y17168D01*
X86841Y17222D01*
X86904Y17280D01*
X86965Y17341D01*
X87023Y17404D01*
X87077Y17469D01*
X87129Y17537D01*
X87178Y17608D01*
X87223Y17680D01*
X87266Y17754D01*
X87304Y17830D01*
X87340Y17908D01*
X87372Y17988D01*
X87400Y18068D01*
X87424Y18150D01*
X87445Y18233D01*
X87462Y18317D01*
X87476Y18401D01*
X87485Y18486D01*
X87491Y18572D01*
X87493Y18657D01*
X87491Y18742D01*
X87485Y18828D01*
X87476Y18913D01*
X87462Y18997D01*
X87445Y19081D01*
X87424Y19164D01*
X87400Y19246D01*
X87372Y19326D01*
X87340Y19406D01*
X87304Y19484D01*
X87266Y19560D01*
X87223Y19634D01*
X87178Y19706D01*
X87129Y19777D01*
X87077Y19845D01*
X87023Y19910D01*
X86965Y19973D01*
X86904Y20034D01*
X86841Y20092D01*
X86776Y20146D01*
X86708Y20198D01*
X86637Y20247D01*
X86565Y20292D01*
X86491Y20335D01*
X86415Y20373D01*
X86337Y20409D01*
X86257Y20441D01*
X86177Y20469D01*
X86095Y20493D01*
X86012Y20514D01*
X85928Y20531D01*
X85844Y20545D01*
X85759Y20554D01*
X85673Y20560D01*
X85588Y20562D01*
X80635Y20562D01*
X80635Y24555D02*
X87493Y24555D01*
X87493Y28365D02*
X80635Y24555D01*
X80635Y28365D02*
X87493Y28365D01*
X47493Y4829D02*
X40635Y4829D01*
X43683Y4829D02*
X43683Y8639D01*
X40635Y8639D02*
X47493Y8639D01*
X47493Y12007D02*
X40635Y14293D01*
X47493Y16579D01*
X45779Y16007D02*
X45779Y12578D01*
X47493Y19968D02*
X40635Y19968D01*
X47493Y19968D02*
X47493Y23016D01*
X47493Y27460D02*
X40635Y27460D01*
X40635Y25555D02*
X40635Y29365D01*
X240841Y28445D02*
X240918Y28443D01*
X240995Y28437D01*
X241072Y28427D01*
X241148Y28414D01*
X241223Y28396D01*
X241297Y28375D01*
X241370Y28350D01*
X241442Y28321D01*
X241512Y28289D01*
X241581Y28254D01*
X241647Y28214D01*
X241712Y28172D01*
X241774Y28126D01*
X241834Y28077D01*
X241891Y28026D01*
X241946Y27971D01*
X241997Y27914D01*
X242046Y27854D01*
X242092Y27792D01*
X242134Y27727D01*
X242174Y27661D01*
X242209Y27592D01*
X242241Y27522D01*
X242270Y27450D01*
X242295Y27377D01*
X242316Y27303D01*
X242334Y27228D01*
X242347Y27152D01*
X242357Y27075D01*
X242363Y26998D01*
X242365Y26921D01*
X242363Y26811D01*
X242357Y26700D01*
X242348Y26590D01*
X242335Y26480D01*
X242318Y26371D01*
X242297Y26263D01*
X242273Y26155D01*
X242244Y26048D01*
X242213Y25942D01*
X242177Y25838D01*
X242138Y25734D01*
X242096Y25632D01*
X242050Y25532D01*
X242000Y25433D01*
X241948Y25336D01*
X241891Y25240D01*
X241832Y25147D01*
X241770Y25056D01*
X241704Y24967D01*
X241636Y24880D01*
X241564Y24796D01*
X241490Y24714D01*
X241413Y24635D01*
X237031Y24826D02*
X236954Y24828D01*
X236877Y24834D01*
X236800Y24844D01*
X236724Y24857D01*
X236649Y24875D01*
X236575Y24896D01*
X236502Y24921D01*
X236430Y24950D01*
X236360Y24982D01*
X236291Y25017D01*
X236225Y25057D01*
X236160Y25099D01*
X236098Y25145D01*
X236038Y25194D01*
X235981Y25245D01*
X235926Y25300D01*
X235875Y25357D01*
X235826Y25417D01*
X235780Y25479D01*
X235738Y25544D01*
X235698Y25610D01*
X235663Y25679D01*
X235631Y25749D01*
X235602Y25821D01*
X235577Y25894D01*
X235556Y25968D01*
X235538Y26043D01*
X235525Y26119D01*
X235515Y26196D01*
X235509Y26273D01*
X235507Y26350D01*
X235509Y26452D01*
X235514Y26554D01*
X235523Y26656D01*
X235536Y26757D01*
X235553Y26858D01*
X235572Y26958D01*
X235596Y27058D01*
X235623Y27156D01*
X235654Y27254D01*
X235688Y27350D01*
X235725Y27445D01*
X235766Y27539D01*
X235810Y27631D01*
X235858Y27721D01*
X235908Y27810D01*
X235962Y27897D01*
X236019Y27982D01*
X236079Y28065D01*
X238365Y25587D02*
X238324Y25522D01*
X238281Y25459D01*
X238234Y25399D01*
X238184Y25340D01*
X238132Y25285D01*
X238077Y25232D01*
X238019Y25181D01*
X237959Y25134D01*
X237896Y25090D01*
X237832Y25048D01*
X237766Y25010D01*
X237697Y24976D01*
X237627Y24945D01*
X237556Y24917D01*
X237484Y24893D01*
X237410Y24872D01*
X237335Y24855D01*
X237260Y24842D01*
X237184Y24833D01*
X237108Y24827D01*
X237031Y24825D01*
X239507Y27683D02*
X239548Y27748D01*
X239591Y27811D01*
X239638Y27871D01*
X239688Y27930D01*
X239740Y27985D01*
X239795Y28038D01*
X239853Y28089D01*
X239913Y28136D01*
X239976Y28180D01*
X240040Y28222D01*
X240106Y28260D01*
X240175Y28294D01*
X240245Y28325D01*
X240316Y28353D01*
X240388Y28377D01*
X240462Y28398D01*
X240537Y28415D01*
X240612Y28428D01*
X240688Y28437D01*
X240764Y28443D01*
X240841Y28445D01*
X239508Y27683D02*
X238365Y25588D01*
X235507Y33124D02*
X242365Y33124D01*
X235507Y31219D02*
X235507Y35029D01*
X242365Y38311D02*
X242365Y41359D01*
X242365Y38311D02*
X235507Y38311D01*
X235507Y41359D01*
X238555Y40597D02*
X238555Y38311D01*
X235507Y44790D02*
X242365Y44790D01*
X235507Y44790D02*
X235507Y46695D01*
X235509Y46780D01*
X235515Y46866D01*
X235524Y46951D01*
X235538Y47035D01*
X235555Y47119D01*
X235576Y47202D01*
X235600Y47284D01*
X235628Y47364D01*
X235660Y47444D01*
X235696Y47522D01*
X235734Y47598D01*
X235777Y47672D01*
X235822Y47744D01*
X235871Y47815D01*
X235923Y47883D01*
X235977Y47948D01*
X236035Y48011D01*
X236096Y48072D01*
X236159Y48130D01*
X236224Y48184D01*
X236292Y48236D01*
X236363Y48285D01*
X236435Y48330D01*
X236509Y48373D01*
X236585Y48411D01*
X236663Y48447D01*
X236743Y48479D01*
X236823Y48507D01*
X236905Y48531D01*
X236988Y48552D01*
X237072Y48569D01*
X237156Y48583D01*
X237241Y48592D01*
X237327Y48598D01*
X237412Y48600D01*
X237497Y48598D01*
X237583Y48592D01*
X237668Y48583D01*
X237752Y48569D01*
X237836Y48552D01*
X237919Y48531D01*
X238001Y48507D01*
X238081Y48479D01*
X238161Y48447D01*
X238239Y48411D01*
X238315Y48373D01*
X238389Y48330D01*
X238461Y48285D01*
X238532Y48236D01*
X238600Y48184D01*
X238665Y48130D01*
X238728Y48072D01*
X238789Y48011D01*
X238847Y47948D01*
X238901Y47883D01*
X238953Y47815D01*
X239002Y47744D01*
X239047Y47672D01*
X239090Y47598D01*
X239128Y47522D01*
X239164Y47444D01*
X239196Y47364D01*
X239224Y47284D01*
X239248Y47202D01*
X239269Y47119D01*
X239286Y47035D01*
X239300Y46951D01*
X239309Y46866D01*
X239315Y46780D01*
X239317Y46695D01*
X239317Y44790D01*
X124865Y177135D02*
X118007Y177135D01*
X118007Y179040D01*
X118009Y179125D01*
X118015Y179211D01*
X118024Y179296D01*
X118038Y179380D01*
X118055Y179464D01*
X118076Y179547D01*
X118100Y179629D01*
X118128Y179709D01*
X118160Y179789D01*
X118196Y179867D01*
X118234Y179943D01*
X118277Y180017D01*
X118322Y180089D01*
X118371Y180160D01*
X118423Y180228D01*
X118477Y180293D01*
X118535Y180356D01*
X118596Y180417D01*
X118659Y180475D01*
X118724Y180529D01*
X118792Y180581D01*
X118863Y180630D01*
X118935Y180675D01*
X119009Y180718D01*
X119085Y180756D01*
X119163Y180792D01*
X119243Y180824D01*
X119323Y180852D01*
X119405Y180876D01*
X119488Y180897D01*
X119572Y180914D01*
X119656Y180928D01*
X119741Y180937D01*
X119827Y180943D01*
X119912Y180945D01*
X119997Y180943D01*
X120083Y180937D01*
X120168Y180928D01*
X120252Y180914D01*
X120336Y180897D01*
X120419Y180876D01*
X120501Y180852D01*
X120581Y180824D01*
X120661Y180792D01*
X120739Y180756D01*
X120815Y180718D01*
X120889Y180675D01*
X120961Y180630D01*
X121032Y180581D01*
X121100Y180529D01*
X121165Y180475D01*
X121228Y180417D01*
X121289Y180356D01*
X121347Y180293D01*
X121401Y180228D01*
X121453Y180160D01*
X121502Y180089D01*
X121547Y180017D01*
X121590Y179943D01*
X121628Y179867D01*
X121664Y179789D01*
X121696Y179709D01*
X121724Y179629D01*
X121748Y179547D01*
X121769Y179464D01*
X121786Y179380D01*
X121800Y179296D01*
X121809Y179211D01*
X121815Y179125D01*
X121817Y179040D01*
X121817Y177135D01*
X121817Y179421D02*
X124865Y180945D01*
X124865Y184646D02*
X124865Y187694D01*
X124865Y184646D02*
X118007Y184646D01*
X118007Y187694D01*
X121055Y186932D02*
X121055Y184646D01*
X124865Y192763D02*
X124863Y192840D01*
X124857Y192917D01*
X124847Y192994D01*
X124834Y193070D01*
X124816Y193145D01*
X124795Y193219D01*
X124770Y193292D01*
X124741Y193364D01*
X124709Y193434D01*
X124674Y193503D01*
X124634Y193569D01*
X124592Y193634D01*
X124546Y193696D01*
X124497Y193756D01*
X124446Y193813D01*
X124391Y193868D01*
X124334Y193919D01*
X124274Y193968D01*
X124212Y194014D01*
X124147Y194056D01*
X124081Y194096D01*
X124012Y194131D01*
X123942Y194163D01*
X123870Y194192D01*
X123797Y194217D01*
X123723Y194238D01*
X123648Y194256D01*
X123572Y194269D01*
X123495Y194279D01*
X123418Y194285D01*
X123341Y194287D01*
X124865Y192763D02*
X124863Y192653D01*
X124857Y192542D01*
X124848Y192432D01*
X124835Y192322D01*
X124818Y192213D01*
X124797Y192105D01*
X124773Y191997D01*
X124744Y191890D01*
X124713Y191784D01*
X124677Y191680D01*
X124638Y191576D01*
X124596Y191474D01*
X124550Y191374D01*
X124500Y191275D01*
X124448Y191178D01*
X124391Y191082D01*
X124332Y190989D01*
X124270Y190898D01*
X124204Y190809D01*
X124136Y190722D01*
X124064Y190638D01*
X123990Y190556D01*
X123913Y190477D01*
X119531Y190667D02*
X119454Y190669D01*
X119377Y190675D01*
X119300Y190685D01*
X119224Y190698D01*
X119149Y190716D01*
X119075Y190737D01*
X119002Y190762D01*
X118930Y190791D01*
X118860Y190823D01*
X118791Y190858D01*
X118725Y190898D01*
X118660Y190940D01*
X118598Y190986D01*
X118538Y191035D01*
X118481Y191086D01*
X118426Y191141D01*
X118375Y191198D01*
X118326Y191258D01*
X118280Y191320D01*
X118238Y191385D01*
X118198Y191451D01*
X118163Y191520D01*
X118131Y191590D01*
X118102Y191662D01*
X118077Y191735D01*
X118056Y191809D01*
X118038Y191884D01*
X118025Y191960D01*
X118015Y192037D01*
X118009Y192114D01*
X118007Y192191D01*
X118009Y192293D01*
X118014Y192395D01*
X118023Y192497D01*
X118036Y192598D01*
X118053Y192699D01*
X118072Y192799D01*
X118096Y192899D01*
X118123Y192997D01*
X118154Y193095D01*
X118188Y193191D01*
X118225Y193286D01*
X118266Y193380D01*
X118310Y193472D01*
X118358Y193562D01*
X118408Y193651D01*
X118462Y193738D01*
X118519Y193823D01*
X118579Y193906D01*
X120865Y191429D02*
X120824Y191364D01*
X120781Y191301D01*
X120734Y191241D01*
X120684Y191182D01*
X120632Y191127D01*
X120577Y191074D01*
X120519Y191023D01*
X120459Y190976D01*
X120396Y190932D01*
X120332Y190890D01*
X120266Y190852D01*
X120197Y190818D01*
X120127Y190787D01*
X120056Y190759D01*
X119984Y190735D01*
X119910Y190714D01*
X119835Y190697D01*
X119760Y190684D01*
X119684Y190675D01*
X119608Y190669D01*
X119531Y190667D01*
X122007Y193525D02*
X122048Y193590D01*
X122091Y193653D01*
X122138Y193713D01*
X122188Y193772D01*
X122240Y193827D01*
X122295Y193880D01*
X122353Y193931D01*
X122413Y193978D01*
X122476Y194022D01*
X122540Y194064D01*
X122606Y194102D01*
X122675Y194136D01*
X122745Y194167D01*
X122816Y194195D01*
X122888Y194219D01*
X122962Y194240D01*
X123037Y194257D01*
X123112Y194270D01*
X123188Y194279D01*
X123264Y194285D01*
X123341Y194287D01*
X122008Y193525D02*
X120865Y191429D01*
X124865Y197813D02*
X124865Y200861D01*
X124865Y197813D02*
X118007Y197813D01*
X118007Y200861D01*
X121055Y200099D02*
X121055Y197813D01*
X118007Y205305D02*
X124865Y205305D01*
X118007Y203400D02*
X118007Y207210D01*
X12865Y457659D02*
X12865Y459183D01*
X12865Y457659D02*
X12863Y457582D01*
X12857Y457505D01*
X12847Y457428D01*
X12834Y457352D01*
X12816Y457277D01*
X12795Y457203D01*
X12770Y457130D01*
X12741Y457058D01*
X12709Y456988D01*
X12674Y456919D01*
X12634Y456853D01*
X12592Y456788D01*
X12546Y456726D01*
X12497Y456666D01*
X12446Y456609D01*
X12391Y456554D01*
X12334Y456503D01*
X12274Y456454D01*
X12212Y456408D01*
X12147Y456366D01*
X12081Y456326D01*
X12012Y456291D01*
X11942Y456259D01*
X11870Y456230D01*
X11797Y456205D01*
X11723Y456184D01*
X11648Y456166D01*
X11572Y456153D01*
X11495Y456143D01*
X11418Y456137D01*
X11341Y456135D01*
X7531Y456135D01*
X7454Y456137D01*
X7377Y456143D01*
X7300Y456153D01*
X7224Y456166D01*
X7149Y456184D01*
X7075Y456205D01*
X7002Y456230D01*
X6930Y456259D01*
X6860Y456291D01*
X6791Y456326D01*
X6725Y456366D01*
X6660Y456408D01*
X6598Y456454D01*
X6538Y456503D01*
X6481Y456554D01*
X6426Y456609D01*
X6375Y456666D01*
X6326Y456726D01*
X6280Y456788D01*
X6238Y456853D01*
X6198Y456919D01*
X6163Y456988D01*
X6131Y457058D01*
X6102Y457130D01*
X6077Y457203D01*
X6056Y457277D01*
X6038Y457352D01*
X6025Y457428D01*
X6015Y457505D01*
X6009Y457582D01*
X6007Y457659D01*
X6007Y459183D01*
X6007Y462528D02*
X12865Y462528D01*
X12865Y465576D01*
X10960Y468602D02*
X7912Y468602D01*
X7827Y468604D01*
X7741Y468610D01*
X7656Y468619D01*
X7572Y468633D01*
X7488Y468650D01*
X7405Y468671D01*
X7323Y468695D01*
X7243Y468723D01*
X7163Y468755D01*
X7085Y468791D01*
X7009Y468829D01*
X6935Y468872D01*
X6863Y468917D01*
X6792Y468966D01*
X6724Y469018D01*
X6659Y469072D01*
X6596Y469130D01*
X6535Y469191D01*
X6477Y469254D01*
X6423Y469319D01*
X6371Y469387D01*
X6322Y469458D01*
X6277Y469530D01*
X6234Y469604D01*
X6196Y469680D01*
X6160Y469758D01*
X6128Y469838D01*
X6100Y469918D01*
X6076Y470000D01*
X6055Y470083D01*
X6038Y470167D01*
X6024Y470251D01*
X6015Y470336D01*
X6009Y470422D01*
X6007Y470507D01*
X6009Y470592D01*
X6015Y470678D01*
X6024Y470763D01*
X6038Y470847D01*
X6055Y470931D01*
X6076Y471014D01*
X6100Y471096D01*
X6128Y471176D01*
X6160Y471256D01*
X6196Y471334D01*
X6234Y471410D01*
X6277Y471484D01*
X6322Y471556D01*
X6371Y471627D01*
X6423Y471695D01*
X6477Y471760D01*
X6535Y471823D01*
X6596Y471884D01*
X6659Y471942D01*
X6724Y471996D01*
X6792Y472048D01*
X6863Y472097D01*
X6935Y472142D01*
X7009Y472185D01*
X7085Y472223D01*
X7163Y472259D01*
X7243Y472291D01*
X7323Y472319D01*
X7405Y472343D01*
X7488Y472364D01*
X7572Y472381D01*
X7656Y472395D01*
X7741Y472404D01*
X7827Y472410D01*
X7912Y472412D01*
X10960Y472412D01*
X11045Y472410D01*
X11131Y472404D01*
X11216Y472395D01*
X11300Y472381D01*
X11384Y472364D01*
X11467Y472343D01*
X11549Y472319D01*
X11629Y472291D01*
X11709Y472259D01*
X11787Y472223D01*
X11863Y472185D01*
X11937Y472142D01*
X12009Y472097D01*
X12080Y472048D01*
X12148Y471996D01*
X12213Y471942D01*
X12276Y471884D01*
X12337Y471823D01*
X12395Y471760D01*
X12449Y471695D01*
X12501Y471627D01*
X12550Y471556D01*
X12595Y471484D01*
X12638Y471410D01*
X12676Y471334D01*
X12712Y471256D01*
X12744Y471176D01*
X12772Y471096D01*
X12796Y471014D01*
X12817Y470931D01*
X12834Y470847D01*
X12848Y470763D01*
X12857Y470678D01*
X12863Y470592D01*
X12865Y470507D01*
X12863Y470422D01*
X12857Y470336D01*
X12848Y470251D01*
X12834Y470167D01*
X12817Y470083D01*
X12796Y470000D01*
X12772Y469918D01*
X12744Y469838D01*
X12712Y469758D01*
X12676Y469680D01*
X12638Y469604D01*
X12595Y469530D01*
X12550Y469458D01*
X12501Y469387D01*
X12449Y469319D01*
X12395Y469254D01*
X12337Y469191D01*
X12276Y469130D01*
X12213Y469072D01*
X12148Y469018D01*
X12080Y468966D01*
X12009Y468917D01*
X11937Y468872D01*
X11863Y468829D01*
X11787Y468791D01*
X11709Y468755D01*
X11629Y468723D01*
X11549Y468695D01*
X11467Y468671D01*
X11384Y468650D01*
X11300Y468633D01*
X11216Y468619D01*
X11131Y468610D01*
X11045Y468604D01*
X10960Y468602D01*
X12865Y477410D02*
X12865Y478934D01*
X12865Y477410D02*
X12863Y477333D01*
X12857Y477256D01*
X12847Y477179D01*
X12834Y477103D01*
X12816Y477028D01*
X12795Y476954D01*
X12770Y476881D01*
X12741Y476809D01*
X12709Y476739D01*
X12674Y476670D01*
X12634Y476604D01*
X12592Y476539D01*
X12546Y476477D01*
X12497Y476417D01*
X12446Y476360D01*
X12391Y476305D01*
X12334Y476254D01*
X12274Y476205D01*
X12212Y476159D01*
X12147Y476117D01*
X12081Y476077D01*
X12012Y476042D01*
X11942Y476010D01*
X11870Y475981D01*
X11797Y475956D01*
X11723Y475935D01*
X11648Y475917D01*
X11572Y475904D01*
X11495Y475894D01*
X11418Y475888D01*
X11341Y475886D01*
X7531Y475886D01*
X7454Y475888D01*
X7377Y475894D01*
X7300Y475904D01*
X7224Y475917D01*
X7149Y475935D01*
X7075Y475956D01*
X7002Y475981D01*
X6930Y476010D01*
X6860Y476042D01*
X6791Y476077D01*
X6725Y476117D01*
X6660Y476159D01*
X6598Y476205D01*
X6538Y476254D01*
X6481Y476305D01*
X6426Y476360D01*
X6375Y476417D01*
X6326Y476477D01*
X6280Y476539D01*
X6238Y476604D01*
X6198Y476670D01*
X6163Y476739D01*
X6131Y476809D01*
X6102Y476881D01*
X6077Y476954D01*
X6056Y477028D01*
X6038Y477103D01*
X6025Y477179D01*
X6015Y477256D01*
X6009Y477333D01*
X6007Y477410D01*
X6007Y478934D01*
X6007Y482417D02*
X12865Y482417D01*
X10198Y482417D02*
X6007Y486227D01*
X8674Y483941D02*
X12865Y486227D01*
X12865Y495272D02*
X12863Y495349D01*
X12857Y495426D01*
X12847Y495503D01*
X12834Y495579D01*
X12816Y495654D01*
X12795Y495728D01*
X12770Y495801D01*
X12741Y495873D01*
X12709Y495943D01*
X12674Y496012D01*
X12634Y496078D01*
X12592Y496143D01*
X12546Y496205D01*
X12497Y496265D01*
X12446Y496322D01*
X12391Y496377D01*
X12334Y496428D01*
X12274Y496477D01*
X12212Y496523D01*
X12147Y496565D01*
X12081Y496605D01*
X12012Y496640D01*
X11942Y496672D01*
X11870Y496701D01*
X11797Y496726D01*
X11723Y496747D01*
X11648Y496765D01*
X11572Y496778D01*
X11495Y496788D01*
X11418Y496794D01*
X11341Y496796D01*
X12865Y495272D02*
X12863Y495162D01*
X12857Y495051D01*
X12848Y494941D01*
X12835Y494831D01*
X12818Y494722D01*
X12797Y494614D01*
X12773Y494506D01*
X12744Y494399D01*
X12713Y494293D01*
X12677Y494189D01*
X12638Y494085D01*
X12596Y493983D01*
X12550Y493883D01*
X12500Y493784D01*
X12448Y493687D01*
X12391Y493591D01*
X12332Y493498D01*
X12270Y493407D01*
X12204Y493318D01*
X12136Y493231D01*
X12064Y493147D01*
X11990Y493065D01*
X11913Y492986D01*
X7531Y493177D02*
X7454Y493179D01*
X7377Y493185D01*
X7300Y493195D01*
X7224Y493208D01*
X7149Y493226D01*
X7075Y493247D01*
X7002Y493272D01*
X6930Y493301D01*
X6860Y493333D01*
X6791Y493368D01*
X6725Y493408D01*
X6660Y493450D01*
X6598Y493496D01*
X6538Y493545D01*
X6481Y493596D01*
X6426Y493651D01*
X6375Y493708D01*
X6326Y493768D01*
X6280Y493830D01*
X6238Y493895D01*
X6198Y493961D01*
X6163Y494030D01*
X6131Y494100D01*
X6102Y494172D01*
X6077Y494245D01*
X6056Y494319D01*
X6038Y494394D01*
X6025Y494470D01*
X6015Y494547D01*
X6009Y494624D01*
X6007Y494701D01*
X6009Y494803D01*
X6014Y494905D01*
X6023Y495007D01*
X6036Y495108D01*
X6053Y495209D01*
X6072Y495309D01*
X6096Y495409D01*
X6123Y495507D01*
X6154Y495605D01*
X6188Y495701D01*
X6225Y495796D01*
X6266Y495890D01*
X6310Y495982D01*
X6358Y496072D01*
X6408Y496161D01*
X6462Y496248D01*
X6519Y496333D01*
X6579Y496416D01*
X8865Y493938D02*
X8824Y493873D01*
X8781Y493810D01*
X8734Y493750D01*
X8684Y493691D01*
X8632Y493636D01*
X8577Y493583D01*
X8519Y493532D01*
X8459Y493485D01*
X8396Y493441D01*
X8332Y493399D01*
X8266Y493361D01*
X8197Y493327D01*
X8127Y493296D01*
X8056Y493268D01*
X7984Y493244D01*
X7910Y493223D01*
X7835Y493206D01*
X7760Y493193D01*
X7684Y493184D01*
X7608Y493178D01*
X7531Y493176D01*
X10007Y496034D02*
X10048Y496099D01*
X10091Y496162D01*
X10138Y496222D01*
X10188Y496281D01*
X10240Y496336D01*
X10295Y496389D01*
X10353Y496440D01*
X10413Y496487D01*
X10476Y496531D01*
X10540Y496573D01*
X10606Y496611D01*
X10675Y496645D01*
X10745Y496676D01*
X10816Y496704D01*
X10888Y496728D01*
X10962Y496749D01*
X11037Y496766D01*
X11112Y496779D01*
X11188Y496788D01*
X11264Y496794D01*
X11341Y496796D01*
X10008Y496034D02*
X8865Y493939D01*
X12865Y500323D02*
X12865Y503371D01*
X12865Y500323D02*
X6007Y500323D01*
X6007Y503371D01*
X9055Y502609D02*
X9055Y500323D01*
X6007Y506662D02*
X12865Y506662D01*
X12865Y509710D01*
X12865Y513002D02*
X12865Y516050D01*
X12865Y513002D02*
X6007Y513002D01*
X6007Y516050D01*
X9055Y515288D02*
X9055Y513002D01*
X12865Y520570D02*
X12865Y522094D01*
X12865Y520570D02*
X12863Y520493D01*
X12857Y520416D01*
X12847Y520339D01*
X12834Y520263D01*
X12816Y520188D01*
X12795Y520114D01*
X12770Y520041D01*
X12741Y519969D01*
X12709Y519899D01*
X12674Y519830D01*
X12634Y519764D01*
X12592Y519699D01*
X12546Y519637D01*
X12497Y519577D01*
X12446Y519520D01*
X12391Y519465D01*
X12334Y519414D01*
X12274Y519365D01*
X12212Y519319D01*
X12147Y519277D01*
X12081Y519237D01*
X12012Y519202D01*
X11942Y519170D01*
X11870Y519141D01*
X11797Y519116D01*
X11723Y519095D01*
X11648Y519077D01*
X11572Y519064D01*
X11495Y519054D01*
X11418Y519048D01*
X11341Y519046D01*
X7531Y519046D01*
X7454Y519048D01*
X7377Y519054D01*
X7300Y519064D01*
X7224Y519077D01*
X7149Y519095D01*
X7075Y519116D01*
X7002Y519141D01*
X6930Y519170D01*
X6860Y519202D01*
X6791Y519237D01*
X6725Y519277D01*
X6660Y519319D01*
X6598Y519365D01*
X6538Y519414D01*
X6481Y519465D01*
X6426Y519520D01*
X6375Y519577D01*
X6326Y519637D01*
X6280Y519699D01*
X6238Y519764D01*
X6198Y519830D01*
X6163Y519899D01*
X6131Y519969D01*
X6102Y520041D01*
X6077Y520114D01*
X6056Y520188D01*
X6038Y520263D01*
X6025Y520339D01*
X6015Y520416D01*
X6009Y520493D01*
X6007Y520570D01*
X6007Y522094D01*
X6007Y526590D02*
X12865Y526590D01*
X6007Y524685D02*
X6007Y528495D01*
D11*
X40508Y502494D02*
X45588Y502494D01*
X40508Y502494D02*
X40508Y504752D01*
X42766Y504752D02*
X42766Y502494D01*
X40508Y507357D02*
X45588Y507357D01*
X40508Y507357D02*
X40508Y508768D01*
X40510Y508842D01*
X40516Y508915D01*
X40525Y508989D01*
X40539Y509061D01*
X40556Y509133D01*
X40577Y509204D01*
X40602Y509274D01*
X40630Y509342D01*
X40662Y509409D01*
X40697Y509474D01*
X40736Y509536D01*
X40777Y509597D01*
X40822Y509656D01*
X40870Y509712D01*
X40921Y509766D01*
X40975Y509817D01*
X41031Y509865D01*
X41090Y509910D01*
X41151Y509951D01*
X41214Y509990D01*
X41278Y510025D01*
X41345Y510057D01*
X41413Y510085D01*
X41483Y510110D01*
X41554Y510131D01*
X41626Y510148D01*
X41698Y510162D01*
X41772Y510171D01*
X41845Y510177D01*
X41919Y510179D01*
X41993Y510177D01*
X42066Y510171D01*
X42140Y510162D01*
X42212Y510148D01*
X42284Y510131D01*
X42355Y510110D01*
X42425Y510085D01*
X42493Y510057D01*
X42560Y510025D01*
X42625Y509990D01*
X42687Y509951D01*
X42748Y509910D01*
X42807Y509865D01*
X42863Y509817D01*
X42917Y509766D01*
X42968Y509712D01*
X43016Y509656D01*
X43061Y509597D01*
X43102Y509536D01*
X43141Y509474D01*
X43176Y509409D01*
X43208Y509342D01*
X43236Y509274D01*
X43261Y509204D01*
X43282Y509133D01*
X43299Y509061D01*
X43313Y508989D01*
X43322Y508915D01*
X43328Y508842D01*
X43330Y508768D01*
X43330Y507357D01*
X42766Y514694D02*
X42766Y515541D01*
X45588Y515541D01*
X45588Y513847D01*
X45586Y513781D01*
X45580Y513716D01*
X45571Y513651D01*
X45558Y513587D01*
X45541Y513523D01*
X45520Y513461D01*
X45496Y513400D01*
X45468Y513340D01*
X45437Y513283D01*
X45402Y513227D01*
X45365Y513173D01*
X45324Y513121D01*
X45280Y513072D01*
X45234Y513026D01*
X45185Y512982D01*
X45133Y512941D01*
X45079Y512904D01*
X45024Y512869D01*
X44966Y512838D01*
X44906Y512810D01*
X44845Y512786D01*
X44783Y512765D01*
X44719Y512748D01*
X44655Y512735D01*
X44590Y512726D01*
X44525Y512720D01*
X44459Y512718D01*
X41637Y512718D01*
X41571Y512720D01*
X41506Y512726D01*
X41441Y512735D01*
X41377Y512748D01*
X41313Y512765D01*
X41251Y512786D01*
X41190Y512810D01*
X41130Y512838D01*
X41073Y512869D01*
X41017Y512904D01*
X40963Y512941D01*
X40911Y512982D01*
X40862Y513026D01*
X40816Y513072D01*
X40772Y513121D01*
X40731Y513173D01*
X40694Y513227D01*
X40659Y513282D01*
X40628Y513340D01*
X40600Y513400D01*
X40576Y513461D01*
X40555Y513523D01*
X40538Y513587D01*
X40525Y513651D01*
X40516Y513716D01*
X40510Y513781D01*
X40508Y513847D01*
X40508Y515541D01*
X40508Y519799D02*
X45588Y518105D01*
X45588Y521492D02*
X40508Y519799D01*
X44318Y521069D02*
X44318Y518529D01*
X40912Y481895D02*
X45992Y478508D01*
X45992Y481895D02*
X40912Y478508D01*
X42323Y484277D02*
X44581Y484277D01*
X42323Y484277D02*
X42249Y484279D01*
X42176Y484285D01*
X42102Y484294D01*
X42030Y484308D01*
X41958Y484325D01*
X41887Y484346D01*
X41817Y484371D01*
X41749Y484399D01*
X41682Y484431D01*
X41617Y484466D01*
X41555Y484505D01*
X41494Y484546D01*
X41435Y484591D01*
X41379Y484639D01*
X41325Y484690D01*
X41274Y484744D01*
X41226Y484800D01*
X41181Y484859D01*
X41140Y484920D01*
X41101Y484983D01*
X41066Y485047D01*
X41034Y485114D01*
X41006Y485182D01*
X40981Y485252D01*
X40960Y485323D01*
X40943Y485395D01*
X40929Y485467D01*
X40920Y485541D01*
X40914Y485614D01*
X40912Y485688D01*
X40914Y485762D01*
X40920Y485835D01*
X40929Y485909D01*
X40943Y485981D01*
X40960Y486053D01*
X40981Y486124D01*
X41006Y486194D01*
X41034Y486262D01*
X41066Y486329D01*
X41101Y486394D01*
X41140Y486456D01*
X41181Y486517D01*
X41226Y486576D01*
X41274Y486632D01*
X41325Y486686D01*
X41379Y486737D01*
X41435Y486785D01*
X41494Y486830D01*
X41555Y486871D01*
X41618Y486910D01*
X41682Y486945D01*
X41749Y486977D01*
X41817Y487005D01*
X41887Y487030D01*
X41958Y487051D01*
X42030Y487068D01*
X42102Y487082D01*
X42176Y487091D01*
X42249Y487097D01*
X42323Y487099D01*
X44581Y487099D01*
X44655Y487097D01*
X44728Y487091D01*
X44802Y487082D01*
X44874Y487068D01*
X44946Y487051D01*
X45017Y487030D01*
X45087Y487005D01*
X45155Y486977D01*
X45222Y486945D01*
X45286Y486910D01*
X45349Y486871D01*
X45410Y486830D01*
X45469Y486785D01*
X45525Y486737D01*
X45579Y486686D01*
X45630Y486632D01*
X45678Y486576D01*
X45723Y486517D01*
X45764Y486456D01*
X45803Y486394D01*
X45838Y486329D01*
X45870Y486262D01*
X45898Y486194D01*
X45923Y486124D01*
X45944Y486053D01*
X45961Y485981D01*
X45975Y485909D01*
X45984Y485835D01*
X45990Y485762D01*
X45992Y485688D01*
X45990Y485614D01*
X45984Y485541D01*
X45975Y485467D01*
X45961Y485395D01*
X45944Y485323D01*
X45923Y485252D01*
X45898Y485182D01*
X45870Y485114D01*
X45838Y485047D01*
X45803Y484983D01*
X45764Y484920D01*
X45723Y484859D01*
X45678Y484800D01*
X45630Y484744D01*
X45579Y484690D01*
X45525Y484639D01*
X45469Y484591D01*
X45410Y484546D01*
X45349Y484505D01*
X45287Y484466D01*
X45222Y484431D01*
X45155Y484399D01*
X45087Y484371D01*
X45017Y484346D01*
X44946Y484325D01*
X44874Y484308D01*
X44802Y484294D01*
X44728Y484285D01*
X44655Y484279D01*
X44581Y484277D01*
D10*
X8493Y197232D02*
X8493Y195708D01*
X8491Y195631D01*
X8485Y195554D01*
X8475Y195477D01*
X8462Y195401D01*
X8444Y195326D01*
X8423Y195252D01*
X8398Y195179D01*
X8369Y195107D01*
X8337Y195037D01*
X8302Y194968D01*
X8262Y194902D01*
X8220Y194837D01*
X8174Y194775D01*
X8125Y194715D01*
X8074Y194658D01*
X8019Y194603D01*
X7962Y194552D01*
X7902Y194503D01*
X7840Y194457D01*
X7775Y194415D01*
X7709Y194375D01*
X7640Y194340D01*
X7570Y194308D01*
X7498Y194279D01*
X7425Y194254D01*
X7351Y194233D01*
X7276Y194215D01*
X7200Y194202D01*
X7123Y194192D01*
X7046Y194186D01*
X6969Y194184D01*
X3159Y194184D01*
X3082Y194186D01*
X3005Y194192D01*
X2928Y194202D01*
X2852Y194215D01*
X2777Y194233D01*
X2703Y194254D01*
X2630Y194279D01*
X2558Y194308D01*
X2488Y194340D01*
X2419Y194375D01*
X2353Y194415D01*
X2288Y194457D01*
X2226Y194503D01*
X2166Y194552D01*
X2109Y194603D01*
X2054Y194658D01*
X2003Y194715D01*
X1954Y194775D01*
X1908Y194837D01*
X1866Y194902D01*
X1826Y194968D01*
X1791Y195037D01*
X1759Y195107D01*
X1730Y195179D01*
X1705Y195252D01*
X1684Y195326D01*
X1666Y195401D01*
X1653Y195477D01*
X1643Y195554D01*
X1637Y195631D01*
X1635Y195708D01*
X1635Y197232D01*
X1635Y200576D02*
X8493Y200576D01*
X8493Y203624D01*
X8493Y207055D02*
X1635Y207055D01*
X1635Y210865D02*
X5826Y207055D01*
X4302Y208579D02*
X8493Y210865D01*
X8493Y228839D02*
X1635Y228839D01*
X1635Y230744D01*
X1637Y230829D01*
X1643Y230915D01*
X1652Y231000D01*
X1666Y231084D01*
X1683Y231168D01*
X1704Y231251D01*
X1728Y231333D01*
X1756Y231413D01*
X1788Y231493D01*
X1824Y231571D01*
X1862Y231647D01*
X1905Y231721D01*
X1950Y231793D01*
X1999Y231864D01*
X2051Y231932D01*
X2105Y231997D01*
X2163Y232060D01*
X2224Y232121D01*
X2287Y232179D01*
X2352Y232233D01*
X2420Y232285D01*
X2491Y232334D01*
X2563Y232379D01*
X2637Y232422D01*
X2713Y232460D01*
X2791Y232496D01*
X2871Y232528D01*
X2951Y232556D01*
X3033Y232580D01*
X3116Y232601D01*
X3200Y232618D01*
X3284Y232632D01*
X3369Y232641D01*
X3455Y232647D01*
X3540Y232649D01*
X3625Y232647D01*
X3711Y232641D01*
X3796Y232632D01*
X3880Y232618D01*
X3964Y232601D01*
X4047Y232580D01*
X4129Y232556D01*
X4209Y232528D01*
X4289Y232496D01*
X4367Y232460D01*
X4443Y232422D01*
X4517Y232379D01*
X4589Y232334D01*
X4660Y232285D01*
X4728Y232233D01*
X4793Y232179D01*
X4856Y232121D01*
X4917Y232060D01*
X4975Y231997D01*
X5029Y231932D01*
X5081Y231864D01*
X5130Y231793D01*
X5175Y231721D01*
X5218Y231647D01*
X5256Y231571D01*
X5292Y231493D01*
X5324Y231413D01*
X5352Y231333D01*
X5376Y231251D01*
X5397Y231168D01*
X5414Y231084D01*
X5428Y231000D01*
X5437Y230915D01*
X5443Y230829D01*
X5445Y230744D01*
X5445Y228839D01*
X5445Y231125D02*
X8493Y232649D01*
X9255Y235734D02*
X873Y238782D01*
X1635Y241769D02*
X8493Y243293D01*
X3921Y244817D01*
X8493Y246341D01*
X1635Y247865D01*
X1635Y265656D02*
X8493Y265656D01*
X8493Y264894D02*
X8493Y266418D01*
X1635Y266418D02*
X1635Y264894D01*
X1635Y269917D02*
X8493Y269917D01*
X1635Y269917D02*
X1635Y271822D01*
X1637Y271907D01*
X1643Y271993D01*
X1652Y272078D01*
X1666Y272162D01*
X1683Y272246D01*
X1704Y272329D01*
X1728Y272411D01*
X1756Y272491D01*
X1788Y272571D01*
X1824Y272649D01*
X1862Y272725D01*
X1905Y272799D01*
X1950Y272871D01*
X1999Y272942D01*
X2051Y273010D01*
X2105Y273075D01*
X2163Y273138D01*
X2224Y273199D01*
X2287Y273257D01*
X2352Y273311D01*
X2420Y273363D01*
X2491Y273412D01*
X2563Y273457D01*
X2637Y273500D01*
X2713Y273538D01*
X2791Y273574D01*
X2871Y273606D01*
X2951Y273634D01*
X3033Y273658D01*
X3116Y273679D01*
X3200Y273696D01*
X3284Y273710D01*
X3369Y273719D01*
X3455Y273725D01*
X3540Y273727D01*
X3625Y273725D01*
X3711Y273719D01*
X3796Y273710D01*
X3880Y273696D01*
X3964Y273679D01*
X4047Y273658D01*
X4129Y273634D01*
X4209Y273606D01*
X4289Y273574D01*
X4367Y273538D01*
X4443Y273500D01*
X4517Y273457D01*
X4589Y273412D01*
X4660Y273363D01*
X4728Y273311D01*
X4793Y273257D01*
X4856Y273199D01*
X4917Y273138D01*
X4975Y273075D01*
X5029Y273010D01*
X5081Y272942D01*
X5130Y272871D01*
X5175Y272799D01*
X5218Y272725D01*
X5256Y272649D01*
X5292Y272571D01*
X5324Y272491D01*
X5352Y272411D01*
X5376Y272329D01*
X5397Y272246D01*
X5414Y272162D01*
X5428Y272078D01*
X5437Y271993D01*
X5443Y271907D01*
X5445Y271822D01*
X5445Y269917D01*
X5445Y272203D02*
X8493Y273727D01*
X6588Y277793D02*
X3540Y277793D01*
X3455Y277795D01*
X3369Y277801D01*
X3284Y277810D01*
X3200Y277824D01*
X3116Y277841D01*
X3033Y277862D01*
X2951Y277886D01*
X2871Y277914D01*
X2791Y277946D01*
X2713Y277982D01*
X2637Y278020D01*
X2563Y278063D01*
X2491Y278108D01*
X2420Y278157D01*
X2352Y278209D01*
X2287Y278263D01*
X2224Y278321D01*
X2163Y278382D01*
X2105Y278445D01*
X2051Y278510D01*
X1999Y278578D01*
X1950Y278649D01*
X1905Y278721D01*
X1862Y278795D01*
X1824Y278871D01*
X1788Y278949D01*
X1756Y279029D01*
X1728Y279109D01*
X1704Y279191D01*
X1683Y279274D01*
X1666Y279358D01*
X1652Y279442D01*
X1643Y279527D01*
X1637Y279613D01*
X1635Y279698D01*
X1637Y279783D01*
X1643Y279869D01*
X1652Y279954D01*
X1666Y280038D01*
X1683Y280122D01*
X1704Y280205D01*
X1728Y280287D01*
X1756Y280367D01*
X1788Y280447D01*
X1824Y280525D01*
X1862Y280601D01*
X1905Y280675D01*
X1950Y280747D01*
X1999Y280818D01*
X2051Y280886D01*
X2105Y280951D01*
X2163Y281014D01*
X2224Y281075D01*
X2287Y281133D01*
X2352Y281187D01*
X2420Y281239D01*
X2491Y281288D01*
X2563Y281333D01*
X2637Y281376D01*
X2713Y281414D01*
X2791Y281450D01*
X2871Y281482D01*
X2951Y281510D01*
X3033Y281534D01*
X3116Y281555D01*
X3200Y281572D01*
X3284Y281586D01*
X3369Y281595D01*
X3455Y281601D01*
X3540Y281603D01*
X6588Y281603D01*
X6673Y281601D01*
X6759Y281595D01*
X6844Y281586D01*
X6928Y281572D01*
X7012Y281555D01*
X7095Y281534D01*
X7177Y281510D01*
X7257Y281482D01*
X7337Y281450D01*
X7415Y281414D01*
X7491Y281376D01*
X7565Y281333D01*
X7637Y281288D01*
X7708Y281239D01*
X7776Y281187D01*
X7841Y281133D01*
X7904Y281075D01*
X7965Y281014D01*
X8023Y280951D01*
X8077Y280886D01*
X8129Y280818D01*
X8178Y280747D01*
X8223Y280675D01*
X8266Y280601D01*
X8304Y280525D01*
X8340Y280447D01*
X8372Y280367D01*
X8400Y280287D01*
X8424Y280205D01*
X8445Y280122D01*
X8462Y280038D01*
X8476Y279954D01*
X8485Y279869D01*
X8491Y279783D01*
X8493Y279698D01*
X8491Y279613D01*
X8485Y279527D01*
X8476Y279442D01*
X8462Y279358D01*
X8445Y279274D01*
X8424Y279191D01*
X8400Y279109D01*
X8372Y279029D01*
X8340Y278949D01*
X8304Y278871D01*
X8266Y278795D01*
X8223Y278721D01*
X8178Y278649D01*
X8129Y278578D01*
X8077Y278510D01*
X8023Y278445D01*
X7965Y278382D01*
X7904Y278321D01*
X7841Y278263D01*
X7776Y278209D01*
X7708Y278157D01*
X7637Y278108D01*
X7565Y278063D01*
X7491Y278020D01*
X7415Y277982D01*
X7337Y277946D01*
X7257Y277914D01*
X7177Y277886D01*
X7095Y277862D01*
X7012Y277841D01*
X6928Y277824D01*
X6844Y277810D01*
X6759Y277801D01*
X6673Y277795D01*
X6588Y277793D01*
X6969Y280841D02*
X8493Y282365D01*
X8493Y333882D02*
X1635Y333882D01*
X1635Y335787D01*
X1637Y335872D01*
X1643Y335958D01*
X1652Y336043D01*
X1666Y336127D01*
X1683Y336211D01*
X1704Y336294D01*
X1728Y336376D01*
X1756Y336456D01*
X1788Y336536D01*
X1824Y336614D01*
X1862Y336690D01*
X1905Y336764D01*
X1950Y336836D01*
X1999Y336907D01*
X2051Y336975D01*
X2105Y337040D01*
X2163Y337103D01*
X2224Y337164D01*
X2287Y337222D01*
X2352Y337276D01*
X2420Y337328D01*
X2491Y337377D01*
X2563Y337422D01*
X2637Y337465D01*
X2713Y337503D01*
X2791Y337539D01*
X2871Y337571D01*
X2951Y337599D01*
X3033Y337623D01*
X3116Y337644D01*
X3200Y337661D01*
X3284Y337675D01*
X3369Y337684D01*
X3455Y337690D01*
X3540Y337692D01*
X3625Y337690D01*
X3711Y337684D01*
X3796Y337675D01*
X3880Y337661D01*
X3964Y337644D01*
X4047Y337623D01*
X4129Y337599D01*
X4209Y337571D01*
X4289Y337539D01*
X4367Y337503D01*
X4443Y337465D01*
X4517Y337422D01*
X4589Y337377D01*
X4660Y337328D01*
X4728Y337276D01*
X4793Y337222D01*
X4856Y337164D01*
X4917Y337103D01*
X4975Y337040D01*
X5029Y336975D01*
X5081Y336907D01*
X5130Y336836D01*
X5175Y336764D01*
X5218Y336690D01*
X5256Y336614D01*
X5292Y336536D01*
X5324Y336456D01*
X5352Y336376D01*
X5376Y336294D01*
X5397Y336211D01*
X5414Y336127D01*
X5428Y336043D01*
X5437Y335958D01*
X5443Y335872D01*
X5445Y335787D01*
X5445Y333882D01*
X5445Y336168D02*
X8493Y337692D01*
X8493Y340746D02*
X1635Y343032D01*
X8493Y345318D01*
X6779Y344747D02*
X6779Y341318D01*
X8493Y348793D02*
X1635Y348793D01*
X5445Y351079D01*
X1635Y353365D01*
X8493Y353365D01*
X8993Y298882D02*
X2135Y298882D01*
X2135Y300787D01*
X2137Y300872D01*
X2143Y300958D01*
X2152Y301043D01*
X2166Y301127D01*
X2183Y301211D01*
X2204Y301294D01*
X2228Y301376D01*
X2256Y301456D01*
X2288Y301536D01*
X2324Y301614D01*
X2362Y301690D01*
X2405Y301764D01*
X2450Y301836D01*
X2499Y301907D01*
X2551Y301975D01*
X2605Y302040D01*
X2663Y302103D01*
X2724Y302164D01*
X2787Y302222D01*
X2852Y302276D01*
X2920Y302328D01*
X2991Y302377D01*
X3063Y302422D01*
X3137Y302465D01*
X3213Y302503D01*
X3291Y302539D01*
X3371Y302571D01*
X3451Y302599D01*
X3533Y302623D01*
X3616Y302644D01*
X3700Y302661D01*
X3784Y302675D01*
X3869Y302684D01*
X3955Y302690D01*
X4040Y302692D01*
X4125Y302690D01*
X4211Y302684D01*
X4296Y302675D01*
X4380Y302661D01*
X4464Y302644D01*
X4547Y302623D01*
X4629Y302599D01*
X4709Y302571D01*
X4789Y302539D01*
X4867Y302503D01*
X4943Y302465D01*
X5017Y302422D01*
X5089Y302377D01*
X5160Y302328D01*
X5228Y302276D01*
X5293Y302222D01*
X5356Y302164D01*
X5417Y302103D01*
X5475Y302040D01*
X5529Y301975D01*
X5581Y301907D01*
X5630Y301836D01*
X5675Y301764D01*
X5718Y301690D01*
X5756Y301614D01*
X5792Y301536D01*
X5824Y301456D01*
X5852Y301376D01*
X5876Y301294D01*
X5897Y301211D01*
X5914Y301127D01*
X5928Y301043D01*
X5937Y300958D01*
X5943Y300872D01*
X5945Y300787D01*
X5945Y298882D01*
X5945Y301168D02*
X8993Y302692D01*
X7088Y306127D02*
X4040Y306127D01*
X3955Y306129D01*
X3869Y306135D01*
X3784Y306144D01*
X3700Y306158D01*
X3616Y306175D01*
X3533Y306196D01*
X3451Y306220D01*
X3371Y306248D01*
X3291Y306280D01*
X3213Y306316D01*
X3137Y306354D01*
X3063Y306397D01*
X2991Y306442D01*
X2920Y306491D01*
X2852Y306543D01*
X2787Y306597D01*
X2724Y306655D01*
X2663Y306716D01*
X2605Y306779D01*
X2551Y306844D01*
X2499Y306912D01*
X2450Y306983D01*
X2405Y307055D01*
X2362Y307129D01*
X2324Y307205D01*
X2288Y307283D01*
X2256Y307363D01*
X2228Y307443D01*
X2204Y307525D01*
X2183Y307608D01*
X2166Y307692D01*
X2152Y307776D01*
X2143Y307861D01*
X2137Y307947D01*
X2135Y308032D01*
X2137Y308117D01*
X2143Y308203D01*
X2152Y308288D01*
X2166Y308372D01*
X2183Y308456D01*
X2204Y308539D01*
X2228Y308621D01*
X2256Y308701D01*
X2288Y308781D01*
X2324Y308859D01*
X2362Y308935D01*
X2405Y309009D01*
X2450Y309081D01*
X2499Y309152D01*
X2551Y309220D01*
X2605Y309285D01*
X2663Y309348D01*
X2724Y309409D01*
X2787Y309467D01*
X2852Y309521D01*
X2920Y309573D01*
X2991Y309622D01*
X3063Y309667D01*
X3137Y309710D01*
X3213Y309748D01*
X3291Y309784D01*
X3371Y309816D01*
X3451Y309844D01*
X3533Y309868D01*
X3616Y309889D01*
X3700Y309906D01*
X3784Y309920D01*
X3869Y309929D01*
X3955Y309935D01*
X4040Y309937D01*
X7088Y309937D01*
X7173Y309935D01*
X7259Y309929D01*
X7344Y309920D01*
X7428Y309906D01*
X7512Y309889D01*
X7595Y309868D01*
X7677Y309844D01*
X7757Y309816D01*
X7837Y309784D01*
X7915Y309748D01*
X7991Y309710D01*
X8065Y309667D01*
X8137Y309622D01*
X8208Y309573D01*
X8276Y309521D01*
X8341Y309467D01*
X8404Y309409D01*
X8465Y309348D01*
X8523Y309285D01*
X8577Y309220D01*
X8629Y309152D01*
X8678Y309081D01*
X8723Y309009D01*
X8766Y308935D01*
X8804Y308859D01*
X8840Y308781D01*
X8872Y308701D01*
X8900Y308621D01*
X8924Y308539D01*
X8945Y308456D01*
X8962Y308372D01*
X8976Y308288D01*
X8985Y308203D01*
X8991Y308117D01*
X8993Y308032D01*
X8991Y307947D01*
X8985Y307861D01*
X8976Y307776D01*
X8962Y307692D01*
X8945Y307608D01*
X8924Y307525D01*
X8900Y307443D01*
X8872Y307363D01*
X8840Y307283D01*
X8804Y307205D01*
X8766Y307129D01*
X8723Y307055D01*
X8678Y306983D01*
X8629Y306912D01*
X8577Y306844D01*
X8523Y306779D01*
X8465Y306716D01*
X8404Y306655D01*
X8341Y306597D01*
X8276Y306543D01*
X8208Y306491D01*
X8137Y306442D01*
X8065Y306397D01*
X7991Y306354D01*
X7915Y306316D01*
X7837Y306280D01*
X7757Y306248D01*
X7677Y306220D01*
X7595Y306196D01*
X7512Y306175D01*
X7428Y306158D01*
X7344Y306144D01*
X7259Y306135D01*
X7173Y306129D01*
X7088Y306127D01*
X8993Y313793D02*
X2135Y313793D01*
X5945Y316079D01*
X2135Y318365D01*
X8993Y318365D01*
X8993Y370755D02*
X2135Y370755D01*
X2135Y372660D01*
X2137Y372745D01*
X2143Y372831D01*
X2152Y372916D01*
X2166Y373000D01*
X2183Y373084D01*
X2204Y373167D01*
X2228Y373249D01*
X2256Y373329D01*
X2288Y373409D01*
X2324Y373487D01*
X2362Y373563D01*
X2405Y373637D01*
X2450Y373709D01*
X2499Y373780D01*
X2551Y373848D01*
X2605Y373913D01*
X2663Y373976D01*
X2724Y374037D01*
X2787Y374095D01*
X2852Y374149D01*
X2920Y374201D01*
X2991Y374250D01*
X3063Y374295D01*
X3137Y374338D01*
X3213Y374376D01*
X3291Y374412D01*
X3371Y374444D01*
X3451Y374472D01*
X3533Y374496D01*
X3616Y374517D01*
X3700Y374534D01*
X3784Y374548D01*
X3869Y374557D01*
X3955Y374563D01*
X4040Y374565D01*
X4125Y374563D01*
X4211Y374557D01*
X4296Y374548D01*
X4380Y374534D01*
X4464Y374517D01*
X4547Y374496D01*
X4629Y374472D01*
X4709Y374444D01*
X4789Y374412D01*
X4867Y374376D01*
X4943Y374338D01*
X5017Y374295D01*
X5089Y374250D01*
X5160Y374201D01*
X5228Y374149D01*
X5293Y374095D01*
X5356Y374037D01*
X5417Y373976D01*
X5475Y373913D01*
X5529Y373848D01*
X5581Y373780D01*
X5630Y373709D01*
X5675Y373637D01*
X5718Y373563D01*
X5756Y373487D01*
X5792Y373409D01*
X5824Y373329D01*
X5852Y373249D01*
X5876Y373167D01*
X5897Y373084D01*
X5914Y373000D01*
X5928Y372916D01*
X5937Y372831D01*
X5943Y372745D01*
X5945Y372660D01*
X5945Y370755D01*
X8993Y378108D02*
X2135Y378108D01*
X8993Y377346D02*
X8993Y378870D01*
X2135Y378870D02*
X2135Y377346D01*
X4040Y382055D02*
X7088Y382055D01*
X4040Y382055D02*
X3955Y382057D01*
X3869Y382063D01*
X3784Y382072D01*
X3700Y382086D01*
X3616Y382103D01*
X3533Y382124D01*
X3451Y382148D01*
X3371Y382176D01*
X3291Y382208D01*
X3213Y382244D01*
X3137Y382282D01*
X3063Y382325D01*
X2991Y382370D01*
X2920Y382419D01*
X2852Y382471D01*
X2787Y382525D01*
X2724Y382583D01*
X2663Y382644D01*
X2605Y382707D01*
X2551Y382772D01*
X2499Y382840D01*
X2450Y382911D01*
X2405Y382983D01*
X2362Y383057D01*
X2324Y383133D01*
X2288Y383211D01*
X2256Y383291D01*
X2228Y383371D01*
X2204Y383453D01*
X2183Y383536D01*
X2166Y383620D01*
X2152Y383704D01*
X2143Y383789D01*
X2137Y383875D01*
X2135Y383960D01*
X2137Y384045D01*
X2143Y384131D01*
X2152Y384216D01*
X2166Y384300D01*
X2183Y384384D01*
X2204Y384467D01*
X2228Y384549D01*
X2256Y384629D01*
X2288Y384709D01*
X2324Y384787D01*
X2362Y384863D01*
X2405Y384937D01*
X2450Y385009D01*
X2499Y385080D01*
X2551Y385148D01*
X2605Y385213D01*
X2663Y385276D01*
X2724Y385337D01*
X2787Y385395D01*
X2852Y385449D01*
X2920Y385501D01*
X2991Y385550D01*
X3063Y385595D01*
X3137Y385638D01*
X3213Y385676D01*
X3291Y385712D01*
X3371Y385744D01*
X3451Y385772D01*
X3533Y385796D01*
X3616Y385817D01*
X3700Y385834D01*
X3784Y385848D01*
X3869Y385857D01*
X3955Y385863D01*
X4040Y385865D01*
X7088Y385865D01*
X7173Y385863D01*
X7259Y385857D01*
X7344Y385848D01*
X7428Y385834D01*
X7512Y385817D01*
X7595Y385796D01*
X7677Y385772D01*
X7757Y385744D01*
X7837Y385712D01*
X7915Y385676D01*
X7991Y385638D01*
X8065Y385595D01*
X8137Y385550D01*
X8208Y385501D01*
X8276Y385449D01*
X8341Y385395D01*
X8404Y385337D01*
X8465Y385276D01*
X8523Y385213D01*
X8577Y385148D01*
X8629Y385080D01*
X8678Y385009D01*
X8723Y384937D01*
X8766Y384863D01*
X8804Y384787D01*
X8840Y384709D01*
X8872Y384629D01*
X8900Y384549D01*
X8924Y384467D01*
X8945Y384384D01*
X8962Y384300D01*
X8976Y384216D01*
X8985Y384131D01*
X8991Y384045D01*
X8993Y383960D01*
X8991Y383875D01*
X8985Y383789D01*
X8976Y383704D01*
X8962Y383620D01*
X8945Y383536D01*
X8924Y383453D01*
X8900Y383371D01*
X8872Y383291D01*
X8840Y383211D01*
X8804Y383133D01*
X8766Y383057D01*
X8723Y382983D01*
X8678Y382911D01*
X8629Y382840D01*
X8577Y382772D01*
X8523Y382707D01*
X8465Y382644D01*
X8404Y382583D01*
X8341Y382525D01*
X8276Y382471D01*
X8208Y382419D01*
X8137Y382370D01*
X8065Y382325D01*
X7991Y382282D01*
X7915Y382244D01*
X7837Y382208D01*
X7757Y382176D01*
X7677Y382148D01*
X7595Y382124D01*
X7512Y382103D01*
X7428Y382086D01*
X7344Y382072D01*
X7259Y382063D01*
X7173Y382057D01*
X7088Y382055D01*
X8993Y401981D02*
X2135Y401981D01*
X2135Y405029D01*
X5183Y405029D02*
X5183Y401981D01*
X2135Y408460D02*
X8993Y408460D01*
X2135Y408460D02*
X2135Y410365D01*
X2137Y410450D01*
X2143Y410536D01*
X2152Y410621D01*
X2166Y410705D01*
X2183Y410789D01*
X2204Y410872D01*
X2228Y410954D01*
X2256Y411034D01*
X2288Y411114D01*
X2324Y411192D01*
X2362Y411268D01*
X2405Y411342D01*
X2450Y411414D01*
X2499Y411485D01*
X2551Y411553D01*
X2605Y411618D01*
X2663Y411681D01*
X2724Y411742D01*
X2787Y411800D01*
X2852Y411854D01*
X2920Y411906D01*
X2991Y411955D01*
X3063Y412000D01*
X3137Y412043D01*
X3213Y412081D01*
X3291Y412117D01*
X3371Y412149D01*
X3451Y412177D01*
X3533Y412201D01*
X3616Y412222D01*
X3700Y412239D01*
X3784Y412253D01*
X3869Y412262D01*
X3955Y412268D01*
X4040Y412270D01*
X4125Y412268D01*
X4211Y412262D01*
X4296Y412253D01*
X4380Y412239D01*
X4464Y412222D01*
X4547Y412201D01*
X4629Y412177D01*
X4709Y412149D01*
X4789Y412117D01*
X4867Y412081D01*
X4943Y412043D01*
X5017Y412000D01*
X5089Y411955D01*
X5160Y411906D01*
X5228Y411854D01*
X5293Y411800D01*
X5356Y411742D01*
X5417Y411681D01*
X5475Y411618D01*
X5529Y411553D01*
X5581Y411485D01*
X5630Y411414D01*
X5675Y411342D01*
X5718Y411268D01*
X5756Y411192D01*
X5792Y411114D01*
X5824Y411034D01*
X5852Y410954D01*
X5876Y410872D01*
X5897Y410789D01*
X5914Y410705D01*
X5928Y410621D01*
X5937Y410536D01*
X5943Y410450D01*
X5945Y410365D01*
X5945Y408460D01*
X5183Y418282D02*
X5183Y419425D01*
X8993Y419425D01*
X8993Y417139D01*
X8991Y417062D01*
X8985Y416985D01*
X8975Y416908D01*
X8962Y416832D01*
X8944Y416757D01*
X8923Y416683D01*
X8898Y416610D01*
X8869Y416538D01*
X8837Y416468D01*
X8802Y416399D01*
X8762Y416333D01*
X8720Y416268D01*
X8674Y416206D01*
X8625Y416146D01*
X8574Y416089D01*
X8519Y416034D01*
X8462Y415983D01*
X8402Y415934D01*
X8340Y415888D01*
X8275Y415846D01*
X8209Y415806D01*
X8140Y415771D01*
X8070Y415739D01*
X7998Y415710D01*
X7925Y415685D01*
X7851Y415664D01*
X7776Y415646D01*
X7700Y415633D01*
X7623Y415623D01*
X7546Y415617D01*
X7469Y415615D01*
X3659Y415615D01*
X3582Y415617D01*
X3505Y415623D01*
X3428Y415633D01*
X3352Y415646D01*
X3277Y415664D01*
X3203Y415685D01*
X3130Y415710D01*
X3058Y415739D01*
X2988Y415771D01*
X2919Y415806D01*
X2853Y415846D01*
X2788Y415888D01*
X2726Y415934D01*
X2666Y415983D01*
X2609Y416034D01*
X2554Y416089D01*
X2503Y416146D01*
X2454Y416206D01*
X2408Y416268D01*
X2366Y416333D01*
X2326Y416399D01*
X2291Y416468D01*
X2259Y416538D01*
X2230Y416610D01*
X2205Y416683D01*
X2184Y416757D01*
X2166Y416832D01*
X2153Y416908D01*
X2143Y416985D01*
X2137Y417062D01*
X2135Y417139D01*
X2135Y419425D01*
X2135Y425079D02*
X8993Y422793D01*
X8993Y427365D02*
X2135Y425079D01*
X7279Y426794D02*
X7279Y423365D01*
X77720Y382135D02*
X80768Y382135D01*
X77720Y382135D02*
X77635Y382137D01*
X77549Y382143D01*
X77464Y382152D01*
X77380Y382166D01*
X77296Y382183D01*
X77213Y382204D01*
X77131Y382228D01*
X77051Y382256D01*
X76971Y382288D01*
X76893Y382324D01*
X76817Y382362D01*
X76743Y382405D01*
X76671Y382450D01*
X76600Y382499D01*
X76532Y382551D01*
X76467Y382605D01*
X76404Y382663D01*
X76343Y382724D01*
X76285Y382787D01*
X76231Y382852D01*
X76179Y382920D01*
X76130Y382991D01*
X76085Y383063D01*
X76042Y383137D01*
X76004Y383213D01*
X75968Y383291D01*
X75936Y383371D01*
X75908Y383451D01*
X75884Y383533D01*
X75863Y383616D01*
X75846Y383700D01*
X75832Y383784D01*
X75823Y383869D01*
X75817Y383955D01*
X75815Y384040D01*
X75817Y384125D01*
X75823Y384211D01*
X75832Y384296D01*
X75846Y384380D01*
X75863Y384464D01*
X75884Y384547D01*
X75908Y384629D01*
X75936Y384709D01*
X75968Y384789D01*
X76004Y384867D01*
X76042Y384943D01*
X76085Y385017D01*
X76130Y385089D01*
X76179Y385160D01*
X76231Y385228D01*
X76285Y385293D01*
X76343Y385356D01*
X76404Y385417D01*
X76467Y385475D01*
X76532Y385529D01*
X76600Y385581D01*
X76671Y385630D01*
X76743Y385675D01*
X76817Y385718D01*
X76893Y385756D01*
X76971Y385792D01*
X77051Y385824D01*
X77131Y385852D01*
X77213Y385876D01*
X77296Y385897D01*
X77380Y385914D01*
X77464Y385928D01*
X77549Y385937D01*
X77635Y385943D01*
X77720Y385945D01*
X80768Y385945D01*
X80853Y385943D01*
X80939Y385937D01*
X81024Y385928D01*
X81108Y385914D01*
X81192Y385897D01*
X81275Y385876D01*
X81357Y385852D01*
X81437Y385824D01*
X81517Y385792D01*
X81595Y385756D01*
X81671Y385718D01*
X81745Y385675D01*
X81817Y385630D01*
X81888Y385581D01*
X81956Y385529D01*
X82021Y385475D01*
X82084Y385417D01*
X82145Y385356D01*
X82203Y385293D01*
X82257Y385228D01*
X82309Y385160D01*
X82358Y385089D01*
X82403Y385017D01*
X82446Y384943D01*
X82484Y384867D01*
X82520Y384789D01*
X82552Y384709D01*
X82580Y384629D01*
X82604Y384547D01*
X82625Y384464D01*
X82642Y384380D01*
X82656Y384296D01*
X82665Y384211D01*
X82671Y384125D01*
X82673Y384040D01*
X82671Y383955D01*
X82665Y383869D01*
X82656Y383784D01*
X82642Y383700D01*
X82625Y383616D01*
X82604Y383533D01*
X82580Y383451D01*
X82552Y383371D01*
X82520Y383291D01*
X82484Y383213D01*
X82446Y383137D01*
X82403Y383063D01*
X82358Y382991D01*
X82309Y382920D01*
X82257Y382852D01*
X82203Y382787D01*
X82145Y382724D01*
X82084Y382663D01*
X82021Y382605D01*
X81956Y382551D01*
X81888Y382499D01*
X81817Y382450D01*
X81745Y382405D01*
X81671Y382362D01*
X81595Y382324D01*
X81517Y382288D01*
X81437Y382256D01*
X81357Y382228D01*
X81275Y382204D01*
X81192Y382183D01*
X81108Y382166D01*
X81024Y382152D01*
X80939Y382143D01*
X80853Y382137D01*
X80768Y382135D01*
X82673Y389854D02*
X75815Y389854D01*
X75815Y391759D01*
X75817Y391844D01*
X75823Y391930D01*
X75832Y392015D01*
X75846Y392099D01*
X75863Y392183D01*
X75884Y392266D01*
X75908Y392348D01*
X75936Y392428D01*
X75968Y392508D01*
X76004Y392586D01*
X76042Y392662D01*
X76085Y392736D01*
X76130Y392808D01*
X76179Y392879D01*
X76231Y392947D01*
X76285Y393012D01*
X76343Y393075D01*
X76404Y393136D01*
X76467Y393194D01*
X76532Y393248D01*
X76600Y393300D01*
X76671Y393349D01*
X76743Y393394D01*
X76817Y393437D01*
X76893Y393475D01*
X76971Y393511D01*
X77051Y393543D01*
X77131Y393571D01*
X77213Y393595D01*
X77296Y393616D01*
X77380Y393633D01*
X77464Y393647D01*
X77549Y393656D01*
X77635Y393662D01*
X77720Y393664D01*
X77805Y393662D01*
X77891Y393656D01*
X77976Y393647D01*
X78060Y393633D01*
X78144Y393616D01*
X78227Y393595D01*
X78309Y393571D01*
X78389Y393543D01*
X78469Y393511D01*
X78547Y393475D01*
X78623Y393437D01*
X78697Y393394D01*
X78769Y393349D01*
X78840Y393300D01*
X78908Y393248D01*
X78973Y393194D01*
X79036Y393136D01*
X79097Y393075D01*
X79155Y393012D01*
X79209Y392947D01*
X79261Y392879D01*
X79310Y392808D01*
X79355Y392736D01*
X79398Y392662D01*
X79436Y392586D01*
X79472Y392508D01*
X79504Y392428D01*
X79532Y392348D01*
X79556Y392266D01*
X79577Y392183D01*
X79594Y392099D01*
X79608Y392015D01*
X79617Y391930D01*
X79623Y391844D01*
X79625Y391759D01*
X79625Y389854D01*
X82673Y398183D02*
X75815Y398183D01*
X75815Y396278D02*
X75815Y400088D01*
X75815Y403547D02*
X82673Y403547D01*
X82673Y402785D02*
X82673Y404309D01*
X75815Y404309D02*
X75815Y402785D01*
X77720Y407494D02*
X80768Y407494D01*
X77720Y407494D02*
X77635Y407496D01*
X77549Y407502D01*
X77464Y407511D01*
X77380Y407525D01*
X77296Y407542D01*
X77213Y407563D01*
X77131Y407587D01*
X77051Y407615D01*
X76971Y407647D01*
X76893Y407683D01*
X76817Y407721D01*
X76743Y407764D01*
X76671Y407809D01*
X76600Y407858D01*
X76532Y407910D01*
X76467Y407964D01*
X76404Y408022D01*
X76343Y408083D01*
X76285Y408146D01*
X76231Y408211D01*
X76179Y408279D01*
X76130Y408350D01*
X76085Y408422D01*
X76042Y408496D01*
X76004Y408572D01*
X75968Y408650D01*
X75936Y408730D01*
X75908Y408810D01*
X75884Y408892D01*
X75863Y408975D01*
X75846Y409059D01*
X75832Y409143D01*
X75823Y409228D01*
X75817Y409314D01*
X75815Y409399D01*
X75817Y409484D01*
X75823Y409570D01*
X75832Y409655D01*
X75846Y409739D01*
X75863Y409823D01*
X75884Y409906D01*
X75908Y409988D01*
X75936Y410068D01*
X75968Y410148D01*
X76004Y410226D01*
X76042Y410302D01*
X76085Y410376D01*
X76130Y410448D01*
X76179Y410519D01*
X76231Y410587D01*
X76285Y410652D01*
X76343Y410715D01*
X76404Y410776D01*
X76467Y410834D01*
X76532Y410888D01*
X76600Y410940D01*
X76671Y410989D01*
X76743Y411034D01*
X76817Y411077D01*
X76893Y411115D01*
X76971Y411151D01*
X77051Y411183D01*
X77131Y411211D01*
X77213Y411235D01*
X77296Y411256D01*
X77380Y411273D01*
X77464Y411287D01*
X77549Y411296D01*
X77635Y411302D01*
X77720Y411304D01*
X80768Y411304D01*
X80853Y411302D01*
X80939Y411296D01*
X81024Y411287D01*
X81108Y411273D01*
X81192Y411256D01*
X81275Y411235D01*
X81357Y411211D01*
X81437Y411183D01*
X81517Y411151D01*
X81595Y411115D01*
X81671Y411077D01*
X81745Y411034D01*
X81817Y410989D01*
X81888Y410940D01*
X81956Y410888D01*
X82021Y410834D01*
X82084Y410776D01*
X82145Y410715D01*
X82203Y410652D01*
X82257Y410587D01*
X82309Y410519D01*
X82358Y410448D01*
X82403Y410376D01*
X82446Y410302D01*
X82484Y410226D01*
X82520Y410148D01*
X82552Y410068D01*
X82580Y409988D01*
X82604Y409906D01*
X82625Y409823D01*
X82642Y409739D01*
X82656Y409655D01*
X82665Y409570D01*
X82671Y409484D01*
X82673Y409399D01*
X82671Y409314D01*
X82665Y409228D01*
X82656Y409143D01*
X82642Y409059D01*
X82625Y408975D01*
X82604Y408892D01*
X82580Y408810D01*
X82552Y408730D01*
X82520Y408650D01*
X82484Y408572D01*
X82446Y408496D01*
X82403Y408422D01*
X82358Y408350D01*
X82309Y408279D01*
X82257Y408211D01*
X82203Y408146D01*
X82145Y408083D01*
X82084Y408022D01*
X82021Y407964D01*
X81956Y407910D01*
X81888Y407858D01*
X81817Y407809D01*
X81745Y407764D01*
X81671Y407721D01*
X81595Y407683D01*
X81517Y407647D01*
X81437Y407615D01*
X81357Y407587D01*
X81275Y407563D01*
X81192Y407542D01*
X81108Y407525D01*
X81024Y407511D01*
X80939Y407502D01*
X80853Y407496D01*
X80768Y407494D01*
X82673Y415053D02*
X75815Y415053D01*
X82673Y418863D01*
X75815Y418863D01*
X75815Y424517D02*
X82673Y422231D01*
X82673Y426803D02*
X75815Y424517D01*
X80959Y426232D02*
X80959Y422803D01*
X82673Y430193D02*
X75815Y430193D01*
X82673Y430193D02*
X82673Y433241D01*
X94865Y384040D02*
X94865Y382135D01*
X94865Y384040D02*
X94863Y384125D01*
X94857Y384211D01*
X94848Y384296D01*
X94834Y384380D01*
X94817Y384464D01*
X94796Y384547D01*
X94772Y384629D01*
X94744Y384709D01*
X94712Y384789D01*
X94676Y384867D01*
X94638Y384943D01*
X94595Y385017D01*
X94550Y385089D01*
X94501Y385160D01*
X94449Y385228D01*
X94395Y385293D01*
X94337Y385356D01*
X94276Y385417D01*
X94213Y385475D01*
X94148Y385529D01*
X94080Y385581D01*
X94009Y385630D01*
X93937Y385675D01*
X93863Y385718D01*
X93787Y385756D01*
X93709Y385792D01*
X93629Y385824D01*
X93549Y385852D01*
X93467Y385876D01*
X93384Y385897D01*
X93300Y385914D01*
X93216Y385928D01*
X93131Y385937D01*
X93045Y385943D01*
X92960Y385945D01*
X92875Y385943D01*
X92789Y385937D01*
X92704Y385928D01*
X92620Y385914D01*
X92536Y385897D01*
X92453Y385876D01*
X92371Y385852D01*
X92291Y385824D01*
X92211Y385792D01*
X92133Y385756D01*
X92057Y385718D01*
X91983Y385675D01*
X91911Y385630D01*
X91840Y385581D01*
X91772Y385529D01*
X91707Y385475D01*
X91644Y385417D01*
X91583Y385356D01*
X91525Y385293D01*
X91471Y385228D01*
X91419Y385160D01*
X91370Y385089D01*
X91325Y385017D01*
X91282Y384943D01*
X91244Y384867D01*
X91208Y384789D01*
X91176Y384709D01*
X91148Y384629D01*
X91124Y384547D01*
X91103Y384464D01*
X91086Y384380D01*
X91072Y384296D01*
X91063Y384211D01*
X91057Y384125D01*
X91055Y384040D01*
X88007Y384421D02*
X88007Y382135D01*
X88007Y384421D02*
X88009Y384498D01*
X88015Y384575D01*
X88025Y384652D01*
X88038Y384728D01*
X88056Y384803D01*
X88077Y384877D01*
X88102Y384950D01*
X88131Y385022D01*
X88163Y385092D01*
X88198Y385161D01*
X88238Y385227D01*
X88280Y385292D01*
X88326Y385354D01*
X88375Y385414D01*
X88426Y385471D01*
X88481Y385526D01*
X88538Y385577D01*
X88598Y385626D01*
X88660Y385672D01*
X88725Y385714D01*
X88791Y385754D01*
X88860Y385789D01*
X88930Y385821D01*
X89002Y385850D01*
X89075Y385875D01*
X89149Y385896D01*
X89224Y385914D01*
X89300Y385927D01*
X89377Y385937D01*
X89454Y385943D01*
X89531Y385945D01*
X89608Y385943D01*
X89685Y385937D01*
X89762Y385927D01*
X89838Y385914D01*
X89913Y385896D01*
X89987Y385875D01*
X90060Y385850D01*
X90132Y385821D01*
X90202Y385789D01*
X90271Y385754D01*
X90337Y385714D01*
X90402Y385672D01*
X90464Y385626D01*
X90524Y385577D01*
X90581Y385526D01*
X90636Y385471D01*
X90687Y385414D01*
X90736Y385354D01*
X90782Y385292D01*
X90824Y385227D01*
X90864Y385161D01*
X90899Y385092D01*
X90931Y385022D01*
X90960Y384950D01*
X90985Y384877D01*
X91006Y384803D01*
X91024Y384728D01*
X91037Y384652D01*
X91047Y384575D01*
X91053Y384498D01*
X91055Y384421D01*
X91055Y382897D01*
X94484Y388970D02*
X94865Y388970D01*
X94484Y388970D02*
X94484Y389351D01*
X94865Y389351D01*
X94865Y388970D01*
X94865Y392376D02*
X94865Y394281D01*
X94863Y394366D01*
X94857Y394452D01*
X94848Y394537D01*
X94834Y394621D01*
X94817Y394705D01*
X94796Y394788D01*
X94772Y394870D01*
X94744Y394950D01*
X94712Y395030D01*
X94676Y395108D01*
X94638Y395184D01*
X94595Y395258D01*
X94550Y395330D01*
X94501Y395401D01*
X94449Y395469D01*
X94395Y395534D01*
X94337Y395597D01*
X94276Y395658D01*
X94213Y395716D01*
X94148Y395770D01*
X94080Y395822D01*
X94009Y395871D01*
X93937Y395916D01*
X93863Y395959D01*
X93787Y395997D01*
X93709Y396033D01*
X93629Y396065D01*
X93549Y396093D01*
X93467Y396117D01*
X93384Y396138D01*
X93300Y396155D01*
X93216Y396169D01*
X93131Y396178D01*
X93045Y396184D01*
X92960Y396186D01*
X92875Y396184D01*
X92789Y396178D01*
X92704Y396169D01*
X92620Y396155D01*
X92536Y396138D01*
X92453Y396117D01*
X92371Y396093D01*
X92291Y396065D01*
X92211Y396033D01*
X92133Y395997D01*
X92057Y395959D01*
X91983Y395916D01*
X91911Y395871D01*
X91840Y395822D01*
X91772Y395770D01*
X91707Y395716D01*
X91644Y395658D01*
X91583Y395597D01*
X91525Y395534D01*
X91471Y395469D01*
X91419Y395401D01*
X91370Y395330D01*
X91325Y395258D01*
X91282Y395184D01*
X91244Y395108D01*
X91208Y395030D01*
X91176Y394950D01*
X91148Y394870D01*
X91124Y394788D01*
X91103Y394705D01*
X91086Y394621D01*
X91072Y394537D01*
X91063Y394452D01*
X91057Y394366D01*
X91055Y394281D01*
X88007Y394662D02*
X88007Y392376D01*
X88007Y394662D02*
X88009Y394739D01*
X88015Y394816D01*
X88025Y394893D01*
X88038Y394969D01*
X88056Y395044D01*
X88077Y395118D01*
X88102Y395191D01*
X88131Y395263D01*
X88163Y395333D01*
X88198Y395402D01*
X88238Y395468D01*
X88280Y395533D01*
X88326Y395595D01*
X88375Y395655D01*
X88426Y395712D01*
X88481Y395767D01*
X88538Y395818D01*
X88598Y395867D01*
X88660Y395913D01*
X88725Y395955D01*
X88791Y395995D01*
X88860Y396030D01*
X88930Y396062D01*
X89002Y396091D01*
X89075Y396116D01*
X89149Y396137D01*
X89224Y396155D01*
X89300Y396168D01*
X89377Y396178D01*
X89454Y396184D01*
X89531Y396186D01*
X89608Y396184D01*
X89685Y396178D01*
X89762Y396168D01*
X89838Y396155D01*
X89913Y396137D01*
X89987Y396116D01*
X90060Y396091D01*
X90132Y396062D01*
X90202Y396030D01*
X90271Y395995D01*
X90337Y395955D01*
X90402Y395913D01*
X90464Y395867D01*
X90524Y395818D01*
X90581Y395767D01*
X90636Y395712D01*
X90687Y395655D01*
X90736Y395595D01*
X90782Y395533D01*
X90824Y395468D01*
X90864Y395402D01*
X90899Y395333D01*
X90931Y395263D01*
X90960Y395191D01*
X90985Y395118D01*
X91006Y395044D01*
X91024Y394969D01*
X91037Y394893D01*
X91047Y394816D01*
X91053Y394739D01*
X91055Y394662D01*
X91055Y393138D01*
X88007Y399310D02*
X94865Y401596D01*
X88007Y403882D01*
X88007Y407250D02*
X94865Y407250D01*
X88007Y407250D02*
X88007Y409155D01*
X88009Y409240D01*
X88015Y409326D01*
X88024Y409411D01*
X88038Y409495D01*
X88055Y409579D01*
X88076Y409662D01*
X88100Y409744D01*
X88128Y409824D01*
X88160Y409904D01*
X88196Y409982D01*
X88234Y410058D01*
X88277Y410132D01*
X88322Y410204D01*
X88371Y410275D01*
X88423Y410343D01*
X88477Y410408D01*
X88535Y410471D01*
X88596Y410532D01*
X88659Y410590D01*
X88724Y410644D01*
X88792Y410696D01*
X88863Y410745D01*
X88935Y410790D01*
X89009Y410833D01*
X89085Y410871D01*
X89163Y410907D01*
X89243Y410939D01*
X89323Y410967D01*
X89405Y410991D01*
X89488Y411012D01*
X89572Y411029D01*
X89656Y411043D01*
X89741Y411052D01*
X89827Y411058D01*
X89912Y411060D01*
X92960Y411060D01*
X93045Y411058D01*
X93131Y411052D01*
X93216Y411043D01*
X93300Y411029D01*
X93384Y411012D01*
X93467Y410991D01*
X93549Y410967D01*
X93629Y410939D01*
X93709Y410907D01*
X93787Y410871D01*
X93863Y410833D01*
X93937Y410790D01*
X94009Y410745D01*
X94080Y410696D01*
X94148Y410644D01*
X94213Y410590D01*
X94276Y410532D01*
X94337Y410471D01*
X94395Y410408D01*
X94449Y410343D01*
X94501Y410275D01*
X94550Y410204D01*
X94595Y410132D01*
X94638Y410058D01*
X94676Y409982D01*
X94712Y409904D01*
X94744Y409824D01*
X94772Y409744D01*
X94796Y409662D01*
X94817Y409579D01*
X94834Y409495D01*
X94848Y409411D01*
X94857Y409326D01*
X94863Y409240D01*
X94865Y409155D01*
X94865Y407250D01*
X94865Y416302D02*
X94865Y417826D01*
X94865Y416302D02*
X94863Y416225D01*
X94857Y416148D01*
X94847Y416071D01*
X94834Y415995D01*
X94816Y415920D01*
X94795Y415846D01*
X94770Y415773D01*
X94741Y415701D01*
X94709Y415631D01*
X94674Y415562D01*
X94634Y415496D01*
X94592Y415431D01*
X94546Y415369D01*
X94497Y415309D01*
X94446Y415252D01*
X94391Y415197D01*
X94334Y415146D01*
X94274Y415097D01*
X94212Y415051D01*
X94147Y415009D01*
X94081Y414969D01*
X94012Y414934D01*
X93942Y414902D01*
X93870Y414873D01*
X93797Y414848D01*
X93723Y414827D01*
X93648Y414809D01*
X93572Y414796D01*
X93495Y414786D01*
X93418Y414780D01*
X93341Y414778D01*
X89531Y414778D01*
X89454Y414780D01*
X89377Y414786D01*
X89300Y414796D01*
X89224Y414809D01*
X89149Y414827D01*
X89075Y414848D01*
X89002Y414873D01*
X88930Y414902D01*
X88860Y414934D01*
X88791Y414969D01*
X88725Y415009D01*
X88660Y415051D01*
X88598Y415097D01*
X88538Y415146D01*
X88481Y415197D01*
X88426Y415252D01*
X88375Y415309D01*
X88326Y415369D01*
X88280Y415431D01*
X88238Y415496D01*
X88198Y415562D01*
X88163Y415631D01*
X88131Y415701D01*
X88102Y415773D01*
X88077Y415846D01*
X88056Y415920D01*
X88038Y415995D01*
X88025Y416071D01*
X88015Y416148D01*
X88009Y416225D01*
X88007Y416302D01*
X88007Y417826D01*
X94865Y424426D02*
X88007Y428998D01*
X88007Y424426D02*
X94865Y428998D01*
X92960Y432122D02*
X89912Y432122D01*
X89827Y432124D01*
X89741Y432130D01*
X89656Y432139D01*
X89572Y432153D01*
X89488Y432170D01*
X89405Y432191D01*
X89323Y432215D01*
X89243Y432243D01*
X89163Y432275D01*
X89085Y432311D01*
X89009Y432349D01*
X88935Y432392D01*
X88863Y432437D01*
X88792Y432486D01*
X88724Y432538D01*
X88659Y432592D01*
X88596Y432650D01*
X88535Y432711D01*
X88477Y432774D01*
X88423Y432839D01*
X88371Y432907D01*
X88322Y432978D01*
X88277Y433050D01*
X88234Y433124D01*
X88196Y433200D01*
X88160Y433278D01*
X88128Y433358D01*
X88100Y433438D01*
X88076Y433520D01*
X88055Y433603D01*
X88038Y433687D01*
X88024Y433771D01*
X88015Y433856D01*
X88009Y433942D01*
X88007Y434027D01*
X88009Y434112D01*
X88015Y434198D01*
X88024Y434283D01*
X88038Y434367D01*
X88055Y434451D01*
X88076Y434534D01*
X88100Y434616D01*
X88128Y434696D01*
X88160Y434776D01*
X88196Y434854D01*
X88234Y434930D01*
X88277Y435004D01*
X88322Y435076D01*
X88371Y435147D01*
X88423Y435215D01*
X88477Y435280D01*
X88535Y435343D01*
X88596Y435404D01*
X88659Y435462D01*
X88724Y435516D01*
X88792Y435568D01*
X88863Y435617D01*
X88935Y435662D01*
X89009Y435705D01*
X89085Y435743D01*
X89163Y435779D01*
X89243Y435811D01*
X89323Y435839D01*
X89405Y435863D01*
X89488Y435884D01*
X89572Y435901D01*
X89656Y435915D01*
X89741Y435924D01*
X89827Y435930D01*
X89912Y435932D01*
X92960Y435932D01*
X93045Y435930D01*
X93131Y435924D01*
X93216Y435915D01*
X93300Y435901D01*
X93384Y435884D01*
X93467Y435863D01*
X93549Y435839D01*
X93629Y435811D01*
X93709Y435779D01*
X93787Y435743D01*
X93863Y435705D01*
X93937Y435662D01*
X94009Y435617D01*
X94080Y435568D01*
X94148Y435516D01*
X94213Y435462D01*
X94276Y435404D01*
X94337Y435343D01*
X94395Y435280D01*
X94449Y435215D01*
X94501Y435147D01*
X94550Y435076D01*
X94595Y435004D01*
X94638Y434930D01*
X94676Y434854D01*
X94712Y434776D01*
X94744Y434696D01*
X94772Y434616D01*
X94796Y434534D01*
X94817Y434451D01*
X94834Y434367D01*
X94848Y434283D01*
X94857Y434198D01*
X94863Y434112D01*
X94865Y434027D01*
X94863Y433942D01*
X94857Y433856D01*
X94848Y433771D01*
X94834Y433687D01*
X94817Y433603D01*
X94796Y433520D01*
X94772Y433438D01*
X94744Y433358D01*
X94712Y433278D01*
X94676Y433200D01*
X94638Y433124D01*
X94595Y433050D01*
X94550Y432978D01*
X94501Y432907D01*
X94449Y432839D01*
X94395Y432774D01*
X94337Y432711D01*
X94276Y432650D01*
X94213Y432592D01*
X94148Y432538D01*
X94080Y432486D01*
X94009Y432437D01*
X93937Y432392D01*
X93863Y432349D01*
X93787Y432311D01*
X93709Y432275D01*
X93629Y432243D01*
X93549Y432215D01*
X93467Y432191D01*
X93384Y432170D01*
X93300Y432153D01*
X93216Y432139D01*
X93131Y432130D01*
X93045Y432124D01*
X92960Y432122D01*
X81598Y458007D02*
X81598Y464865D01*
X79693Y464865D02*
X83503Y464865D01*
X86871Y464865D02*
X86871Y458007D01*
X89157Y461055D02*
X86871Y464865D01*
X89157Y461055D02*
X91443Y464865D01*
X91443Y458007D01*
X97341Y458007D02*
X97418Y458009D01*
X97495Y458015D01*
X97572Y458025D01*
X97648Y458038D01*
X97723Y458056D01*
X97797Y458077D01*
X97870Y458102D01*
X97942Y458131D01*
X98012Y458163D01*
X98081Y458198D01*
X98147Y458238D01*
X98212Y458280D01*
X98274Y458326D01*
X98334Y458375D01*
X98391Y458426D01*
X98446Y458481D01*
X98497Y458538D01*
X98546Y458598D01*
X98592Y458660D01*
X98634Y458725D01*
X98674Y458791D01*
X98709Y458860D01*
X98741Y458930D01*
X98770Y459002D01*
X98795Y459075D01*
X98816Y459149D01*
X98834Y459224D01*
X98847Y459300D01*
X98857Y459377D01*
X98863Y459454D01*
X98865Y459531D01*
X97341Y458007D02*
X97231Y458009D01*
X97120Y458015D01*
X97010Y458024D01*
X96900Y458037D01*
X96791Y458054D01*
X96683Y458075D01*
X96575Y458099D01*
X96468Y458128D01*
X96362Y458159D01*
X96258Y458195D01*
X96154Y458234D01*
X96052Y458276D01*
X95952Y458322D01*
X95853Y458372D01*
X95756Y458424D01*
X95660Y458481D01*
X95567Y458540D01*
X95476Y458602D01*
X95387Y458668D01*
X95300Y458736D01*
X95216Y458808D01*
X95134Y458882D01*
X95055Y458959D01*
X95246Y463341D02*
X95248Y463418D01*
X95254Y463495D01*
X95264Y463572D01*
X95277Y463648D01*
X95295Y463723D01*
X95316Y463797D01*
X95341Y463870D01*
X95370Y463942D01*
X95402Y464012D01*
X95437Y464081D01*
X95477Y464147D01*
X95519Y464212D01*
X95565Y464274D01*
X95614Y464334D01*
X95665Y464391D01*
X95720Y464446D01*
X95777Y464497D01*
X95837Y464546D01*
X95899Y464592D01*
X95964Y464634D01*
X96030Y464674D01*
X96099Y464709D01*
X96169Y464741D01*
X96241Y464770D01*
X96314Y464795D01*
X96388Y464816D01*
X96463Y464834D01*
X96539Y464847D01*
X96616Y464857D01*
X96693Y464863D01*
X96770Y464865D01*
X96770Y464866D02*
X96872Y464864D01*
X96974Y464859D01*
X97076Y464850D01*
X97177Y464837D01*
X97278Y464820D01*
X97378Y464801D01*
X97478Y464777D01*
X97576Y464750D01*
X97674Y464719D01*
X97770Y464685D01*
X97865Y464648D01*
X97959Y464607D01*
X98051Y464563D01*
X98141Y464515D01*
X98230Y464465D01*
X98317Y464411D01*
X98402Y464354D01*
X98485Y464294D01*
X96007Y462007D02*
X95942Y462048D01*
X95879Y462091D01*
X95819Y462138D01*
X95760Y462188D01*
X95705Y462240D01*
X95652Y462295D01*
X95601Y462353D01*
X95554Y462413D01*
X95510Y462476D01*
X95468Y462540D01*
X95430Y462606D01*
X95396Y462675D01*
X95365Y462745D01*
X95337Y462816D01*
X95313Y462888D01*
X95292Y462962D01*
X95275Y463037D01*
X95262Y463112D01*
X95253Y463188D01*
X95247Y463264D01*
X95245Y463341D01*
X98103Y460865D02*
X98168Y460824D01*
X98231Y460781D01*
X98291Y460734D01*
X98350Y460684D01*
X98405Y460632D01*
X98458Y460577D01*
X98509Y460519D01*
X98556Y460459D01*
X98600Y460396D01*
X98642Y460332D01*
X98680Y460266D01*
X98714Y460197D01*
X98745Y460127D01*
X98773Y460056D01*
X98797Y459984D01*
X98818Y459910D01*
X98835Y459835D01*
X98848Y459760D01*
X98857Y459684D01*
X98863Y459608D01*
X98865Y459531D01*
X98103Y460865D02*
X96008Y462008D01*
X54842Y458007D02*
X52556Y464865D01*
X57128Y464865D02*
X54842Y458007D01*
X61745Y458007D02*
X63269Y458007D01*
X61745Y458007D02*
X61668Y458009D01*
X61591Y458015D01*
X61514Y458025D01*
X61438Y458038D01*
X61363Y458056D01*
X61289Y458077D01*
X61216Y458102D01*
X61144Y458131D01*
X61074Y458163D01*
X61005Y458198D01*
X60939Y458238D01*
X60874Y458280D01*
X60812Y458326D01*
X60752Y458375D01*
X60695Y458426D01*
X60640Y458481D01*
X60589Y458538D01*
X60540Y458598D01*
X60494Y458660D01*
X60452Y458725D01*
X60412Y458791D01*
X60377Y458860D01*
X60345Y458930D01*
X60316Y459002D01*
X60291Y459075D01*
X60270Y459149D01*
X60252Y459224D01*
X60239Y459300D01*
X60229Y459377D01*
X60223Y459454D01*
X60221Y459531D01*
X60221Y463341D01*
X60223Y463418D01*
X60229Y463495D01*
X60239Y463572D01*
X60252Y463648D01*
X60270Y463723D01*
X60291Y463797D01*
X60316Y463870D01*
X60345Y463942D01*
X60377Y464012D01*
X60412Y464081D01*
X60452Y464147D01*
X60494Y464212D01*
X60540Y464274D01*
X60589Y464334D01*
X60640Y464391D01*
X60695Y464446D01*
X60752Y464497D01*
X60812Y464546D01*
X60874Y464592D01*
X60939Y464634D01*
X61005Y464674D01*
X61074Y464709D01*
X61144Y464741D01*
X61216Y464770D01*
X61289Y464795D01*
X61363Y464816D01*
X61438Y464834D01*
X61514Y464847D01*
X61591Y464857D01*
X61668Y464863D01*
X61745Y464865D01*
X63269Y464865D01*
X67841Y458007D02*
X69365Y458007D01*
X67841Y458007D02*
X67764Y458009D01*
X67687Y458015D01*
X67610Y458025D01*
X67534Y458038D01*
X67459Y458056D01*
X67385Y458077D01*
X67312Y458102D01*
X67240Y458131D01*
X67170Y458163D01*
X67101Y458198D01*
X67035Y458238D01*
X66970Y458280D01*
X66908Y458326D01*
X66848Y458375D01*
X66791Y458426D01*
X66736Y458481D01*
X66685Y458538D01*
X66636Y458598D01*
X66590Y458660D01*
X66548Y458725D01*
X66508Y458791D01*
X66473Y458860D01*
X66441Y458930D01*
X66412Y459002D01*
X66387Y459075D01*
X66366Y459149D01*
X66348Y459224D01*
X66335Y459300D01*
X66325Y459377D01*
X66319Y459454D01*
X66317Y459531D01*
X66317Y463341D01*
X66319Y463418D01*
X66325Y463495D01*
X66335Y463572D01*
X66348Y463648D01*
X66366Y463723D01*
X66387Y463797D01*
X66412Y463870D01*
X66441Y463942D01*
X66473Y464012D01*
X66508Y464081D01*
X66548Y464147D01*
X66590Y464212D01*
X66636Y464274D01*
X66685Y464334D01*
X66736Y464391D01*
X66791Y464446D01*
X66848Y464497D01*
X66908Y464546D01*
X66970Y464592D01*
X67035Y464634D01*
X67101Y464674D01*
X67170Y464709D01*
X67240Y464741D01*
X67312Y464770D01*
X67385Y464795D01*
X67459Y464816D01*
X67534Y464834D01*
X67610Y464847D01*
X67687Y464857D01*
X67764Y464863D01*
X67841Y464865D01*
X69365Y464865D01*
X107116Y462317D02*
X108259Y462317D01*
X108259Y458507D01*
X105973Y458507D01*
X105896Y458509D01*
X105819Y458515D01*
X105742Y458525D01*
X105666Y458538D01*
X105591Y458556D01*
X105517Y458577D01*
X105444Y458602D01*
X105372Y458631D01*
X105302Y458663D01*
X105233Y458698D01*
X105167Y458738D01*
X105102Y458780D01*
X105040Y458826D01*
X104980Y458875D01*
X104923Y458926D01*
X104868Y458981D01*
X104817Y459038D01*
X104768Y459098D01*
X104722Y459160D01*
X104680Y459225D01*
X104640Y459291D01*
X104605Y459360D01*
X104573Y459430D01*
X104544Y459502D01*
X104519Y459575D01*
X104498Y459649D01*
X104480Y459724D01*
X104467Y459800D01*
X104457Y459877D01*
X104451Y459954D01*
X104449Y460031D01*
X104449Y463841D01*
X104451Y463918D01*
X104457Y463995D01*
X104467Y464072D01*
X104480Y464148D01*
X104498Y464223D01*
X104519Y464297D01*
X104544Y464370D01*
X104573Y464442D01*
X104605Y464512D01*
X104640Y464581D01*
X104680Y464647D01*
X104722Y464712D01*
X104768Y464774D01*
X104817Y464834D01*
X104868Y464891D01*
X104923Y464946D01*
X104980Y464997D01*
X105040Y465046D01*
X105102Y465092D01*
X105167Y465134D01*
X105233Y465174D01*
X105302Y465209D01*
X105372Y465241D01*
X105444Y465270D01*
X105517Y465295D01*
X105591Y465316D01*
X105666Y465334D01*
X105742Y465347D01*
X105819Y465357D01*
X105896Y465363D01*
X105973Y465365D01*
X108259Y465365D01*
X112252Y465365D02*
X112252Y458507D01*
X116062Y458507D02*
X112252Y465365D01*
X116062Y465365D02*
X116062Y458507D01*
X120055Y458507D02*
X120055Y465365D01*
X121960Y465365D01*
X122045Y465363D01*
X122131Y465357D01*
X122216Y465348D01*
X122300Y465334D01*
X122384Y465317D01*
X122467Y465296D01*
X122549Y465272D01*
X122629Y465244D01*
X122709Y465212D01*
X122787Y465176D01*
X122863Y465138D01*
X122937Y465095D01*
X123009Y465050D01*
X123080Y465001D01*
X123148Y464949D01*
X123213Y464895D01*
X123276Y464837D01*
X123337Y464776D01*
X123395Y464713D01*
X123449Y464648D01*
X123501Y464580D01*
X123550Y464509D01*
X123595Y464437D01*
X123638Y464363D01*
X123676Y464287D01*
X123712Y464209D01*
X123744Y464129D01*
X123772Y464049D01*
X123796Y463967D01*
X123817Y463884D01*
X123834Y463800D01*
X123848Y463716D01*
X123857Y463631D01*
X123863Y463545D01*
X123865Y463460D01*
X123865Y460412D01*
X123863Y460327D01*
X123857Y460241D01*
X123848Y460156D01*
X123834Y460072D01*
X123817Y459988D01*
X123796Y459905D01*
X123772Y459823D01*
X123744Y459743D01*
X123712Y459663D01*
X123676Y459585D01*
X123638Y459509D01*
X123595Y459435D01*
X123550Y459363D01*
X123501Y459292D01*
X123449Y459224D01*
X123395Y459159D01*
X123337Y459096D01*
X123276Y459035D01*
X123213Y458977D01*
X123148Y458923D01*
X123080Y458871D01*
X123009Y458822D01*
X122937Y458777D01*
X122863Y458734D01*
X122787Y458696D01*
X122709Y458660D01*
X122629Y458628D01*
X122549Y458600D01*
X122467Y458576D01*
X122384Y458555D01*
X122300Y458538D01*
X122216Y458524D01*
X122131Y458515D01*
X122045Y458509D01*
X121960Y458507D01*
X120055Y458507D01*
X54330Y468507D02*
X54330Y475365D01*
X52425Y475365D02*
X56235Y475365D01*
X59496Y475365D02*
X59496Y468507D01*
X59496Y475365D02*
X61401Y475365D01*
X61486Y475363D01*
X61572Y475357D01*
X61657Y475348D01*
X61741Y475334D01*
X61825Y475317D01*
X61908Y475296D01*
X61990Y475272D01*
X62070Y475244D01*
X62150Y475212D01*
X62228Y475176D01*
X62304Y475138D01*
X62378Y475095D01*
X62450Y475050D01*
X62521Y475001D01*
X62589Y474949D01*
X62654Y474895D01*
X62717Y474837D01*
X62778Y474776D01*
X62836Y474713D01*
X62890Y474648D01*
X62942Y474580D01*
X62991Y474509D01*
X63036Y474437D01*
X63079Y474363D01*
X63117Y474287D01*
X63153Y474209D01*
X63185Y474129D01*
X63213Y474049D01*
X63237Y473967D01*
X63258Y473884D01*
X63275Y473800D01*
X63289Y473716D01*
X63298Y473631D01*
X63304Y473545D01*
X63306Y473460D01*
X63306Y470412D01*
X63304Y470327D01*
X63298Y470241D01*
X63289Y470156D01*
X63275Y470072D01*
X63258Y469988D01*
X63237Y469905D01*
X63213Y469823D01*
X63185Y469743D01*
X63153Y469663D01*
X63117Y469585D01*
X63079Y469509D01*
X63036Y469435D01*
X62991Y469363D01*
X62942Y469292D01*
X62890Y469224D01*
X62836Y469159D01*
X62778Y469096D01*
X62717Y469035D01*
X62654Y468977D01*
X62589Y468923D01*
X62521Y468871D01*
X62450Y468822D01*
X62378Y468777D01*
X62304Y468734D01*
X62228Y468696D01*
X62150Y468660D01*
X62070Y468628D01*
X61990Y468600D01*
X61908Y468576D01*
X61825Y468555D01*
X61741Y468538D01*
X61657Y468524D01*
X61572Y468515D01*
X61486Y468509D01*
X61401Y468507D01*
X59496Y468507D01*
X67055Y470412D02*
X67055Y473460D01*
X67057Y473545D01*
X67063Y473631D01*
X67072Y473716D01*
X67086Y473800D01*
X67103Y473884D01*
X67124Y473967D01*
X67148Y474049D01*
X67176Y474129D01*
X67208Y474209D01*
X67244Y474287D01*
X67282Y474363D01*
X67325Y474437D01*
X67370Y474509D01*
X67419Y474580D01*
X67471Y474648D01*
X67525Y474713D01*
X67583Y474776D01*
X67644Y474837D01*
X67707Y474895D01*
X67772Y474949D01*
X67840Y475001D01*
X67911Y475050D01*
X67983Y475095D01*
X68057Y475138D01*
X68133Y475176D01*
X68211Y475212D01*
X68291Y475244D01*
X68371Y475272D01*
X68453Y475296D01*
X68536Y475317D01*
X68620Y475334D01*
X68704Y475348D01*
X68789Y475357D01*
X68875Y475363D01*
X68960Y475365D01*
X69045Y475363D01*
X69131Y475357D01*
X69216Y475348D01*
X69300Y475334D01*
X69384Y475317D01*
X69467Y475296D01*
X69549Y475272D01*
X69629Y475244D01*
X69709Y475212D01*
X69787Y475176D01*
X69863Y475138D01*
X69937Y475095D01*
X70009Y475050D01*
X70080Y475001D01*
X70148Y474949D01*
X70213Y474895D01*
X70276Y474837D01*
X70337Y474776D01*
X70395Y474713D01*
X70449Y474648D01*
X70501Y474580D01*
X70550Y474509D01*
X70595Y474437D01*
X70638Y474363D01*
X70676Y474287D01*
X70712Y474209D01*
X70744Y474129D01*
X70772Y474049D01*
X70796Y473967D01*
X70817Y473884D01*
X70834Y473800D01*
X70848Y473716D01*
X70857Y473631D01*
X70863Y473545D01*
X70865Y473460D01*
X70865Y470412D01*
X70863Y470327D01*
X70857Y470241D01*
X70848Y470156D01*
X70834Y470072D01*
X70817Y469988D01*
X70796Y469905D01*
X70772Y469823D01*
X70744Y469743D01*
X70712Y469663D01*
X70676Y469585D01*
X70638Y469509D01*
X70595Y469435D01*
X70550Y469363D01*
X70501Y469292D01*
X70449Y469224D01*
X70395Y469159D01*
X70337Y469096D01*
X70276Y469035D01*
X70213Y468977D01*
X70148Y468923D01*
X70080Y468871D01*
X70009Y468822D01*
X69937Y468777D01*
X69863Y468734D01*
X69787Y468696D01*
X69709Y468660D01*
X69629Y468628D01*
X69549Y468600D01*
X69467Y468576D01*
X69384Y468555D01*
X69300Y468538D01*
X69216Y468524D01*
X69131Y468515D01*
X69045Y468509D01*
X68960Y468507D01*
X68875Y468509D01*
X68789Y468515D01*
X68704Y468524D01*
X68620Y468538D01*
X68536Y468555D01*
X68453Y468576D01*
X68371Y468600D01*
X68291Y468628D01*
X68211Y468660D01*
X68133Y468696D01*
X68057Y468734D01*
X67983Y468777D01*
X67911Y468822D01*
X67840Y468871D01*
X67772Y468923D01*
X67707Y468977D01*
X67644Y469035D01*
X67583Y469096D01*
X67525Y469159D01*
X67471Y469224D01*
X67419Y469292D01*
X67370Y469363D01*
X67325Y469435D01*
X67282Y469509D01*
X67244Y469585D01*
X67208Y469663D01*
X67176Y469743D01*
X67148Y469823D01*
X67124Y469905D01*
X67103Y469988D01*
X67086Y470072D01*
X67072Y470156D01*
X67063Y470241D01*
X67057Y470327D01*
X67055Y470412D01*
X81436Y468007D02*
X81436Y474865D01*
X79531Y474865D02*
X83341Y474865D01*
X86602Y474865D02*
X86602Y468007D01*
X86602Y474865D02*
X88507Y474865D01*
X88592Y474863D01*
X88678Y474857D01*
X88763Y474848D01*
X88847Y474834D01*
X88931Y474817D01*
X89014Y474796D01*
X89096Y474772D01*
X89176Y474744D01*
X89256Y474712D01*
X89334Y474676D01*
X89410Y474638D01*
X89484Y474595D01*
X89556Y474550D01*
X89627Y474501D01*
X89695Y474449D01*
X89760Y474395D01*
X89823Y474337D01*
X89884Y474276D01*
X89942Y474213D01*
X89996Y474148D01*
X90048Y474080D01*
X90097Y474009D01*
X90142Y473937D01*
X90185Y473863D01*
X90223Y473787D01*
X90259Y473709D01*
X90291Y473629D01*
X90319Y473549D01*
X90343Y473467D01*
X90364Y473384D01*
X90381Y473300D01*
X90395Y473216D01*
X90404Y473131D01*
X90410Y473045D01*
X90412Y472960D01*
X90412Y469912D01*
X90410Y469827D01*
X90404Y469741D01*
X90395Y469656D01*
X90381Y469572D01*
X90364Y469488D01*
X90343Y469405D01*
X90319Y469323D01*
X90291Y469243D01*
X90259Y469163D01*
X90223Y469085D01*
X90185Y469009D01*
X90142Y468935D01*
X90097Y468863D01*
X90048Y468792D01*
X89996Y468724D01*
X89942Y468659D01*
X89884Y468596D01*
X89823Y468535D01*
X89760Y468477D01*
X89695Y468423D01*
X89627Y468371D01*
X89556Y468322D01*
X89484Y468277D01*
X89410Y468234D01*
X89334Y468196D01*
X89256Y468160D01*
X89176Y468128D01*
X89096Y468100D01*
X89014Y468076D01*
X88931Y468055D01*
X88847Y468038D01*
X88763Y468024D01*
X88678Y468015D01*
X88592Y468009D01*
X88507Y468007D01*
X86602Y468007D01*
X94603Y468007D02*
X94603Y474865D01*
X93841Y468007D02*
X95365Y468007D01*
X95365Y474865D02*
X93841Y474865D01*
X106633Y475365D02*
X106633Y468507D01*
X104728Y475365D02*
X108538Y475365D01*
X113048Y468507D02*
X114572Y468507D01*
X113048Y468507D02*
X112971Y468509D01*
X112894Y468515D01*
X112817Y468525D01*
X112741Y468538D01*
X112666Y468556D01*
X112592Y468577D01*
X112519Y468602D01*
X112447Y468631D01*
X112377Y468663D01*
X112308Y468698D01*
X112242Y468738D01*
X112177Y468780D01*
X112115Y468826D01*
X112055Y468875D01*
X111998Y468926D01*
X111943Y468981D01*
X111892Y469038D01*
X111843Y469098D01*
X111797Y469160D01*
X111755Y469225D01*
X111715Y469291D01*
X111680Y469360D01*
X111648Y469430D01*
X111619Y469502D01*
X111594Y469575D01*
X111573Y469649D01*
X111555Y469724D01*
X111542Y469800D01*
X111532Y469877D01*
X111526Y469954D01*
X111524Y470031D01*
X111524Y473841D01*
X111526Y473918D01*
X111532Y473995D01*
X111542Y474072D01*
X111555Y474148D01*
X111573Y474223D01*
X111594Y474297D01*
X111619Y474370D01*
X111648Y474442D01*
X111680Y474512D01*
X111715Y474581D01*
X111755Y474647D01*
X111797Y474712D01*
X111843Y474774D01*
X111892Y474834D01*
X111943Y474891D01*
X111998Y474946D01*
X112055Y474997D01*
X112115Y475046D01*
X112177Y475092D01*
X112242Y475134D01*
X112308Y475174D01*
X112377Y475209D01*
X112447Y475241D01*
X112519Y475270D01*
X112592Y475295D01*
X112666Y475316D01*
X112741Y475334D01*
X112817Y475347D01*
X112894Y475357D01*
X112971Y475363D01*
X113048Y475365D01*
X114572Y475365D01*
X118055Y475365D02*
X118055Y468507D01*
X118055Y471174D02*
X121865Y475365D01*
X119579Y472698D02*
X121865Y468507D01*
X130815Y464635D02*
X137673Y464635D01*
X130815Y464635D02*
X130815Y467683D01*
X133863Y467683D02*
X133863Y464635D01*
X130815Y471114D02*
X137673Y471114D01*
X130815Y471114D02*
X130815Y473019D01*
X130817Y473104D01*
X130823Y473190D01*
X130832Y473275D01*
X130846Y473359D01*
X130863Y473443D01*
X130884Y473526D01*
X130908Y473608D01*
X130936Y473688D01*
X130968Y473768D01*
X131004Y473846D01*
X131042Y473922D01*
X131085Y473996D01*
X131130Y474068D01*
X131179Y474139D01*
X131231Y474207D01*
X131285Y474272D01*
X131343Y474335D01*
X131404Y474396D01*
X131467Y474454D01*
X131532Y474508D01*
X131600Y474560D01*
X131671Y474609D01*
X131743Y474654D01*
X131817Y474697D01*
X131893Y474735D01*
X131971Y474771D01*
X132051Y474803D01*
X132131Y474831D01*
X132213Y474855D01*
X132296Y474876D01*
X132380Y474893D01*
X132464Y474907D01*
X132549Y474916D01*
X132635Y474922D01*
X132720Y474924D01*
X132805Y474922D01*
X132891Y474916D01*
X132976Y474907D01*
X133060Y474893D01*
X133144Y474876D01*
X133227Y474855D01*
X133309Y474831D01*
X133389Y474803D01*
X133469Y474771D01*
X133547Y474735D01*
X133623Y474697D01*
X133697Y474654D01*
X133769Y474609D01*
X133840Y474560D01*
X133908Y474508D01*
X133973Y474454D01*
X134036Y474396D01*
X134097Y474335D01*
X134155Y474272D01*
X134209Y474207D01*
X134261Y474139D01*
X134310Y474068D01*
X134355Y473996D01*
X134398Y473922D01*
X134436Y473846D01*
X134472Y473768D01*
X134504Y473688D01*
X134532Y473608D01*
X134556Y473526D01*
X134577Y473443D01*
X134594Y473359D01*
X134608Y473275D01*
X134617Y473190D01*
X134623Y473104D01*
X134625Y473019D01*
X134625Y471114D01*
X133863Y480936D02*
X133863Y482079D01*
X137673Y482079D01*
X137673Y479793D01*
X137671Y479716D01*
X137665Y479639D01*
X137655Y479562D01*
X137642Y479486D01*
X137624Y479411D01*
X137603Y479337D01*
X137578Y479264D01*
X137549Y479192D01*
X137517Y479122D01*
X137482Y479053D01*
X137442Y478987D01*
X137400Y478922D01*
X137354Y478860D01*
X137305Y478800D01*
X137254Y478743D01*
X137199Y478688D01*
X137142Y478637D01*
X137082Y478588D01*
X137020Y478542D01*
X136955Y478500D01*
X136889Y478460D01*
X136820Y478425D01*
X136750Y478393D01*
X136678Y478364D01*
X136605Y478339D01*
X136531Y478318D01*
X136456Y478300D01*
X136380Y478287D01*
X136303Y478277D01*
X136226Y478271D01*
X136149Y478269D01*
X132339Y478269D01*
X132262Y478271D01*
X132185Y478277D01*
X132108Y478287D01*
X132032Y478300D01*
X131957Y478318D01*
X131883Y478339D01*
X131810Y478364D01*
X131738Y478393D01*
X131668Y478425D01*
X131599Y478460D01*
X131533Y478500D01*
X131468Y478542D01*
X131406Y478588D01*
X131346Y478637D01*
X131289Y478688D01*
X131234Y478743D01*
X131183Y478800D01*
X131134Y478860D01*
X131088Y478922D01*
X131046Y478987D01*
X131006Y479053D01*
X130971Y479122D01*
X130939Y479192D01*
X130910Y479264D01*
X130885Y479337D01*
X130864Y479411D01*
X130846Y479486D01*
X130833Y479562D01*
X130823Y479639D01*
X130817Y479716D01*
X130815Y479793D01*
X130815Y482079D01*
X130815Y487733D02*
X137673Y485447D01*
X137673Y490019D02*
X130815Y487733D01*
X135959Y489447D02*
X135959Y486018D01*
X143007Y466921D02*
X148341Y466921D01*
X148418Y466919D01*
X148495Y466913D01*
X148572Y466903D01*
X148648Y466890D01*
X148723Y466872D01*
X148797Y466851D01*
X148870Y466826D01*
X148942Y466797D01*
X149012Y466765D01*
X149081Y466730D01*
X149147Y466690D01*
X149212Y466648D01*
X149274Y466602D01*
X149334Y466553D01*
X149391Y466502D01*
X149446Y466447D01*
X149497Y466390D01*
X149546Y466330D01*
X149592Y466268D01*
X149634Y466203D01*
X149674Y466137D01*
X149709Y466068D01*
X149741Y465998D01*
X149770Y465926D01*
X149795Y465853D01*
X149816Y465779D01*
X149834Y465704D01*
X149847Y465628D01*
X149857Y465551D01*
X149863Y465474D01*
X149865Y465397D01*
X149865Y464635D01*
X149865Y472043D02*
X143007Y472043D01*
X143007Y470138D02*
X143007Y473948D01*
X143007Y478871D02*
X149865Y476585D01*
X149865Y481157D02*
X143007Y478871D01*
X148151Y480585D02*
X148151Y477156D01*
X146055Y487192D02*
X146055Y488335D01*
X149865Y488335D01*
X149865Y486049D01*
X149863Y485972D01*
X149857Y485895D01*
X149847Y485818D01*
X149834Y485742D01*
X149816Y485667D01*
X149795Y485593D01*
X149770Y485520D01*
X149741Y485448D01*
X149709Y485378D01*
X149674Y485309D01*
X149634Y485243D01*
X149592Y485178D01*
X149546Y485116D01*
X149497Y485056D01*
X149446Y484999D01*
X149391Y484944D01*
X149334Y484893D01*
X149274Y484844D01*
X149212Y484798D01*
X149147Y484756D01*
X149081Y484716D01*
X149012Y484681D01*
X148942Y484649D01*
X148870Y484620D01*
X148797Y484595D01*
X148723Y484574D01*
X148648Y484556D01*
X148572Y484543D01*
X148495Y484533D01*
X148418Y484527D01*
X148341Y484525D01*
X144531Y484525D01*
X144454Y484527D01*
X144377Y484533D01*
X144300Y484543D01*
X144224Y484556D01*
X144149Y484574D01*
X144075Y484595D01*
X144002Y484620D01*
X143930Y484649D01*
X143860Y484681D01*
X143791Y484716D01*
X143725Y484756D01*
X143660Y484798D01*
X143598Y484844D01*
X143538Y484893D01*
X143481Y484944D01*
X143426Y484999D01*
X143375Y485056D01*
X143326Y485116D01*
X143280Y485178D01*
X143238Y485243D01*
X143198Y485309D01*
X143163Y485378D01*
X143131Y485448D01*
X143102Y485520D01*
X143077Y485593D01*
X143056Y485667D01*
X143038Y485742D01*
X143025Y485818D01*
X143015Y485895D01*
X143009Y485972D01*
X143007Y486049D01*
X143007Y488335D01*
D12*
X215102Y128762D02*
X223738Y128762D01*
X215102Y128762D02*
X215102Y131161D01*
X215104Y131258D01*
X215110Y131354D01*
X215119Y131450D01*
X215133Y131546D01*
X215150Y131641D01*
X215172Y131735D01*
X215197Y131828D01*
X215225Y131921D01*
X215258Y132012D01*
X215294Y132101D01*
X215334Y132189D01*
X215377Y132276D01*
X215423Y132361D01*
X215473Y132443D01*
X215527Y132524D01*
X215583Y132602D01*
X215643Y132678D01*
X215705Y132752D01*
X215771Y132823D01*
X215839Y132891D01*
X215910Y132957D01*
X215984Y133019D01*
X216060Y133079D01*
X216138Y133135D01*
X216219Y133189D01*
X216302Y133239D01*
X216386Y133285D01*
X216473Y133328D01*
X216561Y133368D01*
X216650Y133404D01*
X216741Y133437D01*
X216834Y133465D01*
X216927Y133490D01*
X217021Y133512D01*
X217116Y133529D01*
X217212Y133543D01*
X217308Y133552D01*
X217404Y133558D01*
X217501Y133560D01*
X217598Y133558D01*
X217694Y133552D01*
X217790Y133543D01*
X217886Y133529D01*
X217981Y133512D01*
X218075Y133490D01*
X218168Y133465D01*
X218261Y133437D01*
X218352Y133404D01*
X218441Y133368D01*
X218529Y133328D01*
X218616Y133285D01*
X218701Y133239D01*
X218783Y133189D01*
X218864Y133135D01*
X218942Y133079D01*
X219018Y133019D01*
X219092Y132957D01*
X219163Y132891D01*
X219231Y132823D01*
X219297Y132752D01*
X219359Y132678D01*
X219419Y132602D01*
X219475Y132524D01*
X219529Y132443D01*
X219579Y132361D01*
X219625Y132276D01*
X219668Y132189D01*
X219708Y132101D01*
X219744Y132012D01*
X219777Y131921D01*
X219805Y131828D01*
X219830Y131735D01*
X219852Y131641D01*
X219869Y131546D01*
X219883Y131450D01*
X219892Y131354D01*
X219898Y131258D01*
X219900Y131161D01*
X219900Y128762D01*
X223738Y136927D02*
X215102Y139805D01*
X223738Y142684D01*
X221579Y141964D02*
X221579Y137646D01*
X219420Y146550D02*
X219250Y146552D01*
X219080Y146558D01*
X218911Y146568D01*
X218741Y146582D01*
X218572Y146601D01*
X218404Y146623D01*
X218236Y146649D01*
X218069Y146679D01*
X217903Y146714D01*
X217737Y146752D01*
X217572Y146794D01*
X217409Y146840D01*
X217247Y146890D01*
X217085Y146944D01*
X216926Y147001D01*
X216767Y147063D01*
X216610Y147128D01*
X216455Y147197D01*
X216301Y147270D01*
X216225Y147298D01*
X216150Y147330D01*
X216076Y147365D01*
X216004Y147403D01*
X215934Y147445D01*
X215866Y147490D01*
X215800Y147538D01*
X215736Y147589D01*
X215675Y147643D01*
X215616Y147699D01*
X215560Y147759D01*
X215507Y147820D01*
X215457Y147884D01*
X215409Y147951D01*
X215365Y148019D01*
X215324Y148090D01*
X215286Y148162D01*
X215252Y148236D01*
X215221Y148311D01*
X215193Y148388D01*
X215169Y148466D01*
X215149Y148545D01*
X215132Y148625D01*
X215119Y148705D01*
X215109Y148786D01*
X215104Y148867D01*
X215102Y148949D01*
X215104Y149031D01*
X215109Y149112D01*
X215119Y149193D01*
X215132Y149273D01*
X215149Y149353D01*
X215169Y149432D01*
X215193Y149510D01*
X215221Y149587D01*
X215252Y149662D01*
X215286Y149736D01*
X215324Y149808D01*
X215365Y149879D01*
X215409Y149947D01*
X215457Y150014D01*
X215507Y150078D01*
X215560Y150139D01*
X215616Y150199D01*
X215675Y150255D01*
X215736Y150309D01*
X215800Y150360D01*
X215866Y150408D01*
X215934Y150453D01*
X216004Y150495D01*
X216076Y150533D01*
X216150Y150568D01*
X216225Y150600D01*
X216301Y150628D01*
X216455Y150701D01*
X216610Y150770D01*
X216767Y150835D01*
X216926Y150897D01*
X217085Y150954D01*
X217247Y151008D01*
X217409Y151058D01*
X217572Y151104D01*
X217737Y151146D01*
X217903Y151184D01*
X218069Y151219D01*
X218236Y151249D01*
X218404Y151275D01*
X218572Y151297D01*
X218741Y151316D01*
X218911Y151330D01*
X219080Y151340D01*
X219250Y151346D01*
X219420Y151348D01*
X219420Y146550D02*
X219590Y146552D01*
X219760Y146558D01*
X219929Y146568D01*
X220099Y146582D01*
X220268Y146601D01*
X220436Y146623D01*
X220604Y146649D01*
X220771Y146679D01*
X220937Y146714D01*
X221103Y146752D01*
X221268Y146794D01*
X221431Y146840D01*
X221593Y146890D01*
X221755Y146944D01*
X221914Y147001D01*
X222073Y147063D01*
X222230Y147128D01*
X222385Y147197D01*
X222539Y147270D01*
X222615Y147298D01*
X222690Y147330D01*
X222764Y147365D01*
X222836Y147403D01*
X222906Y147445D01*
X222974Y147490D01*
X223040Y147538D01*
X223104Y147589D01*
X223165Y147643D01*
X223224Y147699D01*
X223280Y147759D01*
X223333Y147820D01*
X223383Y147884D01*
X223431Y147951D01*
X223475Y148019D01*
X223516Y148090D01*
X223554Y148162D01*
X223588Y148236D01*
X223619Y148311D01*
X223647Y148388D01*
X223671Y148466D01*
X223691Y148545D01*
X223708Y148625D01*
X223721Y148705D01*
X223731Y148786D01*
X223736Y148867D01*
X223738Y148949D01*
X222539Y150628D02*
X222385Y150701D01*
X222230Y150770D01*
X222073Y150835D01*
X221914Y150897D01*
X221755Y150954D01*
X221593Y151008D01*
X221431Y151058D01*
X221268Y151104D01*
X221103Y151146D01*
X220937Y151184D01*
X220771Y151219D01*
X220604Y151249D01*
X220436Y151275D01*
X220268Y151297D01*
X220099Y151316D01*
X219929Y151330D01*
X219760Y151340D01*
X219590Y151346D01*
X219420Y151348D01*
X222539Y150628D02*
X222615Y150600D01*
X222690Y150568D01*
X222764Y150533D01*
X222836Y150495D01*
X222906Y150453D01*
X222974Y150408D01*
X223040Y150360D01*
X223104Y150309D01*
X223165Y150255D01*
X223224Y150199D01*
X223280Y150139D01*
X223333Y150078D01*
X223383Y150014D01*
X223431Y149947D01*
X223475Y149879D01*
X223516Y149808D01*
X223554Y149736D01*
X223588Y149662D01*
X223619Y149587D01*
X223647Y149510D01*
X223671Y149432D01*
X223691Y149353D01*
X223708Y149273D01*
X223721Y149193D01*
X223731Y149112D01*
X223736Y149031D01*
X223738Y148949D01*
X221819Y147030D02*
X217021Y150868D01*
X215602Y85762D02*
X224238Y85762D01*
X215602Y85762D02*
X215602Y88161D01*
X215604Y88258D01*
X215610Y88354D01*
X215619Y88450D01*
X215633Y88546D01*
X215650Y88641D01*
X215672Y88735D01*
X215697Y88828D01*
X215725Y88921D01*
X215758Y89012D01*
X215794Y89101D01*
X215834Y89189D01*
X215877Y89276D01*
X215923Y89361D01*
X215973Y89443D01*
X216027Y89524D01*
X216083Y89602D01*
X216143Y89678D01*
X216205Y89752D01*
X216271Y89823D01*
X216339Y89891D01*
X216410Y89957D01*
X216484Y90019D01*
X216560Y90079D01*
X216638Y90135D01*
X216719Y90189D01*
X216802Y90239D01*
X216886Y90285D01*
X216973Y90328D01*
X217061Y90368D01*
X217150Y90404D01*
X217241Y90437D01*
X217334Y90465D01*
X217427Y90490D01*
X217521Y90512D01*
X217616Y90529D01*
X217712Y90543D01*
X217808Y90552D01*
X217904Y90558D01*
X218001Y90560D01*
X218098Y90558D01*
X218194Y90552D01*
X218290Y90543D01*
X218386Y90529D01*
X218481Y90512D01*
X218575Y90490D01*
X218668Y90465D01*
X218761Y90437D01*
X218852Y90404D01*
X218941Y90368D01*
X219029Y90328D01*
X219116Y90285D01*
X219201Y90239D01*
X219283Y90189D01*
X219364Y90135D01*
X219442Y90079D01*
X219518Y90019D01*
X219592Y89957D01*
X219663Y89891D01*
X219731Y89823D01*
X219797Y89752D01*
X219859Y89678D01*
X219919Y89602D01*
X219975Y89524D01*
X220029Y89443D01*
X220079Y89361D01*
X220125Y89276D01*
X220168Y89189D01*
X220208Y89101D01*
X220244Y89012D01*
X220277Y88921D01*
X220305Y88828D01*
X220330Y88735D01*
X220352Y88641D01*
X220369Y88546D01*
X220383Y88450D01*
X220392Y88354D01*
X220398Y88258D01*
X220400Y88161D01*
X220400Y85762D01*
X219440Y94906D02*
X219440Y97305D01*
X219442Y97402D01*
X219448Y97498D01*
X219457Y97594D01*
X219471Y97690D01*
X219488Y97785D01*
X219510Y97879D01*
X219535Y97972D01*
X219563Y98065D01*
X219596Y98156D01*
X219632Y98245D01*
X219672Y98333D01*
X219715Y98420D01*
X219761Y98505D01*
X219811Y98587D01*
X219865Y98668D01*
X219921Y98746D01*
X219981Y98822D01*
X220043Y98896D01*
X220109Y98967D01*
X220177Y99035D01*
X220248Y99101D01*
X220322Y99163D01*
X220398Y99223D01*
X220476Y99279D01*
X220557Y99333D01*
X220640Y99383D01*
X220724Y99429D01*
X220811Y99472D01*
X220899Y99512D01*
X220988Y99548D01*
X221079Y99581D01*
X221172Y99609D01*
X221265Y99634D01*
X221359Y99656D01*
X221454Y99673D01*
X221550Y99687D01*
X221646Y99696D01*
X221742Y99702D01*
X221839Y99704D01*
X221936Y99702D01*
X222032Y99696D01*
X222128Y99687D01*
X222224Y99673D01*
X222319Y99656D01*
X222413Y99634D01*
X222506Y99609D01*
X222599Y99581D01*
X222690Y99548D01*
X222779Y99512D01*
X222867Y99472D01*
X222954Y99429D01*
X223039Y99383D01*
X223121Y99333D01*
X223202Y99279D01*
X223280Y99223D01*
X223356Y99163D01*
X223430Y99101D01*
X223501Y99035D01*
X223569Y98967D01*
X223635Y98896D01*
X223697Y98822D01*
X223757Y98746D01*
X223813Y98668D01*
X223867Y98587D01*
X223917Y98505D01*
X223963Y98420D01*
X224006Y98333D01*
X224046Y98245D01*
X224082Y98156D01*
X224115Y98065D01*
X224143Y97972D01*
X224168Y97879D01*
X224190Y97785D01*
X224207Y97690D01*
X224221Y97594D01*
X224230Y97498D01*
X224236Y97402D01*
X224238Y97305D01*
X224238Y94906D01*
X215602Y94906D01*
X215602Y97305D01*
X215604Y97391D01*
X215610Y97477D01*
X215619Y97563D01*
X215633Y97648D01*
X215650Y97732D01*
X215671Y97816D01*
X215696Y97898D01*
X215724Y97979D01*
X215756Y98059D01*
X215792Y98138D01*
X215831Y98214D01*
X215874Y98289D01*
X215919Y98362D01*
X215968Y98433D01*
X216021Y98501D01*
X216076Y98568D01*
X216134Y98631D01*
X216195Y98692D01*
X216258Y98750D01*
X216325Y98805D01*
X216393Y98858D01*
X216464Y98907D01*
X216537Y98952D01*
X216612Y98995D01*
X216688Y99034D01*
X216767Y99070D01*
X216847Y99102D01*
X216928Y99130D01*
X217010Y99155D01*
X217094Y99176D01*
X217178Y99193D01*
X217263Y99207D01*
X217349Y99216D01*
X217435Y99222D01*
X217521Y99224D01*
X217607Y99222D01*
X217693Y99216D01*
X217779Y99207D01*
X217864Y99193D01*
X217948Y99176D01*
X218032Y99155D01*
X218114Y99130D01*
X218195Y99102D01*
X218275Y99070D01*
X218354Y99034D01*
X218430Y98995D01*
X218505Y98952D01*
X218578Y98907D01*
X218649Y98858D01*
X218717Y98805D01*
X218784Y98750D01*
X218847Y98692D01*
X218908Y98631D01*
X218966Y98568D01*
X219021Y98501D01*
X219074Y98433D01*
X219123Y98362D01*
X219168Y98289D01*
X219211Y98214D01*
X219250Y98138D01*
X219286Y98059D01*
X219318Y97979D01*
X219346Y97898D01*
X219371Y97816D01*
X219392Y97732D01*
X219409Y97648D01*
X219423Y97563D01*
X219432Y97477D01*
X219438Y97391D01*
X219440Y97305D01*
X219920Y103550D02*
X219750Y103552D01*
X219580Y103558D01*
X219411Y103568D01*
X219241Y103582D01*
X219072Y103601D01*
X218904Y103623D01*
X218736Y103649D01*
X218569Y103679D01*
X218403Y103714D01*
X218237Y103752D01*
X218072Y103794D01*
X217909Y103840D01*
X217747Y103890D01*
X217585Y103944D01*
X217426Y104001D01*
X217267Y104063D01*
X217110Y104128D01*
X216955Y104197D01*
X216801Y104270D01*
X216725Y104298D01*
X216650Y104330D01*
X216576Y104365D01*
X216504Y104403D01*
X216434Y104445D01*
X216366Y104490D01*
X216300Y104538D01*
X216236Y104589D01*
X216175Y104643D01*
X216116Y104699D01*
X216060Y104759D01*
X216007Y104820D01*
X215957Y104884D01*
X215909Y104951D01*
X215865Y105019D01*
X215824Y105090D01*
X215786Y105162D01*
X215752Y105236D01*
X215721Y105311D01*
X215693Y105388D01*
X215669Y105466D01*
X215649Y105545D01*
X215632Y105625D01*
X215619Y105705D01*
X215609Y105786D01*
X215604Y105867D01*
X215602Y105949D01*
X215604Y106031D01*
X215609Y106112D01*
X215619Y106193D01*
X215632Y106273D01*
X215649Y106353D01*
X215669Y106432D01*
X215693Y106510D01*
X215721Y106587D01*
X215752Y106662D01*
X215786Y106736D01*
X215824Y106808D01*
X215865Y106879D01*
X215909Y106947D01*
X215957Y107014D01*
X216007Y107078D01*
X216060Y107139D01*
X216116Y107199D01*
X216175Y107255D01*
X216236Y107309D01*
X216300Y107360D01*
X216366Y107408D01*
X216434Y107453D01*
X216504Y107495D01*
X216576Y107533D01*
X216650Y107568D01*
X216725Y107600D01*
X216801Y107628D01*
X216955Y107701D01*
X217110Y107770D01*
X217267Y107835D01*
X217426Y107897D01*
X217585Y107954D01*
X217747Y108008D01*
X217909Y108058D01*
X218072Y108104D01*
X218237Y108146D01*
X218403Y108184D01*
X218569Y108219D01*
X218736Y108249D01*
X218904Y108275D01*
X219072Y108297D01*
X219241Y108316D01*
X219411Y108330D01*
X219580Y108340D01*
X219750Y108346D01*
X219920Y108348D01*
X219920Y103550D02*
X220090Y103552D01*
X220260Y103558D01*
X220429Y103568D01*
X220599Y103582D01*
X220768Y103601D01*
X220936Y103623D01*
X221104Y103649D01*
X221271Y103679D01*
X221437Y103714D01*
X221603Y103752D01*
X221768Y103794D01*
X221931Y103840D01*
X222093Y103890D01*
X222255Y103944D01*
X222414Y104001D01*
X222573Y104063D01*
X222730Y104128D01*
X222885Y104197D01*
X223039Y104270D01*
X223115Y104298D01*
X223190Y104330D01*
X223264Y104365D01*
X223336Y104403D01*
X223406Y104445D01*
X223474Y104490D01*
X223540Y104538D01*
X223604Y104589D01*
X223665Y104643D01*
X223724Y104699D01*
X223780Y104759D01*
X223833Y104820D01*
X223883Y104884D01*
X223931Y104951D01*
X223975Y105019D01*
X224016Y105090D01*
X224054Y105162D01*
X224088Y105236D01*
X224119Y105311D01*
X224147Y105388D01*
X224171Y105466D01*
X224191Y105545D01*
X224208Y105625D01*
X224221Y105705D01*
X224231Y105786D01*
X224236Y105867D01*
X224238Y105949D01*
X223039Y107628D02*
X222885Y107701D01*
X222730Y107770D01*
X222573Y107835D01*
X222414Y107897D01*
X222255Y107954D01*
X222093Y108008D01*
X221931Y108058D01*
X221768Y108104D01*
X221603Y108146D01*
X221437Y108184D01*
X221271Y108219D01*
X221104Y108249D01*
X220936Y108275D01*
X220768Y108297D01*
X220599Y108316D01*
X220429Y108330D01*
X220260Y108340D01*
X220090Y108346D01*
X219920Y108348D01*
X223039Y107628D02*
X223115Y107600D01*
X223190Y107568D01*
X223264Y107533D01*
X223336Y107495D01*
X223406Y107453D01*
X223474Y107408D01*
X223540Y107360D01*
X223604Y107309D01*
X223665Y107255D01*
X223724Y107199D01*
X223780Y107139D01*
X223833Y107078D01*
X223883Y107014D01*
X223931Y106947D01*
X223975Y106879D01*
X224016Y106808D01*
X224054Y106736D01*
X224088Y106662D01*
X224119Y106587D01*
X224147Y106510D01*
X224171Y106432D01*
X224191Y106353D01*
X224208Y106273D01*
X224221Y106193D01*
X224231Y106112D01*
X224236Y106031D01*
X224238Y105949D01*
X222319Y104030D02*
X217521Y107868D01*
X718602Y441762D02*
X727238Y441762D01*
X727238Y445600D01*
X727238Y451237D02*
X727238Y453156D01*
X727238Y451237D02*
X727236Y451151D01*
X727230Y451065D01*
X727221Y450979D01*
X727207Y450894D01*
X727190Y450810D01*
X727169Y450726D01*
X727144Y450644D01*
X727116Y450563D01*
X727084Y450483D01*
X727048Y450404D01*
X727009Y450328D01*
X726966Y450253D01*
X726921Y450180D01*
X726872Y450109D01*
X726819Y450041D01*
X726764Y449974D01*
X726706Y449911D01*
X726645Y449850D01*
X726582Y449792D01*
X726515Y449737D01*
X726447Y449685D01*
X726376Y449635D01*
X726303Y449590D01*
X726228Y449547D01*
X726152Y449508D01*
X726073Y449472D01*
X725993Y449440D01*
X725912Y449412D01*
X725830Y449387D01*
X725746Y449366D01*
X725662Y449349D01*
X725577Y449335D01*
X725491Y449326D01*
X725405Y449320D01*
X725319Y449318D01*
X720521Y449318D01*
X720435Y449320D01*
X720349Y449326D01*
X720263Y449335D01*
X720178Y449349D01*
X720094Y449366D01*
X720010Y449387D01*
X719928Y449412D01*
X719847Y449440D01*
X719767Y449472D01*
X719688Y449508D01*
X719612Y449547D01*
X719537Y449590D01*
X719464Y449635D01*
X719393Y449684D01*
X719325Y449737D01*
X719258Y449792D01*
X719195Y449850D01*
X719134Y449911D01*
X719076Y449974D01*
X719021Y450041D01*
X718969Y450109D01*
X718919Y450180D01*
X718874Y450253D01*
X718831Y450328D01*
X718792Y450404D01*
X718756Y450483D01*
X718724Y450563D01*
X718696Y450644D01*
X718671Y450726D01*
X718650Y450810D01*
X718633Y450894D01*
X718619Y450979D01*
X718610Y451065D01*
X718604Y451151D01*
X718602Y451237D01*
X718602Y453156D01*
X718602Y457281D02*
X727238Y457281D01*
X718602Y457281D02*
X718602Y459680D01*
X718604Y459777D01*
X718610Y459873D01*
X718619Y459969D01*
X718633Y460065D01*
X718650Y460160D01*
X718672Y460254D01*
X718697Y460347D01*
X718725Y460440D01*
X718758Y460531D01*
X718794Y460620D01*
X718834Y460708D01*
X718877Y460795D01*
X718923Y460880D01*
X718973Y460962D01*
X719027Y461043D01*
X719083Y461121D01*
X719143Y461197D01*
X719205Y461271D01*
X719271Y461342D01*
X719339Y461410D01*
X719410Y461476D01*
X719484Y461538D01*
X719560Y461598D01*
X719638Y461654D01*
X719719Y461708D01*
X719802Y461758D01*
X719886Y461804D01*
X719973Y461847D01*
X720061Y461887D01*
X720150Y461923D01*
X720241Y461956D01*
X720334Y461984D01*
X720427Y462009D01*
X720521Y462031D01*
X720616Y462048D01*
X720712Y462062D01*
X720808Y462071D01*
X720904Y462077D01*
X721001Y462079D01*
X724839Y462079D01*
X724936Y462077D01*
X725032Y462071D01*
X725128Y462062D01*
X725224Y462048D01*
X725319Y462031D01*
X725413Y462009D01*
X725506Y461984D01*
X725599Y461956D01*
X725690Y461923D01*
X725779Y461887D01*
X725867Y461847D01*
X725954Y461804D01*
X726039Y461758D01*
X726121Y461708D01*
X726202Y461654D01*
X726280Y461598D01*
X726356Y461538D01*
X726430Y461476D01*
X726501Y461410D01*
X726569Y461342D01*
X726635Y461271D01*
X726697Y461197D01*
X726757Y461121D01*
X726813Y461043D01*
X726867Y460962D01*
X726917Y460880D01*
X726963Y460795D01*
X727006Y460708D01*
X727046Y460620D01*
X727082Y460531D01*
X727115Y460440D01*
X727143Y460347D01*
X727168Y460254D01*
X727190Y460160D01*
X727207Y460065D01*
X727221Y459969D01*
X727230Y459873D01*
X727236Y459777D01*
X727238Y459680D01*
X727238Y457281D01*
X760738Y445641D02*
X760738Y442762D01*
X760738Y445641D02*
X760736Y445727D01*
X760730Y445813D01*
X760721Y445899D01*
X760707Y445984D01*
X760690Y446068D01*
X760669Y446152D01*
X760644Y446234D01*
X760616Y446315D01*
X760584Y446395D01*
X760548Y446474D01*
X760509Y446550D01*
X760466Y446625D01*
X760421Y446698D01*
X760372Y446769D01*
X760319Y446837D01*
X760264Y446904D01*
X760206Y446967D01*
X760145Y447028D01*
X760082Y447086D01*
X760015Y447141D01*
X759947Y447194D01*
X759876Y447243D01*
X759803Y447288D01*
X759728Y447331D01*
X759652Y447370D01*
X759573Y447406D01*
X759493Y447438D01*
X759412Y447466D01*
X759330Y447491D01*
X759246Y447512D01*
X759162Y447529D01*
X759077Y447543D01*
X758991Y447552D01*
X758905Y447558D01*
X758819Y447560D01*
X757859Y447560D01*
X757773Y447558D01*
X757687Y447552D01*
X757601Y447543D01*
X757516Y447529D01*
X757432Y447512D01*
X757348Y447491D01*
X757266Y447466D01*
X757185Y447438D01*
X757105Y447406D01*
X757026Y447370D01*
X756950Y447331D01*
X756875Y447288D01*
X756802Y447243D01*
X756731Y447194D01*
X756663Y447141D01*
X756596Y447086D01*
X756533Y447028D01*
X756472Y446967D01*
X756414Y446904D01*
X756359Y446837D01*
X756307Y446769D01*
X756257Y446698D01*
X756212Y446625D01*
X756169Y446550D01*
X756130Y446474D01*
X756094Y446395D01*
X756062Y446315D01*
X756034Y446234D01*
X756009Y446152D01*
X755988Y446068D01*
X755971Y445984D01*
X755957Y445899D01*
X755948Y445813D01*
X755942Y445727D01*
X755940Y445641D01*
X755940Y442762D01*
X752102Y442762D01*
X752102Y447560D01*
X752102Y456303D02*
X760738Y459182D01*
X752102Y462060D01*
X752102Y466232D02*
X760738Y466232D01*
X752102Y466232D02*
X752102Y468630D01*
X752104Y468727D01*
X752110Y468823D01*
X752119Y468919D01*
X752133Y469015D01*
X752150Y469110D01*
X752172Y469204D01*
X752197Y469297D01*
X752225Y469390D01*
X752258Y469481D01*
X752294Y469570D01*
X752334Y469658D01*
X752377Y469745D01*
X752423Y469830D01*
X752473Y469912D01*
X752527Y469993D01*
X752583Y470071D01*
X752643Y470147D01*
X752705Y470221D01*
X752771Y470292D01*
X752839Y470360D01*
X752910Y470426D01*
X752984Y470488D01*
X753060Y470548D01*
X753138Y470604D01*
X753219Y470658D01*
X753302Y470708D01*
X753386Y470754D01*
X753473Y470797D01*
X753561Y470837D01*
X753650Y470873D01*
X753741Y470906D01*
X753834Y470934D01*
X753927Y470959D01*
X754021Y470981D01*
X754116Y470998D01*
X754212Y471012D01*
X754308Y471021D01*
X754404Y471027D01*
X754501Y471029D01*
X758339Y471029D01*
X758436Y471027D01*
X758532Y471021D01*
X758628Y471012D01*
X758724Y470998D01*
X758819Y470981D01*
X758913Y470959D01*
X759006Y470934D01*
X759099Y470906D01*
X759190Y470873D01*
X759279Y470837D01*
X759367Y470797D01*
X759454Y470754D01*
X759539Y470708D01*
X759621Y470658D01*
X759702Y470604D01*
X759780Y470548D01*
X759856Y470488D01*
X759930Y470426D01*
X760001Y470360D01*
X760069Y470292D01*
X760135Y470221D01*
X760197Y470147D01*
X760257Y470071D01*
X760313Y469993D01*
X760367Y469912D01*
X760417Y469830D01*
X760463Y469745D01*
X760506Y469658D01*
X760546Y469570D01*
X760582Y469481D01*
X760615Y469390D01*
X760643Y469297D01*
X760668Y469204D01*
X760690Y469110D01*
X760707Y469015D01*
X760721Y468919D01*
X760730Y468823D01*
X760736Y468727D01*
X760738Y468630D01*
X760738Y466232D01*
X760738Y477561D02*
X760738Y479480D01*
X760738Y477561D02*
X760736Y477475D01*
X760730Y477389D01*
X760721Y477303D01*
X760707Y477218D01*
X760690Y477134D01*
X760669Y477050D01*
X760644Y476968D01*
X760616Y476887D01*
X760584Y476807D01*
X760548Y476728D01*
X760509Y476652D01*
X760466Y476577D01*
X760421Y476504D01*
X760372Y476433D01*
X760319Y476365D01*
X760264Y476298D01*
X760206Y476235D01*
X760145Y476174D01*
X760082Y476116D01*
X760015Y476061D01*
X759947Y476009D01*
X759876Y475959D01*
X759803Y475914D01*
X759728Y475871D01*
X759652Y475832D01*
X759573Y475796D01*
X759493Y475764D01*
X759412Y475736D01*
X759330Y475711D01*
X759246Y475690D01*
X759162Y475673D01*
X759077Y475659D01*
X758991Y475650D01*
X758905Y475644D01*
X758819Y475642D01*
X754021Y475642D01*
X753935Y475644D01*
X753849Y475650D01*
X753763Y475659D01*
X753678Y475673D01*
X753594Y475690D01*
X753510Y475711D01*
X753428Y475736D01*
X753347Y475764D01*
X753267Y475796D01*
X753188Y475832D01*
X753112Y475871D01*
X753037Y475914D01*
X752964Y475959D01*
X752893Y476008D01*
X752825Y476061D01*
X752758Y476116D01*
X752695Y476174D01*
X752634Y476235D01*
X752576Y476298D01*
X752521Y476365D01*
X752469Y476433D01*
X752419Y476504D01*
X752374Y476577D01*
X752331Y476652D01*
X752292Y476728D01*
X752256Y476807D01*
X752224Y476887D01*
X752196Y476968D01*
X752171Y477050D01*
X752150Y477134D01*
X752133Y477218D01*
X752119Y477303D01*
X752110Y477389D01*
X752104Y477475D01*
X752102Y477561D01*
X752102Y479480D01*
X697440Y443560D02*
X697440Y442120D01*
X697440Y443560D02*
X702238Y443560D01*
X702238Y440681D01*
X702236Y440595D01*
X702230Y440509D01*
X702221Y440423D01*
X702207Y440338D01*
X702190Y440254D01*
X702169Y440170D01*
X702144Y440088D01*
X702116Y440007D01*
X702084Y439927D01*
X702048Y439848D01*
X702009Y439772D01*
X701966Y439697D01*
X701921Y439624D01*
X701872Y439553D01*
X701819Y439485D01*
X701764Y439418D01*
X701706Y439355D01*
X701645Y439294D01*
X701582Y439236D01*
X701515Y439181D01*
X701447Y439129D01*
X701376Y439079D01*
X701303Y439034D01*
X701228Y438991D01*
X701152Y438952D01*
X701073Y438916D01*
X700993Y438884D01*
X700912Y438856D01*
X700830Y438831D01*
X700746Y438810D01*
X700662Y438793D01*
X700577Y438779D01*
X700491Y438770D01*
X700405Y438764D01*
X700319Y438762D01*
X695521Y438762D01*
X695435Y438764D01*
X695349Y438770D01*
X695263Y438779D01*
X695178Y438793D01*
X695094Y438810D01*
X695010Y438831D01*
X694928Y438856D01*
X694847Y438884D01*
X694767Y438916D01*
X694688Y438952D01*
X694612Y438991D01*
X694537Y439034D01*
X694464Y439079D01*
X694393Y439128D01*
X694325Y439181D01*
X694258Y439236D01*
X694195Y439294D01*
X694134Y439355D01*
X694076Y439418D01*
X694021Y439485D01*
X693969Y439553D01*
X693919Y439624D01*
X693874Y439697D01*
X693831Y439772D01*
X693792Y439848D01*
X693756Y439927D01*
X693724Y440007D01*
X693696Y440088D01*
X693671Y440170D01*
X693650Y440254D01*
X693633Y440338D01*
X693619Y440423D01*
X693610Y440509D01*
X693604Y440595D01*
X693602Y440681D01*
X693602Y443560D01*
X693602Y448516D02*
X702238Y448516D01*
X702238Y453313D02*
X693602Y448516D01*
X693602Y453313D02*
X702238Y453313D01*
X702238Y458269D02*
X693602Y458269D01*
X693602Y460668D01*
X693604Y460765D01*
X693610Y460861D01*
X693619Y460957D01*
X693633Y461053D01*
X693650Y461148D01*
X693672Y461242D01*
X693697Y461335D01*
X693725Y461428D01*
X693758Y461519D01*
X693794Y461608D01*
X693834Y461696D01*
X693877Y461783D01*
X693923Y461868D01*
X693973Y461950D01*
X694027Y462031D01*
X694083Y462109D01*
X694143Y462185D01*
X694205Y462259D01*
X694271Y462330D01*
X694339Y462398D01*
X694410Y462464D01*
X694484Y462526D01*
X694560Y462586D01*
X694638Y462642D01*
X694719Y462696D01*
X694802Y462746D01*
X694886Y462792D01*
X694973Y462835D01*
X695061Y462875D01*
X695150Y462911D01*
X695241Y462944D01*
X695334Y462972D01*
X695427Y462997D01*
X695521Y463019D01*
X695616Y463036D01*
X695712Y463050D01*
X695808Y463059D01*
X695904Y463065D01*
X696001Y463067D01*
X699839Y463067D01*
X699936Y463065D01*
X700032Y463059D01*
X700128Y463050D01*
X700224Y463036D01*
X700319Y463019D01*
X700413Y462997D01*
X700506Y462972D01*
X700599Y462944D01*
X700690Y462911D01*
X700779Y462875D01*
X700867Y462835D01*
X700954Y462792D01*
X701039Y462746D01*
X701121Y462696D01*
X701202Y462642D01*
X701280Y462586D01*
X701356Y462526D01*
X701430Y462464D01*
X701501Y462398D01*
X701569Y462330D01*
X701635Y462259D01*
X701697Y462185D01*
X701757Y462109D01*
X701813Y462031D01*
X701867Y461950D01*
X701917Y461868D01*
X701963Y461783D01*
X702006Y461696D01*
X702046Y461608D01*
X702082Y461519D01*
X702115Y461428D01*
X702143Y461335D01*
X702168Y461242D01*
X702190Y461148D01*
X702207Y461053D01*
X702221Y460957D01*
X702230Y460861D01*
X702236Y460765D01*
X702238Y460668D01*
X702238Y458269D01*
X685000Y461500D02*
X685000Y451000D01*
X692000Y451000D01*
X711000Y451000D02*
X711000Y462000D01*
X711000Y451000D02*
X716500Y451000D01*
X736500Y451000D02*
X736500Y462000D01*
X736500Y451000D02*
X744000Y451000D01*
X42000Y431500D02*
X10000Y431500D01*
X42000Y431500D02*
X42000Y415500D01*
X10000Y415500D02*
X10000Y431500D01*
X42000Y415000D02*
X42000Y395500D01*
X10000Y395500D01*
X10000Y415000D01*
X10000Y394000D02*
X42000Y394000D01*
X42000Y381500D01*
X10000Y381500D02*
X10000Y394000D01*
X42000Y382000D02*
X42000Y360500D01*
X10000Y360500D01*
X10000Y382000D01*
X10000Y359000D02*
X42000Y359000D01*
X42500Y346500D01*
X42500Y347000D02*
X42500Y326000D01*
X10000Y326000D01*
X10000Y358500D01*
X10000Y324500D02*
X43000Y324500D01*
X10000Y324500D02*
X10000Y311500D01*
X43000Y324500D02*
X43000Y290500D01*
X10000Y290500D01*
X10000Y312000D01*
X10000Y289000D02*
X43000Y289000D01*
X10000Y289500D02*
X10000Y276000D01*
X43000Y289000D02*
X43000Y255500D01*
X9500Y255500D01*
X10000Y276500D01*
X9500Y254000D02*
X43000Y254000D01*
X43000Y241000D01*
X9500Y241000D02*
X9500Y254000D01*
X43000Y243000D02*
X43000Y220500D01*
X9500Y220500D01*
X9500Y242500D01*
X9500Y219000D02*
X43000Y219000D01*
X43000Y206000D01*
X9500Y206000D02*
X9500Y219000D01*
X43000Y206500D02*
X43000Y185000D01*
X9500Y185000D01*
X9500Y206500D01*
D13*
X1003603Y116057D02*
X1003603Y111895D01*
X1003601Y111797D01*
X1003595Y111699D01*
X1003586Y111601D01*
X1003572Y111504D01*
X1003555Y111408D01*
X1003534Y111312D01*
X1003509Y111217D01*
X1003481Y111123D01*
X1003449Y111030D01*
X1003413Y110939D01*
X1003374Y110849D01*
X1003331Y110761D01*
X1003284Y110674D01*
X1003235Y110590D01*
X1003182Y110507D01*
X1003126Y110427D01*
X1003067Y110349D01*
X1003005Y110273D01*
X1002939Y110199D01*
X1002871Y110129D01*
X1002801Y110061D01*
X1002727Y109996D01*
X1002652Y109933D01*
X1002573Y109874D01*
X1002493Y109818D01*
X1002410Y109765D01*
X1002326Y109716D01*
X1002239Y109669D01*
X1002151Y109626D01*
X1002061Y109587D01*
X1001970Y109551D01*
X1001877Y109519D01*
X1001783Y109491D01*
X1001688Y109466D01*
X1001592Y109445D01*
X1001496Y109428D01*
X1001399Y109414D01*
X1001301Y109405D01*
X1001203Y109399D01*
X1001105Y109397D01*
X996110Y109397D01*
X996012Y109399D01*
X995914Y109405D01*
X995816Y109414D01*
X995719Y109428D01*
X995623Y109445D01*
X995527Y109466D01*
X995432Y109491D01*
X995338Y109519D01*
X995245Y109551D01*
X995154Y109587D01*
X995064Y109626D01*
X994976Y109669D01*
X994889Y109716D01*
X994805Y109765D01*
X994722Y109818D01*
X994642Y109874D01*
X994564Y109933D01*
X994488Y109996D01*
X994414Y110061D01*
X994344Y110129D01*
X994276Y110199D01*
X994211Y110273D01*
X994148Y110349D01*
X994089Y110427D01*
X994033Y110507D01*
X993980Y110590D01*
X993931Y110674D01*
X993884Y110761D01*
X993841Y110849D01*
X993802Y110939D01*
X993766Y111030D01*
X993734Y111123D01*
X993706Y111217D01*
X993681Y111312D01*
X993660Y111408D01*
X993643Y111504D01*
X993629Y111601D01*
X993620Y111699D01*
X993614Y111797D01*
X993612Y111895D01*
X993612Y116057D01*
X1006101Y116057D01*
X1006101Y116058D02*
X1006199Y116056D01*
X1006297Y116050D01*
X1006395Y116041D01*
X1006492Y116027D01*
X1006588Y116010D01*
X1006684Y115989D01*
X1006779Y115964D01*
X1006873Y115936D01*
X1006966Y115904D01*
X1007057Y115868D01*
X1007147Y115829D01*
X1007235Y115786D01*
X1007322Y115739D01*
X1007406Y115690D01*
X1007489Y115637D01*
X1007569Y115581D01*
X1007648Y115522D01*
X1007723Y115459D01*
X1007797Y115394D01*
X1007867Y115326D01*
X1007935Y115256D01*
X1008001Y115182D01*
X1008063Y115106D01*
X1008122Y115028D01*
X1008178Y114948D01*
X1008231Y114865D01*
X1008281Y114781D01*
X1008327Y114694D01*
X1008370Y114606D01*
X1008409Y114516D01*
X1008445Y114425D01*
X1008477Y114332D01*
X1008505Y114238D01*
X1008530Y114143D01*
X1008551Y114047D01*
X1008568Y113951D01*
X1008582Y113854D01*
X1008591Y113756D01*
X1008597Y113658D01*
X1008599Y113560D01*
X1008598Y113560D02*
X1008598Y110230D01*
X1003603Y123258D02*
X993612Y123258D01*
X989450Y122842D02*
X988617Y122842D01*
X988617Y123675D01*
X989450Y123675D01*
X989450Y122842D01*
X993612Y128401D02*
X993612Y133397D01*
X988617Y130066D02*
X1001105Y130066D01*
X1001203Y130068D01*
X1001301Y130074D01*
X1001399Y130083D01*
X1001496Y130097D01*
X1001592Y130114D01*
X1001688Y130135D01*
X1001783Y130160D01*
X1001877Y130188D01*
X1001970Y130220D01*
X1002061Y130256D01*
X1002151Y130295D01*
X1002239Y130338D01*
X1002326Y130385D01*
X1002410Y130434D01*
X1002493Y130487D01*
X1002573Y130543D01*
X1002652Y130602D01*
X1002727Y130665D01*
X1002801Y130730D01*
X1002871Y130798D01*
X1002939Y130868D01*
X1003005Y130942D01*
X1003067Y131018D01*
X1003126Y131096D01*
X1003182Y131176D01*
X1003235Y131259D01*
X1003285Y131343D01*
X1003331Y131430D01*
X1003374Y131518D01*
X1003413Y131608D01*
X1003449Y131699D01*
X1003481Y131792D01*
X1003509Y131886D01*
X1003534Y131981D01*
X1003555Y132077D01*
X1003572Y132173D01*
X1003586Y132270D01*
X1003595Y132368D01*
X1003601Y132466D01*
X1003603Y132564D01*
X1003603Y133397D01*
X1003603Y140249D02*
X988617Y140249D01*
X993612Y140249D02*
X993612Y144412D01*
X993614Y144510D01*
X993620Y144608D01*
X993629Y144706D01*
X993643Y144803D01*
X993660Y144899D01*
X993681Y144995D01*
X993706Y145090D01*
X993734Y145184D01*
X993766Y145277D01*
X993802Y145368D01*
X993841Y145458D01*
X993884Y145546D01*
X993931Y145633D01*
X993980Y145717D01*
X994033Y145800D01*
X994089Y145880D01*
X994148Y145958D01*
X994210Y146034D01*
X994276Y146108D01*
X994344Y146178D01*
X994414Y146246D01*
X994488Y146311D01*
X994563Y146374D01*
X994642Y146433D01*
X994722Y146489D01*
X994805Y146542D01*
X994889Y146591D01*
X994976Y146638D01*
X995064Y146681D01*
X995154Y146720D01*
X995245Y146756D01*
X995338Y146788D01*
X995432Y146816D01*
X995527Y146841D01*
X995623Y146862D01*
X995719Y146879D01*
X995816Y146893D01*
X995914Y146902D01*
X996012Y146908D01*
X996110Y146910D01*
X996110Y146909D02*
X1003603Y146909D01*
X1001105Y154838D02*
X993612Y154838D01*
X1001105Y154838D02*
X1001203Y154840D01*
X1001301Y154846D01*
X1001399Y154855D01*
X1001496Y154869D01*
X1001592Y154886D01*
X1001688Y154907D01*
X1001783Y154932D01*
X1001877Y154960D01*
X1001970Y154992D01*
X1002061Y155028D01*
X1002151Y155067D01*
X1002239Y155110D01*
X1002326Y155157D01*
X1002410Y155206D01*
X1002493Y155259D01*
X1002573Y155315D01*
X1002652Y155374D01*
X1002727Y155437D01*
X1002801Y155502D01*
X1002871Y155570D01*
X1002939Y155640D01*
X1003005Y155714D01*
X1003067Y155790D01*
X1003126Y155868D01*
X1003182Y155948D01*
X1003235Y156031D01*
X1003285Y156115D01*
X1003331Y156202D01*
X1003374Y156290D01*
X1003413Y156380D01*
X1003449Y156471D01*
X1003481Y156564D01*
X1003509Y156658D01*
X1003534Y156753D01*
X1003555Y156849D01*
X1003572Y156945D01*
X1003586Y157042D01*
X1003595Y157140D01*
X1003601Y157238D01*
X1003603Y157336D01*
X1003603Y161498D01*
X993612Y161498D01*
X988617Y169538D02*
X1003603Y169538D01*
X1003603Y173700D01*
X1003601Y173798D01*
X1003595Y173896D01*
X1003586Y173994D01*
X1003572Y174091D01*
X1003555Y174187D01*
X1003534Y174283D01*
X1003509Y174378D01*
X1003481Y174472D01*
X1003449Y174565D01*
X1003413Y174656D01*
X1003374Y174746D01*
X1003331Y174834D01*
X1003285Y174921D01*
X1003235Y175005D01*
X1003182Y175088D01*
X1003126Y175168D01*
X1003067Y175246D01*
X1003005Y175322D01*
X1002939Y175396D01*
X1002871Y175466D01*
X1002801Y175534D01*
X1002727Y175599D01*
X1002652Y175662D01*
X1002573Y175721D01*
X1002493Y175777D01*
X1002410Y175830D01*
X1002326Y175879D01*
X1002239Y175926D01*
X1002151Y175969D01*
X1002061Y176008D01*
X1001970Y176044D01*
X1001877Y176076D01*
X1001783Y176104D01*
X1001688Y176129D01*
X1001592Y176150D01*
X1001496Y176167D01*
X1001399Y176181D01*
X1001301Y176190D01*
X1001203Y176196D01*
X1001105Y176198D01*
X996110Y176198D01*
X996012Y176196D01*
X995914Y176190D01*
X995816Y176181D01*
X995719Y176167D01*
X995623Y176150D01*
X995527Y176129D01*
X995432Y176104D01*
X995338Y176076D01*
X995245Y176044D01*
X995154Y176008D01*
X995064Y175969D01*
X994976Y175926D01*
X994889Y175879D01*
X994805Y175830D01*
X994722Y175777D01*
X994642Y175721D01*
X994564Y175662D01*
X994488Y175599D01*
X994414Y175534D01*
X994344Y175466D01*
X994276Y175396D01*
X994211Y175322D01*
X994148Y175246D01*
X994089Y175168D01*
X994033Y175088D01*
X993980Y175005D01*
X993931Y174921D01*
X993884Y174834D01*
X993841Y174746D01*
X993802Y174656D01*
X993766Y174565D01*
X993734Y174472D01*
X993706Y174378D01*
X993681Y174283D01*
X993660Y174187D01*
X993643Y174091D01*
X993629Y173994D01*
X993620Y173896D01*
X993614Y173798D01*
X993612Y173700D01*
X993612Y169538D01*
X1002770Y182241D02*
X1003603Y182241D01*
X1002770Y182241D02*
X1002770Y183073D01*
X1003603Y183073D01*
X1003603Y182241D01*
X1003603Y191751D02*
X1003603Y195081D01*
X1003603Y191751D02*
X1003601Y191653D01*
X1003595Y191555D01*
X1003586Y191457D01*
X1003572Y191360D01*
X1003555Y191264D01*
X1003534Y191168D01*
X1003509Y191073D01*
X1003481Y190979D01*
X1003449Y190886D01*
X1003413Y190795D01*
X1003374Y190705D01*
X1003331Y190617D01*
X1003284Y190530D01*
X1003235Y190446D01*
X1003182Y190363D01*
X1003126Y190283D01*
X1003067Y190205D01*
X1003005Y190129D01*
X1002939Y190055D01*
X1002871Y189985D01*
X1002801Y189917D01*
X1002727Y189852D01*
X1002652Y189789D01*
X1002573Y189730D01*
X1002493Y189674D01*
X1002410Y189621D01*
X1002326Y189572D01*
X1002239Y189525D01*
X1002151Y189482D01*
X1002061Y189443D01*
X1001970Y189407D01*
X1001877Y189375D01*
X1001783Y189347D01*
X1001688Y189322D01*
X1001592Y189301D01*
X1001496Y189284D01*
X1001399Y189270D01*
X1001301Y189261D01*
X1001203Y189255D01*
X1001105Y189253D01*
X996110Y189253D01*
X996012Y189255D01*
X995914Y189261D01*
X995816Y189270D01*
X995719Y189284D01*
X995623Y189301D01*
X995527Y189322D01*
X995432Y189347D01*
X995338Y189375D01*
X995245Y189407D01*
X995154Y189443D01*
X995064Y189482D01*
X994976Y189525D01*
X994889Y189572D01*
X994805Y189621D01*
X994722Y189674D01*
X994642Y189730D01*
X994564Y189789D01*
X994488Y189852D01*
X994414Y189917D01*
X994344Y189985D01*
X994276Y190055D01*
X994211Y190129D01*
X994148Y190205D01*
X994089Y190283D01*
X994033Y190363D01*
X993980Y190446D01*
X993931Y190530D01*
X993884Y190617D01*
X993841Y190705D01*
X993802Y190795D01*
X993766Y190886D01*
X993734Y190979D01*
X993706Y191073D01*
X993681Y191168D01*
X993660Y191264D01*
X993643Y191360D01*
X993629Y191457D01*
X993620Y191555D01*
X993614Y191653D01*
X993612Y191751D01*
X993612Y195081D01*
X996943Y201211D02*
X1000273Y201211D01*
X996943Y201211D02*
X996829Y201213D01*
X996716Y201219D01*
X996602Y201228D01*
X996490Y201242D01*
X996377Y201259D01*
X996265Y201281D01*
X996155Y201306D01*
X996045Y201334D01*
X995936Y201367D01*
X995828Y201403D01*
X995721Y201443D01*
X995616Y201487D01*
X995513Y201534D01*
X995411Y201584D01*
X995311Y201638D01*
X995213Y201696D01*
X995117Y201757D01*
X995023Y201820D01*
X994931Y201888D01*
X994841Y201958D01*
X994755Y202031D01*
X994670Y202107D01*
X994588Y202186D01*
X994509Y202268D01*
X994433Y202353D01*
X994360Y202439D01*
X994290Y202529D01*
X994222Y202621D01*
X994159Y202715D01*
X994098Y202811D01*
X994040Y202909D01*
X993986Y203009D01*
X993936Y203111D01*
X993889Y203214D01*
X993845Y203319D01*
X993805Y203426D01*
X993769Y203534D01*
X993736Y203643D01*
X993708Y203753D01*
X993683Y203863D01*
X993661Y203975D01*
X993644Y204088D01*
X993630Y204200D01*
X993621Y204314D01*
X993615Y204427D01*
X993613Y204541D01*
X993615Y204655D01*
X993621Y204768D01*
X993630Y204882D01*
X993644Y204994D01*
X993661Y205107D01*
X993683Y205219D01*
X993708Y205329D01*
X993736Y205439D01*
X993769Y205548D01*
X993805Y205656D01*
X993845Y205763D01*
X993889Y205868D01*
X993936Y205971D01*
X993986Y206073D01*
X994040Y206173D01*
X994098Y206271D01*
X994159Y206367D01*
X994222Y206461D01*
X994290Y206553D01*
X994360Y206643D01*
X994433Y206729D01*
X994509Y206814D01*
X994588Y206896D01*
X994670Y206975D01*
X994755Y207051D01*
X994841Y207124D01*
X994931Y207194D01*
X995023Y207262D01*
X995117Y207325D01*
X995213Y207386D01*
X995311Y207444D01*
X995411Y207498D01*
X995513Y207548D01*
X995616Y207595D01*
X995721Y207639D01*
X995828Y207679D01*
X995936Y207715D01*
X996045Y207748D01*
X996155Y207776D01*
X996265Y207801D01*
X996377Y207823D01*
X996490Y207840D01*
X996602Y207854D01*
X996716Y207863D01*
X996829Y207869D01*
X996943Y207871D01*
X1000273Y207871D01*
X1000387Y207869D01*
X1000500Y207863D01*
X1000614Y207854D01*
X1000726Y207840D01*
X1000839Y207823D01*
X1000951Y207801D01*
X1001061Y207776D01*
X1001171Y207748D01*
X1001280Y207715D01*
X1001388Y207679D01*
X1001495Y207639D01*
X1001600Y207595D01*
X1001703Y207548D01*
X1001805Y207498D01*
X1001905Y207444D01*
X1002003Y207386D01*
X1002099Y207325D01*
X1002193Y207262D01*
X1002285Y207194D01*
X1002375Y207124D01*
X1002461Y207051D01*
X1002546Y206975D01*
X1002628Y206896D01*
X1002707Y206814D01*
X1002783Y206729D01*
X1002856Y206643D01*
X1002926Y206553D01*
X1002994Y206461D01*
X1003057Y206367D01*
X1003118Y206271D01*
X1003176Y206173D01*
X1003230Y206073D01*
X1003280Y205971D01*
X1003327Y205868D01*
X1003371Y205763D01*
X1003411Y205656D01*
X1003447Y205548D01*
X1003480Y205439D01*
X1003508Y205329D01*
X1003533Y205219D01*
X1003555Y205107D01*
X1003572Y204994D01*
X1003586Y204882D01*
X1003595Y204768D01*
X1003601Y204655D01*
X1003603Y204541D01*
X1003601Y204427D01*
X1003595Y204314D01*
X1003586Y204200D01*
X1003572Y204088D01*
X1003555Y203975D01*
X1003533Y203863D01*
X1003508Y203753D01*
X1003480Y203643D01*
X1003447Y203534D01*
X1003411Y203426D01*
X1003371Y203319D01*
X1003327Y203214D01*
X1003280Y203111D01*
X1003230Y203009D01*
X1003176Y202909D01*
X1003118Y202811D01*
X1003057Y202715D01*
X1002994Y202621D01*
X1002926Y202529D01*
X1002856Y202439D01*
X1002783Y202353D01*
X1002707Y202268D01*
X1002628Y202186D01*
X1002546Y202107D01*
X1002461Y202031D01*
X1002375Y201958D01*
X1002285Y201888D01*
X1002193Y201820D01*
X1002099Y201757D01*
X1002003Y201696D01*
X1001905Y201638D01*
X1001805Y201584D01*
X1001703Y201534D01*
X1001600Y201487D01*
X1001495Y201443D01*
X1001388Y201403D01*
X1001280Y201367D01*
X1001171Y201334D01*
X1001061Y201306D01*
X1000951Y201281D01*
X1000839Y201259D01*
X1000726Y201242D01*
X1000614Y201228D01*
X1000500Y201219D01*
X1000387Y201213D01*
X1000273Y201211D01*
X1003603Y215698D02*
X993612Y215698D01*
X993612Y223191D01*
X993614Y223289D01*
X993620Y223387D01*
X993629Y223485D01*
X993643Y223582D01*
X993660Y223678D01*
X993681Y223774D01*
X993706Y223869D01*
X993734Y223963D01*
X993766Y224056D01*
X993802Y224147D01*
X993841Y224237D01*
X993884Y224325D01*
X993931Y224412D01*
X993980Y224496D01*
X994033Y224579D01*
X994089Y224659D01*
X994148Y224738D01*
X994211Y224813D01*
X994276Y224887D01*
X994344Y224957D01*
X994414Y225025D01*
X994488Y225091D01*
X994564Y225153D01*
X994642Y225212D01*
X994722Y225268D01*
X994805Y225321D01*
X994889Y225371D01*
X994976Y225417D01*
X995064Y225460D01*
X995154Y225499D01*
X995245Y225535D01*
X995338Y225567D01*
X995432Y225595D01*
X995527Y225620D01*
X995623Y225641D01*
X995719Y225658D01*
X995816Y225672D01*
X995914Y225681D01*
X996012Y225687D01*
X996110Y225689D01*
X996110Y225688D02*
X1003603Y225688D01*
X1003603Y220693D02*
X993612Y220693D01*
X1005268Y232994D02*
X986952Y239655D01*
X993612Y245703D02*
X1003603Y245703D01*
X989450Y245287D02*
X988617Y245287D01*
X988617Y246119D01*
X989450Y246119D01*
X989450Y245287D01*
X993612Y253213D02*
X1003603Y253213D01*
X993612Y253213D02*
X993612Y260706D01*
X993614Y260804D01*
X993620Y260902D01*
X993629Y261000D01*
X993643Y261097D01*
X993660Y261193D01*
X993681Y261289D01*
X993706Y261384D01*
X993734Y261478D01*
X993766Y261571D01*
X993802Y261662D01*
X993841Y261752D01*
X993884Y261840D01*
X993931Y261927D01*
X993980Y262011D01*
X994033Y262094D01*
X994089Y262174D01*
X994148Y262253D01*
X994211Y262328D01*
X994276Y262402D01*
X994344Y262472D01*
X994414Y262540D01*
X994488Y262606D01*
X994564Y262668D01*
X994642Y262727D01*
X994722Y262783D01*
X994805Y262836D01*
X994889Y262886D01*
X994976Y262932D01*
X995064Y262975D01*
X995154Y263014D01*
X995245Y263050D01*
X995338Y263082D01*
X995432Y263110D01*
X995527Y263135D01*
X995623Y263156D01*
X995719Y263173D01*
X995816Y263187D01*
X995914Y263196D01*
X996012Y263202D01*
X996110Y263204D01*
X996110Y263203D02*
X1003603Y263203D01*
X1003603Y258208D02*
X993612Y258208D01*
X993612Y271662D02*
X1008598Y271662D01*
X993612Y271662D02*
X993612Y275824D01*
X993614Y275922D01*
X993620Y276020D01*
X993629Y276118D01*
X993643Y276215D01*
X993660Y276311D01*
X993681Y276407D01*
X993706Y276502D01*
X993734Y276596D01*
X993766Y276689D01*
X993802Y276780D01*
X993841Y276870D01*
X993884Y276958D01*
X993931Y277045D01*
X993980Y277129D01*
X994033Y277212D01*
X994089Y277292D01*
X994148Y277370D01*
X994210Y277446D01*
X994276Y277520D01*
X994344Y277590D01*
X994414Y277658D01*
X994488Y277723D01*
X994563Y277786D01*
X994642Y277845D01*
X994722Y277901D01*
X994805Y277954D01*
X994889Y278003D01*
X994976Y278050D01*
X995064Y278093D01*
X995154Y278132D01*
X995245Y278168D01*
X995338Y278200D01*
X995432Y278228D01*
X995527Y278253D01*
X995623Y278274D01*
X995719Y278291D01*
X995816Y278305D01*
X995914Y278314D01*
X996012Y278320D01*
X996110Y278322D01*
X1001105Y278322D01*
X1001203Y278320D01*
X1001301Y278314D01*
X1001399Y278305D01*
X1001496Y278291D01*
X1001592Y278274D01*
X1001688Y278253D01*
X1001783Y278228D01*
X1001877Y278200D01*
X1001970Y278168D01*
X1002061Y278132D01*
X1002151Y278093D01*
X1002239Y278050D01*
X1002326Y278003D01*
X1002410Y277954D01*
X1002493Y277901D01*
X1002573Y277845D01*
X1002652Y277786D01*
X1002727Y277723D01*
X1002801Y277658D01*
X1002871Y277590D01*
X1002939Y277520D01*
X1003005Y277446D01*
X1003067Y277370D01*
X1003126Y277292D01*
X1003182Y277212D01*
X1003235Y277129D01*
X1003285Y277045D01*
X1003331Y276958D01*
X1003374Y276870D01*
X1003413Y276780D01*
X1003449Y276689D01*
X1003481Y276596D01*
X1003509Y276502D01*
X1003534Y276407D01*
X1003555Y276311D01*
X1003572Y276215D01*
X1003586Y276118D01*
X1003595Y276020D01*
X1003601Y275922D01*
X1003603Y275824D01*
X1003603Y271662D01*
X997775Y287902D02*
X997775Y291648D01*
X997775Y287902D02*
X997777Y287796D01*
X997783Y287689D01*
X997792Y287583D01*
X997806Y287478D01*
X997823Y287373D01*
X997845Y287268D01*
X997870Y287165D01*
X997899Y287062D01*
X997931Y286961D01*
X997967Y286861D01*
X998007Y286762D01*
X998051Y286665D01*
X998097Y286570D01*
X998148Y286476D01*
X998202Y286384D01*
X998259Y286294D01*
X998319Y286206D01*
X998383Y286121D01*
X998449Y286038D01*
X998519Y285957D01*
X998591Y285879D01*
X998666Y285804D01*
X998744Y285732D01*
X998825Y285662D01*
X998908Y285596D01*
X998993Y285532D01*
X999081Y285472D01*
X999171Y285415D01*
X999263Y285361D01*
X999357Y285310D01*
X999452Y285264D01*
X999549Y285220D01*
X999648Y285180D01*
X999748Y285144D01*
X999849Y285112D01*
X999952Y285083D01*
X1000055Y285058D01*
X1000160Y285036D01*
X1000265Y285019D01*
X1000370Y285005D01*
X1000476Y284996D01*
X1000583Y284990D01*
X1000689Y284988D01*
X1000795Y284990D01*
X1000902Y284996D01*
X1001008Y285005D01*
X1001113Y285019D01*
X1001218Y285036D01*
X1001323Y285058D01*
X1001426Y285083D01*
X1001529Y285112D01*
X1001630Y285144D01*
X1001730Y285180D01*
X1001829Y285220D01*
X1001926Y285264D01*
X1002021Y285310D01*
X1002115Y285361D01*
X1002207Y285415D01*
X1002297Y285472D01*
X1002385Y285532D01*
X1002470Y285596D01*
X1002553Y285662D01*
X1002634Y285732D01*
X1002712Y285804D01*
X1002787Y285879D01*
X1002859Y285957D01*
X1002929Y286038D01*
X1002995Y286121D01*
X1003059Y286206D01*
X1003119Y286294D01*
X1003176Y286384D01*
X1003230Y286476D01*
X1003281Y286570D01*
X1003327Y286665D01*
X1003371Y286762D01*
X1003411Y286861D01*
X1003447Y286961D01*
X1003479Y287062D01*
X1003508Y287165D01*
X1003533Y287268D01*
X1003555Y287373D01*
X1003572Y287478D01*
X1003586Y287583D01*
X1003595Y287689D01*
X1003601Y287796D01*
X1003603Y287902D01*
X1003603Y291648D01*
X996110Y291648D01*
X996012Y291646D01*
X995914Y291640D01*
X995816Y291631D01*
X995719Y291617D01*
X995623Y291600D01*
X995527Y291579D01*
X995432Y291554D01*
X995338Y291526D01*
X995245Y291494D01*
X995154Y291458D01*
X995064Y291419D01*
X994976Y291376D01*
X994889Y291329D01*
X994805Y291280D01*
X994722Y291227D01*
X994642Y291171D01*
X994564Y291112D01*
X994488Y291049D01*
X994414Y290984D01*
X994344Y290916D01*
X994276Y290846D01*
X994211Y290772D01*
X994148Y290696D01*
X994089Y290618D01*
X994033Y290538D01*
X993980Y290455D01*
X993931Y290371D01*
X993884Y290284D01*
X993841Y290196D01*
X993802Y290106D01*
X993766Y290015D01*
X993734Y289922D01*
X993706Y289828D01*
X993681Y289733D01*
X993660Y289637D01*
X993643Y289541D01*
X993629Y289444D01*
X993620Y289346D01*
X993614Y289248D01*
X993612Y289150D01*
X993612Y285820D01*
X993612Y298645D02*
X1003603Y301975D01*
X993612Y305306D01*
X993612Y311354D02*
X1003603Y311354D01*
X989450Y310938D02*
X988617Y310938D01*
X988617Y311770D01*
X989450Y311770D01*
X989450Y310938D01*
X988617Y324474D02*
X1003603Y324474D01*
X1003603Y320311D01*
X1003601Y320213D01*
X1003595Y320115D01*
X1003586Y320017D01*
X1003572Y319920D01*
X1003555Y319824D01*
X1003534Y319728D01*
X1003509Y319633D01*
X1003481Y319539D01*
X1003449Y319446D01*
X1003413Y319355D01*
X1003374Y319265D01*
X1003331Y319177D01*
X1003284Y319090D01*
X1003235Y319006D01*
X1003182Y318923D01*
X1003126Y318843D01*
X1003067Y318765D01*
X1003005Y318689D01*
X1002939Y318615D01*
X1002871Y318545D01*
X1002801Y318477D01*
X1002727Y318412D01*
X1002652Y318349D01*
X1002573Y318290D01*
X1002493Y318234D01*
X1002410Y318181D01*
X1002326Y318132D01*
X1002239Y318085D01*
X1002151Y318042D01*
X1002061Y318003D01*
X1001970Y317967D01*
X1001877Y317935D01*
X1001783Y317907D01*
X1001688Y317882D01*
X1001592Y317861D01*
X1001496Y317844D01*
X1001399Y317830D01*
X1001301Y317821D01*
X1001203Y317815D01*
X1001105Y317813D01*
X996110Y317813D01*
X996012Y317815D01*
X995914Y317821D01*
X995816Y317830D01*
X995719Y317844D01*
X995623Y317861D01*
X995527Y317882D01*
X995432Y317907D01*
X995338Y317935D01*
X995245Y317967D01*
X995154Y318003D01*
X995064Y318042D01*
X994976Y318085D01*
X994889Y318132D01*
X994805Y318181D01*
X994722Y318234D01*
X994642Y318290D01*
X994564Y318349D01*
X994488Y318412D01*
X994414Y318477D01*
X994344Y318545D01*
X994276Y318615D01*
X994211Y318689D01*
X994148Y318765D01*
X994089Y318843D01*
X994033Y318923D01*
X993980Y319006D01*
X993931Y319090D01*
X993884Y319177D01*
X993841Y319265D01*
X993802Y319355D01*
X993766Y319446D01*
X993734Y319539D01*
X993706Y319633D01*
X993681Y319728D01*
X993660Y319824D01*
X993643Y319920D01*
X993629Y320017D01*
X993620Y320115D01*
X993614Y320213D01*
X993612Y320311D01*
X993612Y324474D01*
X993612Y332513D02*
X1001105Y332513D01*
X1001105Y332512D02*
X1001203Y332514D01*
X1001301Y332520D01*
X1001399Y332529D01*
X1001496Y332543D01*
X1001592Y332560D01*
X1001688Y332581D01*
X1001783Y332606D01*
X1001877Y332634D01*
X1001970Y332666D01*
X1002061Y332702D01*
X1002151Y332741D01*
X1002239Y332784D01*
X1002326Y332831D01*
X1002410Y332880D01*
X1002493Y332933D01*
X1002573Y332989D01*
X1002652Y333048D01*
X1002727Y333111D01*
X1002801Y333176D01*
X1002871Y333244D01*
X1002939Y333314D01*
X1003005Y333388D01*
X1003067Y333464D01*
X1003126Y333542D01*
X1003182Y333622D01*
X1003235Y333705D01*
X1003285Y333789D01*
X1003331Y333876D01*
X1003374Y333964D01*
X1003413Y334054D01*
X1003449Y334145D01*
X1003481Y334238D01*
X1003509Y334332D01*
X1003534Y334427D01*
X1003555Y334523D01*
X1003572Y334619D01*
X1003586Y334716D01*
X1003595Y334814D01*
X1003601Y334912D01*
X1003603Y335010D01*
X1003603Y339173D01*
X993612Y339173D01*
X997775Y347830D02*
X999440Y351992D01*
X997776Y347829D02*
X997740Y347744D01*
X997700Y347661D01*
X997657Y347580D01*
X997610Y347500D01*
X997560Y347423D01*
X997507Y347347D01*
X997451Y347274D01*
X997391Y347204D01*
X997329Y347136D01*
X997264Y347071D01*
X997196Y347009D01*
X997125Y346949D01*
X997052Y346893D01*
X996977Y346840D01*
X996899Y346790D01*
X996820Y346744D01*
X996738Y346701D01*
X996655Y346661D01*
X996570Y346625D01*
X996484Y346593D01*
X996396Y346564D01*
X996307Y346540D01*
X996217Y346519D01*
X996127Y346502D01*
X996036Y346488D01*
X995944Y346479D01*
X995852Y346474D01*
X995760Y346472D01*
X995668Y346474D01*
X995576Y346481D01*
X995484Y346491D01*
X995393Y346505D01*
X995302Y346523D01*
X995213Y346545D01*
X995124Y346571D01*
X995037Y346601D01*
X994951Y346634D01*
X994867Y346671D01*
X994784Y346711D01*
X994703Y346755D01*
X994624Y346802D01*
X994547Y346853D01*
X994472Y346907D01*
X994399Y346964D01*
X994329Y347024D01*
X994262Y347087D01*
X994198Y347153D01*
X994136Y347221D01*
X994077Y347292D01*
X994022Y347366D01*
X993969Y347442D01*
X993920Y347520D01*
X993874Y347600D01*
X993832Y347681D01*
X993793Y347765D01*
X993758Y347850D01*
X993727Y347937D01*
X993699Y348025D01*
X993675Y348114D01*
X993655Y348204D01*
X993638Y348294D01*
X993626Y348386D01*
X993617Y348478D01*
X993613Y348570D01*
X993612Y348662D01*
X993618Y348889D01*
X993629Y349116D01*
X993646Y349343D01*
X993669Y349569D01*
X993696Y349795D01*
X993730Y350020D01*
X993768Y350244D01*
X993812Y350467D01*
X993861Y350689D01*
X993916Y350910D01*
X993976Y351129D01*
X994041Y351347D01*
X994112Y351563D01*
X994187Y351777D01*
X994268Y351990D01*
X994354Y352200D01*
X994445Y352409D01*
X999440Y351993D02*
X999476Y352078D01*
X999516Y352161D01*
X999559Y352242D01*
X999606Y352322D01*
X999656Y352399D01*
X999709Y352475D01*
X999765Y352548D01*
X999825Y352618D01*
X999887Y352686D01*
X999952Y352751D01*
X1000020Y352813D01*
X1000091Y352873D01*
X1000164Y352929D01*
X1000239Y352982D01*
X1000317Y353032D01*
X1000396Y353078D01*
X1000478Y353121D01*
X1000561Y353161D01*
X1000646Y353197D01*
X1000732Y353229D01*
X1000820Y353258D01*
X1000909Y353282D01*
X1000999Y353303D01*
X1001089Y353320D01*
X1001180Y353334D01*
X1001272Y353343D01*
X1001364Y353348D01*
X1001456Y353350D01*
X1001548Y353348D01*
X1001640Y353341D01*
X1001732Y353331D01*
X1001823Y353317D01*
X1001914Y353299D01*
X1002003Y353277D01*
X1002092Y353251D01*
X1002179Y353221D01*
X1002265Y353188D01*
X1002349Y353151D01*
X1002432Y353111D01*
X1002513Y353067D01*
X1002592Y353020D01*
X1002669Y352969D01*
X1002744Y352915D01*
X1002817Y352858D01*
X1002887Y352798D01*
X1002954Y352735D01*
X1003018Y352669D01*
X1003080Y352601D01*
X1003139Y352530D01*
X1003194Y352456D01*
X1003247Y352380D01*
X1003296Y352302D01*
X1003342Y352222D01*
X1003384Y352141D01*
X1003423Y352057D01*
X1003458Y351972D01*
X1003489Y351885D01*
X1003517Y351797D01*
X1003541Y351708D01*
X1003561Y351618D01*
X1003578Y351528D01*
X1003590Y351436D01*
X1003599Y351344D01*
X1003603Y351252D01*
X1003604Y351160D01*
X1003603Y351160D02*
X1003594Y350826D01*
X1003577Y350493D01*
X1003553Y350160D01*
X1003520Y349827D01*
X1003480Y349496D01*
X1003432Y349165D01*
X1003376Y348836D01*
X1003313Y348508D01*
X1003241Y348182D01*
X1003162Y347858D01*
X1003076Y347535D01*
X1002981Y347215D01*
X1002879Y346897D01*
X1002770Y346581D01*
D14*
X895350Y38100D02*
X882650Y38100D01*
X895350Y38100D02*
X901700Y31750D01*
X901700Y19050D02*
X895350Y12700D01*
X857250Y38100D02*
X850900Y31750D01*
X857250Y38100D02*
X869950Y38100D01*
X876300Y31750D01*
X876300Y19050D02*
X869950Y12700D01*
X857250Y12700D01*
X850900Y19050D01*
X876300Y31750D02*
X882650Y38100D01*
X876300Y19050D02*
X882650Y12700D01*
X895350Y12700D01*
X819150Y38100D02*
X806450Y38100D01*
X819150Y38100D02*
X825500Y31750D01*
X825500Y19050D02*
X819150Y12700D01*
X825500Y31750D02*
X831850Y38100D01*
X844550Y38100D01*
X850900Y31750D01*
X850900Y19050D02*
X844550Y12700D01*
X831850Y12700D01*
X825500Y19050D01*
X781050Y38100D02*
X774700Y31750D01*
X781050Y38100D02*
X793750Y38100D01*
X800100Y31750D01*
X800100Y19050D02*
X793750Y12700D01*
X781050Y12700D01*
X774700Y19050D01*
X800100Y31750D02*
X806450Y38100D01*
X800100Y19050D02*
X806450Y12700D01*
X819150Y12700D01*
X742950Y38100D02*
X730250Y38100D01*
X742950Y38100D02*
X749300Y31750D01*
X749300Y19050D02*
X742950Y12700D01*
X749300Y31750D02*
X755650Y38100D01*
X768350Y38100D01*
X774700Y31750D01*
X774700Y19050D02*
X768350Y12700D01*
X755650Y12700D01*
X749300Y19050D01*
X723900Y19050D02*
X723900Y31750D01*
X730250Y38100D01*
X723900Y19050D02*
X730250Y12700D01*
X742950Y12700D01*
X908050Y38100D02*
X920750Y38100D01*
X927100Y31750D01*
X927100Y19050D01*
X920750Y12700D01*
X901700Y31750D02*
X908050Y38100D01*
X901700Y19050D02*
X908050Y12700D01*
X920750Y12700D01*
X844550Y520700D02*
X831850Y520700D01*
X844550Y520700D02*
X850900Y514350D01*
X850900Y501650D02*
X844550Y495300D01*
X806450Y520700D02*
X800100Y514350D01*
X806450Y520700D02*
X819150Y520700D01*
X825500Y514350D01*
X825500Y501650D02*
X819150Y495300D01*
X806450Y495300D01*
X800100Y501650D01*
X825500Y514350D02*
X831850Y520700D01*
X825500Y501650D02*
X831850Y495300D01*
X844550Y495300D01*
X768350Y520700D02*
X755650Y520700D01*
X768350Y520700D02*
X774700Y514350D01*
X774700Y501650D02*
X768350Y495300D01*
X774700Y514350D02*
X781050Y520700D01*
X793750Y520700D01*
X800100Y514350D01*
X800100Y501650D02*
X793750Y495300D01*
X781050Y495300D01*
X774700Y501650D01*
X730250Y520700D02*
X723900Y514350D01*
X730250Y520700D02*
X742950Y520700D01*
X749300Y514350D01*
X749300Y501650D02*
X742950Y495300D01*
X730250Y495300D01*
X723900Y501650D01*
X749300Y514350D02*
X755650Y520700D01*
X749300Y501650D02*
X755650Y495300D01*
X768350Y495300D01*
X692150Y520700D02*
X679450Y520700D01*
X692150Y520700D02*
X698500Y514350D01*
X698500Y501650D02*
X692150Y495300D01*
X698500Y514350D02*
X704850Y520700D01*
X717550Y520700D01*
X723900Y514350D01*
X723900Y501650D02*
X717550Y495300D01*
X704850Y495300D01*
X698500Y501650D01*
X673100Y501650D02*
X673100Y514350D01*
X679450Y520700D01*
X673100Y501650D02*
X679450Y495300D01*
X692150Y495300D01*
X857250Y520700D02*
X869950Y520700D01*
X876300Y514350D01*
X876300Y501650D01*
X869950Y495300D01*
X850900Y514350D02*
X857250Y520700D01*
X850900Y501650D02*
X857250Y495300D01*
X869950Y495300D01*
X666750Y38100D02*
X654050Y38100D01*
X666750Y38100D02*
X673100Y31750D01*
X673100Y19050D02*
X666750Y12700D01*
X628650Y38100D02*
X622300Y31750D01*
X628650Y38100D02*
X641350Y38100D01*
X647700Y31750D01*
X647700Y19050D02*
X641350Y12700D01*
X628650Y12700D01*
X622300Y19050D01*
X647700Y31750D02*
X654050Y38100D01*
X647700Y19050D02*
X654050Y12700D01*
X666750Y12700D01*
X590550Y38100D02*
X577850Y38100D01*
X590550Y38100D02*
X596900Y31750D01*
X596900Y19050D02*
X590550Y12700D01*
X596900Y31750D02*
X603250Y38100D01*
X615950Y38100D01*
X622300Y31750D01*
X622300Y19050D02*
X615950Y12700D01*
X603250Y12700D01*
X596900Y19050D01*
X552450Y38100D02*
X546100Y31750D01*
X552450Y38100D02*
X565150Y38100D01*
X571500Y31750D01*
X571500Y19050D02*
X565150Y12700D01*
X552450Y12700D01*
X546100Y19050D01*
X571500Y31750D02*
X577850Y38100D01*
X571500Y19050D02*
X577850Y12700D01*
X590550Y12700D01*
X514350Y38100D02*
X501650Y38100D01*
X514350Y38100D02*
X520700Y31750D01*
X520700Y19050D02*
X514350Y12700D01*
X520700Y31750D02*
X527050Y38100D01*
X539750Y38100D01*
X546100Y31750D01*
X546100Y19050D02*
X539750Y12700D01*
X527050Y12700D01*
X520700Y19050D01*
X495300Y19050D02*
X495300Y31750D01*
X501650Y38100D01*
X495300Y19050D02*
X501650Y12700D01*
X514350Y12700D01*
X679450Y38100D02*
X692150Y38100D01*
X698500Y31750D01*
X698500Y19050D01*
X692150Y12700D01*
X673100Y31750D02*
X679450Y38100D01*
X673100Y19050D02*
X679450Y12700D01*
X692150Y12700D01*
X615950Y520700D02*
X603250Y520700D01*
X615950Y520700D02*
X622300Y514350D01*
X622300Y501650D02*
X615950Y495300D01*
X577850Y520700D02*
X571500Y514350D01*
X577850Y520700D02*
X590550Y520700D01*
X596900Y514350D01*
X596900Y501650D02*
X590550Y495300D01*
X577850Y495300D01*
X571500Y501650D01*
X596900Y514350D02*
X603250Y520700D01*
X596900Y501650D02*
X603250Y495300D01*
X615950Y495300D01*
X539750Y520700D02*
X527050Y520700D01*
X539750Y520700D02*
X546100Y514350D01*
X546100Y501650D02*
X539750Y495300D01*
X546100Y514350D02*
X552450Y520700D01*
X565150Y520700D01*
X571500Y514350D01*
X571500Y501650D02*
X565150Y495300D01*
X552450Y495300D01*
X546100Y501650D01*
X501650Y520700D02*
X495300Y514350D01*
X501650Y520700D02*
X514350Y520700D01*
X520700Y514350D01*
X520700Y501650D02*
X514350Y495300D01*
X501650Y495300D01*
X495300Y501650D01*
X520700Y514350D02*
X527050Y520700D01*
X520700Y501650D02*
X527050Y495300D01*
X539750Y495300D01*
X463550Y520700D02*
X450850Y520700D01*
X463550Y520700D02*
X469900Y514350D01*
X469900Y501650D02*
X463550Y495300D01*
X469900Y514350D02*
X476250Y520700D01*
X488950Y520700D01*
X495300Y514350D01*
X495300Y501650D02*
X488950Y495300D01*
X476250Y495300D01*
X469900Y501650D01*
X444500Y501650D02*
X444500Y514350D01*
X450850Y520700D01*
X444500Y501650D02*
X450850Y495300D01*
X463550Y495300D01*
X628650Y520700D02*
X641350Y520700D01*
X647700Y514350D01*
X647700Y501650D01*
X641350Y495300D01*
X622300Y514350D02*
X628650Y520700D01*
X622300Y501650D02*
X628650Y495300D01*
X641350Y495300D01*
X397510Y520700D02*
X384810Y520700D01*
X397510Y520700D02*
X403860Y514350D01*
X403860Y501650D02*
X397510Y495300D01*
X359410Y520700D02*
X353060Y514350D01*
X359410Y520700D02*
X372110Y520700D01*
X378460Y514350D01*
X378460Y501650D02*
X372110Y495300D01*
X359410Y495300D01*
X353060Y501650D01*
X378460Y514350D02*
X384810Y520700D01*
X378460Y501650D02*
X384810Y495300D01*
X397510Y495300D01*
X321310Y520700D02*
X308610Y520700D01*
X321310Y520700D02*
X327660Y514350D01*
X327660Y501650D02*
X321310Y495300D01*
X327660Y514350D02*
X334010Y520700D01*
X346710Y520700D01*
X353060Y514350D01*
X353060Y501650D02*
X346710Y495300D01*
X334010Y495300D01*
X327660Y501650D01*
X283210Y520700D02*
X276860Y514350D01*
X283210Y520700D02*
X295910Y520700D01*
X302260Y514350D01*
X302260Y501650D02*
X295910Y495300D01*
X283210Y495300D01*
X276860Y501650D01*
X302260Y514350D02*
X308610Y520700D01*
X302260Y501650D02*
X308610Y495300D01*
X321310Y495300D01*
X245110Y520700D02*
X232410Y520700D01*
X245110Y520700D02*
X251460Y514350D01*
X251460Y501650D02*
X245110Y495300D01*
X251460Y514350D02*
X257810Y520700D01*
X270510Y520700D01*
X276860Y514350D01*
X276860Y501650D02*
X270510Y495300D01*
X257810Y495300D01*
X251460Y501650D01*
X232410Y520700D02*
X226060Y514350D01*
X226060Y501650D02*
X232410Y495300D01*
X245110Y495300D01*
X410210Y520700D02*
X422910Y520700D01*
X429260Y514350D01*
X429260Y501650D01*
X422910Y495300D01*
X403860Y514350D02*
X410210Y520700D01*
X403860Y501650D02*
X410210Y495300D01*
X422910Y495300D01*
D12*
X971550Y292100D02*
X977900Y298450D01*
X977900Y311150D02*
X971550Y317500D01*
X977900Y323850D01*
X977900Y336550D02*
X971550Y342900D01*
X977900Y349250D01*
X977900Y361950D02*
X971550Y368300D01*
X977900Y374650D01*
X977900Y387350D02*
X971550Y393700D01*
X977900Y400050D01*
X977900Y412750D02*
X971550Y419100D01*
X977900Y425450D01*
X977900Y438150D02*
X971550Y444500D01*
X927100Y298450D02*
X933450Y292100D01*
X927100Y298450D02*
X927100Y311150D01*
X933450Y317500D01*
X927100Y323850D01*
X927100Y336550D01*
X933450Y342900D01*
X927100Y349250D01*
X927100Y361950D01*
X933450Y368300D01*
X927100Y374650D01*
X927100Y387350D01*
X933450Y393700D01*
X927100Y400050D01*
X927100Y412750D01*
X933450Y419100D01*
X927100Y425450D01*
X927100Y438150D01*
X933450Y444500D01*
X927100Y450850D01*
X927100Y463550D01*
X933450Y469900D01*
X927100Y476250D01*
X927100Y488950D01*
X933450Y495300D01*
X971550Y495300D02*
X977900Y488950D01*
X977900Y476250D02*
X971550Y469900D01*
X977900Y463550D01*
X977900Y450850D02*
X971550Y444500D01*
X971550Y317500D02*
X933450Y317500D01*
X933450Y342900D02*
X971550Y342900D01*
X971550Y368300D02*
X933450Y368300D01*
X933450Y393700D02*
X971550Y393700D01*
X971550Y419100D02*
X933450Y419100D01*
X933450Y444500D02*
X971550Y444500D01*
X971550Y469900D02*
X933450Y469900D01*
X977900Y476250D02*
X977900Y488950D01*
X977900Y463550D02*
X977900Y450850D01*
X977900Y438150D02*
X977900Y425450D01*
X977900Y412750D02*
X977900Y400050D01*
X977900Y387350D02*
X977900Y374650D01*
X977900Y361950D02*
X977900Y349250D01*
X977900Y336550D02*
X977900Y323850D01*
X977900Y311150D02*
X977900Y298450D01*
X977900Y95250D02*
X971550Y88900D01*
X977900Y107950D02*
X971550Y114300D01*
X977900Y120650D01*
X977900Y133350D02*
X971550Y139700D01*
X977900Y146050D01*
X977900Y158750D02*
X971550Y165100D01*
X977900Y171450D01*
X977900Y184150D02*
X971550Y190500D01*
X977900Y196850D01*
X977900Y209550D02*
X971550Y215900D01*
X977900Y222250D01*
X977900Y234950D02*
X971550Y241300D01*
X927100Y95250D02*
X933450Y88900D01*
X927100Y95250D02*
X927100Y107950D01*
X933450Y114300D01*
X927100Y120650D01*
X927100Y133350D01*
X933450Y139700D01*
X927100Y146050D01*
X927100Y158750D01*
X933450Y165100D01*
X927100Y171450D01*
X927100Y184150D01*
X933450Y190500D01*
X927100Y196850D01*
X927100Y209550D01*
X933450Y215900D01*
X927100Y222250D01*
X927100Y234950D01*
X933450Y241300D01*
X927100Y247650D01*
X927100Y260350D01*
X933450Y266700D01*
X927100Y273050D01*
X927100Y285750D01*
X933450Y292100D01*
X971550Y292100D02*
X977900Y285750D01*
X977900Y273050D02*
X971550Y266700D01*
X977900Y260350D01*
X977900Y247650D02*
X971550Y241300D01*
X971550Y114300D02*
X933450Y114300D01*
X933450Y139700D02*
X971550Y139700D01*
X971550Y165100D02*
X933450Y165100D01*
X933450Y190500D02*
X971550Y190500D01*
X971550Y215900D02*
X933450Y215900D01*
X933450Y241300D02*
X971550Y241300D01*
X971550Y266700D02*
X933450Y266700D01*
X933450Y292100D02*
X971550Y292100D01*
X977900Y285750D02*
X977900Y273050D01*
X977900Y260350D02*
X977900Y247650D01*
X977900Y234950D02*
X977900Y222250D01*
X977900Y209550D02*
X977900Y196850D01*
X977900Y184150D02*
X977900Y171450D01*
X977900Y158750D02*
X977900Y146050D01*
X977900Y133350D02*
X977900Y120650D01*
X977900Y107950D02*
X977900Y95250D01*
D14*
X971550Y88900D02*
X977900Y82550D01*
X977900Y69850D02*
X971550Y63500D01*
X927100Y69850D02*
X927100Y82550D01*
X933450Y88900D01*
X927100Y69850D02*
X933450Y63500D01*
X977900Y69850D02*
X977900Y82550D01*
X971550Y88900D02*
X933450Y88900D01*
X933450Y63500D02*
X971550Y63500D01*
X977900Y514350D02*
X971550Y520700D01*
X977900Y501650D02*
X971550Y495300D01*
X927100Y501650D02*
X927100Y514350D01*
X933450Y520700D01*
X927100Y501650D02*
X933450Y495300D01*
X977900Y501650D02*
X977900Y514350D01*
X971550Y520700D02*
X933450Y520700D01*
X933450Y495300D02*
X971550Y495300D01*
X450850Y38100D02*
X444500Y31750D01*
X450850Y38100D02*
X463550Y38100D01*
X469900Y31750D01*
X469900Y19050D02*
X463550Y12700D01*
X450850Y12700D01*
X444500Y19050D01*
X412750Y38100D02*
X400050Y38100D01*
X412750Y38100D02*
X419100Y31750D01*
X419100Y19050D02*
X412750Y12700D01*
X419100Y31750D02*
X425450Y38100D01*
X438150Y38100D01*
X444500Y31750D01*
X444500Y19050D02*
X438150Y12700D01*
X425450Y12700D01*
X419100Y19050D01*
X374650Y38100D02*
X368300Y31750D01*
X374650Y38100D02*
X387350Y38100D01*
X393700Y31750D01*
X393700Y19050D02*
X387350Y12700D01*
X374650Y12700D01*
X368300Y19050D01*
X393700Y31750D02*
X400050Y38100D01*
X393700Y19050D02*
X400050Y12700D01*
X412750Y12700D01*
X336550Y38100D02*
X323850Y38100D01*
X336550Y38100D02*
X342900Y31750D01*
X342900Y19050D02*
X336550Y12700D01*
X342900Y31750D02*
X349250Y38100D01*
X361950Y38100D01*
X368300Y31750D01*
X368300Y19050D02*
X361950Y12700D01*
X349250Y12700D01*
X342900Y19050D01*
X323850Y38100D02*
X317500Y31750D01*
X317500Y19050D02*
X323850Y12700D01*
X336550Y12700D01*
X469900Y19050D02*
X469900Y31750D01*
X219710Y520700D02*
X207010Y520700D01*
X219710Y520700D02*
X226060Y514350D01*
X226060Y501650D02*
X219710Y495300D01*
X200660Y514350D02*
X207010Y520700D01*
X200660Y501650D02*
X207010Y495300D01*
X219710Y495300D01*
X194310Y520700D02*
X181610Y520700D01*
X194310Y520700D02*
X200660Y514350D01*
X200660Y501650D02*
X194310Y495300D01*
X175260Y501650D02*
X175260Y514350D01*
X181610Y520700D01*
X175260Y501650D02*
X181610Y495300D01*
X194310Y495300D01*
X298450Y38100D02*
X311150Y38100D01*
X317500Y31750D01*
X317500Y19050D02*
X311150Y12700D01*
X292100Y31750D02*
X298450Y38100D01*
X292100Y19050D02*
X298450Y12700D01*
X311150Y12700D01*
X285750Y38100D02*
X273050Y38100D01*
X285750Y38100D02*
X292100Y31750D01*
X292100Y19050D02*
X285750Y12700D01*
X266700Y19050D02*
X266700Y31750D01*
X273050Y38100D01*
X266700Y19050D02*
X273050Y12700D01*
X285750Y12700D01*
D10*
X69400Y177300D02*
X69400Y207300D01*
X79400Y214300D02*
X103400Y214300D01*
X113400Y207300D02*
X113400Y177300D01*
X103400Y170300D02*
X79400Y170300D01*
D15*
X77400Y192300D02*
X77404Y192644D01*
X77417Y192987D01*
X77438Y193330D01*
X77467Y193672D01*
X77505Y194014D01*
X77552Y194354D01*
X77606Y194693D01*
X77669Y195031D01*
X77740Y195367D01*
X77820Y195702D01*
X77907Y196034D01*
X78003Y196364D01*
X78107Y196692D01*
X78218Y197016D01*
X78338Y197339D01*
X78466Y197658D01*
X78601Y197973D01*
X78744Y198286D01*
X78895Y198595D01*
X79053Y198900D01*
X79219Y199201D01*
X79392Y199497D01*
X79572Y199790D01*
X79759Y200078D01*
X79954Y200361D01*
X80155Y200640D01*
X80363Y200913D01*
X80578Y201182D01*
X80799Y201444D01*
X81027Y201702D01*
X81261Y201954D01*
X81501Y202199D01*
X81746Y202439D01*
X81998Y202673D01*
X82256Y202901D01*
X82518Y203122D01*
X82787Y203337D01*
X83060Y203545D01*
X83339Y203746D01*
X83622Y203941D01*
X83910Y204128D01*
X84203Y204308D01*
X84499Y204481D01*
X84800Y204647D01*
X85105Y204805D01*
X85414Y204956D01*
X85727Y205099D01*
X86042Y205234D01*
X86361Y205362D01*
X86684Y205482D01*
X87008Y205593D01*
X87336Y205697D01*
X87666Y205793D01*
X87998Y205880D01*
X88333Y205960D01*
X88669Y206031D01*
X89007Y206094D01*
X89346Y206148D01*
X89686Y206195D01*
X90028Y206233D01*
X90370Y206262D01*
X90713Y206283D01*
X91056Y206296D01*
X91400Y206300D01*
X91744Y206296D01*
X92087Y206283D01*
X92430Y206262D01*
X92772Y206233D01*
X93114Y206195D01*
X93454Y206148D01*
X93793Y206094D01*
X94131Y206031D01*
X94467Y205960D01*
X94802Y205880D01*
X95134Y205793D01*
X95464Y205697D01*
X95792Y205593D01*
X96116Y205482D01*
X96439Y205362D01*
X96758Y205234D01*
X97073Y205099D01*
X97386Y204956D01*
X97695Y204805D01*
X98000Y204647D01*
X98301Y204481D01*
X98597Y204308D01*
X98890Y204128D01*
X99178Y203941D01*
X99461Y203746D01*
X99740Y203545D01*
X100013Y203337D01*
X100282Y203122D01*
X100544Y202901D01*
X100802Y202673D01*
X101054Y202439D01*
X101299Y202199D01*
X101539Y201954D01*
X101773Y201702D01*
X102001Y201444D01*
X102222Y201182D01*
X102437Y200913D01*
X102645Y200640D01*
X102846Y200361D01*
X103041Y200078D01*
X103228Y199790D01*
X103408Y199497D01*
X103581Y199201D01*
X103747Y198900D01*
X103905Y198595D01*
X104056Y198286D01*
X104199Y197973D01*
X104334Y197658D01*
X104462Y197339D01*
X104582Y197016D01*
X104693Y196692D01*
X104797Y196364D01*
X104893Y196034D01*
X104980Y195702D01*
X105060Y195367D01*
X105131Y195031D01*
X105194Y194693D01*
X105248Y194354D01*
X105295Y194014D01*
X105333Y193672D01*
X105362Y193330D01*
X105383Y192987D01*
X105396Y192644D01*
X105400Y192300D01*
X105396Y191956D01*
X105383Y191613D01*
X105362Y191270D01*
X105333Y190928D01*
X105295Y190586D01*
X105248Y190246D01*
X105194Y189907D01*
X105131Y189569D01*
X105060Y189233D01*
X104980Y188898D01*
X104893Y188566D01*
X104797Y188236D01*
X104693Y187908D01*
X104582Y187584D01*
X104462Y187261D01*
X104334Y186942D01*
X104199Y186627D01*
X104056Y186314D01*
X103905Y186005D01*
X103747Y185700D01*
X103581Y185399D01*
X103408Y185103D01*
X103228Y184810D01*
X103041Y184522D01*
X102846Y184239D01*
X102645Y183960D01*
X102437Y183687D01*
X102222Y183418D01*
X102001Y183156D01*
X101773Y182898D01*
X101539Y182646D01*
X101299Y182401D01*
X101054Y182161D01*
X100802Y181927D01*
X100544Y181699D01*
X100282Y181478D01*
X100013Y181263D01*
X99740Y181055D01*
X99461Y180854D01*
X99178Y180659D01*
X98890Y180472D01*
X98597Y180292D01*
X98301Y180119D01*
X98000Y179953D01*
X97695Y179795D01*
X97386Y179644D01*
X97073Y179501D01*
X96758Y179366D01*
X96439Y179238D01*
X96116Y179118D01*
X95792Y179007D01*
X95464Y178903D01*
X95134Y178807D01*
X94802Y178720D01*
X94467Y178640D01*
X94131Y178569D01*
X93793Y178506D01*
X93454Y178452D01*
X93114Y178405D01*
X92772Y178367D01*
X92430Y178338D01*
X92087Y178317D01*
X91744Y178304D01*
X91400Y178300D01*
X91056Y178304D01*
X90713Y178317D01*
X90370Y178338D01*
X90028Y178367D01*
X89686Y178405D01*
X89346Y178452D01*
X89007Y178506D01*
X88669Y178569D01*
X88333Y178640D01*
X87998Y178720D01*
X87666Y178807D01*
X87336Y178903D01*
X87008Y179007D01*
X86684Y179118D01*
X86361Y179238D01*
X86042Y179366D01*
X85727Y179501D01*
X85414Y179644D01*
X85105Y179795D01*
X84800Y179953D01*
X84499Y180119D01*
X84203Y180292D01*
X83910Y180472D01*
X83622Y180659D01*
X83339Y180854D01*
X83060Y181055D01*
X82787Y181263D01*
X82518Y181478D01*
X82256Y181699D01*
X81998Y181927D01*
X81746Y182161D01*
X81501Y182401D01*
X81261Y182646D01*
X81027Y182898D01*
X80799Y183156D01*
X80578Y183418D01*
X80363Y183687D01*
X80155Y183960D01*
X79954Y184239D01*
X79759Y184522D01*
X79572Y184810D01*
X79392Y185103D01*
X79219Y185399D01*
X79053Y185700D01*
X78895Y186005D01*
X78744Y186314D01*
X78601Y186627D01*
X78466Y186942D01*
X78338Y187261D01*
X78218Y187584D01*
X78107Y187908D01*
X78003Y188236D01*
X77907Y188566D01*
X77820Y188898D01*
X77740Y189233D01*
X77669Y189569D01*
X77606Y189907D01*
X77552Y190246D01*
X77505Y190586D01*
X77467Y190928D01*
X77438Y191270D01*
X77417Y191613D01*
X77404Y191956D01*
X77400Y192300D01*
D10*
X87400Y192300D02*
X87402Y192426D01*
X87408Y192552D01*
X87418Y192678D01*
X87432Y192804D01*
X87450Y192929D01*
X87472Y193053D01*
X87497Y193177D01*
X87527Y193300D01*
X87560Y193421D01*
X87598Y193542D01*
X87639Y193661D01*
X87684Y193780D01*
X87732Y193896D01*
X87784Y194011D01*
X87840Y194124D01*
X87900Y194236D01*
X87963Y194345D01*
X88029Y194453D01*
X88098Y194558D01*
X88171Y194661D01*
X88248Y194762D01*
X88327Y194860D01*
X88409Y194956D01*
X88495Y195049D01*
X88583Y195140D01*
X88674Y195227D01*
X88768Y195312D01*
X88864Y195393D01*
X88963Y195472D01*
X89064Y195547D01*
X89168Y195619D01*
X89274Y195688D01*
X89382Y195754D01*
X89492Y195816D01*
X89604Y195874D01*
X89717Y195929D01*
X89833Y195980D01*
X89950Y196028D01*
X90068Y196072D01*
X90188Y196112D01*
X90309Y196148D01*
X90431Y196181D01*
X90554Y196210D01*
X90678Y196234D01*
X90802Y196255D01*
X90927Y196272D01*
X91053Y196285D01*
X91179Y196294D01*
X91305Y196299D01*
X91432Y196300D01*
X91558Y196297D01*
X91684Y196290D01*
X91810Y196279D01*
X91935Y196264D01*
X92060Y196245D01*
X92184Y196222D01*
X92308Y196196D01*
X92430Y196165D01*
X92552Y196131D01*
X92672Y196092D01*
X92791Y196050D01*
X92909Y196005D01*
X93025Y195955D01*
X93140Y195902D01*
X93252Y195845D01*
X93363Y195785D01*
X93472Y195721D01*
X93579Y195654D01*
X93684Y195584D01*
X93787Y195510D01*
X93887Y195433D01*
X93985Y195353D01*
X94080Y195270D01*
X94172Y195184D01*
X94262Y195095D01*
X94349Y195003D01*
X94432Y194909D01*
X94513Y194812D01*
X94591Y194712D01*
X94666Y194610D01*
X94737Y194506D01*
X94805Y194399D01*
X94869Y194291D01*
X94930Y194180D01*
X94988Y194068D01*
X95042Y193954D01*
X95092Y193838D01*
X95139Y193721D01*
X95182Y193602D01*
X95221Y193482D01*
X95257Y193361D01*
X95288Y193238D01*
X95316Y193115D01*
X95340Y192991D01*
X95360Y192866D01*
X95376Y192741D01*
X95388Y192615D01*
X95396Y192489D01*
X95400Y192363D01*
X95400Y192237D01*
X95396Y192111D01*
X95388Y191985D01*
X95376Y191859D01*
X95360Y191734D01*
X95340Y191609D01*
X95316Y191485D01*
X95288Y191362D01*
X95257Y191239D01*
X95221Y191118D01*
X95182Y190998D01*
X95139Y190879D01*
X95092Y190762D01*
X95042Y190646D01*
X94988Y190532D01*
X94930Y190420D01*
X94869Y190309D01*
X94805Y190201D01*
X94737Y190094D01*
X94666Y189990D01*
X94591Y189888D01*
X94513Y189788D01*
X94432Y189691D01*
X94349Y189597D01*
X94262Y189505D01*
X94172Y189416D01*
X94080Y189330D01*
X93985Y189247D01*
X93887Y189167D01*
X93787Y189090D01*
X93684Y189016D01*
X93579Y188946D01*
X93472Y188879D01*
X93363Y188815D01*
X93252Y188755D01*
X93140Y188698D01*
X93025Y188645D01*
X92909Y188595D01*
X92791Y188550D01*
X92672Y188508D01*
X92552Y188469D01*
X92430Y188435D01*
X92308Y188404D01*
X92184Y188378D01*
X92060Y188355D01*
X91935Y188336D01*
X91810Y188321D01*
X91684Y188310D01*
X91558Y188303D01*
X91432Y188300D01*
X91305Y188301D01*
X91179Y188306D01*
X91053Y188315D01*
X90927Y188328D01*
X90802Y188345D01*
X90678Y188366D01*
X90554Y188390D01*
X90431Y188419D01*
X90309Y188452D01*
X90188Y188488D01*
X90068Y188528D01*
X89950Y188572D01*
X89833Y188620D01*
X89717Y188671D01*
X89604Y188726D01*
X89492Y188784D01*
X89382Y188846D01*
X89274Y188912D01*
X89168Y188981D01*
X89064Y189053D01*
X88963Y189128D01*
X88864Y189207D01*
X88768Y189288D01*
X88674Y189373D01*
X88583Y189460D01*
X88495Y189551D01*
X88409Y189644D01*
X88327Y189740D01*
X88248Y189838D01*
X88171Y189939D01*
X88098Y190042D01*
X88029Y190147D01*
X87963Y190255D01*
X87900Y190364D01*
X87840Y190476D01*
X87784Y190589D01*
X87732Y190704D01*
X87684Y190820D01*
X87639Y190939D01*
X87598Y191058D01*
X87560Y191179D01*
X87527Y191300D01*
X87497Y191423D01*
X87472Y191547D01*
X87450Y191671D01*
X87432Y191796D01*
X87418Y191922D01*
X87408Y192048D01*
X87402Y192174D01*
X87400Y192300D01*
X60794Y33546D02*
X50380Y33546D01*
X60794Y33546D02*
X60794Y18560D01*
X24500Y42000D02*
X24500Y51100D01*
X91700Y51200D02*
X91700Y42100D01*
X50300Y33546D02*
X27900Y33546D01*
X27900Y33700D01*
X40300Y59100D02*
X60900Y59100D01*
X70000Y59400D02*
X76200Y59400D01*
X31100Y59100D02*
X27500Y59100D01*
X85000Y59600D02*
X88600Y59600D01*
X70954Y18560D02*
X60794Y18560D01*
X70954Y18560D02*
X70954Y33546D01*
X88480Y33546D01*
D16*
X635580Y420038D03*
D15*
X633890Y414000D02*
X633080Y414000D01*
X633890Y414000D02*
X633890Y295000D01*
X633080Y295000D01*
X553700Y414000D02*
X552890Y414000D01*
X552890Y295000D01*
X553700Y295000D01*
D16*
X482190Y420038D03*
D15*
X480500Y414000D02*
X479690Y414000D01*
X480500Y414000D02*
X480500Y295000D01*
X479690Y295000D01*
X400310Y414000D02*
X399500Y414000D01*
X399500Y295000D01*
X400310Y295000D01*
D16*
X316356Y143920D03*
D15*
X322923Y146952D02*
X318875Y151000D01*
X322923Y155048D01*
X391000Y223125D02*
X395048Y219077D01*
X391000Y223125D02*
X386952Y219077D01*
X459077Y155048D02*
X463125Y151000D01*
X459077Y146952D01*
X391000Y78875D02*
X386952Y82923D01*
X391000Y78875D02*
X395048Y82923D01*
D16*
X588080Y110356D03*
D15*
X585048Y116923D02*
X581000Y112875D01*
X576952Y116923D01*
X508875Y185000D02*
X512923Y189048D01*
X508875Y185000D02*
X512923Y180952D01*
X576952Y253077D02*
X581000Y257125D01*
X585048Y253077D01*
X653125Y185000D02*
X649077Y180952D01*
X653125Y185000D02*
X649077Y189048D01*
D10*
X184000Y56000D02*
X184000Y26000D01*
X194000Y63000D02*
X218000Y63000D01*
X228000Y56000D02*
X228000Y26000D01*
X218000Y19000D02*
X194000Y19000D01*
D15*
X192000Y41000D02*
X192004Y41344D01*
X192017Y41687D01*
X192038Y42030D01*
X192067Y42372D01*
X192105Y42714D01*
X192152Y43054D01*
X192206Y43393D01*
X192269Y43731D01*
X192340Y44067D01*
X192420Y44402D01*
X192507Y44734D01*
X192603Y45064D01*
X192707Y45392D01*
X192818Y45716D01*
X192938Y46039D01*
X193066Y46358D01*
X193201Y46673D01*
X193344Y46986D01*
X193495Y47295D01*
X193653Y47600D01*
X193819Y47901D01*
X193992Y48197D01*
X194172Y48490D01*
X194359Y48778D01*
X194554Y49061D01*
X194755Y49340D01*
X194963Y49613D01*
X195178Y49882D01*
X195399Y50144D01*
X195627Y50402D01*
X195861Y50654D01*
X196101Y50899D01*
X196346Y51139D01*
X196598Y51373D01*
X196856Y51601D01*
X197118Y51822D01*
X197387Y52037D01*
X197660Y52245D01*
X197939Y52446D01*
X198222Y52641D01*
X198510Y52828D01*
X198803Y53008D01*
X199099Y53181D01*
X199400Y53347D01*
X199705Y53505D01*
X200014Y53656D01*
X200327Y53799D01*
X200642Y53934D01*
X200961Y54062D01*
X201284Y54182D01*
X201608Y54293D01*
X201936Y54397D01*
X202266Y54493D01*
X202598Y54580D01*
X202933Y54660D01*
X203269Y54731D01*
X203607Y54794D01*
X203946Y54848D01*
X204286Y54895D01*
X204628Y54933D01*
X204970Y54962D01*
X205313Y54983D01*
X205656Y54996D01*
X206000Y55000D01*
X206344Y54996D01*
X206687Y54983D01*
X207030Y54962D01*
X207372Y54933D01*
X207714Y54895D01*
X208054Y54848D01*
X208393Y54794D01*
X208731Y54731D01*
X209067Y54660D01*
X209402Y54580D01*
X209734Y54493D01*
X210064Y54397D01*
X210392Y54293D01*
X210716Y54182D01*
X211039Y54062D01*
X211358Y53934D01*
X211673Y53799D01*
X211986Y53656D01*
X212295Y53505D01*
X212600Y53347D01*
X212901Y53181D01*
X213197Y53008D01*
X213490Y52828D01*
X213778Y52641D01*
X214061Y52446D01*
X214340Y52245D01*
X214613Y52037D01*
X214882Y51822D01*
X215144Y51601D01*
X215402Y51373D01*
X215654Y51139D01*
X215899Y50899D01*
X216139Y50654D01*
X216373Y50402D01*
X216601Y50144D01*
X216822Y49882D01*
X217037Y49613D01*
X217245Y49340D01*
X217446Y49061D01*
X217641Y48778D01*
X217828Y48490D01*
X218008Y48197D01*
X218181Y47901D01*
X218347Y47600D01*
X218505Y47295D01*
X218656Y46986D01*
X218799Y46673D01*
X218934Y46358D01*
X219062Y46039D01*
X219182Y45716D01*
X219293Y45392D01*
X219397Y45064D01*
X219493Y44734D01*
X219580Y44402D01*
X219660Y44067D01*
X219731Y43731D01*
X219794Y43393D01*
X219848Y43054D01*
X219895Y42714D01*
X219933Y42372D01*
X219962Y42030D01*
X219983Y41687D01*
X219996Y41344D01*
X220000Y41000D01*
X219996Y40656D01*
X219983Y40313D01*
X219962Y39970D01*
X219933Y39628D01*
X219895Y39286D01*
X219848Y38946D01*
X219794Y38607D01*
X219731Y38269D01*
X219660Y37933D01*
X219580Y37598D01*
X219493Y37266D01*
X219397Y36936D01*
X219293Y36608D01*
X219182Y36284D01*
X219062Y35961D01*
X218934Y35642D01*
X218799Y35327D01*
X218656Y35014D01*
X218505Y34705D01*
X218347Y34400D01*
X218181Y34099D01*
X218008Y33803D01*
X217828Y33510D01*
X217641Y33222D01*
X217446Y32939D01*
X217245Y32660D01*
X217037Y32387D01*
X216822Y32118D01*
X216601Y31856D01*
X216373Y31598D01*
X216139Y31346D01*
X215899Y31101D01*
X215654Y30861D01*
X215402Y30627D01*
X215144Y30399D01*
X214882Y30178D01*
X214613Y29963D01*
X214340Y29755D01*
X214061Y29554D01*
X213778Y29359D01*
X213490Y29172D01*
X213197Y28992D01*
X212901Y28819D01*
X212600Y28653D01*
X212295Y28495D01*
X211986Y28344D01*
X211673Y28201D01*
X211358Y28066D01*
X211039Y27938D01*
X210716Y27818D01*
X210392Y27707D01*
X210064Y27603D01*
X209734Y27507D01*
X209402Y27420D01*
X209067Y27340D01*
X208731Y27269D01*
X208393Y27206D01*
X208054Y27152D01*
X207714Y27105D01*
X207372Y27067D01*
X207030Y27038D01*
X206687Y27017D01*
X206344Y27004D01*
X206000Y27000D01*
X205656Y27004D01*
X205313Y27017D01*
X204970Y27038D01*
X204628Y27067D01*
X204286Y27105D01*
X203946Y27152D01*
X203607Y27206D01*
X203269Y27269D01*
X202933Y27340D01*
X202598Y27420D01*
X202266Y27507D01*
X201936Y27603D01*
X201608Y27707D01*
X201284Y27818D01*
X200961Y27938D01*
X200642Y28066D01*
X200327Y28201D01*
X200014Y28344D01*
X199705Y28495D01*
X199400Y28653D01*
X199099Y28819D01*
X198803Y28992D01*
X198510Y29172D01*
X198222Y29359D01*
X197939Y29554D01*
X197660Y29755D01*
X197387Y29963D01*
X197118Y30178D01*
X196856Y30399D01*
X196598Y30627D01*
X196346Y30861D01*
X196101Y31101D01*
X195861Y31346D01*
X195627Y31598D01*
X195399Y31856D01*
X195178Y32118D01*
X194963Y32387D01*
X194755Y32660D01*
X194554Y32939D01*
X194359Y33222D01*
X194172Y33510D01*
X193992Y33803D01*
X193819Y34099D01*
X193653Y34400D01*
X193495Y34705D01*
X193344Y35014D01*
X193201Y35327D01*
X193066Y35642D01*
X192938Y35961D01*
X192818Y36284D01*
X192707Y36608D01*
X192603Y36936D01*
X192507Y37266D01*
X192420Y37598D01*
X192340Y37933D01*
X192269Y38269D01*
X192206Y38607D01*
X192152Y38946D01*
X192105Y39286D01*
X192067Y39628D01*
X192038Y39970D01*
X192017Y40313D01*
X192004Y40656D01*
X192000Y41000D01*
D10*
X202000Y41000D02*
X202002Y41126D01*
X202008Y41252D01*
X202018Y41378D01*
X202032Y41504D01*
X202050Y41629D01*
X202072Y41753D01*
X202097Y41877D01*
X202127Y42000D01*
X202160Y42121D01*
X202198Y42242D01*
X202239Y42361D01*
X202284Y42480D01*
X202332Y42596D01*
X202384Y42711D01*
X202440Y42824D01*
X202500Y42936D01*
X202563Y43045D01*
X202629Y43153D01*
X202698Y43258D01*
X202771Y43361D01*
X202848Y43462D01*
X202927Y43560D01*
X203009Y43656D01*
X203095Y43749D01*
X203183Y43840D01*
X203274Y43927D01*
X203368Y44012D01*
X203464Y44093D01*
X203563Y44172D01*
X203664Y44247D01*
X203768Y44319D01*
X203874Y44388D01*
X203982Y44454D01*
X204092Y44516D01*
X204204Y44574D01*
X204317Y44629D01*
X204433Y44680D01*
X204550Y44728D01*
X204668Y44772D01*
X204788Y44812D01*
X204909Y44848D01*
X205031Y44881D01*
X205154Y44910D01*
X205278Y44934D01*
X205402Y44955D01*
X205527Y44972D01*
X205653Y44985D01*
X205779Y44994D01*
X205905Y44999D01*
X206032Y45000D01*
X206158Y44997D01*
X206284Y44990D01*
X206410Y44979D01*
X206535Y44964D01*
X206660Y44945D01*
X206784Y44922D01*
X206908Y44896D01*
X207030Y44865D01*
X207152Y44831D01*
X207272Y44792D01*
X207391Y44750D01*
X207509Y44705D01*
X207625Y44655D01*
X207740Y44602D01*
X207852Y44545D01*
X207963Y44485D01*
X208072Y44421D01*
X208179Y44354D01*
X208284Y44284D01*
X208387Y44210D01*
X208487Y44133D01*
X208585Y44053D01*
X208680Y43970D01*
X208772Y43884D01*
X208862Y43795D01*
X208949Y43703D01*
X209032Y43609D01*
X209113Y43512D01*
X209191Y43412D01*
X209266Y43310D01*
X209337Y43206D01*
X209405Y43099D01*
X209469Y42991D01*
X209530Y42880D01*
X209588Y42768D01*
X209642Y42654D01*
X209692Y42538D01*
X209739Y42421D01*
X209782Y42302D01*
X209821Y42182D01*
X209857Y42061D01*
X209888Y41938D01*
X209916Y41815D01*
X209940Y41691D01*
X209960Y41566D01*
X209976Y41441D01*
X209988Y41315D01*
X209996Y41189D01*
X210000Y41063D01*
X210000Y40937D01*
X209996Y40811D01*
X209988Y40685D01*
X209976Y40559D01*
X209960Y40434D01*
X209940Y40309D01*
X209916Y40185D01*
X209888Y40062D01*
X209857Y39939D01*
X209821Y39818D01*
X209782Y39698D01*
X209739Y39579D01*
X209692Y39462D01*
X209642Y39346D01*
X209588Y39232D01*
X209530Y39120D01*
X209469Y39009D01*
X209405Y38901D01*
X209337Y38794D01*
X209266Y38690D01*
X209191Y38588D01*
X209113Y38488D01*
X209032Y38391D01*
X208949Y38297D01*
X208862Y38205D01*
X208772Y38116D01*
X208680Y38030D01*
X208585Y37947D01*
X208487Y37867D01*
X208387Y37790D01*
X208284Y37716D01*
X208179Y37646D01*
X208072Y37579D01*
X207963Y37515D01*
X207852Y37455D01*
X207740Y37398D01*
X207625Y37345D01*
X207509Y37295D01*
X207391Y37250D01*
X207272Y37208D01*
X207152Y37169D01*
X207030Y37135D01*
X206908Y37104D01*
X206784Y37078D01*
X206660Y37055D01*
X206535Y37036D01*
X206410Y37021D01*
X206284Y37010D01*
X206158Y37003D01*
X206032Y37000D01*
X205905Y37001D01*
X205779Y37006D01*
X205653Y37015D01*
X205527Y37028D01*
X205402Y37045D01*
X205278Y37066D01*
X205154Y37090D01*
X205031Y37119D01*
X204909Y37152D01*
X204788Y37188D01*
X204668Y37228D01*
X204550Y37272D01*
X204433Y37320D01*
X204317Y37371D01*
X204204Y37426D01*
X204092Y37484D01*
X203982Y37546D01*
X203874Y37612D01*
X203768Y37681D01*
X203664Y37753D01*
X203563Y37828D01*
X203464Y37907D01*
X203368Y37988D01*
X203274Y38073D01*
X203183Y38160D01*
X203095Y38251D01*
X203009Y38344D01*
X202927Y38440D01*
X202848Y38538D01*
X202771Y38639D01*
X202698Y38742D01*
X202629Y38847D01*
X202563Y38955D01*
X202500Y39064D01*
X202440Y39176D01*
X202384Y39289D01*
X202332Y39404D01*
X202284Y39520D01*
X202239Y39639D01*
X202198Y39758D01*
X202160Y39879D01*
X202127Y40000D01*
X202097Y40123D01*
X202072Y40247D01*
X202050Y40371D01*
X202032Y40496D01*
X202018Y40622D01*
X202008Y40748D01*
X202002Y40874D01*
X202000Y41000D01*
D12*
X57250Y478600D02*
X50900Y484950D01*
X69950Y478600D02*
X76300Y484950D01*
X82650Y478600D01*
X95350Y478600D02*
X101700Y484950D01*
X50900Y484950D02*
X50900Y523050D01*
X57250Y529400D01*
X69950Y529400D01*
X76300Y523050D01*
X82650Y529400D01*
X95350Y529400D01*
X101700Y523050D01*
X76300Y523050D02*
X76300Y484950D01*
X101700Y484950D02*
X101700Y523050D01*
X95350Y478600D02*
X82650Y478600D01*
X69950Y478600D02*
X57250Y478600D01*
X101700Y484950D02*
X108050Y478600D01*
X120750Y478600D02*
X127100Y484950D01*
X101700Y523050D02*
X108050Y529400D01*
X120750Y529400D01*
X127100Y523050D01*
X127100Y484950D01*
X120750Y478600D02*
X108050Y478600D01*
D10*
X24000Y214500D02*
X24000Y210500D01*
X26000Y212500D02*
X24000Y214500D01*
X26000Y212500D02*
X24000Y210500D01*
X24500Y246000D02*
X24500Y250000D01*
X26500Y248000D01*
X24500Y246000D01*
X24500Y351500D02*
X24500Y355500D01*
X26500Y353500D01*
X24500Y351500D01*
X24500Y320500D02*
X24500Y316500D01*
X26500Y318500D02*
X24500Y320500D01*
X26500Y318500D02*
X24500Y316500D01*
X24500Y285000D02*
X24500Y281000D01*
X26500Y283000D02*
X24500Y285000D01*
X26500Y283000D02*
X24500Y281000D01*
X24500Y386500D02*
X24500Y390500D01*
X26500Y388500D01*
X24500Y386500D01*
X24500Y421500D02*
X24500Y425500D01*
X26500Y423500D01*
X24500Y421500D01*
D12*
X17340Y479910D02*
X17340Y523090D01*
X37660Y479910D02*
X37658Y479810D01*
X37652Y479711D01*
X37642Y479611D01*
X37629Y479513D01*
X37611Y479414D01*
X37590Y479317D01*
X37565Y479221D01*
X37536Y479125D01*
X37503Y479031D01*
X37467Y478938D01*
X37427Y478847D01*
X37383Y478757D01*
X37336Y478669D01*
X37286Y478583D01*
X37232Y478499D01*
X37175Y478417D01*
X37115Y478338D01*
X37051Y478260D01*
X36985Y478186D01*
X36916Y478114D01*
X36844Y478045D01*
X36770Y477979D01*
X36692Y477915D01*
X36613Y477855D01*
X36531Y477798D01*
X36447Y477744D01*
X36361Y477694D01*
X36273Y477647D01*
X36183Y477603D01*
X36092Y477563D01*
X35999Y477527D01*
X35905Y477494D01*
X35809Y477465D01*
X35713Y477440D01*
X35616Y477419D01*
X35517Y477401D01*
X35419Y477388D01*
X35319Y477378D01*
X35220Y477372D01*
X35120Y477370D01*
X37660Y523090D02*
X37658Y523190D01*
X37652Y523289D01*
X37642Y523389D01*
X37629Y523487D01*
X37611Y523586D01*
X37590Y523683D01*
X37565Y523779D01*
X37536Y523875D01*
X37503Y523969D01*
X37467Y524062D01*
X37427Y524153D01*
X37383Y524243D01*
X37336Y524331D01*
X37286Y524417D01*
X37232Y524501D01*
X37175Y524583D01*
X37115Y524662D01*
X37051Y524740D01*
X36985Y524814D01*
X36916Y524886D01*
X36844Y524955D01*
X36770Y525021D01*
X36692Y525085D01*
X36613Y525145D01*
X36531Y525202D01*
X36447Y525256D01*
X36361Y525306D01*
X36273Y525353D01*
X36183Y525397D01*
X36092Y525437D01*
X35999Y525473D01*
X35905Y525506D01*
X35809Y525535D01*
X35713Y525560D01*
X35616Y525581D01*
X35517Y525599D01*
X35419Y525612D01*
X35319Y525622D01*
X35220Y525628D01*
X35120Y525630D01*
X19880Y525630D02*
X19780Y525628D01*
X19681Y525622D01*
X19581Y525612D01*
X19483Y525599D01*
X19384Y525581D01*
X19287Y525560D01*
X19191Y525535D01*
X19095Y525506D01*
X19001Y525473D01*
X18908Y525437D01*
X18817Y525397D01*
X18727Y525353D01*
X18639Y525306D01*
X18553Y525256D01*
X18469Y525202D01*
X18387Y525145D01*
X18308Y525085D01*
X18230Y525021D01*
X18156Y524955D01*
X18084Y524886D01*
X18015Y524814D01*
X17949Y524740D01*
X17885Y524662D01*
X17825Y524583D01*
X17768Y524501D01*
X17714Y524417D01*
X17664Y524331D01*
X17617Y524243D01*
X17573Y524153D01*
X17533Y524062D01*
X17497Y523969D01*
X17464Y523875D01*
X17435Y523779D01*
X17410Y523683D01*
X17389Y523586D01*
X17371Y523487D01*
X17358Y523389D01*
X17348Y523289D01*
X17342Y523190D01*
X17340Y523090D01*
X17340Y479910D02*
X17342Y479810D01*
X17348Y479711D01*
X17358Y479611D01*
X17371Y479513D01*
X17389Y479414D01*
X17410Y479317D01*
X17435Y479221D01*
X17464Y479125D01*
X17497Y479031D01*
X17533Y478938D01*
X17573Y478847D01*
X17617Y478757D01*
X17664Y478669D01*
X17714Y478583D01*
X17768Y478499D01*
X17825Y478417D01*
X17885Y478338D01*
X17949Y478260D01*
X18015Y478186D01*
X18084Y478114D01*
X18156Y478045D01*
X18230Y477979D01*
X18308Y477915D01*
X18387Y477855D01*
X18469Y477798D01*
X18553Y477744D01*
X18639Y477694D01*
X18727Y477647D01*
X18817Y477603D01*
X18908Y477563D01*
X19001Y477527D01*
X19095Y477494D01*
X19191Y477465D01*
X19287Y477440D01*
X19384Y477419D01*
X19483Y477401D01*
X19581Y477388D01*
X19681Y477378D01*
X19780Y477372D01*
X19880Y477370D01*
X35120Y477370D01*
X35120Y525630D02*
X19880Y525630D01*
X37660Y523090D02*
X37660Y479910D01*
D10*
X129000Y440000D02*
X129000Y380000D01*
X119000Y370000D02*
X59000Y370000D01*
X58520Y440480D02*
X58520Y449370D01*
X58520Y440480D02*
X52170Y440480D01*
X52170Y379520D01*
X58520Y449370D02*
X119480Y449370D01*
D17*
X62330Y444290D02*
X62332Y444361D01*
X62338Y444432D01*
X62348Y444503D01*
X62362Y444573D01*
X62380Y444642D01*
X62401Y444709D01*
X62427Y444776D01*
X62456Y444841D01*
X62488Y444904D01*
X62525Y444966D01*
X62564Y445025D01*
X62607Y445082D01*
X62653Y445136D01*
X62702Y445188D01*
X62754Y445237D01*
X62808Y445283D01*
X62865Y445326D01*
X62924Y445365D01*
X62986Y445402D01*
X63049Y445434D01*
X63114Y445463D01*
X63181Y445489D01*
X63248Y445510D01*
X63317Y445528D01*
X63387Y445542D01*
X63458Y445552D01*
X63529Y445558D01*
X63600Y445560D01*
X63671Y445558D01*
X63742Y445552D01*
X63813Y445542D01*
X63883Y445528D01*
X63952Y445510D01*
X64019Y445489D01*
X64086Y445463D01*
X64151Y445434D01*
X64214Y445402D01*
X64276Y445365D01*
X64335Y445326D01*
X64392Y445283D01*
X64446Y445237D01*
X64498Y445188D01*
X64547Y445136D01*
X64593Y445082D01*
X64636Y445025D01*
X64675Y444966D01*
X64712Y444904D01*
X64744Y444841D01*
X64773Y444776D01*
X64799Y444709D01*
X64820Y444642D01*
X64838Y444573D01*
X64852Y444503D01*
X64862Y444432D01*
X64868Y444361D01*
X64870Y444290D01*
X64868Y444219D01*
X64862Y444148D01*
X64852Y444077D01*
X64838Y444007D01*
X64820Y443938D01*
X64799Y443871D01*
X64773Y443804D01*
X64744Y443739D01*
X64712Y443676D01*
X64675Y443614D01*
X64636Y443555D01*
X64593Y443498D01*
X64547Y443444D01*
X64498Y443392D01*
X64446Y443343D01*
X64392Y443297D01*
X64335Y443254D01*
X64276Y443215D01*
X64214Y443178D01*
X64151Y443146D01*
X64086Y443117D01*
X64019Y443091D01*
X63952Y443070D01*
X63883Y443052D01*
X63813Y443038D01*
X63742Y443028D01*
X63671Y443022D01*
X63600Y443020D01*
X63529Y443022D01*
X63458Y443028D01*
X63387Y443038D01*
X63317Y443052D01*
X63248Y443070D01*
X63181Y443091D01*
X63114Y443117D01*
X63049Y443146D01*
X62986Y443178D01*
X62924Y443215D01*
X62865Y443254D01*
X62808Y443297D01*
X62754Y443343D01*
X62702Y443392D01*
X62653Y443444D01*
X62607Y443498D01*
X62564Y443555D01*
X62525Y443614D01*
X62488Y443676D01*
X62456Y443739D01*
X62427Y443804D01*
X62401Y443871D01*
X62380Y443938D01*
X62362Y444007D01*
X62348Y444077D01*
X62338Y444148D01*
X62332Y444219D01*
X62330Y444290D01*
D12*
X206250Y144138D02*
X212600Y137788D01*
X193550Y144138D02*
X187200Y137788D01*
X180850Y144138D01*
X168150Y144138D02*
X161800Y137788D01*
X155450Y144138D01*
X142750Y144138D02*
X136400Y137788D01*
X130050Y144138D01*
X117350Y144138D02*
X111000Y137788D01*
X104650Y144138D01*
X91950Y144138D02*
X85600Y137788D01*
X79250Y144138D01*
X66550Y144138D02*
X60200Y137788D01*
X212600Y137788D02*
X212600Y99688D01*
X206250Y93338D01*
X193550Y93338D01*
X187200Y99688D01*
X180850Y93338D01*
X168150Y93338D01*
X161800Y99688D01*
X155450Y93338D01*
X142750Y93338D01*
X136400Y99688D01*
X130050Y93338D01*
X117350Y93338D01*
X111000Y99688D01*
X104650Y93338D01*
X91950Y93338D01*
X85600Y99688D01*
X79250Y93338D01*
X66550Y93338D01*
X60200Y99688D01*
X53850Y93338D01*
X41150Y93338D01*
X34800Y99688D01*
X34800Y137788D02*
X41150Y144138D01*
X53850Y144138D02*
X60200Y137788D01*
X187200Y137788D02*
X187200Y99688D01*
X161800Y99688D02*
X161800Y137788D01*
X136400Y137788D02*
X136400Y99688D01*
X111000Y99688D02*
X111000Y137788D01*
X85600Y137788D02*
X85600Y99688D01*
X60200Y99688D02*
X60200Y137788D01*
X34800Y137788D02*
X34800Y99688D01*
X41150Y144138D02*
X53850Y144138D01*
X66550Y144138D02*
X79250Y144138D01*
X91950Y144138D02*
X104650Y144138D01*
X117350Y144138D02*
X130050Y144138D01*
X142750Y144138D02*
X155450Y144138D01*
X168150Y144138D02*
X180850Y144138D01*
X193550Y144138D02*
X206250Y144138D01*
X34800Y99688D02*
X28450Y93338D01*
X15750Y93338D01*
X9400Y99688D01*
X9400Y137788D02*
X15750Y144138D01*
X28450Y144138D02*
X34800Y137788D01*
X9400Y137788D02*
X9400Y99688D01*
X15750Y144138D02*
X28450Y144138D01*
X729955Y463157D02*
X742655Y463157D01*
X729955Y463157D02*
X723605Y469507D01*
X723605Y482207D01*
X729955Y488557D01*
X723605Y469507D02*
X717255Y463157D01*
X704555Y463157D01*
X698205Y469507D01*
X698205Y482207D01*
X704555Y488557D01*
X717255Y488557D01*
X723605Y482207D01*
X749005Y482207D02*
X749005Y469507D01*
X742655Y463157D01*
X749005Y482207D02*
X742655Y488557D01*
X729955Y488557D01*
X698205Y469507D02*
X691855Y463157D01*
X679155Y463157D01*
X672805Y469507D01*
X672805Y482207D01*
X679155Y488557D01*
X691855Y488557D01*
X698205Y482207D01*
D18*
X662500Y488500D02*
X636000Y488500D01*
X636000Y459500D02*
X662500Y459500D01*
D10*
X663000Y485000D02*
X663000Y489000D01*
X663000Y463000D02*
X663000Y459000D01*
X626000Y473000D02*
X626000Y475000D01*
D16*
X99275Y280855D03*
D15*
X106103Y284147D02*
X101465Y288786D01*
X106103Y293424D01*
X201167Y388488D02*
X205805Y383849D01*
X201167Y388488D02*
X196528Y383849D01*
X296230Y293424D02*
X300869Y288786D01*
X296230Y284147D01*
X201167Y189084D02*
X196528Y193722D01*
X201167Y189084D02*
X205805Y193722D01*
D19*
X724445Y155000D03*
D20*
X726985Y155000D03*
D21*
X729208Y155000D03*
D22*
X730808Y155000D03*
X732713Y155000D03*
X736523Y155000D03*
X740968Y155000D03*
D21*
X746353Y155000D03*
D20*
X747940Y155000D03*
D22*
X749858Y155000D03*
D23*
X754303Y155000D03*
D19*
X724445Y155635D03*
D20*
X726985Y155635D03*
D22*
X728268Y155635D03*
X730808Y155635D03*
X732713Y155635D03*
D20*
X735875Y155635D03*
D22*
X737793Y155635D03*
D24*
X740650Y155635D03*
D25*
X743178Y155635D03*
D22*
X745413Y155635D03*
D20*
X747940Y155635D03*
D22*
X749858Y155635D03*
X753033Y155635D03*
D19*
X724445Y156270D03*
D20*
X726985Y156270D03*
D22*
X728268Y156270D03*
X730808Y156270D03*
X732713Y156270D03*
D20*
X735875Y156270D03*
D22*
X737793Y156270D03*
D24*
X740650Y156270D03*
D25*
X743178Y156270D03*
D22*
X745413Y156270D03*
D20*
X747940Y156270D03*
D22*
X749858Y156270D03*
X753033Y156270D03*
D19*
X724445Y156905D03*
D20*
X726985Y156905D03*
D26*
X729855Y156905D03*
D22*
X732713Y156905D03*
D20*
X735875Y156905D03*
D22*
X737793Y156905D03*
X741603Y156905D03*
X744143Y156905D03*
D26*
X747000Y156905D03*
D22*
X749858Y156905D03*
D27*
X754303Y156905D03*
D19*
X724445Y157540D03*
D20*
X726985Y157540D03*
D22*
X730808Y157540D03*
X732713Y157540D03*
D20*
X735875Y157540D03*
D22*
X737793Y157540D03*
D20*
X739685Y157540D03*
D21*
X741908Y157540D03*
D22*
X744143Y157540D03*
D20*
X747940Y157540D03*
D22*
X749858Y157540D03*
X753033Y157540D03*
X755573Y157540D03*
D24*
X724775Y158175D03*
X726680Y158175D03*
D19*
X728890Y158175D03*
D22*
X730808Y158175D03*
D21*
X733018Y158175D03*
D20*
X735875Y158175D03*
D22*
X737793Y158175D03*
D20*
X739685Y158175D03*
D21*
X741908Y158175D03*
D22*
X744143Y158175D03*
D20*
X747940Y158175D03*
D21*
X750163Y158175D03*
D22*
X753033Y158175D03*
X754938Y158175D03*
D19*
X724445Y158810D03*
D22*
X725728Y158810D03*
D25*
X729843Y158810D03*
D22*
X732713Y158810D03*
D25*
X734288Y158810D03*
D22*
X736523Y158810D03*
X737793Y158810D03*
D20*
X739685Y158810D03*
D28*
X746670Y158810D03*
D22*
X749858Y158810D03*
D25*
X751433Y158810D03*
D24*
X753985Y158810D03*
D19*
X724445Y159445D03*
D22*
X737793Y159445D03*
D19*
X724445Y160080D03*
D22*
X737793Y160080D03*
D19*
X724445Y160715D03*
X724445Y161350D03*
D29*
X721588Y161985D03*
X725398Y161985D03*
D26*
X729855Y161985D03*
D22*
X732713Y161985D03*
D19*
X735240Y161985D03*
D27*
X739698Y161985D03*
D30*
X743813Y161985D03*
D27*
X747953Y161985D03*
D22*
X751102Y161985D03*
D26*
X755255Y161985D03*
D30*
X758418Y161985D03*
D20*
X720000Y162620D03*
D19*
X722540Y162620D03*
X724445Y162620D03*
D20*
X726985Y162620D03*
D22*
X728268Y162620D03*
X732713Y162620D03*
D19*
X735240Y162620D03*
D22*
X740968Y162620D03*
D19*
X742225Y162620D03*
D22*
X744778Y162620D03*
D19*
X746670Y162620D03*
D22*
X749223Y162620D03*
X751102Y162620D03*
X753668Y162620D03*
X757452Y162620D03*
D20*
X720000Y163255D03*
D19*
X722540Y163255D03*
X724445Y163255D03*
D20*
X726985Y163255D03*
D22*
X728268Y163255D03*
X732713Y163255D03*
D19*
X735240Y163255D03*
D31*
X740320Y163255D03*
D19*
X742225Y163255D03*
D22*
X744778Y163255D03*
D19*
X746670Y163255D03*
D22*
X749223Y163255D03*
X751102Y163255D03*
X753668Y163255D03*
X757452Y163255D03*
D20*
X720000Y163890D03*
D19*
X722540Y163890D03*
X724445Y163890D03*
D20*
X726985Y163890D03*
D22*
X728268Y163890D03*
X730808Y163890D03*
X732713Y163890D03*
D19*
X735240Y163890D03*
D21*
X738733Y163890D03*
D19*
X742225Y163890D03*
D22*
X744778Y163890D03*
D19*
X746670Y163890D03*
D22*
X749223Y163890D03*
X751102Y163890D03*
X753668Y163890D03*
X757452Y163890D03*
X760018Y163890D03*
D24*
X720305Y164525D03*
D19*
X722540Y164525D03*
X724445Y164525D03*
D20*
X726985Y164525D03*
D22*
X728268Y164525D03*
X730808Y164525D03*
X732713Y164525D03*
D21*
X734923Y164525D03*
D19*
X738415Y164525D03*
X742225Y164525D03*
D22*
X744778Y164525D03*
D19*
X746670Y164525D03*
D22*
X749223Y164525D03*
X751102Y164525D03*
X753668Y164525D03*
X757452Y164525D03*
X760018Y164525D03*
D23*
X721283Y165160D03*
D29*
X725398Y165160D03*
D23*
X729538Y165160D03*
D26*
X733665Y165160D03*
D30*
X740003Y165160D03*
D31*
X743495Y165160D03*
D19*
X746670Y165160D03*
D22*
X749223Y165160D03*
D31*
X751750Y165160D03*
D26*
X755255Y165160D03*
D31*
X758735Y165160D03*
D25*
X730478Y169605D03*
D24*
X749540Y169605D03*
D22*
X729512Y170240D03*
D24*
X731760Y170240D03*
D25*
X748258Y170240D03*
D19*
X750480Y170240D03*
X728890Y170875D03*
D22*
X732713Y170875D03*
D21*
X734923Y170875D03*
D24*
X745095Y170875D03*
D22*
X747292Y170875D03*
X751102Y170875D03*
X728268Y171510D03*
D24*
X733665Y171510D03*
D19*
X735240Y171510D03*
D22*
X744778Y171510D03*
D21*
X746353Y171510D03*
D20*
X751750Y171510D03*
D24*
X727950Y172145D03*
D20*
X735875Y172145D03*
D22*
X744143Y172145D03*
D25*
X752068Y172145D03*
D22*
X728268Y172780D03*
D20*
X735875Y172780D03*
D22*
X744143Y172780D03*
D20*
X751750Y172780D03*
D19*
X728890Y173415D03*
D22*
X736523Y173415D03*
D20*
X743495Y173415D03*
D22*
X751102Y173415D03*
X729512Y174050D03*
X736523Y174050D03*
D20*
X743495Y174050D03*
D19*
X750480Y174050D03*
D22*
X729512Y174685D03*
D24*
X736840Y174685D03*
D20*
X743495Y174685D03*
D19*
X750480Y174685D03*
D20*
X730160Y175320D03*
D22*
X737158Y175320D03*
X742847Y175320D03*
X749858Y175320D03*
X729512Y175955D03*
X737158Y175955D03*
X742847Y175955D03*
D19*
X750480Y175955D03*
D22*
X729512Y176590D03*
X737793Y176590D03*
D19*
X742225Y176590D03*
X750480Y176590D03*
D22*
X729512Y177225D03*
D24*
X737475Y177225D03*
D21*
X742543Y177225D03*
D19*
X750480Y177225D03*
X728890Y177860D03*
D24*
X736840Y177860D03*
D25*
X743178Y177860D03*
D22*
X751102Y177860D03*
D19*
X728890Y178495D03*
D25*
X736193Y178495D03*
X743813Y178495D03*
D22*
X751102Y178495D03*
D26*
X727315Y179130D03*
D20*
X735875Y179130D03*
D22*
X744143Y179130D03*
D30*
X752703Y179130D03*
D24*
X724775Y179765D03*
D19*
X735240Y179765D03*
D22*
X744778Y179765D03*
D24*
X755255Y179765D03*
D19*
X724445Y180400D03*
X735240Y180400D03*
D22*
X744778Y180400D03*
X755573Y180400D03*
D19*
X724445Y181035D03*
X735240Y181035D03*
D22*
X744778Y181035D03*
X755573Y181035D03*
D19*
X724445Y181670D03*
X735240Y181670D03*
D22*
X744778Y181670D03*
X755573Y181670D03*
D19*
X724445Y182305D03*
X735240Y182305D03*
D22*
X744778Y182305D03*
X755573Y182305D03*
D24*
X724775Y182940D03*
D19*
X735240Y182940D03*
D22*
X744778Y182940D03*
D24*
X755255Y182940D03*
D32*
X726350Y183575D03*
D20*
X735875Y183575D03*
D22*
X744143Y183575D03*
D27*
X753668Y183575D03*
D21*
X728573Y184210D03*
D20*
X735875Y184210D03*
D22*
X744143Y184210D03*
D25*
X751433Y184210D03*
D19*
X728890Y184845D03*
D22*
X736523Y184845D03*
D20*
X743495Y184845D03*
D22*
X751102Y184845D03*
X729512Y185480D03*
D24*
X737475Y185480D03*
D21*
X742543Y185480D03*
D19*
X750480Y185480D03*
D22*
X729512Y186115D03*
D33*
X740015Y186115D03*
D19*
X750480Y186115D03*
D20*
X730160Y186750D03*
D21*
X750163Y186750D03*
D20*
X730160Y187385D03*
D22*
X749858Y187385D03*
D20*
X730160Y188020D03*
D22*
X749858Y188020D03*
X729512Y188655D03*
D19*
X750480Y188655D03*
X728890Y189290D03*
D22*
X751102Y189290D03*
D21*
X728573Y189925D03*
D25*
X751433Y189925D03*
D22*
X728268Y190560D03*
D20*
X751750Y190560D03*
D24*
X727950Y191195D03*
D23*
X733983Y191195D03*
D28*
X746035Y191195D03*
D25*
X752068Y191195D03*
D21*
X728573Y191830D03*
X733018Y191830D03*
D23*
X735888Y191830D03*
D24*
X744460Y191830D03*
D21*
X746988Y191830D03*
D25*
X751433Y191830D03*
D21*
X729208Y192465D03*
D20*
X732065Y192465D03*
D24*
X736840Y192465D03*
D25*
X743178Y192465D03*
X748258Y192465D03*
D21*
X750798Y192465D03*
D26*
X730465Y193100D03*
D22*
X737793Y193100D03*
D21*
X742543Y193100D03*
D29*
X749528Y193100D03*
D25*
X730478Y193735D03*
D22*
X737793Y193735D03*
D19*
X742225Y193735D03*
D22*
X749858Y193735D03*
X737793Y194370D03*
D19*
X742225Y194370D03*
D22*
X737793Y195005D03*
D19*
X742225Y195005D03*
D22*
X737793Y195640D03*
D19*
X742225Y195640D03*
X738415Y196275D03*
D21*
X741908Y196275D03*
D33*
X740015Y196910D03*
M02*
