G04 EAGLE Gerber RS-274X export*
G75*
%MOMM*%
%FSLAX34Y34*%
%LPD*%
%INSoldermask Bottom*%
%IPPOS*%
%AMOC8*
5,1,8,0,0,1.08239X$1,22.5*%
G01*
%ADD10C,2.006600*%
%ADD11P,2.171924X8X112.500000*%
%ADD12C,3.327000*%
%ADD13C,1.016000*%
%ADD14P,1.787026X8X22.500000*%
%ADD15R,1.027000X1.027000*%
%ADD16P,1.787026X8X202.500000*%
%ADD17C,1.651000*%
%ADD18R,1.698900X0.533800*%
%ADD19R,1.427000X1.627000*%
%ADD20C,0.681000*%


D10*
X762000Y25400D03*
X787400Y25400D03*
X812800Y25400D03*
X838200Y25400D03*
X863600Y25400D03*
X889000Y25400D03*
X914400Y25400D03*
X736600Y25400D03*
X711200Y508000D03*
X736600Y508000D03*
X762000Y508000D03*
X787400Y508000D03*
X812800Y508000D03*
X838200Y508000D03*
X863600Y508000D03*
X685800Y508000D03*
X533400Y25400D03*
X558800Y25400D03*
X584200Y25400D03*
X609600Y25400D03*
X635000Y25400D03*
X660400Y25400D03*
X685800Y25400D03*
X508000Y25400D03*
X482600Y508000D03*
X508000Y508000D03*
X533400Y508000D03*
X558800Y508000D03*
X584200Y508000D03*
X609600Y508000D03*
X635000Y508000D03*
X457200Y508000D03*
X264160Y508000D03*
X289560Y508000D03*
X314960Y508000D03*
X340360Y508000D03*
X365760Y508000D03*
X391160Y508000D03*
X416560Y508000D03*
X238760Y508000D03*
D11*
X965200Y304800D03*
X939800Y304800D03*
X965200Y330200D03*
X939800Y330200D03*
X965200Y355600D03*
X939800Y355600D03*
X965200Y381000D03*
X939800Y381000D03*
X965200Y406400D03*
X939800Y406400D03*
X965200Y431800D03*
X939800Y431800D03*
X965200Y457200D03*
X939800Y457200D03*
X965200Y482600D03*
X939800Y482600D03*
X965200Y101600D03*
X939800Y101600D03*
X965200Y127000D03*
X939800Y127000D03*
X965200Y152400D03*
X939800Y152400D03*
X965200Y177800D03*
X939800Y177800D03*
X965200Y203200D03*
X939800Y203200D03*
X965200Y228600D03*
X939800Y228600D03*
X965200Y254000D03*
X939800Y254000D03*
X965200Y279400D03*
X939800Y279400D03*
D10*
X939800Y76200D03*
X965200Y76200D03*
X939800Y508000D03*
X965200Y508000D03*
X330200Y25400D03*
X355600Y25400D03*
X381000Y25400D03*
X406400Y25400D03*
X431800Y25400D03*
X457200Y25400D03*
X213360Y508000D03*
X187960Y508000D03*
X304800Y25400D03*
X279400Y25400D03*
D12*
X152400Y508000D03*
X139700Y25400D03*
X660400Y355600D03*
X660400Y76200D03*
X901700Y508000D03*
X965200Y25400D03*
D13*
X72986Y46500D03*
X43014Y46500D03*
D14*
X63600Y491300D03*
X63600Y516700D03*
X89000Y491300D03*
X89000Y516700D03*
X114400Y491300D03*
X114400Y516700D03*
D15*
X127100Y371900D03*
X127100Y448100D03*
X50900Y448100D03*
X50900Y371900D03*
D16*
X199900Y131438D03*
X199900Y106038D03*
X174500Y131438D03*
X174500Y106038D03*
X149100Y131438D03*
X149100Y106038D03*
X123700Y131438D03*
X123700Y106038D03*
X98300Y131438D03*
X98300Y106038D03*
X72900Y131438D03*
X72900Y106038D03*
X47500Y131438D03*
X47500Y106038D03*
X22100Y131438D03*
X22100Y106038D03*
D17*
X736305Y468237D02*
X736305Y483477D01*
X710905Y483477D02*
X710905Y468237D01*
X685505Y468237D02*
X685505Y483477D01*
D18*
X805615Y308535D03*
X805615Y315035D03*
X805615Y321535D03*
X805615Y328035D03*
X805615Y334535D03*
X805615Y341035D03*
X805615Y347535D03*
X805615Y354035D03*
X805615Y360535D03*
X805615Y367035D03*
X863049Y367035D03*
X863049Y360535D03*
X863049Y354035D03*
X863049Y347535D03*
X863049Y341035D03*
X863049Y334535D03*
X863049Y328035D03*
X863049Y321535D03*
X863049Y315035D03*
X863049Y308535D03*
X806237Y212488D03*
X806237Y218988D03*
X806237Y225488D03*
X806237Y231988D03*
X806237Y238488D03*
X806237Y244988D03*
X806237Y251488D03*
X806237Y257988D03*
X806237Y264488D03*
X806237Y270988D03*
X863671Y270988D03*
X863671Y264488D03*
X863671Y257988D03*
X863671Y251488D03*
X863671Y244988D03*
X863671Y238488D03*
X863671Y231988D03*
X863671Y225488D03*
X863671Y218988D03*
X863671Y212488D03*
X806283Y100750D03*
X806283Y107250D03*
X806283Y113750D03*
X806283Y120250D03*
X806283Y126750D03*
X806283Y133250D03*
X806283Y139750D03*
X806283Y146250D03*
X806283Y152750D03*
X806283Y159250D03*
X863717Y159250D03*
X863717Y152750D03*
X863717Y146250D03*
X863717Y139750D03*
X863717Y133250D03*
X863717Y126750D03*
X863717Y120250D03*
X863717Y113750D03*
X863717Y107250D03*
X863717Y100750D03*
X325073Y194155D03*
X325073Y187655D03*
X325073Y181155D03*
X325073Y174655D03*
X325073Y168155D03*
X325073Y161655D03*
X325073Y155155D03*
X325073Y148655D03*
X325073Y142155D03*
X325073Y135655D03*
X267639Y135655D03*
X267639Y142155D03*
X267639Y148655D03*
X267639Y155155D03*
X267639Y161655D03*
X267639Y168155D03*
X267639Y174655D03*
X267639Y181155D03*
X267639Y187655D03*
X267639Y194155D03*
X325311Y102083D03*
X325311Y95583D03*
X325311Y89083D03*
X325311Y82583D03*
X325311Y76083D03*
X325311Y69583D03*
X325311Y63083D03*
X325311Y56583D03*
X325311Y50083D03*
X325311Y43583D03*
X267877Y43583D03*
X267877Y50083D03*
X267877Y56583D03*
X267877Y63083D03*
X267877Y69583D03*
X267877Y76083D03*
X267877Y82583D03*
X267877Y89083D03*
X267877Y95583D03*
X267877Y102083D03*
X806425Y420678D03*
X806425Y427178D03*
X806425Y433678D03*
X806425Y440178D03*
X806425Y446678D03*
X806425Y453178D03*
X806425Y459678D03*
X806425Y466178D03*
X806425Y472678D03*
X806425Y479178D03*
X863859Y479178D03*
X863859Y472678D03*
X863859Y466178D03*
X863859Y459678D03*
X863859Y453178D03*
X863859Y446678D03*
X863859Y440178D03*
X863859Y433678D03*
X863859Y427178D03*
X863859Y420678D03*
D19*
X778761Y107499D03*
X759761Y107499D03*
X779261Y219119D03*
X760261Y219119D03*
X779261Y425738D03*
X760261Y425738D03*
X350739Y188143D03*
X369739Y188143D03*
X779261Y314976D03*
X760261Y314976D03*
X350739Y95905D03*
X369739Y95905D03*
X890261Y107214D03*
X909261Y107214D03*
X890239Y315167D03*
X909239Y315167D03*
X890239Y427048D03*
X909239Y427048D03*
X890239Y218929D03*
X909239Y218929D03*
X246761Y187690D03*
X227761Y187690D03*
X244261Y94310D03*
X225261Y94310D03*
D20*
X380000Y130000D03*
X733500Y436000D03*
X393000Y359000D03*
X445500Y359000D03*
X444000Y345000D03*
X453000Y331000D03*
X464000Y317000D03*
X455000Y205000D03*
X451500Y229000D03*
X476500Y249000D03*
X506500Y294000D03*
X591000Y301000D03*
X735000Y217000D03*
X922000Y211500D03*
X744000Y313500D03*
X921000Y305500D03*
X921000Y421500D03*
X747500Y425500D03*
X166500Y448500D03*
X188500Y366000D03*
X333500Y303500D03*
X330000Y359500D03*
X480000Y65000D03*
X436000Y278000D03*
X233500Y278000D03*
X219500Y227500D03*
X225000Y334500D03*
X104500Y372000D03*
X212500Y183000D03*
X726000Y106500D03*
X924000Y107000D03*
X207000Y272500D03*
X275500Y124000D03*
X792000Y107000D03*
X514500Y96500D03*
X825000Y235000D03*
X850000Y280000D03*
X850000Y375000D03*
X850000Y474500D03*
X564529Y166000D03*
X850000Y320000D03*
X850000Y435000D03*
X850000Y165000D03*
X296500Y135500D03*
X340500Y40500D03*
X819500Y427000D03*
X296500Y97500D03*
X166500Y262500D03*
X443000Y144000D03*
X485000Y155000D03*
X505500Y155000D03*
X736500Y205500D03*
X327500Y215046D03*
X386721Y201429D03*
X602500Y166500D03*
X195500Y190000D03*
X413025Y185025D03*
X438652Y213000D03*
X547500Y207500D03*
X571190Y175888D03*
X792500Y232000D03*
X393500Y303000D03*
X392500Y289500D03*
X533500Y302000D03*
X546000Y289500D03*
X331475Y229125D03*
X398056Y199870D03*
X611500Y169000D03*
X746500Y237944D03*
X433500Y316396D03*
X398780Y433780D03*
X553000Y317396D03*
X550005Y429005D03*
X367528Y316972D03*
X411000Y266000D03*
X612000Y176500D03*
X757500Y245000D03*
X441500Y318000D03*
X403936Y438614D03*
X562500Y317500D03*
X554500Y434500D03*
X618000Y182000D03*
X746000Y252944D03*
X411936Y330914D03*
X409870Y434558D03*
X566936Y331396D03*
X566744Y407436D03*
X616304Y194196D03*
X757500Y258000D03*
X419000Y331000D03*
X410918Y441622D03*
X574000Y331000D03*
X561808Y435436D03*
X624557Y196760D03*
X745500Y264500D03*
X427500Y344500D03*
X417982Y441622D03*
X580500Y345396D03*
X568872Y435000D03*
X647493Y224507D03*
X745000Y305000D03*
X613000Y345500D03*
X616564Y434801D03*
X459500Y347500D03*
X459000Y435000D03*
X640429Y226500D03*
X744500Y322944D03*
X465000Y356500D03*
X469436Y435436D03*
X616723Y358723D03*
X624350Y435436D03*
X611500Y199500D03*
X792000Y328000D03*
X623798Y358798D03*
X629000Y269000D03*
X475500Y361500D03*
X480745Y279056D03*
X610005Y206495D03*
X745000Y334500D03*
X624000Y372500D03*
X631500Y435436D03*
X470000Y373500D03*
X476500Y435000D03*
X612419Y213559D03*
X756500Y342479D03*
X584000Y373000D03*
X575936Y435436D03*
X432500Y373500D03*
X425132Y441622D03*
X629004Y237996D03*
X744500Y349000D03*
X606500Y388000D03*
X609500Y435000D03*
X454500Y387500D03*
X450500Y430436D03*
X628500Y247000D03*
X755000Y354944D03*
X438000Y387000D03*
X429000Y435500D03*
X592000Y387500D03*
X583000Y433500D03*
X623000Y252500D03*
X373893Y279607D03*
X482769Y288231D03*
X489500Y192000D03*
X582000Y254000D03*
X616500Y268000D03*
X592740Y197240D03*
X374889Y288102D03*
X481444Y296800D03*
X483952Y197500D03*
X585577Y197253D03*
X550436Y256155D03*
X575000Y258492D03*
X385384Y271097D03*
X450135Y268936D03*
X478500Y202373D03*
X568500Y231500D03*
X585491Y190189D03*
X390501Y276224D03*
X448194Y276000D03*
X473071Y207429D03*
X563000Y225500D03*
X578427Y190102D03*
X397448Y272788D03*
X439064Y271000D03*
X467500Y211848D03*
X558000Y220000D03*
X578340Y183038D03*
X403613Y269000D03*
X427750Y267500D03*
X447500Y212896D03*
X553000Y212500D03*
X571276Y182952D03*
X194980Y204020D03*
X395000Y232540D03*
X437000Y225000D03*
X542000Y201500D03*
X564126Y175802D03*
X293500Y174000D03*
X347500Y56500D03*
X346000Y69500D03*
X340500Y82500D03*
X310500Y118000D03*
X343000Y50000D03*
X342000Y63000D03*
X348645Y81855D03*
X311495Y89005D03*
X356500Y161500D03*
X311000Y168000D03*
X307882Y181436D03*
X355000Y149000D03*
X343000Y165000D03*
X311500Y175064D03*
X300818Y181683D03*
X745000Y360000D03*
X629000Y257556D03*
X740000Y440000D03*
X449000Y407008D03*
X601444Y407008D03*
X219758Y356796D03*
X553500Y112500D03*
X213064Y353500D03*
X424000Y129000D03*
X513000Y146500D03*
X535000Y169500D03*
X290000Y75000D03*
X372064Y139000D03*
X460500Y150500D03*
X525000Y140000D03*
X176500Y269000D03*
X471000Y274500D03*
X183500Y270000D03*
X623500Y277500D03*
X175000Y246500D03*
X433000Y131500D03*
X167500Y255000D03*
X461500Y114500D03*
X200056Y414934D03*
X205112Y394500D03*
X746000Y226944D03*
X329000Y222110D03*
X390216Y192934D03*
X396500Y280000D03*
X381000Y302952D03*
X608175Y161825D03*
X551000Y295500D03*
X542747Y302753D03*
X195000Y410000D03*
X44500Y265500D03*
X195000Y420000D03*
X44500Y300500D03*
X195000Y430000D03*
X50000Y336000D03*
X195000Y440000D03*
X50000Y385000D03*
X195000Y450000D03*
X49000Y406500D03*
X195000Y390000D03*
X45000Y195000D03*
X195000Y400000D03*
X44500Y230500D03*
X421500Y120500D03*
X120000Y185807D03*
X142495Y267495D03*
X876500Y107000D03*
X877000Y218988D03*
X877000Y427178D03*
X876000Y315035D03*
M02*
