G04 EAGLE Gerber RS-274X export*
G75*
%MOMM*%
%FSLAX34Y34*%
%LPD*%
%INSolderpaste Top*%
%IPPOS*%
%AMOC8*
5,1,8,0,0,1.08239X$1,22.5*%
G01*
%ADD10R,0.600000X0.600000*%
%ADD11R,0.812800X0.990600*%
%ADD12R,1.498600X0.711200*%
%ADD13R,0.900000X0.700000*%
%ADD14R,0.700000X0.900000*%
%ADD15R,0.280000X1.336400*%
%ADD16R,0.547100X1.558800*%
%ADD17R,1.558800X0.547100*%
%ADD18R,1.599800X0.280000*%
%ADD19R,0.280000X1.599800*%
%ADD20R,0.700000X0.600000*%
%ADD21R,0.800000X0.750000*%
%ADD22R,0.600000X0.700000*%
%ADD23R,1.168400X1.600200*%
%ADD24R,1.500000X1.600000*%
%ADD25R,1.200000X1.200000*%


D10*
X99550Y30100D03*
X57050Y30100D03*
X57050Y65100D03*
X99550Y65100D03*
D11*
X26721Y435551D03*
X46279Y435551D03*
D12*
X53899Y449394D03*
X53899Y464380D03*
X53899Y494352D03*
D11*
X46279Y508449D03*
X26721Y508449D03*
D13*
X27200Y88000D03*
X27200Y75000D03*
D14*
X35500Y300800D03*
X22500Y300800D03*
D15*
X508550Y332894D03*
X503050Y332894D03*
X497550Y332894D03*
X492050Y332894D03*
X486550Y332894D03*
X481050Y332894D03*
X475550Y332894D03*
X470050Y332894D03*
X464550Y332894D03*
X459050Y332894D03*
X453550Y332894D03*
X448050Y332894D03*
X442550Y332894D03*
X437050Y332894D03*
X437050Y203106D03*
X442550Y203106D03*
X448050Y203106D03*
X453550Y203106D03*
X459050Y203106D03*
X464550Y203106D03*
X470050Y203106D03*
X475550Y203106D03*
X481050Y203106D03*
X486550Y203106D03*
X492050Y203106D03*
X497550Y203106D03*
X503050Y203106D03*
X508550Y203106D03*
X373250Y329894D03*
X367750Y329894D03*
X362250Y329894D03*
X356750Y329894D03*
X351250Y329894D03*
X345750Y329894D03*
X340250Y329894D03*
X334750Y329894D03*
X329250Y329894D03*
X323750Y329894D03*
X318250Y329894D03*
X312750Y329894D03*
X307250Y329894D03*
X301750Y329894D03*
X301750Y200106D03*
X307250Y200106D03*
X312750Y200106D03*
X318250Y200106D03*
X323750Y200106D03*
X329250Y200106D03*
X334750Y200106D03*
X340250Y200106D03*
X345750Y200106D03*
X351250Y200106D03*
X356750Y200106D03*
X362250Y200106D03*
X367750Y200106D03*
X373250Y200106D03*
D16*
X871000Y313783D03*
X863000Y313783D03*
X855000Y313783D03*
X847000Y313783D03*
X839000Y313783D03*
X831000Y313783D03*
X823000Y313783D03*
X815000Y313783D03*
X807000Y313783D03*
X799000Y313783D03*
X791000Y313783D03*
D17*
X774217Y297000D03*
X774217Y289000D03*
X774217Y281000D03*
X774217Y273000D03*
X774217Y265000D03*
X774217Y257000D03*
X774217Y249000D03*
X774217Y241000D03*
X774217Y233000D03*
X774217Y225000D03*
X774217Y217000D03*
D16*
X791000Y200217D03*
X799000Y200217D03*
X807000Y200217D03*
X815000Y200217D03*
X823000Y200217D03*
X831000Y200217D03*
X839000Y200217D03*
X847000Y200217D03*
X855000Y200217D03*
X863000Y200217D03*
X871000Y200217D03*
D17*
X887783Y217000D03*
X887783Y225000D03*
X887783Y233000D03*
X887783Y241000D03*
X887783Y249000D03*
X887783Y257000D03*
X887783Y265000D03*
X887783Y273000D03*
X887783Y281000D03*
X887783Y289000D03*
X887783Y297000D03*
D18*
X60687Y330000D03*
X60687Y325000D03*
X60687Y320000D03*
X60687Y315000D03*
X60687Y310000D03*
X60687Y305000D03*
X60687Y300000D03*
X60687Y295000D03*
X60687Y290000D03*
X60687Y285000D03*
X60687Y280000D03*
X60687Y275000D03*
X60687Y270000D03*
X60687Y265000D03*
X60687Y260000D03*
X60687Y255000D03*
X60687Y250000D03*
X60687Y245000D03*
X60687Y240000D03*
X60687Y235000D03*
X60687Y230000D03*
X60687Y225000D03*
X60687Y220000D03*
X60687Y215000D03*
X60687Y210000D03*
D19*
X77500Y193187D03*
X82500Y193187D03*
X87500Y193187D03*
X92500Y193187D03*
X97500Y193187D03*
X102500Y193187D03*
X107500Y193187D03*
X112500Y193187D03*
X117500Y193187D03*
X122500Y193187D03*
X127500Y193187D03*
X132500Y193187D03*
X137500Y193187D03*
X142500Y193187D03*
X147500Y193187D03*
X152500Y193187D03*
X157500Y193187D03*
X162500Y193187D03*
X167500Y193187D03*
X172500Y193187D03*
X177500Y193187D03*
X182500Y193187D03*
X187500Y193187D03*
X192500Y193187D03*
X197500Y193187D03*
D18*
X214313Y210000D03*
X214313Y215000D03*
X214313Y220000D03*
X214313Y225000D03*
X214313Y230000D03*
X214313Y235000D03*
X214313Y240000D03*
X214313Y245000D03*
X214313Y250000D03*
X214313Y255000D03*
X214313Y260000D03*
X214313Y265000D03*
X214313Y270000D03*
X214313Y275000D03*
X214313Y280000D03*
X214313Y285000D03*
X214313Y290000D03*
X214313Y295000D03*
X214313Y300000D03*
X214313Y305000D03*
X214313Y310000D03*
X214313Y315000D03*
X214313Y320000D03*
X214313Y325000D03*
X214313Y330000D03*
D19*
X197500Y346813D03*
X192500Y346813D03*
X187500Y346813D03*
X182500Y346813D03*
X177500Y346813D03*
X172500Y346813D03*
X167500Y346813D03*
X162500Y346813D03*
X157500Y346813D03*
X152500Y346813D03*
X147500Y346813D03*
X142500Y346813D03*
X137500Y346813D03*
X132500Y346813D03*
X127500Y346813D03*
X122500Y346813D03*
X117500Y346813D03*
X112500Y346813D03*
X107500Y346813D03*
X102500Y346813D03*
X97500Y346813D03*
X92500Y346813D03*
X87500Y346813D03*
X82500Y346813D03*
X77500Y346813D03*
D17*
X726783Y131000D03*
X726783Y139000D03*
X726783Y147000D03*
X726783Y155000D03*
X726783Y163000D03*
X726783Y171000D03*
X726783Y179000D03*
X726783Y187000D03*
X726783Y195000D03*
X726783Y203000D03*
X726783Y211000D03*
D16*
X710000Y227783D03*
X702000Y227783D03*
X694000Y227783D03*
X686000Y227783D03*
X678000Y227783D03*
X670000Y227783D03*
X662000Y227783D03*
X654000Y227783D03*
X646000Y227783D03*
X638000Y227783D03*
X630000Y227783D03*
D17*
X613217Y211000D03*
X613217Y203000D03*
X613217Y195000D03*
X613217Y187000D03*
X613217Y179000D03*
X613217Y171000D03*
X613217Y163000D03*
X613217Y155000D03*
X613217Y147000D03*
X613217Y139000D03*
X613217Y131000D03*
D16*
X630000Y114217D03*
X638000Y114217D03*
X646000Y114217D03*
X654000Y114217D03*
X662000Y114217D03*
X670000Y114217D03*
X678000Y114217D03*
X686000Y114217D03*
X694000Y114217D03*
X702000Y114217D03*
X710000Y114217D03*
D20*
X200000Y152000D03*
X200000Y142000D03*
D10*
X53500Y407250D03*
X53500Y364750D03*
X18500Y364750D03*
X18500Y407250D03*
D20*
X123000Y126500D03*
X123000Y136500D03*
D21*
X109000Y480500D03*
X93000Y480500D03*
X109000Y465500D03*
X93000Y465500D03*
X109000Y450000D03*
X93000Y450000D03*
X108000Y434000D03*
X92000Y434000D03*
X196000Y482000D03*
X212000Y482000D03*
X196000Y466500D03*
X212000Y466500D03*
X196000Y452500D03*
X212000Y452500D03*
D22*
X148500Y470000D03*
X158500Y470000D03*
X148500Y481000D03*
X158500Y481000D03*
X158500Y437000D03*
X148500Y437000D03*
X148500Y426000D03*
X158500Y426000D03*
X158500Y459000D03*
X148500Y459000D03*
X148500Y414500D03*
X158500Y414500D03*
X158500Y448000D03*
X148500Y448000D03*
D20*
X689000Y87500D03*
X689000Y77500D03*
D23*
X166760Y55000D03*
X182000Y55000D03*
X197240Y55000D03*
D24*
X725000Y52000D03*
D25*
X735000Y85250D03*
X715000Y85250D03*
D14*
X129500Y382000D03*
X142500Y382000D03*
X326500Y394000D03*
X313500Y394000D03*
X457500Y394000D03*
X444500Y394000D03*
X578500Y94000D03*
X565500Y94000D03*
D13*
X732000Y318500D03*
X732000Y305500D03*
M02*
