G04 EAGLE Gerber RS-274X export*
G75*
%MOMM*%
%FSLAX34Y34*%
%LPD*%
%INSoldermask Bottom*%
%IPPOS*%
%AMOC8*
5,1,8,0,0,1.08239X$1,22.5*%
G01*
%ADD10C,2.082800*%
%ADD11P,2.254402X8X112.500000*%
%ADD12C,3.403200*%
%ADD13C,1.092200*%
%ADD14P,1.979475X8X22.500000*%
%ADD15R,1.412800X1.412800*%
%ADD16P,1.979475X8X202.500000*%
%ADD17C,1.828800*%


D10*
X762000Y25400D03*
X787400Y25400D03*
X812800Y25400D03*
X838200Y25400D03*
X863600Y25400D03*
X889000Y25400D03*
X914400Y25400D03*
X736600Y25400D03*
X711200Y508000D03*
X736600Y508000D03*
X762000Y508000D03*
X787400Y508000D03*
X812800Y508000D03*
X838200Y508000D03*
X863600Y508000D03*
X685800Y508000D03*
X533400Y25400D03*
X558800Y25400D03*
X584200Y25400D03*
X609600Y25400D03*
X635000Y25400D03*
X660400Y25400D03*
X685800Y25400D03*
X508000Y25400D03*
X482600Y508000D03*
X508000Y508000D03*
X533400Y508000D03*
X558800Y508000D03*
X584200Y508000D03*
X609600Y508000D03*
X635000Y508000D03*
X457200Y508000D03*
X264160Y508000D03*
X289560Y508000D03*
X314960Y508000D03*
X340360Y508000D03*
X365760Y508000D03*
X391160Y508000D03*
X416560Y508000D03*
X238760Y508000D03*
D11*
X965200Y304800D03*
X939800Y304800D03*
X965200Y330200D03*
X939800Y330200D03*
X965200Y355600D03*
X939800Y355600D03*
X965200Y381000D03*
X939800Y381000D03*
X965200Y406400D03*
X939800Y406400D03*
X965200Y431800D03*
X939800Y431800D03*
X965200Y457200D03*
X939800Y457200D03*
X965200Y482600D03*
X939800Y482600D03*
X965200Y101600D03*
X939800Y101600D03*
X965200Y127000D03*
X939800Y127000D03*
X965200Y152400D03*
X939800Y152400D03*
X965200Y177800D03*
X939800Y177800D03*
X965200Y203200D03*
X939800Y203200D03*
X965200Y228600D03*
X939800Y228600D03*
X965200Y254000D03*
X939800Y254000D03*
X965200Y279400D03*
X939800Y279400D03*
D10*
X939800Y76200D03*
X965200Y76200D03*
X939800Y508000D03*
X965200Y508000D03*
X330200Y25400D03*
X355600Y25400D03*
X381000Y25400D03*
X406400Y25400D03*
X431800Y25400D03*
X457200Y25400D03*
X213360Y508000D03*
X187960Y508000D03*
X304800Y25400D03*
X279400Y25400D03*
D12*
X152400Y508000D03*
X139700Y25400D03*
X660400Y355600D03*
X660400Y76200D03*
X901700Y508000D03*
X965200Y25400D03*
D13*
X36500Y457014D03*
X36500Y486986D03*
D14*
X51600Y101300D03*
X51600Y126700D03*
X77000Y101300D03*
X77000Y126700D03*
X102400Y101300D03*
X102400Y126700D03*
D15*
X303100Y153100D03*
X226900Y153100D03*
X226900Y76900D03*
X303100Y76900D03*
D16*
X861900Y475700D03*
X861900Y450300D03*
X836500Y475700D03*
X836500Y450300D03*
X811100Y475700D03*
X811100Y450300D03*
X785700Y475700D03*
X785700Y450300D03*
X760300Y475700D03*
X760300Y450300D03*
X734900Y475700D03*
X734900Y450300D03*
X709500Y475700D03*
X709500Y450300D03*
X684100Y475700D03*
X684100Y450300D03*
D17*
X761600Y92128D02*
X761600Y75872D01*
X787000Y75872D02*
X787000Y92128D01*
X812400Y92128D02*
X812400Y75872D01*
M02*
