G04 EAGLE Gerber RS-274X export*
G75*
%MOMM*%
%FSLAX34Y34*%
%LPD*%
%INSoldermask Top*%
%IPPOS*%
%AMOC8*
5,1,8,0,0,1.08239X$1,22.5*%
G01*
%ADD10C,2.082800*%
%ADD11P,2.254402X8X112.500000*%
%ADD12C,3.403200*%
%ADD13R,0.803200X0.803200*%
%ADD14C,1.092200*%
%ADD15R,1.016000X1.193800*%
%ADD16R,1.701800X0.914400*%
%ADD17R,1.103200X0.903200*%
%ADD18R,0.903200X1.103200*%
%ADD19R,0.483200X1.539600*%
%ADD20R,0.750300X1.762000*%
%ADD21R,1.762000X0.750300*%
%ADD22R,1.803000X0.483200*%
%ADD23R,0.483200X1.803000*%
%ADD24R,0.903200X0.803200*%
%ADD25P,1.979475X8X22.500000*%
%ADD26R,1.003200X0.953200*%
%ADD27R,0.803200X0.903200*%
%ADD28R,1.371600X1.803400*%
%ADD29R,1.412800X1.412800*%
%ADD30P,1.979475X8X202.500000*%
%ADD31C,1.828800*%
%ADD32R,1.703200X1.803200*%
%ADD33R,1.403200X1.403200*%


D10*
X762000Y25400D03*
X787400Y25400D03*
X812800Y25400D03*
X838200Y25400D03*
X863600Y25400D03*
X889000Y25400D03*
X914400Y25400D03*
X736600Y25400D03*
X711200Y508000D03*
X736600Y508000D03*
X762000Y508000D03*
X787400Y508000D03*
X812800Y508000D03*
X838200Y508000D03*
X863600Y508000D03*
X685800Y508000D03*
X533400Y25400D03*
X558800Y25400D03*
X584200Y25400D03*
X609600Y25400D03*
X635000Y25400D03*
X660400Y25400D03*
X685800Y25400D03*
X508000Y25400D03*
X482600Y508000D03*
X508000Y508000D03*
X533400Y508000D03*
X558800Y508000D03*
X584200Y508000D03*
X609600Y508000D03*
X635000Y508000D03*
X457200Y508000D03*
X264160Y508000D03*
X289560Y508000D03*
X314960Y508000D03*
X340360Y508000D03*
X365760Y508000D03*
X391160Y508000D03*
X416560Y508000D03*
X238760Y508000D03*
D11*
X965200Y304800D03*
X939800Y304800D03*
X965200Y330200D03*
X939800Y330200D03*
X965200Y355600D03*
X939800Y355600D03*
X965200Y381000D03*
X939800Y381000D03*
X965200Y406400D03*
X939800Y406400D03*
X965200Y431800D03*
X939800Y431800D03*
X965200Y457200D03*
X939800Y457200D03*
X965200Y482600D03*
X939800Y482600D03*
X965200Y101600D03*
X939800Y101600D03*
X965200Y127000D03*
X939800Y127000D03*
X965200Y152400D03*
X939800Y152400D03*
X965200Y177800D03*
X939800Y177800D03*
X965200Y203200D03*
X939800Y203200D03*
X965200Y228600D03*
X939800Y228600D03*
X965200Y254000D03*
X939800Y254000D03*
X965200Y279400D03*
X939800Y279400D03*
D10*
X939800Y76200D03*
X965200Y76200D03*
X939800Y508000D03*
X965200Y508000D03*
X330200Y25400D03*
X355600Y25400D03*
X381000Y25400D03*
X406400Y25400D03*
X431800Y25400D03*
X457200Y25400D03*
X213360Y508000D03*
X187960Y508000D03*
X304800Y25400D03*
X279400Y25400D03*
D12*
X152400Y508000D03*
X139700Y25400D03*
X660400Y355600D03*
X660400Y76200D03*
X901700Y508000D03*
X965200Y25400D03*
D13*
X99550Y30100D03*
X57050Y30100D03*
X57050Y65100D03*
X99550Y65100D03*
D14*
X36500Y457014D03*
X36500Y486986D03*
D15*
X26721Y435551D03*
X46279Y435551D03*
D16*
X53899Y449394D03*
X53899Y464380D03*
X53899Y494352D03*
D15*
X46279Y508449D03*
X26721Y508449D03*
D17*
X27200Y88000D03*
X27200Y75000D03*
D18*
X35500Y300800D03*
X22500Y300800D03*
D19*
X508550Y332894D03*
X503050Y332894D03*
X497550Y332894D03*
X492050Y332894D03*
X486550Y332894D03*
X481050Y332894D03*
X475550Y332894D03*
X470050Y332894D03*
X464550Y332894D03*
X459050Y332894D03*
X453550Y332894D03*
X448050Y332894D03*
X442550Y332894D03*
X437050Y332894D03*
X437050Y203106D03*
X442550Y203106D03*
X448050Y203106D03*
X453550Y203106D03*
X459050Y203106D03*
X464550Y203106D03*
X470050Y203106D03*
X475550Y203106D03*
X481050Y203106D03*
X486550Y203106D03*
X492050Y203106D03*
X497550Y203106D03*
X503050Y203106D03*
X508550Y203106D03*
X373250Y329894D03*
X367750Y329894D03*
X362250Y329894D03*
X356750Y329894D03*
X351250Y329894D03*
X345750Y329894D03*
X340250Y329894D03*
X334750Y329894D03*
X329250Y329894D03*
X323750Y329894D03*
X318250Y329894D03*
X312750Y329894D03*
X307250Y329894D03*
X301750Y329894D03*
X301750Y200106D03*
X307250Y200106D03*
X312750Y200106D03*
X318250Y200106D03*
X323750Y200106D03*
X329250Y200106D03*
X334750Y200106D03*
X340250Y200106D03*
X345750Y200106D03*
X351250Y200106D03*
X356750Y200106D03*
X362250Y200106D03*
X367750Y200106D03*
X373250Y200106D03*
D20*
X871000Y313783D03*
X863000Y313783D03*
X855000Y313783D03*
X847000Y313783D03*
X839000Y313783D03*
X831000Y313783D03*
X823000Y313783D03*
X815000Y313783D03*
X807000Y313783D03*
X799000Y313783D03*
X791000Y313783D03*
D21*
X774217Y297000D03*
X774217Y289000D03*
X774217Y281000D03*
X774217Y273000D03*
X774217Y265000D03*
X774217Y257000D03*
X774217Y249000D03*
X774217Y241000D03*
X774217Y233000D03*
X774217Y225000D03*
X774217Y217000D03*
D20*
X791000Y200217D03*
X799000Y200217D03*
X807000Y200217D03*
X815000Y200217D03*
X823000Y200217D03*
X831000Y200217D03*
X839000Y200217D03*
X847000Y200217D03*
X855000Y200217D03*
X863000Y200217D03*
X871000Y200217D03*
D21*
X887783Y217000D03*
X887783Y225000D03*
X887783Y233000D03*
X887783Y241000D03*
X887783Y249000D03*
X887783Y257000D03*
X887783Y265000D03*
X887783Y273000D03*
X887783Y281000D03*
X887783Y289000D03*
X887783Y297000D03*
D22*
X60687Y330000D03*
X60687Y325000D03*
X60687Y320000D03*
X60687Y315000D03*
X60687Y310000D03*
X60687Y305000D03*
X60687Y300000D03*
X60687Y295000D03*
X60687Y290000D03*
X60687Y285000D03*
X60687Y280000D03*
X60687Y275000D03*
X60687Y270000D03*
X60687Y265000D03*
X60687Y260000D03*
X60687Y255000D03*
X60687Y250000D03*
X60687Y245000D03*
X60687Y240000D03*
X60687Y235000D03*
X60687Y230000D03*
X60687Y225000D03*
X60687Y220000D03*
X60687Y215000D03*
X60687Y210000D03*
D23*
X77500Y193187D03*
X82500Y193187D03*
X87500Y193187D03*
X92500Y193187D03*
X97500Y193187D03*
X102500Y193187D03*
X107500Y193187D03*
X112500Y193187D03*
X117500Y193187D03*
X122500Y193187D03*
X127500Y193187D03*
X132500Y193187D03*
X137500Y193187D03*
X142500Y193187D03*
X147500Y193187D03*
X152500Y193187D03*
X157500Y193187D03*
X162500Y193187D03*
X167500Y193187D03*
X172500Y193187D03*
X177500Y193187D03*
X182500Y193187D03*
X187500Y193187D03*
X192500Y193187D03*
X197500Y193187D03*
D22*
X214313Y210000D03*
X214313Y215000D03*
X214313Y220000D03*
X214313Y225000D03*
X214313Y230000D03*
X214313Y235000D03*
X214313Y240000D03*
X214313Y245000D03*
X214313Y250000D03*
X214313Y255000D03*
X214313Y260000D03*
X214313Y265000D03*
X214313Y270000D03*
X214313Y275000D03*
X214313Y280000D03*
X214313Y285000D03*
X214313Y290000D03*
X214313Y295000D03*
X214313Y300000D03*
X214313Y305000D03*
X214313Y310000D03*
X214313Y315000D03*
X214313Y320000D03*
X214313Y325000D03*
X214313Y330000D03*
D23*
X197500Y346813D03*
X192500Y346813D03*
X187500Y346813D03*
X182500Y346813D03*
X177500Y346813D03*
X172500Y346813D03*
X167500Y346813D03*
X162500Y346813D03*
X157500Y346813D03*
X152500Y346813D03*
X147500Y346813D03*
X142500Y346813D03*
X137500Y346813D03*
X132500Y346813D03*
X127500Y346813D03*
X122500Y346813D03*
X117500Y346813D03*
X112500Y346813D03*
X107500Y346813D03*
X102500Y346813D03*
X97500Y346813D03*
X92500Y346813D03*
X87500Y346813D03*
X82500Y346813D03*
X77500Y346813D03*
D21*
X726783Y131000D03*
X726783Y139000D03*
X726783Y147000D03*
X726783Y155000D03*
X726783Y163000D03*
X726783Y171000D03*
X726783Y179000D03*
X726783Y187000D03*
X726783Y195000D03*
X726783Y203000D03*
X726783Y211000D03*
D20*
X710000Y227783D03*
X702000Y227783D03*
X694000Y227783D03*
X686000Y227783D03*
X678000Y227783D03*
X670000Y227783D03*
X662000Y227783D03*
X654000Y227783D03*
X646000Y227783D03*
X638000Y227783D03*
X630000Y227783D03*
D21*
X613217Y211000D03*
X613217Y203000D03*
X613217Y195000D03*
X613217Y187000D03*
X613217Y179000D03*
X613217Y171000D03*
X613217Y163000D03*
X613217Y155000D03*
X613217Y147000D03*
X613217Y139000D03*
X613217Y131000D03*
D20*
X630000Y114217D03*
X638000Y114217D03*
X646000Y114217D03*
X654000Y114217D03*
X662000Y114217D03*
X670000Y114217D03*
X678000Y114217D03*
X686000Y114217D03*
X694000Y114217D03*
X702000Y114217D03*
X710000Y114217D03*
D24*
X200000Y152000D03*
X200000Y142000D03*
D13*
X53500Y407250D03*
X53500Y364750D03*
X18500Y364750D03*
X18500Y407250D03*
D24*
X123000Y126500D03*
X123000Y136500D03*
D25*
X51600Y101300D03*
X51600Y126700D03*
X77000Y101300D03*
X77000Y126700D03*
X102400Y101300D03*
X102400Y126700D03*
D26*
X109000Y480500D03*
X93000Y480500D03*
X109000Y465500D03*
X93000Y465500D03*
X109000Y450000D03*
X93000Y450000D03*
X108000Y434000D03*
X92000Y434000D03*
X196000Y482000D03*
X212000Y482000D03*
X196000Y466500D03*
X212000Y466500D03*
X196000Y452500D03*
X212000Y452500D03*
D27*
X148500Y470000D03*
X158500Y470000D03*
X148500Y481000D03*
X158500Y481000D03*
X158500Y437000D03*
X148500Y437000D03*
X148500Y426000D03*
X158500Y426000D03*
X158500Y459000D03*
X148500Y459000D03*
X148500Y414500D03*
X158500Y414500D03*
X158500Y448000D03*
X148500Y448000D03*
D24*
X689000Y87500D03*
X689000Y77500D03*
D28*
X166760Y55000D03*
X182000Y55000D03*
X197240Y55000D03*
D29*
X303100Y153100D03*
X226900Y153100D03*
X226900Y76900D03*
X303100Y76900D03*
D30*
X861900Y475700D03*
X861900Y450300D03*
X836500Y475700D03*
X836500Y450300D03*
X811100Y475700D03*
X811100Y450300D03*
X785700Y475700D03*
X785700Y450300D03*
X760300Y475700D03*
X760300Y450300D03*
X734900Y475700D03*
X734900Y450300D03*
X709500Y475700D03*
X709500Y450300D03*
X684100Y475700D03*
X684100Y450300D03*
D31*
X761600Y92128D02*
X761600Y75872D01*
X787000Y75872D02*
X787000Y92128D01*
X812400Y92128D02*
X812400Y75872D01*
D32*
X725000Y52000D03*
D33*
X735000Y85250D03*
X715000Y85250D03*
D18*
X129500Y382000D03*
X142500Y382000D03*
X326500Y394000D03*
X313500Y394000D03*
X457500Y394000D03*
X444500Y394000D03*
X578500Y94000D03*
X565500Y94000D03*
D17*
X732000Y318500D03*
X732000Y305500D03*
M02*
