G04 EAGLE Gerber RS-274X export*
G75*
%MOMM*%
%FSLAX34Y34*%
%LPD*%
%INSolderpaste Top*%
%IPPOS*%
%AMOC8*
5,1,8,0,0,1.08239X$1,22.5*%
G01*
%ADD10R,0.600000X0.600000*%
%ADD11R,0.990600X0.812800*%
%ADD12R,0.711200X1.498600*%
%ADD13R,1.300000X1.500000*%
%ADD14R,0.280000X1.336400*%
%ADD15R,1.558800X0.547100*%
%ADD16R,1.100000X1.000000*%
%ADD17R,0.800000X0.750000*%
%ADD18R,1.000000X1.100000*%
%ADD19R,1.600200X1.168400*%
%ADD20R,1.600000X1.500000*%
%ADD21R,1.200000X1.200000*%
%ADD22R,1.599800X0.280000*%
%ADD23R,1.500000X1.300000*%


D10*
X108900Y213550D03*
X108900Y171050D03*
X73900Y171050D03*
X73900Y213550D03*
D11*
X94449Y36721D03*
X94449Y56279D03*
D12*
X80606Y63899D03*
X65620Y63899D03*
X35648Y63899D03*
D11*
X21551Y56279D03*
X21551Y36721D03*
D13*
G36*
X111425Y351981D02*
X120617Y342789D01*
X110011Y332183D01*
X100819Y341375D01*
X111425Y351981D01*
G37*
G36*
X97989Y365417D02*
X107181Y356225D01*
X96575Y345619D01*
X87383Y354811D01*
X97989Y365417D01*
G37*
G36*
X161425Y396481D02*
X170617Y387289D01*
X160011Y376683D01*
X150819Y385875D01*
X161425Y396481D01*
G37*
G36*
X147989Y409917D02*
X157181Y400725D01*
X146575Y390119D01*
X137383Y399311D01*
X147989Y409917D01*
G37*
D14*
X629140Y419394D03*
X623640Y419394D03*
X618140Y419394D03*
X612640Y419394D03*
X607140Y419394D03*
X601640Y419394D03*
X596140Y419394D03*
X590640Y419394D03*
X585140Y419394D03*
X579640Y419394D03*
X574140Y419394D03*
X568640Y419394D03*
X563140Y419394D03*
X557640Y419394D03*
X557640Y289606D03*
X563140Y289606D03*
X568640Y289606D03*
X574140Y289606D03*
X579640Y289606D03*
X585140Y289606D03*
X590640Y289606D03*
X596140Y289606D03*
X601640Y289606D03*
X607140Y289606D03*
X612640Y289606D03*
X618140Y289606D03*
X623640Y289606D03*
X629140Y289606D03*
X475750Y419394D03*
X470250Y419394D03*
X464750Y419394D03*
X459250Y419394D03*
X453750Y419394D03*
X448250Y419394D03*
X442750Y419394D03*
X437250Y419394D03*
X431750Y419394D03*
X426250Y419394D03*
X420750Y419394D03*
X415250Y419394D03*
X409750Y419394D03*
X404250Y419394D03*
X404250Y289606D03*
X409750Y289606D03*
X415250Y289606D03*
X420750Y289606D03*
X426250Y289606D03*
X431750Y289606D03*
X437250Y289606D03*
X442750Y289606D03*
X448250Y289606D03*
X453750Y289606D03*
X459250Y289606D03*
X464750Y289606D03*
X470250Y289606D03*
X475750Y289606D03*
D15*
G36*
X330009Y142710D02*
X318987Y131688D01*
X315119Y135556D01*
X326141Y146578D01*
X330009Y142710D01*
G37*
G36*
X335666Y137053D02*
X324644Y126031D01*
X320776Y129899D01*
X331798Y140921D01*
X335666Y137053D01*
G37*
G36*
X341323Y131396D02*
X330301Y120374D01*
X326433Y124242D01*
X337455Y135264D01*
X341323Y131396D01*
G37*
G36*
X346980Y125739D02*
X335958Y114717D01*
X332090Y118585D01*
X343112Y129607D01*
X346980Y125739D01*
G37*
G36*
X352637Y120082D02*
X341615Y109060D01*
X337747Y112928D01*
X348769Y123950D01*
X352637Y120082D01*
G37*
G36*
X358293Y114425D02*
X347271Y103403D01*
X343403Y107271D01*
X354425Y118293D01*
X358293Y114425D01*
G37*
G36*
X363950Y108769D02*
X352928Y97747D01*
X349060Y101615D01*
X360082Y112637D01*
X363950Y108769D01*
G37*
G36*
X369607Y103112D02*
X358585Y92090D01*
X354717Y95958D01*
X365739Y106980D01*
X369607Y103112D01*
G37*
G36*
X375264Y97455D02*
X364242Y86433D01*
X360374Y90301D01*
X371396Y101323D01*
X375264Y97455D01*
G37*
G36*
X380921Y91798D02*
X369899Y80776D01*
X366031Y84644D01*
X377053Y95666D01*
X380921Y91798D01*
G37*
G36*
X386578Y86141D02*
X375556Y75119D01*
X371688Y78987D01*
X382710Y90009D01*
X386578Y86141D01*
G37*
G36*
X399290Y90009D02*
X410312Y78987D01*
X406444Y75119D01*
X395422Y86141D01*
X399290Y90009D01*
G37*
G36*
X404947Y95666D02*
X415969Y84644D01*
X412101Y80776D01*
X401079Y91798D01*
X404947Y95666D01*
G37*
G36*
X410604Y101323D02*
X421626Y90301D01*
X417758Y86433D01*
X406736Y97455D01*
X410604Y101323D01*
G37*
G36*
X416261Y106980D02*
X427283Y95958D01*
X423415Y92090D01*
X412393Y103112D01*
X416261Y106980D01*
G37*
G36*
X421918Y112637D02*
X432940Y101615D01*
X429072Y97747D01*
X418050Y108769D01*
X421918Y112637D01*
G37*
G36*
X427575Y118293D02*
X438597Y107271D01*
X434729Y103403D01*
X423707Y114425D01*
X427575Y118293D01*
G37*
G36*
X433231Y123950D02*
X444253Y112928D01*
X440385Y109060D01*
X429363Y120082D01*
X433231Y123950D01*
G37*
G36*
X438888Y129607D02*
X449910Y118585D01*
X446042Y114717D01*
X435020Y125739D01*
X438888Y129607D01*
G37*
G36*
X444545Y135264D02*
X455567Y124242D01*
X451699Y120374D01*
X440677Y131396D01*
X444545Y135264D01*
G37*
G36*
X450202Y140921D02*
X461224Y129899D01*
X457356Y126031D01*
X446334Y137053D01*
X450202Y140921D01*
G37*
G36*
X455859Y146578D02*
X466881Y135556D01*
X463013Y131688D01*
X451991Y142710D01*
X455859Y146578D01*
G37*
G36*
X466881Y166444D02*
X455859Y155422D01*
X451991Y159290D01*
X463013Y170312D01*
X466881Y166444D01*
G37*
G36*
X461224Y172101D02*
X450202Y161079D01*
X446334Y164947D01*
X457356Y175969D01*
X461224Y172101D01*
G37*
G36*
X455567Y177758D02*
X444545Y166736D01*
X440677Y170604D01*
X451699Y181626D01*
X455567Y177758D01*
G37*
G36*
X449910Y183415D02*
X438888Y172393D01*
X435020Y176261D01*
X446042Y187283D01*
X449910Y183415D01*
G37*
G36*
X444253Y189072D02*
X433231Y178050D01*
X429363Y181918D01*
X440385Y192940D01*
X444253Y189072D01*
G37*
G36*
X438597Y194729D02*
X427575Y183707D01*
X423707Y187575D01*
X434729Y198597D01*
X438597Y194729D01*
G37*
G36*
X432940Y200385D02*
X421918Y189363D01*
X418050Y193231D01*
X429072Y204253D01*
X432940Y200385D01*
G37*
G36*
X427283Y206042D02*
X416261Y195020D01*
X412393Y198888D01*
X423415Y209910D01*
X427283Y206042D01*
G37*
G36*
X421626Y211699D02*
X410604Y200677D01*
X406736Y204545D01*
X417758Y215567D01*
X421626Y211699D01*
G37*
G36*
X415969Y217356D02*
X404947Y206334D01*
X401079Y210202D01*
X412101Y221224D01*
X415969Y217356D01*
G37*
G36*
X410312Y223013D02*
X399290Y211991D01*
X395422Y215859D01*
X406444Y226881D01*
X410312Y223013D01*
G37*
G36*
X375556Y226881D02*
X386578Y215859D01*
X382710Y211991D01*
X371688Y223013D01*
X375556Y226881D01*
G37*
G36*
X369899Y221224D02*
X380921Y210202D01*
X377053Y206334D01*
X366031Y217356D01*
X369899Y221224D01*
G37*
G36*
X364242Y215567D02*
X375264Y204545D01*
X371396Y200677D01*
X360374Y211699D01*
X364242Y215567D01*
G37*
G36*
X358585Y209910D02*
X369607Y198888D01*
X365739Y195020D01*
X354717Y206042D01*
X358585Y209910D01*
G37*
G36*
X352928Y204253D02*
X363950Y193231D01*
X360082Y189363D01*
X349060Y200385D01*
X352928Y204253D01*
G37*
G36*
X347271Y198597D02*
X358293Y187575D01*
X354425Y183707D01*
X343403Y194729D01*
X347271Y198597D01*
G37*
G36*
X341615Y192940D02*
X352637Y181918D01*
X348769Y178050D01*
X337747Y189072D01*
X341615Y192940D01*
G37*
G36*
X335958Y187283D02*
X346980Y176261D01*
X343112Y172393D01*
X332090Y183415D01*
X335958Y187283D01*
G37*
G36*
X330301Y181626D02*
X341323Y170604D01*
X337455Y166736D01*
X326433Y177758D01*
X330301Y181626D01*
G37*
G36*
X324644Y175969D02*
X335666Y164947D01*
X331798Y161079D01*
X320776Y172101D01*
X324644Y175969D01*
G37*
G36*
X318987Y170312D02*
X330009Y159290D01*
X326141Y155422D01*
X315119Y166444D01*
X318987Y170312D01*
G37*
G36*
X589290Y124009D02*
X600312Y112987D01*
X596444Y109119D01*
X585422Y120141D01*
X589290Y124009D01*
G37*
G36*
X594947Y129666D02*
X605969Y118644D01*
X602101Y114776D01*
X591079Y125798D01*
X594947Y129666D01*
G37*
G36*
X600604Y135323D02*
X611626Y124301D01*
X607758Y120433D01*
X596736Y131455D01*
X600604Y135323D01*
G37*
G36*
X606261Y140980D02*
X617283Y129958D01*
X613415Y126090D01*
X602393Y137112D01*
X606261Y140980D01*
G37*
G36*
X611918Y146637D02*
X622940Y135615D01*
X619072Y131747D01*
X608050Y142769D01*
X611918Y146637D01*
G37*
G36*
X617575Y152293D02*
X628597Y141271D01*
X624729Y137403D01*
X613707Y148425D01*
X617575Y152293D01*
G37*
G36*
X623231Y157950D02*
X634253Y146928D01*
X630385Y143060D01*
X619363Y154082D01*
X623231Y157950D01*
G37*
G36*
X628888Y163607D02*
X639910Y152585D01*
X636042Y148717D01*
X625020Y159739D01*
X628888Y163607D01*
G37*
G36*
X634545Y169264D02*
X645567Y158242D01*
X641699Y154374D01*
X630677Y165396D01*
X634545Y169264D01*
G37*
G36*
X640202Y174921D02*
X651224Y163899D01*
X647356Y160031D01*
X636334Y171053D01*
X640202Y174921D01*
G37*
G36*
X645859Y180578D02*
X656881Y169556D01*
X653013Y165688D01*
X641991Y176710D01*
X645859Y180578D01*
G37*
G36*
X641991Y193290D02*
X653013Y204312D01*
X656881Y200444D01*
X645859Y189422D01*
X641991Y193290D01*
G37*
G36*
X636334Y198947D02*
X647356Y209969D01*
X651224Y206101D01*
X640202Y195079D01*
X636334Y198947D01*
G37*
G36*
X630677Y204604D02*
X641699Y215626D01*
X645567Y211758D01*
X634545Y200736D01*
X630677Y204604D01*
G37*
G36*
X625020Y210261D02*
X636042Y221283D01*
X639910Y217415D01*
X628888Y206393D01*
X625020Y210261D01*
G37*
G36*
X619363Y215918D02*
X630385Y226940D01*
X634253Y223072D01*
X623231Y212050D01*
X619363Y215918D01*
G37*
G36*
X613707Y221575D02*
X624729Y232597D01*
X628597Y228729D01*
X617575Y217707D01*
X613707Y221575D01*
G37*
G36*
X608050Y227231D02*
X619072Y238253D01*
X622940Y234385D01*
X611918Y223363D01*
X608050Y227231D01*
G37*
G36*
X602393Y232888D02*
X613415Y243910D01*
X617283Y240042D01*
X606261Y229020D01*
X602393Y232888D01*
G37*
G36*
X596736Y238545D02*
X607758Y249567D01*
X611626Y245699D01*
X600604Y234677D01*
X596736Y238545D01*
G37*
G36*
X591079Y244202D02*
X602101Y255224D01*
X605969Y251356D01*
X594947Y240334D01*
X591079Y244202D01*
G37*
G36*
X585422Y249859D02*
X596444Y260881D01*
X600312Y257013D01*
X589290Y245991D01*
X585422Y249859D01*
G37*
G36*
X565556Y260881D02*
X576578Y249859D01*
X572710Y245991D01*
X561688Y257013D01*
X565556Y260881D01*
G37*
G36*
X559899Y255224D02*
X570921Y244202D01*
X567053Y240334D01*
X556031Y251356D01*
X559899Y255224D01*
G37*
G36*
X554242Y249567D02*
X565264Y238545D01*
X561396Y234677D01*
X550374Y245699D01*
X554242Y249567D01*
G37*
G36*
X548585Y243910D02*
X559607Y232888D01*
X555739Y229020D01*
X544717Y240042D01*
X548585Y243910D01*
G37*
G36*
X542928Y238253D02*
X553950Y227231D01*
X550082Y223363D01*
X539060Y234385D01*
X542928Y238253D01*
G37*
G36*
X537271Y232597D02*
X548293Y221575D01*
X544425Y217707D01*
X533403Y228729D01*
X537271Y232597D01*
G37*
G36*
X531615Y226940D02*
X542637Y215918D01*
X538769Y212050D01*
X527747Y223072D01*
X531615Y226940D01*
G37*
G36*
X525958Y221283D02*
X536980Y210261D01*
X533112Y206393D01*
X522090Y217415D01*
X525958Y221283D01*
G37*
G36*
X520301Y215626D02*
X531323Y204604D01*
X527455Y200736D01*
X516433Y211758D01*
X520301Y215626D01*
G37*
G36*
X514644Y209969D02*
X525666Y198947D01*
X521798Y195079D01*
X510776Y206101D01*
X514644Y209969D01*
G37*
G36*
X508987Y204312D02*
X520009Y193290D01*
X516141Y189422D01*
X505119Y200444D01*
X508987Y204312D01*
G37*
G36*
X505119Y169556D02*
X516141Y180578D01*
X520009Y176710D01*
X508987Y165688D01*
X505119Y169556D01*
G37*
G36*
X510776Y163899D02*
X521798Y174921D01*
X525666Y171053D01*
X514644Y160031D01*
X510776Y163899D01*
G37*
G36*
X516433Y158242D02*
X527455Y169264D01*
X531323Y165396D01*
X520301Y154374D01*
X516433Y158242D01*
G37*
G36*
X522090Y152585D02*
X533112Y163607D01*
X536980Y159739D01*
X525958Y148717D01*
X522090Y152585D01*
G37*
G36*
X527747Y146928D02*
X538769Y157950D01*
X542637Y154082D01*
X531615Y143060D01*
X527747Y146928D01*
G37*
G36*
X533403Y141271D02*
X544425Y152293D01*
X548293Y148425D01*
X537271Y137403D01*
X533403Y141271D01*
G37*
G36*
X539060Y135615D02*
X550082Y146637D01*
X553950Y142769D01*
X542928Y131747D01*
X539060Y135615D01*
G37*
G36*
X544717Y129958D02*
X555739Y140980D01*
X559607Y137112D01*
X548585Y126090D01*
X544717Y129958D01*
G37*
G36*
X550374Y124301D02*
X561396Y135323D01*
X565264Y131455D01*
X554242Y120433D01*
X550374Y124301D01*
G37*
G36*
X556031Y118644D02*
X567053Y129666D01*
X570921Y125798D01*
X559899Y114776D01*
X556031Y118644D01*
G37*
G36*
X561688Y112987D02*
X572710Y124009D01*
X576578Y120141D01*
X565556Y109119D01*
X561688Y112987D01*
G37*
D10*
X223500Y62250D03*
X223500Y19750D03*
X188500Y19750D03*
X188500Y62250D03*
D16*
X157500Y441000D03*
X157500Y458000D03*
D17*
X33000Y212500D03*
X17000Y212500D03*
X33500Y248000D03*
X17500Y248000D03*
X33500Y353500D03*
X17500Y353500D03*
X33500Y318500D03*
X17500Y318500D03*
X33500Y283000D03*
X17500Y283000D03*
X33500Y388500D03*
X17500Y388500D03*
X33500Y423500D03*
X17500Y423500D03*
D18*
X17000Y406000D03*
X34000Y406000D03*
X17000Y371000D03*
X34000Y371000D03*
X16500Y195000D03*
X33500Y195000D03*
X16500Y230214D03*
X33500Y230214D03*
X17000Y265500D03*
X34000Y265500D03*
X17000Y300619D03*
X34000Y300619D03*
X17000Y336095D03*
X34000Y336095D03*
G36*
X526586Y115863D02*
X533657Y122934D01*
X541434Y115157D01*
X534363Y108086D01*
X526586Y115863D01*
G37*
G36*
X514566Y103843D02*
X521637Y110914D01*
X529414Y103137D01*
X522343Y96066D01*
X514566Y103843D01*
G37*
D19*
X27500Y516740D03*
X27500Y501500D03*
X27500Y486260D03*
D20*
X660000Y474000D03*
D21*
X626750Y484000D03*
X626750Y464000D03*
D13*
G36*
X245301Y393075D02*
X236109Y383883D01*
X225503Y394489D01*
X234695Y403681D01*
X245301Y393075D01*
G37*
G36*
X258736Y406511D02*
X249544Y397319D01*
X238938Y407925D01*
X248130Y417117D01*
X258736Y406511D01*
G37*
G36*
X310181Y331575D02*
X300989Y322383D01*
X290383Y332989D01*
X299575Y342181D01*
X310181Y331575D01*
G37*
G36*
X323617Y345011D02*
X314425Y335819D01*
X303819Y346425D01*
X313011Y355617D01*
X323617Y345011D01*
G37*
G36*
X92319Y247425D02*
X101511Y256617D01*
X112117Y246011D01*
X102925Y236819D01*
X92319Y247425D01*
G37*
G36*
X78883Y233989D02*
X88075Y243181D01*
X98681Y232575D01*
X89489Y223383D01*
X78883Y233989D01*
G37*
G36*
X156819Y182425D02*
X166011Y191617D01*
X176617Y181011D01*
X167425Y171819D01*
X156819Y182425D01*
G37*
G36*
X143383Y168989D02*
X152575Y178181D01*
X163181Y167575D01*
X153989Y158383D01*
X143383Y168989D01*
G37*
X42500Y466000D03*
X23500Y466000D03*
D22*
G36*
X111071Y281563D02*
X99759Y270251D01*
X97779Y272231D01*
X109091Y283543D01*
X111071Y281563D01*
G37*
G36*
X114607Y278028D02*
X103295Y266716D01*
X101315Y268696D01*
X112627Y280008D01*
X114607Y278028D01*
G37*
G36*
X118142Y274492D02*
X106830Y263180D01*
X104850Y265160D01*
X116162Y276472D01*
X118142Y274492D01*
G37*
G36*
X121678Y270956D02*
X110366Y259644D01*
X108386Y261624D01*
X119698Y272936D01*
X121678Y270956D01*
G37*
G36*
X125213Y267421D02*
X113901Y256109D01*
X111921Y258089D01*
X123233Y269401D01*
X125213Y267421D01*
G37*
G36*
X128749Y263885D02*
X117437Y252573D01*
X115457Y254553D01*
X126769Y265865D01*
X128749Y263885D01*
G37*
G36*
X132284Y260350D02*
X120972Y249038D01*
X118992Y251018D01*
X130304Y262330D01*
X132284Y260350D01*
G37*
G36*
X135820Y256814D02*
X124508Y245502D01*
X122528Y247482D01*
X133840Y258794D01*
X135820Y256814D01*
G37*
G36*
X139355Y253279D02*
X128043Y241967D01*
X126063Y243947D01*
X137375Y255259D01*
X139355Y253279D01*
G37*
G36*
X142891Y249743D02*
X131579Y238431D01*
X129599Y240411D01*
X140911Y251723D01*
X142891Y249743D01*
G37*
G36*
X146427Y246208D02*
X135115Y234896D01*
X133135Y236876D01*
X144447Y248188D01*
X146427Y246208D01*
G37*
G36*
X149962Y242672D02*
X138650Y231360D01*
X136670Y233340D01*
X147982Y244652D01*
X149962Y242672D01*
G37*
G36*
X153498Y239137D02*
X142186Y227825D01*
X140206Y229805D01*
X151518Y241117D01*
X153498Y239137D01*
G37*
G36*
X157033Y235601D02*
X145721Y224289D01*
X143741Y226269D01*
X155053Y237581D01*
X157033Y235601D01*
G37*
G36*
X160569Y232066D02*
X149257Y220754D01*
X147277Y222734D01*
X158589Y234046D01*
X160569Y232066D01*
G37*
G36*
X164104Y228530D02*
X152792Y217218D01*
X150812Y219198D01*
X162124Y230510D01*
X164104Y228530D01*
G37*
G36*
X167640Y224995D02*
X156328Y213683D01*
X154348Y215663D01*
X165660Y226975D01*
X167640Y224995D01*
G37*
G36*
X171175Y221459D02*
X159863Y210147D01*
X157883Y212127D01*
X169195Y223439D01*
X171175Y221459D01*
G37*
G36*
X174711Y217923D02*
X163399Y206611D01*
X161419Y208591D01*
X172731Y219903D01*
X174711Y217923D01*
G37*
G36*
X178246Y214388D02*
X166934Y203076D01*
X164954Y205056D01*
X176266Y216368D01*
X178246Y214388D01*
G37*
G36*
X181782Y210852D02*
X170470Y199540D01*
X168490Y201520D01*
X179802Y212832D01*
X181782Y210852D01*
G37*
G36*
X185317Y207317D02*
X174005Y196005D01*
X172025Y197985D01*
X183337Y209297D01*
X185317Y207317D01*
G37*
G36*
X188853Y203781D02*
X177541Y192469D01*
X175561Y194449D01*
X186873Y205761D01*
X188853Y203781D01*
G37*
G36*
X192388Y200246D02*
X181076Y188934D01*
X179096Y190914D01*
X190408Y202226D01*
X192388Y200246D01*
G37*
G36*
X195924Y196710D02*
X184612Y185398D01*
X182632Y187378D01*
X193944Y198690D01*
X195924Y196710D01*
G37*
G36*
X208389Y198690D02*
X219701Y187378D01*
X217721Y185398D01*
X206409Y196710D01*
X208389Y198690D01*
G37*
G36*
X211925Y202226D02*
X223237Y190914D01*
X221257Y188934D01*
X209945Y200246D01*
X211925Y202226D01*
G37*
G36*
X215460Y205761D02*
X226772Y194449D01*
X224792Y192469D01*
X213480Y203781D01*
X215460Y205761D01*
G37*
G36*
X218996Y209297D02*
X230308Y197985D01*
X228328Y196005D01*
X217016Y207317D01*
X218996Y209297D01*
G37*
G36*
X222531Y212832D02*
X233843Y201520D01*
X231863Y199540D01*
X220551Y210852D01*
X222531Y212832D01*
G37*
G36*
X226067Y216368D02*
X237379Y205056D01*
X235399Y203076D01*
X224087Y214388D01*
X226067Y216368D01*
G37*
G36*
X229602Y219903D02*
X240914Y208591D01*
X238934Y206611D01*
X227622Y217923D01*
X229602Y219903D01*
G37*
G36*
X233138Y223439D02*
X244450Y212127D01*
X242470Y210147D01*
X231158Y221459D01*
X233138Y223439D01*
G37*
G36*
X236673Y226975D02*
X247985Y215663D01*
X246005Y213683D01*
X234693Y224995D01*
X236673Y226975D01*
G37*
G36*
X240209Y230510D02*
X251521Y219198D01*
X249541Y217218D01*
X238229Y228530D01*
X240209Y230510D01*
G37*
G36*
X243745Y234046D02*
X255057Y222734D01*
X253077Y220754D01*
X241765Y232066D01*
X243745Y234046D01*
G37*
G36*
X247280Y237581D02*
X258592Y226269D01*
X256612Y224289D01*
X245300Y235601D01*
X247280Y237581D01*
G37*
G36*
X250816Y241117D02*
X262128Y229805D01*
X260148Y227825D01*
X248836Y239137D01*
X250816Y241117D01*
G37*
G36*
X254351Y244652D02*
X265663Y233340D01*
X263683Y231360D01*
X252371Y242672D01*
X254351Y244652D01*
G37*
G36*
X257887Y248188D02*
X269199Y236876D01*
X267219Y234896D01*
X255907Y246208D01*
X257887Y248188D01*
G37*
G36*
X261422Y251723D02*
X272734Y240411D01*
X270754Y238431D01*
X259442Y249743D01*
X261422Y251723D01*
G37*
G36*
X264958Y255259D02*
X276270Y243947D01*
X274290Y241967D01*
X262978Y253279D01*
X264958Y255259D01*
G37*
G36*
X268493Y258794D02*
X279805Y247482D01*
X277825Y245502D01*
X266513Y256814D01*
X268493Y258794D01*
G37*
G36*
X272029Y262330D02*
X283341Y251018D01*
X281361Y249038D01*
X270049Y260350D01*
X272029Y262330D01*
G37*
G36*
X275564Y265865D02*
X286876Y254553D01*
X284896Y252573D01*
X273584Y263885D01*
X275564Y265865D01*
G37*
G36*
X279100Y269401D02*
X290412Y258089D01*
X288432Y256109D01*
X277120Y267421D01*
X279100Y269401D01*
G37*
G36*
X282635Y272936D02*
X293947Y261624D01*
X291967Y259644D01*
X280655Y270956D01*
X282635Y272936D01*
G37*
G36*
X286171Y276472D02*
X297483Y265160D01*
X295503Y263180D01*
X284191Y274492D01*
X286171Y276472D01*
G37*
G36*
X289706Y280008D02*
X301018Y268696D01*
X299038Y266716D01*
X287726Y278028D01*
X289706Y280008D01*
G37*
G36*
X293242Y283543D02*
X304554Y272231D01*
X302574Y270251D01*
X291262Y281563D01*
X293242Y283543D01*
G37*
G36*
X304554Y305340D02*
X293242Y294028D01*
X291262Y296008D01*
X302574Y307320D01*
X304554Y305340D01*
G37*
G36*
X301018Y308876D02*
X289706Y297564D01*
X287726Y299544D01*
X299038Y310856D01*
X301018Y308876D01*
G37*
G36*
X297483Y312411D02*
X286171Y301099D01*
X284191Y303079D01*
X295503Y314391D01*
X297483Y312411D01*
G37*
G36*
X293947Y315947D02*
X282635Y304635D01*
X280655Y306615D01*
X291967Y317927D01*
X293947Y315947D01*
G37*
G36*
X290412Y319482D02*
X279100Y308170D01*
X277120Y310150D01*
X288432Y321462D01*
X290412Y319482D01*
G37*
G36*
X286876Y323018D02*
X275564Y311706D01*
X273584Y313686D01*
X284896Y324998D01*
X286876Y323018D01*
G37*
G36*
X283341Y326553D02*
X272029Y315241D01*
X270049Y317221D01*
X281361Y328533D01*
X283341Y326553D01*
G37*
G36*
X279805Y330089D02*
X268493Y318777D01*
X266513Y320757D01*
X277825Y332069D01*
X279805Y330089D01*
G37*
G36*
X276270Y333625D02*
X264958Y322313D01*
X262978Y324293D01*
X274290Y335605D01*
X276270Y333625D01*
G37*
G36*
X272734Y337160D02*
X261422Y325848D01*
X259442Y327828D01*
X270754Y339140D01*
X272734Y337160D01*
G37*
G36*
X269199Y340696D02*
X257887Y329384D01*
X255907Y331364D01*
X267219Y342676D01*
X269199Y340696D01*
G37*
G36*
X265663Y344231D02*
X254351Y332919D01*
X252371Y334899D01*
X263683Y346211D01*
X265663Y344231D01*
G37*
G36*
X262128Y347767D02*
X250816Y336455D01*
X248836Y338435D01*
X260148Y349747D01*
X262128Y347767D01*
G37*
G36*
X258592Y351302D02*
X247280Y339990D01*
X245300Y341970D01*
X256612Y353282D01*
X258592Y351302D01*
G37*
G36*
X255057Y354838D02*
X243745Y343526D01*
X241765Y345506D01*
X253077Y356818D01*
X255057Y354838D01*
G37*
G36*
X251521Y358373D02*
X240209Y347061D01*
X238229Y349041D01*
X249541Y360353D01*
X251521Y358373D01*
G37*
G36*
X247985Y361909D02*
X236673Y350597D01*
X234693Y352577D01*
X246005Y363889D01*
X247985Y361909D01*
G37*
G36*
X244450Y365444D02*
X233138Y354132D01*
X231158Y356112D01*
X242470Y367424D01*
X244450Y365444D01*
G37*
G36*
X240914Y368980D02*
X229602Y357668D01*
X227622Y359648D01*
X238934Y370960D01*
X240914Y368980D01*
G37*
G36*
X237379Y372515D02*
X226067Y361203D01*
X224087Y363183D01*
X235399Y374495D01*
X237379Y372515D01*
G37*
G36*
X233843Y376051D02*
X222531Y364739D01*
X220551Y366719D01*
X231863Y378031D01*
X233843Y376051D01*
G37*
G36*
X230308Y379586D02*
X218996Y368274D01*
X217016Y370254D01*
X228328Y381566D01*
X230308Y379586D01*
G37*
G36*
X226772Y383122D02*
X215460Y371810D01*
X213480Y373790D01*
X224792Y385102D01*
X226772Y383122D01*
G37*
G36*
X223237Y386658D02*
X211925Y375346D01*
X209945Y377326D01*
X221257Y388638D01*
X223237Y386658D01*
G37*
G36*
X219701Y390193D02*
X208389Y378881D01*
X206409Y380861D01*
X217721Y392173D01*
X219701Y390193D01*
G37*
G36*
X184612Y392173D02*
X195924Y380861D01*
X193944Y378881D01*
X182632Y390193D01*
X184612Y392173D01*
G37*
G36*
X181076Y388638D02*
X192388Y377326D01*
X190408Y375346D01*
X179096Y386658D01*
X181076Y388638D01*
G37*
G36*
X177541Y385102D02*
X188853Y373790D01*
X186873Y371810D01*
X175561Y383122D01*
X177541Y385102D01*
G37*
G36*
X174005Y381566D02*
X185317Y370254D01*
X183337Y368274D01*
X172025Y379586D01*
X174005Y381566D01*
G37*
G36*
X170470Y378031D02*
X181782Y366719D01*
X179802Y364739D01*
X168490Y376051D01*
X170470Y378031D01*
G37*
G36*
X166934Y374495D02*
X178246Y363183D01*
X176266Y361203D01*
X164954Y372515D01*
X166934Y374495D01*
G37*
G36*
X163399Y370960D02*
X174711Y359648D01*
X172731Y357668D01*
X161419Y368980D01*
X163399Y370960D01*
G37*
G36*
X159863Y367424D02*
X171175Y356112D01*
X169195Y354132D01*
X157883Y365444D01*
X159863Y367424D01*
G37*
G36*
X156328Y363889D02*
X167640Y352577D01*
X165660Y350597D01*
X154348Y361909D01*
X156328Y363889D01*
G37*
G36*
X152792Y360353D02*
X164104Y349041D01*
X162124Y347061D01*
X150812Y358373D01*
X152792Y360353D01*
G37*
G36*
X149257Y356818D02*
X160569Y345506D01*
X158589Y343526D01*
X147277Y354838D01*
X149257Y356818D01*
G37*
G36*
X145721Y353282D02*
X157033Y341970D01*
X155053Y339990D01*
X143741Y351302D01*
X145721Y353282D01*
G37*
G36*
X142186Y349747D02*
X153498Y338435D01*
X151518Y336455D01*
X140206Y347767D01*
X142186Y349747D01*
G37*
G36*
X138650Y346211D02*
X149962Y334899D01*
X147982Y332919D01*
X136670Y344231D01*
X138650Y346211D01*
G37*
G36*
X135115Y342676D02*
X146427Y331364D01*
X144447Y329384D01*
X133135Y340696D01*
X135115Y342676D01*
G37*
G36*
X131579Y339140D02*
X142891Y327828D01*
X140911Y325848D01*
X129599Y337160D01*
X131579Y339140D01*
G37*
G36*
X128043Y335605D02*
X139355Y324293D01*
X137375Y322313D01*
X126063Y333625D01*
X128043Y335605D01*
G37*
G36*
X124508Y332069D02*
X135820Y320757D01*
X133840Y318777D01*
X122528Y330089D01*
X124508Y332069D01*
G37*
G36*
X120972Y328533D02*
X132284Y317221D01*
X130304Y315241D01*
X118992Y326553D01*
X120972Y328533D01*
G37*
G36*
X117437Y324998D02*
X128749Y313686D01*
X126769Y311706D01*
X115457Y323018D01*
X117437Y324998D01*
G37*
G36*
X113901Y321462D02*
X125213Y310150D01*
X123233Y308170D01*
X111921Y319482D01*
X113901Y321462D01*
G37*
G36*
X110366Y317927D02*
X121678Y306615D01*
X119698Y304635D01*
X108386Y315947D01*
X110366Y317927D01*
G37*
G36*
X106830Y314391D02*
X118142Y303079D01*
X116162Y301099D01*
X104850Y312411D01*
X106830Y314391D01*
G37*
G36*
X103295Y310856D02*
X114607Y299544D01*
X112627Y297564D01*
X101315Y308876D01*
X103295Y310856D01*
G37*
G36*
X99759Y307320D02*
X111071Y296008D01*
X109091Y294028D01*
X97779Y305340D01*
X99759Y307320D01*
G37*
D13*
G36*
X227575Y166819D02*
X218383Y176011D01*
X228989Y186617D01*
X238181Y177425D01*
X227575Y166819D01*
G37*
G36*
X241011Y153383D02*
X231819Y162575D01*
X242425Y173181D01*
X251617Y163989D01*
X241011Y153383D01*
G37*
G36*
X311181Y244075D02*
X301989Y234883D01*
X291383Y245489D01*
X300575Y254681D01*
X311181Y244075D01*
G37*
G36*
X324617Y257511D02*
X315425Y248319D01*
X304819Y258925D01*
X314011Y268117D01*
X324617Y257511D01*
G37*
G36*
X314075Y283819D02*
X304883Y293011D01*
X315489Y303617D01*
X324681Y294425D01*
X314075Y283819D01*
G37*
G36*
X327511Y270383D02*
X318319Y279575D01*
X328925Y290181D01*
X338117Y280989D01*
X327511Y270383D01*
G37*
G36*
X90925Y297181D02*
X100117Y287989D01*
X89511Y277383D01*
X80319Y286575D01*
X90925Y297181D01*
G37*
G36*
X77489Y310617D02*
X86681Y301425D01*
X76075Y290819D01*
X66883Y300011D01*
X77489Y310617D01*
G37*
G36*
X436575Y72319D02*
X427383Y81511D01*
X437989Y92117D01*
X447181Y82925D01*
X436575Y72319D01*
G37*
G36*
X450011Y58883D02*
X440819Y68075D01*
X451425Y78681D01*
X460617Y69489D01*
X450011Y58883D01*
G37*
G36*
X506925Y235681D02*
X516117Y226489D01*
X505511Y215883D01*
X496319Y225075D01*
X506925Y235681D01*
G37*
G36*
X493489Y249117D02*
X502681Y239925D01*
X492075Y229319D01*
X482883Y238511D01*
X493489Y249117D01*
G37*
G36*
X618575Y101819D02*
X609383Y111011D01*
X619989Y121617D01*
X629181Y112425D01*
X618575Y101819D01*
G37*
G36*
X632011Y88383D02*
X622819Y97575D01*
X633425Y108181D01*
X642617Y98989D01*
X632011Y88383D01*
G37*
D23*
X596500Y441000D03*
X596500Y460000D03*
X444000Y441500D03*
X444000Y460500D03*
M02*
